%TF.GenerationSoftware,KiCad,Pcbnew,7.0.5*%
%TF.CreationDate,2023-07-07T07:55:25+07:00*%
%TF.ProjectId,THUC_TAPP,54485543-5f54-4415-9050-2e6b69636164,rev?*%
%TF.SameCoordinates,Original*%
%TF.FileFunction,Other,Comment*%
%FSLAX46Y46*%
G04 Gerber Fmt 4.6, Leading zero omitted, Abs format (unit mm)*
G04 Created by KiCad (PCBNEW 7.0.5) date 2023-07-07 07:55:25*
%MOMM*%
%LPD*%
G01*
G04 APERTURE LIST*
%ADD10C,0.150000*%
%ADD11C,1.250000*%
%ADD12C,0.500000*%
G04 APERTURE END LIST*
D10*
X20460000Y-48350000D02*
X77940000Y-48350000D01*
X77940000Y-77530000D01*
X20460000Y-77530000D01*
X20460000Y-48350000D01*
D11*
X97398558Y-61133095D02*
X100255701Y-61133095D01*
X98827129Y-66133095D02*
X98827129Y-61133095D01*
X102636653Y-66133095D02*
X102160463Y-65895000D01*
X102160463Y-65895000D02*
X101922368Y-65656904D01*
X101922368Y-65656904D02*
X101684272Y-65180714D01*
X101684272Y-65180714D02*
X101684272Y-63752142D01*
X101684272Y-63752142D02*
X101922368Y-63275952D01*
X101922368Y-63275952D02*
X102160463Y-63037857D01*
X102160463Y-63037857D02*
X102636653Y-62799761D01*
X102636653Y-62799761D02*
X103350939Y-62799761D01*
X103350939Y-62799761D02*
X103827130Y-63037857D01*
X103827130Y-63037857D02*
X104065225Y-63275952D01*
X104065225Y-63275952D02*
X104303320Y-63752142D01*
X104303320Y-63752142D02*
X104303320Y-65180714D01*
X104303320Y-65180714D02*
X104065225Y-65656904D01*
X104065225Y-65656904D02*
X103827130Y-65895000D01*
X103827130Y-65895000D02*
X103350939Y-66133095D01*
X103350939Y-66133095D02*
X102636653Y-66133095D01*
X106446178Y-62799761D02*
X106446178Y-67799761D01*
X106446178Y-63037857D02*
X106922368Y-62799761D01*
X106922368Y-62799761D02*
X107874749Y-62799761D01*
X107874749Y-62799761D02*
X108350940Y-63037857D01*
X108350940Y-63037857D02*
X108589035Y-63275952D01*
X108589035Y-63275952D02*
X108827130Y-63752142D01*
X108827130Y-63752142D02*
X108827130Y-65180714D01*
X108827130Y-65180714D02*
X108589035Y-65656904D01*
X108589035Y-65656904D02*
X108350940Y-65895000D01*
X108350940Y-65895000D02*
X107874749Y-66133095D01*
X107874749Y-66133095D02*
X106922368Y-66133095D01*
X106922368Y-66133095D02*
X106446178Y-65895000D01*
X114541416Y-65895000D02*
X115255702Y-66133095D01*
X115255702Y-66133095D02*
X116446178Y-66133095D01*
X116446178Y-66133095D02*
X116922369Y-65895000D01*
X116922369Y-65895000D02*
X117160464Y-65656904D01*
X117160464Y-65656904D02*
X117398559Y-65180714D01*
X117398559Y-65180714D02*
X117398559Y-64704523D01*
X117398559Y-64704523D02*
X117160464Y-64228333D01*
X117160464Y-64228333D02*
X116922369Y-63990238D01*
X116922369Y-63990238D02*
X116446178Y-63752142D01*
X116446178Y-63752142D02*
X115493797Y-63514047D01*
X115493797Y-63514047D02*
X115017607Y-63275952D01*
X115017607Y-63275952D02*
X114779512Y-63037857D01*
X114779512Y-63037857D02*
X114541416Y-62561666D01*
X114541416Y-62561666D02*
X114541416Y-62085476D01*
X114541416Y-62085476D02*
X114779512Y-61609285D01*
X114779512Y-61609285D02*
X115017607Y-61371190D01*
X115017607Y-61371190D02*
X115493797Y-61133095D01*
X115493797Y-61133095D02*
X116684274Y-61133095D01*
X116684274Y-61133095D02*
X117398559Y-61371190D01*
X119541417Y-66133095D02*
X119541417Y-62799761D01*
X119541417Y-61133095D02*
X119303321Y-61371190D01*
X119303321Y-61371190D02*
X119541417Y-61609285D01*
X119541417Y-61609285D02*
X119779512Y-61371190D01*
X119779512Y-61371190D02*
X119541417Y-61133095D01*
X119541417Y-61133095D02*
X119541417Y-61609285D01*
X122636654Y-66133095D02*
X122160464Y-65895000D01*
X122160464Y-65895000D02*
X121922369Y-65418809D01*
X121922369Y-65418809D02*
X121922369Y-61133095D01*
X124541417Y-66133095D02*
X124541417Y-61133095D01*
X125017607Y-64228333D02*
X126446179Y-66133095D01*
X126446179Y-62799761D02*
X124541417Y-64704523D01*
X128350940Y-65895000D02*
X128827131Y-66133095D01*
X128827131Y-66133095D02*
X129779512Y-66133095D01*
X129779512Y-66133095D02*
X130255702Y-65895000D01*
X130255702Y-65895000D02*
X130493798Y-65418809D01*
X130493798Y-65418809D02*
X130493798Y-65180714D01*
X130493798Y-65180714D02*
X130255702Y-64704523D01*
X130255702Y-64704523D02*
X129779512Y-64466428D01*
X129779512Y-64466428D02*
X129065226Y-64466428D01*
X129065226Y-64466428D02*
X128589036Y-64228333D01*
X128589036Y-64228333D02*
X128350940Y-63752142D01*
X128350940Y-63752142D02*
X128350940Y-63514047D01*
X128350940Y-63514047D02*
X128589036Y-63037857D01*
X128589036Y-63037857D02*
X129065226Y-62799761D01*
X129065226Y-62799761D02*
X129779512Y-62799761D01*
X129779512Y-62799761D02*
X130255702Y-63037857D01*
X134779512Y-65895000D02*
X134303321Y-66133095D01*
X134303321Y-66133095D02*
X133350940Y-66133095D01*
X133350940Y-66133095D02*
X132874750Y-65895000D01*
X132874750Y-65895000D02*
X132636655Y-65656904D01*
X132636655Y-65656904D02*
X132398559Y-65180714D01*
X132398559Y-65180714D02*
X132398559Y-63752142D01*
X132398559Y-63752142D02*
X132636655Y-63275952D01*
X132636655Y-63275952D02*
X132874750Y-63037857D01*
X132874750Y-63037857D02*
X133350940Y-62799761D01*
X133350940Y-62799761D02*
X134303321Y-62799761D01*
X134303321Y-62799761D02*
X134779512Y-63037857D01*
X136922369Y-66133095D02*
X136922369Y-62799761D01*
X136922369Y-63752142D02*
X137160464Y-63275952D01*
X137160464Y-63275952D02*
X137398559Y-63037857D01*
X137398559Y-63037857D02*
X137874750Y-62799761D01*
X137874750Y-62799761D02*
X138350940Y-62799761D01*
X141922369Y-65895000D02*
X141446178Y-66133095D01*
X141446178Y-66133095D02*
X140493797Y-66133095D01*
X140493797Y-66133095D02*
X140017607Y-65895000D01*
X140017607Y-65895000D02*
X139779511Y-65418809D01*
X139779511Y-65418809D02*
X139779511Y-63514047D01*
X139779511Y-63514047D02*
X140017607Y-63037857D01*
X140017607Y-63037857D02*
X140493797Y-62799761D01*
X140493797Y-62799761D02*
X141446178Y-62799761D01*
X141446178Y-62799761D02*
X141922369Y-63037857D01*
X141922369Y-63037857D02*
X142160464Y-63514047D01*
X142160464Y-63514047D02*
X142160464Y-63990238D01*
X142160464Y-63990238D02*
X139779511Y-64466428D01*
X146208083Y-65895000D02*
X145731892Y-66133095D01*
X145731892Y-66133095D02*
X144779511Y-66133095D01*
X144779511Y-66133095D02*
X144303321Y-65895000D01*
X144303321Y-65895000D02*
X144065225Y-65418809D01*
X144065225Y-65418809D02*
X144065225Y-63514047D01*
X144065225Y-63514047D02*
X144303321Y-63037857D01*
X144303321Y-63037857D02*
X144779511Y-62799761D01*
X144779511Y-62799761D02*
X145731892Y-62799761D01*
X145731892Y-62799761D02*
X146208083Y-63037857D01*
X146208083Y-63037857D02*
X146446178Y-63514047D01*
X146446178Y-63514047D02*
X146446178Y-63990238D01*
X146446178Y-63990238D02*
X144065225Y-64466428D01*
X148589035Y-62799761D02*
X148589035Y-66133095D01*
X148589035Y-63275952D02*
X148827130Y-63037857D01*
X148827130Y-63037857D02*
X149303320Y-62799761D01*
X149303320Y-62799761D02*
X150017606Y-62799761D01*
X150017606Y-62799761D02*
X150493797Y-63037857D01*
X150493797Y-63037857D02*
X150731892Y-63514047D01*
X150731892Y-63514047D02*
X150731892Y-66133095D01*
X97398558Y-69183095D02*
X100255701Y-69183095D01*
X98827129Y-74183095D02*
X98827129Y-69183095D01*
X102636653Y-74183095D02*
X102160463Y-73945000D01*
X102160463Y-73945000D02*
X101922368Y-73706904D01*
X101922368Y-73706904D02*
X101684272Y-73230714D01*
X101684272Y-73230714D02*
X101684272Y-71802142D01*
X101684272Y-71802142D02*
X101922368Y-71325952D01*
X101922368Y-71325952D02*
X102160463Y-71087857D01*
X102160463Y-71087857D02*
X102636653Y-70849761D01*
X102636653Y-70849761D02*
X103350939Y-70849761D01*
X103350939Y-70849761D02*
X103827130Y-71087857D01*
X103827130Y-71087857D02*
X104065225Y-71325952D01*
X104065225Y-71325952D02*
X104303320Y-71802142D01*
X104303320Y-71802142D02*
X104303320Y-73230714D01*
X104303320Y-73230714D02*
X104065225Y-73706904D01*
X104065225Y-73706904D02*
X103827130Y-73945000D01*
X103827130Y-73945000D02*
X103350939Y-74183095D01*
X103350939Y-74183095D02*
X102636653Y-74183095D01*
X106446178Y-70849761D02*
X106446178Y-75849761D01*
X106446178Y-71087857D02*
X106922368Y-70849761D01*
X106922368Y-70849761D02*
X107874749Y-70849761D01*
X107874749Y-70849761D02*
X108350940Y-71087857D01*
X108350940Y-71087857D02*
X108589035Y-71325952D01*
X108589035Y-71325952D02*
X108827130Y-71802142D01*
X108827130Y-71802142D02*
X108827130Y-73230714D01*
X108827130Y-73230714D02*
X108589035Y-73706904D01*
X108589035Y-73706904D02*
X108350940Y-73945000D01*
X108350940Y-73945000D02*
X107874749Y-74183095D01*
X107874749Y-74183095D02*
X106922368Y-74183095D01*
X106922368Y-74183095D02*
X106446178Y-73945000D01*
X114541416Y-73945000D02*
X115017607Y-74183095D01*
X115017607Y-74183095D02*
X115969988Y-74183095D01*
X115969988Y-74183095D02*
X116446178Y-73945000D01*
X116446178Y-73945000D02*
X116684274Y-73468809D01*
X116684274Y-73468809D02*
X116684274Y-73230714D01*
X116684274Y-73230714D02*
X116446178Y-72754523D01*
X116446178Y-72754523D02*
X115969988Y-72516428D01*
X115969988Y-72516428D02*
X115255702Y-72516428D01*
X115255702Y-72516428D02*
X114779512Y-72278333D01*
X114779512Y-72278333D02*
X114541416Y-71802142D01*
X114541416Y-71802142D02*
X114541416Y-71564047D01*
X114541416Y-71564047D02*
X114779512Y-71087857D01*
X114779512Y-71087857D02*
X115255702Y-70849761D01*
X115255702Y-70849761D02*
X115969988Y-70849761D01*
X115969988Y-70849761D02*
X116446178Y-71087857D01*
X119541416Y-74183095D02*
X119065226Y-73945000D01*
X119065226Y-73945000D02*
X118827131Y-73706904D01*
X118827131Y-73706904D02*
X118589035Y-73230714D01*
X118589035Y-73230714D02*
X118589035Y-71802142D01*
X118589035Y-71802142D02*
X118827131Y-71325952D01*
X118827131Y-71325952D02*
X119065226Y-71087857D01*
X119065226Y-71087857D02*
X119541416Y-70849761D01*
X119541416Y-70849761D02*
X120255702Y-70849761D01*
X120255702Y-70849761D02*
X120731893Y-71087857D01*
X120731893Y-71087857D02*
X120969988Y-71325952D01*
X120969988Y-71325952D02*
X121208083Y-71802142D01*
X121208083Y-71802142D02*
X121208083Y-73230714D01*
X121208083Y-73230714D02*
X120969988Y-73706904D01*
X120969988Y-73706904D02*
X120731893Y-73945000D01*
X120731893Y-73945000D02*
X120255702Y-74183095D01*
X120255702Y-74183095D02*
X119541416Y-74183095D01*
X124065226Y-74183095D02*
X123589036Y-73945000D01*
X123589036Y-73945000D02*
X123350941Y-73468809D01*
X123350941Y-73468809D02*
X123350941Y-69183095D01*
X128112846Y-74183095D02*
X128112846Y-69183095D01*
X128112846Y-73945000D02*
X127636655Y-74183095D01*
X127636655Y-74183095D02*
X126684274Y-74183095D01*
X126684274Y-74183095D02*
X126208084Y-73945000D01*
X126208084Y-73945000D02*
X125969989Y-73706904D01*
X125969989Y-73706904D02*
X125731893Y-73230714D01*
X125731893Y-73230714D02*
X125731893Y-71802142D01*
X125731893Y-71802142D02*
X125969989Y-71325952D01*
X125969989Y-71325952D02*
X126208084Y-71087857D01*
X126208084Y-71087857D02*
X126684274Y-70849761D01*
X126684274Y-70849761D02*
X127636655Y-70849761D01*
X127636655Y-70849761D02*
X128112846Y-71087857D01*
X132398561Y-73945000D02*
X131922370Y-74183095D01*
X131922370Y-74183095D02*
X130969989Y-74183095D01*
X130969989Y-74183095D02*
X130493799Y-73945000D01*
X130493799Y-73945000D02*
X130255703Y-73468809D01*
X130255703Y-73468809D02*
X130255703Y-71564047D01*
X130255703Y-71564047D02*
X130493799Y-71087857D01*
X130493799Y-71087857D02*
X130969989Y-70849761D01*
X130969989Y-70849761D02*
X131922370Y-70849761D01*
X131922370Y-70849761D02*
X132398561Y-71087857D01*
X132398561Y-71087857D02*
X132636656Y-71564047D01*
X132636656Y-71564047D02*
X132636656Y-72040238D01*
X132636656Y-72040238D02*
X130255703Y-72516428D01*
X134779513Y-74183095D02*
X134779513Y-70849761D01*
X134779513Y-71802142D02*
X135017608Y-71325952D01*
X135017608Y-71325952D02*
X135255703Y-71087857D01*
X135255703Y-71087857D02*
X135731894Y-70849761D01*
X135731894Y-70849761D02*
X136208084Y-70849761D01*
X141684275Y-74183095D02*
X141684275Y-70849761D01*
X141684275Y-71325952D02*
X141922370Y-71087857D01*
X141922370Y-71087857D02*
X142398560Y-70849761D01*
X142398560Y-70849761D02*
X143112846Y-70849761D01*
X143112846Y-70849761D02*
X143589037Y-71087857D01*
X143589037Y-71087857D02*
X143827132Y-71564047D01*
X143827132Y-71564047D02*
X143827132Y-74183095D01*
X143827132Y-71564047D02*
X144065227Y-71087857D01*
X144065227Y-71087857D02*
X144541418Y-70849761D01*
X144541418Y-70849761D02*
X145255703Y-70849761D01*
X145255703Y-70849761D02*
X145731894Y-71087857D01*
X145731894Y-71087857D02*
X145969989Y-71564047D01*
X145969989Y-71564047D02*
X145969989Y-74183095D01*
X150493799Y-74183095D02*
X150493799Y-71564047D01*
X150493799Y-71564047D02*
X150255704Y-71087857D01*
X150255704Y-71087857D02*
X149779513Y-70849761D01*
X149779513Y-70849761D02*
X148827132Y-70849761D01*
X148827132Y-70849761D02*
X148350942Y-71087857D01*
X150493799Y-73945000D02*
X150017608Y-74183095D01*
X150017608Y-74183095D02*
X148827132Y-74183095D01*
X148827132Y-74183095D02*
X148350942Y-73945000D01*
X148350942Y-73945000D02*
X148112846Y-73468809D01*
X148112846Y-73468809D02*
X148112846Y-72992619D01*
X148112846Y-72992619D02*
X148350942Y-72516428D01*
X148350942Y-72516428D02*
X148827132Y-72278333D01*
X148827132Y-72278333D02*
X150017608Y-72278333D01*
X150017608Y-72278333D02*
X150493799Y-72040238D01*
X152636656Y-73945000D02*
X153112847Y-74183095D01*
X153112847Y-74183095D02*
X154065228Y-74183095D01*
X154065228Y-74183095D02*
X154541418Y-73945000D01*
X154541418Y-73945000D02*
X154779514Y-73468809D01*
X154779514Y-73468809D02*
X154779514Y-73230714D01*
X154779514Y-73230714D02*
X154541418Y-72754523D01*
X154541418Y-72754523D02*
X154065228Y-72516428D01*
X154065228Y-72516428D02*
X153350942Y-72516428D01*
X153350942Y-72516428D02*
X152874752Y-72278333D01*
X152874752Y-72278333D02*
X152636656Y-71802142D01*
X152636656Y-71802142D02*
X152636656Y-71564047D01*
X152636656Y-71564047D02*
X152874752Y-71087857D01*
X152874752Y-71087857D02*
X153350942Y-70849761D01*
X153350942Y-70849761D02*
X154065228Y-70849761D01*
X154065228Y-70849761D02*
X154541418Y-71087857D01*
X156922371Y-74183095D02*
X156922371Y-69183095D01*
X157398561Y-72278333D02*
X158827133Y-74183095D01*
X158827133Y-70849761D02*
X156922371Y-72754523D01*
X97398558Y-77233095D02*
X100255701Y-77233095D01*
X98827129Y-82233095D02*
X98827129Y-77233095D01*
X102636653Y-82233095D02*
X102160463Y-81995000D01*
X102160463Y-81995000D02*
X101922368Y-81756904D01*
X101922368Y-81756904D02*
X101684272Y-81280714D01*
X101684272Y-81280714D02*
X101684272Y-79852142D01*
X101684272Y-79852142D02*
X101922368Y-79375952D01*
X101922368Y-79375952D02*
X102160463Y-79137857D01*
X102160463Y-79137857D02*
X102636653Y-78899761D01*
X102636653Y-78899761D02*
X103350939Y-78899761D01*
X103350939Y-78899761D02*
X103827130Y-79137857D01*
X103827130Y-79137857D02*
X104065225Y-79375952D01*
X104065225Y-79375952D02*
X104303320Y-79852142D01*
X104303320Y-79852142D02*
X104303320Y-81280714D01*
X104303320Y-81280714D02*
X104065225Y-81756904D01*
X104065225Y-81756904D02*
X103827130Y-81995000D01*
X103827130Y-81995000D02*
X103350939Y-82233095D01*
X103350939Y-82233095D02*
X102636653Y-82233095D01*
X106446178Y-78899761D02*
X106446178Y-83899761D01*
X106446178Y-79137857D02*
X106922368Y-78899761D01*
X106922368Y-78899761D02*
X107874749Y-78899761D01*
X107874749Y-78899761D02*
X108350940Y-79137857D01*
X108350940Y-79137857D02*
X108589035Y-79375952D01*
X108589035Y-79375952D02*
X108827130Y-79852142D01*
X108827130Y-79852142D02*
X108827130Y-81280714D01*
X108827130Y-81280714D02*
X108589035Y-81756904D01*
X108589035Y-81756904D02*
X108350940Y-81995000D01*
X108350940Y-81995000D02*
X107874749Y-82233095D01*
X107874749Y-82233095D02*
X106922368Y-82233095D01*
X106922368Y-82233095D02*
X106446178Y-81995000D01*
X114541416Y-81995000D02*
X115017607Y-82233095D01*
X115017607Y-82233095D02*
X115969988Y-82233095D01*
X115969988Y-82233095D02*
X116446178Y-81995000D01*
X116446178Y-81995000D02*
X116684274Y-81518809D01*
X116684274Y-81518809D02*
X116684274Y-81280714D01*
X116684274Y-81280714D02*
X116446178Y-80804523D01*
X116446178Y-80804523D02*
X115969988Y-80566428D01*
X115969988Y-80566428D02*
X115255702Y-80566428D01*
X115255702Y-80566428D02*
X114779512Y-80328333D01*
X114779512Y-80328333D02*
X114541416Y-79852142D01*
X114541416Y-79852142D02*
X114541416Y-79614047D01*
X114541416Y-79614047D02*
X114779512Y-79137857D01*
X114779512Y-79137857D02*
X115255702Y-78899761D01*
X115255702Y-78899761D02*
X115969988Y-78899761D01*
X115969988Y-78899761D02*
X116446178Y-79137857D01*
X119541416Y-82233095D02*
X119065226Y-81995000D01*
X119065226Y-81995000D02*
X118827131Y-81756904D01*
X118827131Y-81756904D02*
X118589035Y-81280714D01*
X118589035Y-81280714D02*
X118589035Y-79852142D01*
X118589035Y-79852142D02*
X118827131Y-79375952D01*
X118827131Y-79375952D02*
X119065226Y-79137857D01*
X119065226Y-79137857D02*
X119541416Y-78899761D01*
X119541416Y-78899761D02*
X120255702Y-78899761D01*
X120255702Y-78899761D02*
X120731893Y-79137857D01*
X120731893Y-79137857D02*
X120969988Y-79375952D01*
X120969988Y-79375952D02*
X121208083Y-79852142D01*
X121208083Y-79852142D02*
X121208083Y-81280714D01*
X121208083Y-81280714D02*
X120969988Y-81756904D01*
X120969988Y-81756904D02*
X120731893Y-81995000D01*
X120731893Y-81995000D02*
X120255702Y-82233095D01*
X120255702Y-82233095D02*
X119541416Y-82233095D01*
X124065226Y-82233095D02*
X123589036Y-81995000D01*
X123589036Y-81995000D02*
X123350941Y-81518809D01*
X123350941Y-81518809D02*
X123350941Y-77233095D01*
X128112846Y-82233095D02*
X128112846Y-77233095D01*
X128112846Y-81995000D02*
X127636655Y-82233095D01*
X127636655Y-82233095D02*
X126684274Y-82233095D01*
X126684274Y-82233095D02*
X126208084Y-81995000D01*
X126208084Y-81995000D02*
X125969989Y-81756904D01*
X125969989Y-81756904D02*
X125731893Y-81280714D01*
X125731893Y-81280714D02*
X125731893Y-79852142D01*
X125731893Y-79852142D02*
X125969989Y-79375952D01*
X125969989Y-79375952D02*
X126208084Y-79137857D01*
X126208084Y-79137857D02*
X126684274Y-78899761D01*
X126684274Y-78899761D02*
X127636655Y-78899761D01*
X127636655Y-78899761D02*
X128112846Y-79137857D01*
X132398561Y-81995000D02*
X131922370Y-82233095D01*
X131922370Y-82233095D02*
X130969989Y-82233095D01*
X130969989Y-82233095D02*
X130493799Y-81995000D01*
X130493799Y-81995000D02*
X130255703Y-81518809D01*
X130255703Y-81518809D02*
X130255703Y-79614047D01*
X130255703Y-79614047D02*
X130493799Y-79137857D01*
X130493799Y-79137857D02*
X130969989Y-78899761D01*
X130969989Y-78899761D02*
X131922370Y-78899761D01*
X131922370Y-78899761D02*
X132398561Y-79137857D01*
X132398561Y-79137857D02*
X132636656Y-79614047D01*
X132636656Y-79614047D02*
X132636656Y-80090238D01*
X132636656Y-80090238D02*
X130255703Y-80566428D01*
X134779513Y-82233095D02*
X134779513Y-78899761D01*
X134779513Y-79852142D02*
X135017608Y-79375952D01*
X135017608Y-79375952D02*
X135255703Y-79137857D01*
X135255703Y-79137857D02*
X135731894Y-78899761D01*
X135731894Y-78899761D02*
X136208084Y-78899761D01*
X141684275Y-78899761D02*
X141684275Y-83899761D01*
X141684275Y-79137857D02*
X142160465Y-78899761D01*
X142160465Y-78899761D02*
X143112846Y-78899761D01*
X143112846Y-78899761D02*
X143589037Y-79137857D01*
X143589037Y-79137857D02*
X143827132Y-79375952D01*
X143827132Y-79375952D02*
X144065227Y-79852142D01*
X144065227Y-79852142D02*
X144065227Y-81280714D01*
X144065227Y-81280714D02*
X143827132Y-81756904D01*
X143827132Y-81756904D02*
X143589037Y-81995000D01*
X143589037Y-81995000D02*
X143112846Y-82233095D01*
X143112846Y-82233095D02*
X142160465Y-82233095D01*
X142160465Y-82233095D02*
X141684275Y-81995000D01*
X148350942Y-82233095D02*
X148350942Y-79614047D01*
X148350942Y-79614047D02*
X148112847Y-79137857D01*
X148112847Y-79137857D02*
X147636656Y-78899761D01*
X147636656Y-78899761D02*
X146684275Y-78899761D01*
X146684275Y-78899761D02*
X146208085Y-79137857D01*
X148350942Y-81995000D02*
X147874751Y-82233095D01*
X147874751Y-82233095D02*
X146684275Y-82233095D01*
X146684275Y-82233095D02*
X146208085Y-81995000D01*
X146208085Y-81995000D02*
X145969989Y-81518809D01*
X145969989Y-81518809D02*
X145969989Y-81042619D01*
X145969989Y-81042619D02*
X146208085Y-80566428D01*
X146208085Y-80566428D02*
X146684275Y-80328333D01*
X146684275Y-80328333D02*
X147874751Y-80328333D01*
X147874751Y-80328333D02*
X148350942Y-80090238D01*
X150493799Y-81995000D02*
X150969990Y-82233095D01*
X150969990Y-82233095D02*
X151922371Y-82233095D01*
X151922371Y-82233095D02*
X152398561Y-81995000D01*
X152398561Y-81995000D02*
X152636657Y-81518809D01*
X152636657Y-81518809D02*
X152636657Y-81280714D01*
X152636657Y-81280714D02*
X152398561Y-80804523D01*
X152398561Y-80804523D02*
X151922371Y-80566428D01*
X151922371Y-80566428D02*
X151208085Y-80566428D01*
X151208085Y-80566428D02*
X150731895Y-80328333D01*
X150731895Y-80328333D02*
X150493799Y-79852142D01*
X150493799Y-79852142D02*
X150493799Y-79614047D01*
X150493799Y-79614047D02*
X150731895Y-79137857D01*
X150731895Y-79137857D02*
X151208085Y-78899761D01*
X151208085Y-78899761D02*
X151922371Y-78899761D01*
X151922371Y-78899761D02*
X152398561Y-79137857D01*
X154065228Y-78899761D02*
X155969990Y-78899761D01*
X154779514Y-77233095D02*
X154779514Y-81518809D01*
X154779514Y-81518809D02*
X155017609Y-81995000D01*
X155017609Y-81995000D02*
X155493799Y-82233095D01*
X155493799Y-82233095D02*
X155969990Y-82233095D01*
X159541419Y-81995000D02*
X159065228Y-82233095D01*
X159065228Y-82233095D02*
X158112847Y-82233095D01*
X158112847Y-82233095D02*
X157636657Y-81995000D01*
X157636657Y-81995000D02*
X157398561Y-81518809D01*
X157398561Y-81518809D02*
X157398561Y-79614047D01*
X157398561Y-79614047D02*
X157636657Y-79137857D01*
X157636657Y-79137857D02*
X158112847Y-78899761D01*
X158112847Y-78899761D02*
X159065228Y-78899761D01*
X159065228Y-78899761D02*
X159541419Y-79137857D01*
X159541419Y-79137857D02*
X159779514Y-79614047D01*
X159779514Y-79614047D02*
X159779514Y-80090238D01*
X159779514Y-80090238D02*
X157398561Y-80566428D01*
X97398558Y-85283095D02*
X100255701Y-85283095D01*
X98827129Y-90283095D02*
X98827129Y-85283095D01*
X102636653Y-90283095D02*
X102160463Y-90045000D01*
X102160463Y-90045000D02*
X101922368Y-89806904D01*
X101922368Y-89806904D02*
X101684272Y-89330714D01*
X101684272Y-89330714D02*
X101684272Y-87902142D01*
X101684272Y-87902142D02*
X101922368Y-87425952D01*
X101922368Y-87425952D02*
X102160463Y-87187857D01*
X102160463Y-87187857D02*
X102636653Y-86949761D01*
X102636653Y-86949761D02*
X103350939Y-86949761D01*
X103350939Y-86949761D02*
X103827130Y-87187857D01*
X103827130Y-87187857D02*
X104065225Y-87425952D01*
X104065225Y-87425952D02*
X104303320Y-87902142D01*
X104303320Y-87902142D02*
X104303320Y-89330714D01*
X104303320Y-89330714D02*
X104065225Y-89806904D01*
X104065225Y-89806904D02*
X103827130Y-90045000D01*
X103827130Y-90045000D02*
X103350939Y-90283095D01*
X103350939Y-90283095D02*
X102636653Y-90283095D01*
X106446178Y-86949761D02*
X106446178Y-91949761D01*
X106446178Y-87187857D02*
X106922368Y-86949761D01*
X106922368Y-86949761D02*
X107874749Y-86949761D01*
X107874749Y-86949761D02*
X108350940Y-87187857D01*
X108350940Y-87187857D02*
X108589035Y-87425952D01*
X108589035Y-87425952D02*
X108827130Y-87902142D01*
X108827130Y-87902142D02*
X108827130Y-89330714D01*
X108827130Y-89330714D02*
X108589035Y-89806904D01*
X108589035Y-89806904D02*
X108350940Y-90045000D01*
X108350940Y-90045000D02*
X107874749Y-90283095D01*
X107874749Y-90283095D02*
X106922368Y-90283095D01*
X106922368Y-90283095D02*
X106446178Y-90045000D01*
X117160464Y-90283095D02*
X114779512Y-90283095D01*
X114779512Y-90283095D02*
X114779512Y-85283095D01*
X120969988Y-90283095D02*
X120969988Y-87664047D01*
X120969988Y-87664047D02*
X120731893Y-87187857D01*
X120731893Y-87187857D02*
X120255702Y-86949761D01*
X120255702Y-86949761D02*
X119303321Y-86949761D01*
X119303321Y-86949761D02*
X118827131Y-87187857D01*
X120969988Y-90045000D02*
X120493797Y-90283095D01*
X120493797Y-90283095D02*
X119303321Y-90283095D01*
X119303321Y-90283095D02*
X118827131Y-90045000D01*
X118827131Y-90045000D02*
X118589035Y-89568809D01*
X118589035Y-89568809D02*
X118589035Y-89092619D01*
X118589035Y-89092619D02*
X118827131Y-88616428D01*
X118827131Y-88616428D02*
X119303321Y-88378333D01*
X119303321Y-88378333D02*
X120493797Y-88378333D01*
X120493797Y-88378333D02*
X120969988Y-88140238D01*
X122874750Y-86949761D02*
X124065226Y-90283095D01*
X125255703Y-86949761D02*
X124065226Y-90283095D01*
X124065226Y-90283095D02*
X123589036Y-91473571D01*
X123589036Y-91473571D02*
X123350941Y-91711666D01*
X123350941Y-91711666D02*
X122874750Y-91949761D01*
X129065227Y-90045000D02*
X128589036Y-90283095D01*
X128589036Y-90283095D02*
X127636655Y-90283095D01*
X127636655Y-90283095D02*
X127160465Y-90045000D01*
X127160465Y-90045000D02*
X126922369Y-89568809D01*
X126922369Y-89568809D02*
X126922369Y-87664047D01*
X126922369Y-87664047D02*
X127160465Y-87187857D01*
X127160465Y-87187857D02*
X127636655Y-86949761D01*
X127636655Y-86949761D02*
X128589036Y-86949761D01*
X128589036Y-86949761D02*
X129065227Y-87187857D01*
X129065227Y-87187857D02*
X129303322Y-87664047D01*
X129303322Y-87664047D02*
X129303322Y-88140238D01*
X129303322Y-88140238D02*
X126922369Y-88616428D01*
X131446179Y-90283095D02*
X131446179Y-86949761D01*
X131446179Y-87902142D02*
X131684274Y-87425952D01*
X131684274Y-87425952D02*
X131922369Y-87187857D01*
X131922369Y-87187857D02*
X132398560Y-86949761D01*
X132398560Y-86949761D02*
X132874750Y-86949761D01*
X99779510Y-95714047D02*
X100493796Y-95952142D01*
X100493796Y-95952142D02*
X100731891Y-96190238D01*
X100731891Y-96190238D02*
X100969987Y-96666428D01*
X100969987Y-96666428D02*
X100969987Y-97380714D01*
X100969987Y-97380714D02*
X100731891Y-97856904D01*
X100731891Y-97856904D02*
X100493796Y-98095000D01*
X100493796Y-98095000D02*
X100017606Y-98333095D01*
X100017606Y-98333095D02*
X98112844Y-98333095D01*
X98112844Y-98333095D02*
X98112844Y-93333095D01*
X98112844Y-93333095D02*
X99779510Y-93333095D01*
X99779510Y-93333095D02*
X100255701Y-93571190D01*
X100255701Y-93571190D02*
X100493796Y-93809285D01*
X100493796Y-93809285D02*
X100731891Y-94285476D01*
X100731891Y-94285476D02*
X100731891Y-94761666D01*
X100731891Y-94761666D02*
X100493796Y-95237857D01*
X100493796Y-95237857D02*
X100255701Y-95475952D01*
X100255701Y-95475952D02*
X99779510Y-95714047D01*
X99779510Y-95714047D02*
X98112844Y-95714047D01*
X103827129Y-98333095D02*
X103350939Y-98095000D01*
X103350939Y-98095000D02*
X103112844Y-97856904D01*
X103112844Y-97856904D02*
X102874748Y-97380714D01*
X102874748Y-97380714D02*
X102874748Y-95952142D01*
X102874748Y-95952142D02*
X103112844Y-95475952D01*
X103112844Y-95475952D02*
X103350939Y-95237857D01*
X103350939Y-95237857D02*
X103827129Y-94999761D01*
X103827129Y-94999761D02*
X104541415Y-94999761D01*
X104541415Y-94999761D02*
X105017606Y-95237857D01*
X105017606Y-95237857D02*
X105255701Y-95475952D01*
X105255701Y-95475952D02*
X105493796Y-95952142D01*
X105493796Y-95952142D02*
X105493796Y-97380714D01*
X105493796Y-97380714D02*
X105255701Y-97856904D01*
X105255701Y-97856904D02*
X105017606Y-98095000D01*
X105017606Y-98095000D02*
X104541415Y-98333095D01*
X104541415Y-98333095D02*
X103827129Y-98333095D01*
X106922368Y-94999761D02*
X108827130Y-94999761D01*
X107636654Y-93333095D02*
X107636654Y-97618809D01*
X107636654Y-97618809D02*
X107874749Y-98095000D01*
X107874749Y-98095000D02*
X108350939Y-98333095D01*
X108350939Y-98333095D02*
X108827130Y-98333095D01*
X109779511Y-94999761D02*
X111684273Y-94999761D01*
X110493797Y-93333095D02*
X110493797Y-97618809D01*
X110493797Y-97618809D02*
X110731892Y-98095000D01*
X110731892Y-98095000D02*
X111208082Y-98333095D01*
X111208082Y-98333095D02*
X111684273Y-98333095D01*
X114065225Y-98333095D02*
X113589035Y-98095000D01*
X113589035Y-98095000D02*
X113350940Y-97856904D01*
X113350940Y-97856904D02*
X113112844Y-97380714D01*
X113112844Y-97380714D02*
X113112844Y-95952142D01*
X113112844Y-95952142D02*
X113350940Y-95475952D01*
X113350940Y-95475952D02*
X113589035Y-95237857D01*
X113589035Y-95237857D02*
X114065225Y-94999761D01*
X114065225Y-94999761D02*
X114779511Y-94999761D01*
X114779511Y-94999761D02*
X115255702Y-95237857D01*
X115255702Y-95237857D02*
X115493797Y-95475952D01*
X115493797Y-95475952D02*
X115731892Y-95952142D01*
X115731892Y-95952142D02*
X115731892Y-97380714D01*
X115731892Y-97380714D02*
X115493797Y-97856904D01*
X115493797Y-97856904D02*
X115255702Y-98095000D01*
X115255702Y-98095000D02*
X114779511Y-98333095D01*
X114779511Y-98333095D02*
X114065225Y-98333095D01*
X117874750Y-98333095D02*
X117874750Y-94999761D01*
X117874750Y-95475952D02*
X118112845Y-95237857D01*
X118112845Y-95237857D02*
X118589035Y-94999761D01*
X118589035Y-94999761D02*
X119303321Y-94999761D01*
X119303321Y-94999761D02*
X119779512Y-95237857D01*
X119779512Y-95237857D02*
X120017607Y-95714047D01*
X120017607Y-95714047D02*
X120017607Y-98333095D01*
X120017607Y-95714047D02*
X120255702Y-95237857D01*
X120255702Y-95237857D02*
X120731893Y-94999761D01*
X120731893Y-94999761D02*
X121446178Y-94999761D01*
X121446178Y-94999761D02*
X121922369Y-95237857D01*
X121922369Y-95237857D02*
X122160464Y-95714047D01*
X122160464Y-95714047D02*
X122160464Y-98333095D01*
X130731893Y-98333095D02*
X128350941Y-98333095D01*
X128350941Y-98333095D02*
X128350941Y-93333095D01*
X134541417Y-98333095D02*
X134541417Y-95714047D01*
X134541417Y-95714047D02*
X134303322Y-95237857D01*
X134303322Y-95237857D02*
X133827131Y-94999761D01*
X133827131Y-94999761D02*
X132874750Y-94999761D01*
X132874750Y-94999761D02*
X132398560Y-95237857D01*
X134541417Y-98095000D02*
X134065226Y-98333095D01*
X134065226Y-98333095D02*
X132874750Y-98333095D01*
X132874750Y-98333095D02*
X132398560Y-98095000D01*
X132398560Y-98095000D02*
X132160464Y-97618809D01*
X132160464Y-97618809D02*
X132160464Y-97142619D01*
X132160464Y-97142619D02*
X132398560Y-96666428D01*
X132398560Y-96666428D02*
X132874750Y-96428333D01*
X132874750Y-96428333D02*
X134065226Y-96428333D01*
X134065226Y-96428333D02*
X134541417Y-96190238D01*
X136446179Y-94999761D02*
X137636655Y-98333095D01*
X138827132Y-94999761D02*
X137636655Y-98333095D01*
X137636655Y-98333095D02*
X137160465Y-99523571D01*
X137160465Y-99523571D02*
X136922370Y-99761666D01*
X136922370Y-99761666D02*
X136446179Y-99999761D01*
X142636656Y-98095000D02*
X142160465Y-98333095D01*
X142160465Y-98333095D02*
X141208084Y-98333095D01*
X141208084Y-98333095D02*
X140731894Y-98095000D01*
X140731894Y-98095000D02*
X140493798Y-97618809D01*
X140493798Y-97618809D02*
X140493798Y-95714047D01*
X140493798Y-95714047D02*
X140731894Y-95237857D01*
X140731894Y-95237857D02*
X141208084Y-94999761D01*
X141208084Y-94999761D02*
X142160465Y-94999761D01*
X142160465Y-94999761D02*
X142636656Y-95237857D01*
X142636656Y-95237857D02*
X142874751Y-95714047D01*
X142874751Y-95714047D02*
X142874751Y-96190238D01*
X142874751Y-96190238D02*
X140493798Y-96666428D01*
X145017608Y-98333095D02*
X145017608Y-94999761D01*
X145017608Y-95952142D02*
X145255703Y-95475952D01*
X145255703Y-95475952D02*
X145493798Y-95237857D01*
X145493798Y-95237857D02*
X145969989Y-94999761D01*
X145969989Y-94999761D02*
X146446179Y-94999761D01*
X99779510Y-103764047D02*
X100493796Y-104002142D01*
X100493796Y-104002142D02*
X100731891Y-104240238D01*
X100731891Y-104240238D02*
X100969987Y-104716428D01*
X100969987Y-104716428D02*
X100969987Y-105430714D01*
X100969987Y-105430714D02*
X100731891Y-105906904D01*
X100731891Y-105906904D02*
X100493796Y-106145000D01*
X100493796Y-106145000D02*
X100017606Y-106383095D01*
X100017606Y-106383095D02*
X98112844Y-106383095D01*
X98112844Y-106383095D02*
X98112844Y-101383095D01*
X98112844Y-101383095D02*
X99779510Y-101383095D01*
X99779510Y-101383095D02*
X100255701Y-101621190D01*
X100255701Y-101621190D02*
X100493796Y-101859285D01*
X100493796Y-101859285D02*
X100731891Y-102335476D01*
X100731891Y-102335476D02*
X100731891Y-102811666D01*
X100731891Y-102811666D02*
X100493796Y-103287857D01*
X100493796Y-103287857D02*
X100255701Y-103525952D01*
X100255701Y-103525952D02*
X99779510Y-103764047D01*
X99779510Y-103764047D02*
X98112844Y-103764047D01*
X103827129Y-106383095D02*
X103350939Y-106145000D01*
X103350939Y-106145000D02*
X103112844Y-105906904D01*
X103112844Y-105906904D02*
X102874748Y-105430714D01*
X102874748Y-105430714D02*
X102874748Y-104002142D01*
X102874748Y-104002142D02*
X103112844Y-103525952D01*
X103112844Y-103525952D02*
X103350939Y-103287857D01*
X103350939Y-103287857D02*
X103827129Y-103049761D01*
X103827129Y-103049761D02*
X104541415Y-103049761D01*
X104541415Y-103049761D02*
X105017606Y-103287857D01*
X105017606Y-103287857D02*
X105255701Y-103525952D01*
X105255701Y-103525952D02*
X105493796Y-104002142D01*
X105493796Y-104002142D02*
X105493796Y-105430714D01*
X105493796Y-105430714D02*
X105255701Y-105906904D01*
X105255701Y-105906904D02*
X105017606Y-106145000D01*
X105017606Y-106145000D02*
X104541415Y-106383095D01*
X104541415Y-106383095D02*
X103827129Y-106383095D01*
X106922368Y-103049761D02*
X108827130Y-103049761D01*
X107636654Y-101383095D02*
X107636654Y-105668809D01*
X107636654Y-105668809D02*
X107874749Y-106145000D01*
X107874749Y-106145000D02*
X108350939Y-106383095D01*
X108350939Y-106383095D02*
X108827130Y-106383095D01*
X109779511Y-103049761D02*
X111684273Y-103049761D01*
X110493797Y-101383095D02*
X110493797Y-105668809D01*
X110493797Y-105668809D02*
X110731892Y-106145000D01*
X110731892Y-106145000D02*
X111208082Y-106383095D01*
X111208082Y-106383095D02*
X111684273Y-106383095D01*
X114065225Y-106383095D02*
X113589035Y-106145000D01*
X113589035Y-106145000D02*
X113350940Y-105906904D01*
X113350940Y-105906904D02*
X113112844Y-105430714D01*
X113112844Y-105430714D02*
X113112844Y-104002142D01*
X113112844Y-104002142D02*
X113350940Y-103525952D01*
X113350940Y-103525952D02*
X113589035Y-103287857D01*
X113589035Y-103287857D02*
X114065225Y-103049761D01*
X114065225Y-103049761D02*
X114779511Y-103049761D01*
X114779511Y-103049761D02*
X115255702Y-103287857D01*
X115255702Y-103287857D02*
X115493797Y-103525952D01*
X115493797Y-103525952D02*
X115731892Y-104002142D01*
X115731892Y-104002142D02*
X115731892Y-105430714D01*
X115731892Y-105430714D02*
X115493797Y-105906904D01*
X115493797Y-105906904D02*
X115255702Y-106145000D01*
X115255702Y-106145000D02*
X114779511Y-106383095D01*
X114779511Y-106383095D02*
X114065225Y-106383095D01*
X117874750Y-106383095D02*
X117874750Y-103049761D01*
X117874750Y-103525952D02*
X118112845Y-103287857D01*
X118112845Y-103287857D02*
X118589035Y-103049761D01*
X118589035Y-103049761D02*
X119303321Y-103049761D01*
X119303321Y-103049761D02*
X119779512Y-103287857D01*
X119779512Y-103287857D02*
X120017607Y-103764047D01*
X120017607Y-103764047D02*
X120017607Y-106383095D01*
X120017607Y-103764047D02*
X120255702Y-103287857D01*
X120255702Y-103287857D02*
X120731893Y-103049761D01*
X120731893Y-103049761D02*
X121446178Y-103049761D01*
X121446178Y-103049761D02*
X121922369Y-103287857D01*
X121922369Y-103287857D02*
X122160464Y-103764047D01*
X122160464Y-103764047D02*
X122160464Y-106383095D01*
X128112845Y-106145000D02*
X128589036Y-106383095D01*
X128589036Y-106383095D02*
X129541417Y-106383095D01*
X129541417Y-106383095D02*
X130017607Y-106145000D01*
X130017607Y-106145000D02*
X130255703Y-105668809D01*
X130255703Y-105668809D02*
X130255703Y-105430714D01*
X130255703Y-105430714D02*
X130017607Y-104954523D01*
X130017607Y-104954523D02*
X129541417Y-104716428D01*
X129541417Y-104716428D02*
X128827131Y-104716428D01*
X128827131Y-104716428D02*
X128350941Y-104478333D01*
X128350941Y-104478333D02*
X128112845Y-104002142D01*
X128112845Y-104002142D02*
X128112845Y-103764047D01*
X128112845Y-103764047D02*
X128350941Y-103287857D01*
X128350941Y-103287857D02*
X128827131Y-103049761D01*
X128827131Y-103049761D02*
X129541417Y-103049761D01*
X129541417Y-103049761D02*
X130017607Y-103287857D01*
X133112845Y-106383095D02*
X132636655Y-106145000D01*
X132636655Y-106145000D02*
X132398560Y-105906904D01*
X132398560Y-105906904D02*
X132160464Y-105430714D01*
X132160464Y-105430714D02*
X132160464Y-104002142D01*
X132160464Y-104002142D02*
X132398560Y-103525952D01*
X132398560Y-103525952D02*
X132636655Y-103287857D01*
X132636655Y-103287857D02*
X133112845Y-103049761D01*
X133112845Y-103049761D02*
X133827131Y-103049761D01*
X133827131Y-103049761D02*
X134303322Y-103287857D01*
X134303322Y-103287857D02*
X134541417Y-103525952D01*
X134541417Y-103525952D02*
X134779512Y-104002142D01*
X134779512Y-104002142D02*
X134779512Y-105430714D01*
X134779512Y-105430714D02*
X134541417Y-105906904D01*
X134541417Y-105906904D02*
X134303322Y-106145000D01*
X134303322Y-106145000D02*
X133827131Y-106383095D01*
X133827131Y-106383095D02*
X133112845Y-106383095D01*
X137636655Y-106383095D02*
X137160465Y-106145000D01*
X137160465Y-106145000D02*
X136922370Y-105668809D01*
X136922370Y-105668809D02*
X136922370Y-101383095D01*
X141684275Y-106383095D02*
X141684275Y-101383095D01*
X141684275Y-106145000D02*
X141208084Y-106383095D01*
X141208084Y-106383095D02*
X140255703Y-106383095D01*
X140255703Y-106383095D02*
X139779513Y-106145000D01*
X139779513Y-106145000D02*
X139541418Y-105906904D01*
X139541418Y-105906904D02*
X139303322Y-105430714D01*
X139303322Y-105430714D02*
X139303322Y-104002142D01*
X139303322Y-104002142D02*
X139541418Y-103525952D01*
X139541418Y-103525952D02*
X139779513Y-103287857D01*
X139779513Y-103287857D02*
X140255703Y-103049761D01*
X140255703Y-103049761D02*
X141208084Y-103049761D01*
X141208084Y-103049761D02*
X141684275Y-103287857D01*
X145969990Y-106145000D02*
X145493799Y-106383095D01*
X145493799Y-106383095D02*
X144541418Y-106383095D01*
X144541418Y-106383095D02*
X144065228Y-106145000D01*
X144065228Y-106145000D02*
X143827132Y-105668809D01*
X143827132Y-105668809D02*
X143827132Y-103764047D01*
X143827132Y-103764047D02*
X144065228Y-103287857D01*
X144065228Y-103287857D02*
X144541418Y-103049761D01*
X144541418Y-103049761D02*
X145493799Y-103049761D01*
X145493799Y-103049761D02*
X145969990Y-103287857D01*
X145969990Y-103287857D02*
X146208085Y-103764047D01*
X146208085Y-103764047D02*
X146208085Y-104240238D01*
X146208085Y-104240238D02*
X143827132Y-104716428D01*
X148350942Y-106383095D02*
X148350942Y-103049761D01*
X148350942Y-104002142D02*
X148589037Y-103525952D01*
X148589037Y-103525952D02*
X148827132Y-103287857D01*
X148827132Y-103287857D02*
X149303323Y-103049761D01*
X149303323Y-103049761D02*
X149779513Y-103049761D01*
X155255704Y-106383095D02*
X155255704Y-103049761D01*
X155255704Y-103525952D02*
X155493799Y-103287857D01*
X155493799Y-103287857D02*
X155969989Y-103049761D01*
X155969989Y-103049761D02*
X156684275Y-103049761D01*
X156684275Y-103049761D02*
X157160466Y-103287857D01*
X157160466Y-103287857D02*
X157398561Y-103764047D01*
X157398561Y-103764047D02*
X157398561Y-106383095D01*
X157398561Y-103764047D02*
X157636656Y-103287857D01*
X157636656Y-103287857D02*
X158112847Y-103049761D01*
X158112847Y-103049761D02*
X158827132Y-103049761D01*
X158827132Y-103049761D02*
X159303323Y-103287857D01*
X159303323Y-103287857D02*
X159541418Y-103764047D01*
X159541418Y-103764047D02*
X159541418Y-106383095D01*
X164065228Y-106383095D02*
X164065228Y-103764047D01*
X164065228Y-103764047D02*
X163827133Y-103287857D01*
X163827133Y-103287857D02*
X163350942Y-103049761D01*
X163350942Y-103049761D02*
X162398561Y-103049761D01*
X162398561Y-103049761D02*
X161922371Y-103287857D01*
X164065228Y-106145000D02*
X163589037Y-106383095D01*
X163589037Y-106383095D02*
X162398561Y-106383095D01*
X162398561Y-106383095D02*
X161922371Y-106145000D01*
X161922371Y-106145000D02*
X161684275Y-105668809D01*
X161684275Y-105668809D02*
X161684275Y-105192619D01*
X161684275Y-105192619D02*
X161922371Y-104716428D01*
X161922371Y-104716428D02*
X162398561Y-104478333D01*
X162398561Y-104478333D02*
X163589037Y-104478333D01*
X163589037Y-104478333D02*
X164065228Y-104240238D01*
X166208085Y-106145000D02*
X166684276Y-106383095D01*
X166684276Y-106383095D02*
X167636657Y-106383095D01*
X167636657Y-106383095D02*
X168112847Y-106145000D01*
X168112847Y-106145000D02*
X168350943Y-105668809D01*
X168350943Y-105668809D02*
X168350943Y-105430714D01*
X168350943Y-105430714D02*
X168112847Y-104954523D01*
X168112847Y-104954523D02*
X167636657Y-104716428D01*
X167636657Y-104716428D02*
X166922371Y-104716428D01*
X166922371Y-104716428D02*
X166446181Y-104478333D01*
X166446181Y-104478333D02*
X166208085Y-104002142D01*
X166208085Y-104002142D02*
X166208085Y-103764047D01*
X166208085Y-103764047D02*
X166446181Y-103287857D01*
X166446181Y-103287857D02*
X166922371Y-103049761D01*
X166922371Y-103049761D02*
X167636657Y-103049761D01*
X167636657Y-103049761D02*
X168112847Y-103287857D01*
X170493800Y-106383095D02*
X170493800Y-101383095D01*
X170969990Y-104478333D02*
X172398562Y-106383095D01*
X172398562Y-103049761D02*
X170493800Y-104954523D01*
X99779510Y-111814047D02*
X100493796Y-112052142D01*
X100493796Y-112052142D02*
X100731891Y-112290238D01*
X100731891Y-112290238D02*
X100969987Y-112766428D01*
X100969987Y-112766428D02*
X100969987Y-113480714D01*
X100969987Y-113480714D02*
X100731891Y-113956904D01*
X100731891Y-113956904D02*
X100493796Y-114195000D01*
X100493796Y-114195000D02*
X100017606Y-114433095D01*
X100017606Y-114433095D02*
X98112844Y-114433095D01*
X98112844Y-114433095D02*
X98112844Y-109433095D01*
X98112844Y-109433095D02*
X99779510Y-109433095D01*
X99779510Y-109433095D02*
X100255701Y-109671190D01*
X100255701Y-109671190D02*
X100493796Y-109909285D01*
X100493796Y-109909285D02*
X100731891Y-110385476D01*
X100731891Y-110385476D02*
X100731891Y-110861666D01*
X100731891Y-110861666D02*
X100493796Y-111337857D01*
X100493796Y-111337857D02*
X100255701Y-111575952D01*
X100255701Y-111575952D02*
X99779510Y-111814047D01*
X99779510Y-111814047D02*
X98112844Y-111814047D01*
X103827129Y-114433095D02*
X103350939Y-114195000D01*
X103350939Y-114195000D02*
X103112844Y-113956904D01*
X103112844Y-113956904D02*
X102874748Y-113480714D01*
X102874748Y-113480714D02*
X102874748Y-112052142D01*
X102874748Y-112052142D02*
X103112844Y-111575952D01*
X103112844Y-111575952D02*
X103350939Y-111337857D01*
X103350939Y-111337857D02*
X103827129Y-111099761D01*
X103827129Y-111099761D02*
X104541415Y-111099761D01*
X104541415Y-111099761D02*
X105017606Y-111337857D01*
X105017606Y-111337857D02*
X105255701Y-111575952D01*
X105255701Y-111575952D02*
X105493796Y-112052142D01*
X105493796Y-112052142D02*
X105493796Y-113480714D01*
X105493796Y-113480714D02*
X105255701Y-113956904D01*
X105255701Y-113956904D02*
X105017606Y-114195000D01*
X105017606Y-114195000D02*
X104541415Y-114433095D01*
X104541415Y-114433095D02*
X103827129Y-114433095D01*
X106922368Y-111099761D02*
X108827130Y-111099761D01*
X107636654Y-109433095D02*
X107636654Y-113718809D01*
X107636654Y-113718809D02*
X107874749Y-114195000D01*
X107874749Y-114195000D02*
X108350939Y-114433095D01*
X108350939Y-114433095D02*
X108827130Y-114433095D01*
X109779511Y-111099761D02*
X111684273Y-111099761D01*
X110493797Y-109433095D02*
X110493797Y-113718809D01*
X110493797Y-113718809D02*
X110731892Y-114195000D01*
X110731892Y-114195000D02*
X111208082Y-114433095D01*
X111208082Y-114433095D02*
X111684273Y-114433095D01*
X114065225Y-114433095D02*
X113589035Y-114195000D01*
X113589035Y-114195000D02*
X113350940Y-113956904D01*
X113350940Y-113956904D02*
X113112844Y-113480714D01*
X113112844Y-113480714D02*
X113112844Y-112052142D01*
X113112844Y-112052142D02*
X113350940Y-111575952D01*
X113350940Y-111575952D02*
X113589035Y-111337857D01*
X113589035Y-111337857D02*
X114065225Y-111099761D01*
X114065225Y-111099761D02*
X114779511Y-111099761D01*
X114779511Y-111099761D02*
X115255702Y-111337857D01*
X115255702Y-111337857D02*
X115493797Y-111575952D01*
X115493797Y-111575952D02*
X115731892Y-112052142D01*
X115731892Y-112052142D02*
X115731892Y-113480714D01*
X115731892Y-113480714D02*
X115493797Y-113956904D01*
X115493797Y-113956904D02*
X115255702Y-114195000D01*
X115255702Y-114195000D02*
X114779511Y-114433095D01*
X114779511Y-114433095D02*
X114065225Y-114433095D01*
X117874750Y-114433095D02*
X117874750Y-111099761D01*
X117874750Y-111575952D02*
X118112845Y-111337857D01*
X118112845Y-111337857D02*
X118589035Y-111099761D01*
X118589035Y-111099761D02*
X119303321Y-111099761D01*
X119303321Y-111099761D02*
X119779512Y-111337857D01*
X119779512Y-111337857D02*
X120017607Y-111814047D01*
X120017607Y-111814047D02*
X120017607Y-114433095D01*
X120017607Y-111814047D02*
X120255702Y-111337857D01*
X120255702Y-111337857D02*
X120731893Y-111099761D01*
X120731893Y-111099761D02*
X121446178Y-111099761D01*
X121446178Y-111099761D02*
X121922369Y-111337857D01*
X121922369Y-111337857D02*
X122160464Y-111814047D01*
X122160464Y-111814047D02*
X122160464Y-114433095D01*
X128112845Y-114195000D02*
X128589036Y-114433095D01*
X128589036Y-114433095D02*
X129541417Y-114433095D01*
X129541417Y-114433095D02*
X130017607Y-114195000D01*
X130017607Y-114195000D02*
X130255703Y-113718809D01*
X130255703Y-113718809D02*
X130255703Y-113480714D01*
X130255703Y-113480714D02*
X130017607Y-113004523D01*
X130017607Y-113004523D02*
X129541417Y-112766428D01*
X129541417Y-112766428D02*
X128827131Y-112766428D01*
X128827131Y-112766428D02*
X128350941Y-112528333D01*
X128350941Y-112528333D02*
X128112845Y-112052142D01*
X128112845Y-112052142D02*
X128112845Y-111814047D01*
X128112845Y-111814047D02*
X128350941Y-111337857D01*
X128350941Y-111337857D02*
X128827131Y-111099761D01*
X128827131Y-111099761D02*
X129541417Y-111099761D01*
X129541417Y-111099761D02*
X130017607Y-111337857D01*
X133112845Y-114433095D02*
X132636655Y-114195000D01*
X132636655Y-114195000D02*
X132398560Y-113956904D01*
X132398560Y-113956904D02*
X132160464Y-113480714D01*
X132160464Y-113480714D02*
X132160464Y-112052142D01*
X132160464Y-112052142D02*
X132398560Y-111575952D01*
X132398560Y-111575952D02*
X132636655Y-111337857D01*
X132636655Y-111337857D02*
X133112845Y-111099761D01*
X133112845Y-111099761D02*
X133827131Y-111099761D01*
X133827131Y-111099761D02*
X134303322Y-111337857D01*
X134303322Y-111337857D02*
X134541417Y-111575952D01*
X134541417Y-111575952D02*
X134779512Y-112052142D01*
X134779512Y-112052142D02*
X134779512Y-113480714D01*
X134779512Y-113480714D02*
X134541417Y-113956904D01*
X134541417Y-113956904D02*
X134303322Y-114195000D01*
X134303322Y-114195000D02*
X133827131Y-114433095D01*
X133827131Y-114433095D02*
X133112845Y-114433095D01*
X137636655Y-114433095D02*
X137160465Y-114195000D01*
X137160465Y-114195000D02*
X136922370Y-113718809D01*
X136922370Y-113718809D02*
X136922370Y-109433095D01*
X141684275Y-114433095D02*
X141684275Y-109433095D01*
X141684275Y-114195000D02*
X141208084Y-114433095D01*
X141208084Y-114433095D02*
X140255703Y-114433095D01*
X140255703Y-114433095D02*
X139779513Y-114195000D01*
X139779513Y-114195000D02*
X139541418Y-113956904D01*
X139541418Y-113956904D02*
X139303322Y-113480714D01*
X139303322Y-113480714D02*
X139303322Y-112052142D01*
X139303322Y-112052142D02*
X139541418Y-111575952D01*
X139541418Y-111575952D02*
X139779513Y-111337857D01*
X139779513Y-111337857D02*
X140255703Y-111099761D01*
X140255703Y-111099761D02*
X141208084Y-111099761D01*
X141208084Y-111099761D02*
X141684275Y-111337857D01*
X145969990Y-114195000D02*
X145493799Y-114433095D01*
X145493799Y-114433095D02*
X144541418Y-114433095D01*
X144541418Y-114433095D02*
X144065228Y-114195000D01*
X144065228Y-114195000D02*
X143827132Y-113718809D01*
X143827132Y-113718809D02*
X143827132Y-111814047D01*
X143827132Y-111814047D02*
X144065228Y-111337857D01*
X144065228Y-111337857D02*
X144541418Y-111099761D01*
X144541418Y-111099761D02*
X145493799Y-111099761D01*
X145493799Y-111099761D02*
X145969990Y-111337857D01*
X145969990Y-111337857D02*
X146208085Y-111814047D01*
X146208085Y-111814047D02*
X146208085Y-112290238D01*
X146208085Y-112290238D02*
X143827132Y-112766428D01*
X148350942Y-114433095D02*
X148350942Y-111099761D01*
X148350942Y-112052142D02*
X148589037Y-111575952D01*
X148589037Y-111575952D02*
X148827132Y-111337857D01*
X148827132Y-111337857D02*
X149303323Y-111099761D01*
X149303323Y-111099761D02*
X149779513Y-111099761D01*
X155255704Y-111099761D02*
X155255704Y-116099761D01*
X155255704Y-111337857D02*
X155731894Y-111099761D01*
X155731894Y-111099761D02*
X156684275Y-111099761D01*
X156684275Y-111099761D02*
X157160466Y-111337857D01*
X157160466Y-111337857D02*
X157398561Y-111575952D01*
X157398561Y-111575952D02*
X157636656Y-112052142D01*
X157636656Y-112052142D02*
X157636656Y-113480714D01*
X157636656Y-113480714D02*
X157398561Y-113956904D01*
X157398561Y-113956904D02*
X157160466Y-114195000D01*
X157160466Y-114195000D02*
X156684275Y-114433095D01*
X156684275Y-114433095D02*
X155731894Y-114433095D01*
X155731894Y-114433095D02*
X155255704Y-114195000D01*
X161922371Y-114433095D02*
X161922371Y-111814047D01*
X161922371Y-111814047D02*
X161684276Y-111337857D01*
X161684276Y-111337857D02*
X161208085Y-111099761D01*
X161208085Y-111099761D02*
X160255704Y-111099761D01*
X160255704Y-111099761D02*
X159779514Y-111337857D01*
X161922371Y-114195000D02*
X161446180Y-114433095D01*
X161446180Y-114433095D02*
X160255704Y-114433095D01*
X160255704Y-114433095D02*
X159779514Y-114195000D01*
X159779514Y-114195000D02*
X159541418Y-113718809D01*
X159541418Y-113718809D02*
X159541418Y-113242619D01*
X159541418Y-113242619D02*
X159779514Y-112766428D01*
X159779514Y-112766428D02*
X160255704Y-112528333D01*
X160255704Y-112528333D02*
X161446180Y-112528333D01*
X161446180Y-112528333D02*
X161922371Y-112290238D01*
X164065228Y-114195000D02*
X164541419Y-114433095D01*
X164541419Y-114433095D02*
X165493800Y-114433095D01*
X165493800Y-114433095D02*
X165969990Y-114195000D01*
X165969990Y-114195000D02*
X166208086Y-113718809D01*
X166208086Y-113718809D02*
X166208086Y-113480714D01*
X166208086Y-113480714D02*
X165969990Y-113004523D01*
X165969990Y-113004523D02*
X165493800Y-112766428D01*
X165493800Y-112766428D02*
X164779514Y-112766428D01*
X164779514Y-112766428D02*
X164303324Y-112528333D01*
X164303324Y-112528333D02*
X164065228Y-112052142D01*
X164065228Y-112052142D02*
X164065228Y-111814047D01*
X164065228Y-111814047D02*
X164303324Y-111337857D01*
X164303324Y-111337857D02*
X164779514Y-111099761D01*
X164779514Y-111099761D02*
X165493800Y-111099761D01*
X165493800Y-111099761D02*
X165969990Y-111337857D01*
X167636657Y-111099761D02*
X169541419Y-111099761D01*
X168350943Y-109433095D02*
X168350943Y-113718809D01*
X168350943Y-113718809D02*
X168589038Y-114195000D01*
X168589038Y-114195000D02*
X169065228Y-114433095D01*
X169065228Y-114433095D02*
X169541419Y-114433095D01*
X173112848Y-114195000D02*
X172636657Y-114433095D01*
X172636657Y-114433095D02*
X171684276Y-114433095D01*
X171684276Y-114433095D02*
X171208086Y-114195000D01*
X171208086Y-114195000D02*
X170969990Y-113718809D01*
X170969990Y-113718809D02*
X170969990Y-111814047D01*
X170969990Y-111814047D02*
X171208086Y-111337857D01*
X171208086Y-111337857D02*
X171684276Y-111099761D01*
X171684276Y-111099761D02*
X172636657Y-111099761D01*
X172636657Y-111099761D02*
X173112848Y-111337857D01*
X173112848Y-111337857D02*
X173350943Y-111814047D01*
X173350943Y-111814047D02*
X173350943Y-112290238D01*
X173350943Y-112290238D02*
X170969990Y-112766428D01*
X99779510Y-119864047D02*
X100493796Y-120102142D01*
X100493796Y-120102142D02*
X100731891Y-120340238D01*
X100731891Y-120340238D02*
X100969987Y-120816428D01*
X100969987Y-120816428D02*
X100969987Y-121530714D01*
X100969987Y-121530714D02*
X100731891Y-122006904D01*
X100731891Y-122006904D02*
X100493796Y-122245000D01*
X100493796Y-122245000D02*
X100017606Y-122483095D01*
X100017606Y-122483095D02*
X98112844Y-122483095D01*
X98112844Y-122483095D02*
X98112844Y-117483095D01*
X98112844Y-117483095D02*
X99779510Y-117483095D01*
X99779510Y-117483095D02*
X100255701Y-117721190D01*
X100255701Y-117721190D02*
X100493796Y-117959285D01*
X100493796Y-117959285D02*
X100731891Y-118435476D01*
X100731891Y-118435476D02*
X100731891Y-118911666D01*
X100731891Y-118911666D02*
X100493796Y-119387857D01*
X100493796Y-119387857D02*
X100255701Y-119625952D01*
X100255701Y-119625952D02*
X99779510Y-119864047D01*
X99779510Y-119864047D02*
X98112844Y-119864047D01*
X103827129Y-122483095D02*
X103350939Y-122245000D01*
X103350939Y-122245000D02*
X103112844Y-122006904D01*
X103112844Y-122006904D02*
X102874748Y-121530714D01*
X102874748Y-121530714D02*
X102874748Y-120102142D01*
X102874748Y-120102142D02*
X103112844Y-119625952D01*
X103112844Y-119625952D02*
X103350939Y-119387857D01*
X103350939Y-119387857D02*
X103827129Y-119149761D01*
X103827129Y-119149761D02*
X104541415Y-119149761D01*
X104541415Y-119149761D02*
X105017606Y-119387857D01*
X105017606Y-119387857D02*
X105255701Y-119625952D01*
X105255701Y-119625952D02*
X105493796Y-120102142D01*
X105493796Y-120102142D02*
X105493796Y-121530714D01*
X105493796Y-121530714D02*
X105255701Y-122006904D01*
X105255701Y-122006904D02*
X105017606Y-122245000D01*
X105017606Y-122245000D02*
X104541415Y-122483095D01*
X104541415Y-122483095D02*
X103827129Y-122483095D01*
X106922368Y-119149761D02*
X108827130Y-119149761D01*
X107636654Y-117483095D02*
X107636654Y-121768809D01*
X107636654Y-121768809D02*
X107874749Y-122245000D01*
X107874749Y-122245000D02*
X108350939Y-122483095D01*
X108350939Y-122483095D02*
X108827130Y-122483095D01*
X109779511Y-119149761D02*
X111684273Y-119149761D01*
X110493797Y-117483095D02*
X110493797Y-121768809D01*
X110493797Y-121768809D02*
X110731892Y-122245000D01*
X110731892Y-122245000D02*
X111208082Y-122483095D01*
X111208082Y-122483095D02*
X111684273Y-122483095D01*
X114065225Y-122483095D02*
X113589035Y-122245000D01*
X113589035Y-122245000D02*
X113350940Y-122006904D01*
X113350940Y-122006904D02*
X113112844Y-121530714D01*
X113112844Y-121530714D02*
X113112844Y-120102142D01*
X113112844Y-120102142D02*
X113350940Y-119625952D01*
X113350940Y-119625952D02*
X113589035Y-119387857D01*
X113589035Y-119387857D02*
X114065225Y-119149761D01*
X114065225Y-119149761D02*
X114779511Y-119149761D01*
X114779511Y-119149761D02*
X115255702Y-119387857D01*
X115255702Y-119387857D02*
X115493797Y-119625952D01*
X115493797Y-119625952D02*
X115731892Y-120102142D01*
X115731892Y-120102142D02*
X115731892Y-121530714D01*
X115731892Y-121530714D02*
X115493797Y-122006904D01*
X115493797Y-122006904D02*
X115255702Y-122245000D01*
X115255702Y-122245000D02*
X114779511Y-122483095D01*
X114779511Y-122483095D02*
X114065225Y-122483095D01*
X117874750Y-122483095D02*
X117874750Y-119149761D01*
X117874750Y-119625952D02*
X118112845Y-119387857D01*
X118112845Y-119387857D02*
X118589035Y-119149761D01*
X118589035Y-119149761D02*
X119303321Y-119149761D01*
X119303321Y-119149761D02*
X119779512Y-119387857D01*
X119779512Y-119387857D02*
X120017607Y-119864047D01*
X120017607Y-119864047D02*
X120017607Y-122483095D01*
X120017607Y-119864047D02*
X120255702Y-119387857D01*
X120255702Y-119387857D02*
X120731893Y-119149761D01*
X120731893Y-119149761D02*
X121446178Y-119149761D01*
X121446178Y-119149761D02*
X121922369Y-119387857D01*
X121922369Y-119387857D02*
X122160464Y-119864047D01*
X122160464Y-119864047D02*
X122160464Y-122483095D01*
X128112845Y-122245000D02*
X128827131Y-122483095D01*
X128827131Y-122483095D02*
X130017607Y-122483095D01*
X130017607Y-122483095D02*
X130493798Y-122245000D01*
X130493798Y-122245000D02*
X130731893Y-122006904D01*
X130731893Y-122006904D02*
X130969988Y-121530714D01*
X130969988Y-121530714D02*
X130969988Y-121054523D01*
X130969988Y-121054523D02*
X130731893Y-120578333D01*
X130731893Y-120578333D02*
X130493798Y-120340238D01*
X130493798Y-120340238D02*
X130017607Y-120102142D01*
X130017607Y-120102142D02*
X129065226Y-119864047D01*
X129065226Y-119864047D02*
X128589036Y-119625952D01*
X128589036Y-119625952D02*
X128350941Y-119387857D01*
X128350941Y-119387857D02*
X128112845Y-118911666D01*
X128112845Y-118911666D02*
X128112845Y-118435476D01*
X128112845Y-118435476D02*
X128350941Y-117959285D01*
X128350941Y-117959285D02*
X128589036Y-117721190D01*
X128589036Y-117721190D02*
X129065226Y-117483095D01*
X129065226Y-117483095D02*
X130255703Y-117483095D01*
X130255703Y-117483095D02*
X130969988Y-117721190D01*
X133112846Y-122483095D02*
X133112846Y-119149761D01*
X133112846Y-117483095D02*
X132874750Y-117721190D01*
X132874750Y-117721190D02*
X133112846Y-117959285D01*
X133112846Y-117959285D02*
X133350941Y-117721190D01*
X133350941Y-117721190D02*
X133112846Y-117483095D01*
X133112846Y-117483095D02*
X133112846Y-117959285D01*
X136208083Y-122483095D02*
X135731893Y-122245000D01*
X135731893Y-122245000D02*
X135493798Y-121768809D01*
X135493798Y-121768809D02*
X135493798Y-117483095D01*
X138112846Y-122483095D02*
X138112846Y-117483095D01*
X138589036Y-120578333D02*
X140017608Y-122483095D01*
X140017608Y-119149761D02*
X138112846Y-121054523D01*
X144303322Y-122245000D02*
X143827131Y-122483095D01*
X143827131Y-122483095D02*
X142874750Y-122483095D01*
X142874750Y-122483095D02*
X142398560Y-122245000D01*
X142398560Y-122245000D02*
X142160465Y-122006904D01*
X142160465Y-122006904D02*
X141922369Y-121530714D01*
X141922369Y-121530714D02*
X141922369Y-120102142D01*
X141922369Y-120102142D02*
X142160465Y-119625952D01*
X142160465Y-119625952D02*
X142398560Y-119387857D01*
X142398560Y-119387857D02*
X142874750Y-119149761D01*
X142874750Y-119149761D02*
X143827131Y-119149761D01*
X143827131Y-119149761D02*
X144303322Y-119387857D01*
X146446179Y-122483095D02*
X146446179Y-119149761D01*
X146446179Y-120102142D02*
X146684274Y-119625952D01*
X146684274Y-119625952D02*
X146922369Y-119387857D01*
X146922369Y-119387857D02*
X147398560Y-119149761D01*
X147398560Y-119149761D02*
X147874750Y-119149761D01*
X151446179Y-122245000D02*
X150969988Y-122483095D01*
X150969988Y-122483095D02*
X150017607Y-122483095D01*
X150017607Y-122483095D02*
X149541417Y-122245000D01*
X149541417Y-122245000D02*
X149303321Y-121768809D01*
X149303321Y-121768809D02*
X149303321Y-119864047D01*
X149303321Y-119864047D02*
X149541417Y-119387857D01*
X149541417Y-119387857D02*
X150017607Y-119149761D01*
X150017607Y-119149761D02*
X150969988Y-119149761D01*
X150969988Y-119149761D02*
X151446179Y-119387857D01*
X151446179Y-119387857D02*
X151684274Y-119864047D01*
X151684274Y-119864047D02*
X151684274Y-120340238D01*
X151684274Y-120340238D02*
X149303321Y-120816428D01*
X155731893Y-122245000D02*
X155255702Y-122483095D01*
X155255702Y-122483095D02*
X154303321Y-122483095D01*
X154303321Y-122483095D02*
X153827131Y-122245000D01*
X153827131Y-122245000D02*
X153589035Y-121768809D01*
X153589035Y-121768809D02*
X153589035Y-119864047D01*
X153589035Y-119864047D02*
X153827131Y-119387857D01*
X153827131Y-119387857D02*
X154303321Y-119149761D01*
X154303321Y-119149761D02*
X155255702Y-119149761D01*
X155255702Y-119149761D02*
X155731893Y-119387857D01*
X155731893Y-119387857D02*
X155969988Y-119864047D01*
X155969988Y-119864047D02*
X155969988Y-120340238D01*
X155969988Y-120340238D02*
X153589035Y-120816428D01*
X158112845Y-119149761D02*
X158112845Y-122483095D01*
X158112845Y-119625952D02*
X158350940Y-119387857D01*
X158350940Y-119387857D02*
X158827130Y-119149761D01*
X158827130Y-119149761D02*
X159541416Y-119149761D01*
X159541416Y-119149761D02*
X160017607Y-119387857D01*
X160017607Y-119387857D02*
X160255702Y-119864047D01*
X160255702Y-119864047D02*
X160255702Y-122483095D01*
X41302844Y-130353095D02*
X41302844Y-125353095D01*
X41302844Y-125353095D02*
X44159987Y-130353095D01*
X44159987Y-130353095D02*
X44159987Y-125353095D01*
X47255224Y-130353095D02*
X46779034Y-130115000D01*
X46779034Y-130115000D02*
X46540939Y-129876904D01*
X46540939Y-129876904D02*
X46302843Y-129400714D01*
X46302843Y-129400714D02*
X46302843Y-127972142D01*
X46302843Y-127972142D02*
X46540939Y-127495952D01*
X46540939Y-127495952D02*
X46779034Y-127257857D01*
X46779034Y-127257857D02*
X47255224Y-127019761D01*
X47255224Y-127019761D02*
X47969510Y-127019761D01*
X47969510Y-127019761D02*
X48445701Y-127257857D01*
X48445701Y-127257857D02*
X48683796Y-127495952D01*
X48683796Y-127495952D02*
X48921891Y-127972142D01*
X48921891Y-127972142D02*
X48921891Y-129400714D01*
X48921891Y-129400714D02*
X48683796Y-129876904D01*
X48683796Y-129876904D02*
X48445701Y-130115000D01*
X48445701Y-130115000D02*
X47969510Y-130353095D01*
X47969510Y-130353095D02*
X47255224Y-130353095D01*
X50350463Y-127019761D02*
X52255225Y-127019761D01*
X51064749Y-125353095D02*
X51064749Y-129638809D01*
X51064749Y-129638809D02*
X51302844Y-130115000D01*
X51302844Y-130115000D02*
X51779034Y-130353095D01*
X51779034Y-130353095D02*
X52255225Y-130353095D01*
X55826654Y-130115000D02*
X55350463Y-130353095D01*
X55350463Y-130353095D02*
X54398082Y-130353095D01*
X54398082Y-130353095D02*
X53921892Y-130115000D01*
X53921892Y-130115000D02*
X53683796Y-129638809D01*
X53683796Y-129638809D02*
X53683796Y-127734047D01*
X53683796Y-127734047D02*
X53921892Y-127257857D01*
X53921892Y-127257857D02*
X54398082Y-127019761D01*
X54398082Y-127019761D02*
X55350463Y-127019761D01*
X55350463Y-127019761D02*
X55826654Y-127257857D01*
X55826654Y-127257857D02*
X56064749Y-127734047D01*
X56064749Y-127734047D02*
X56064749Y-128210238D01*
X56064749Y-128210238D02*
X53683796Y-128686428D01*
X58207606Y-129876904D02*
X58445701Y-130115000D01*
X58445701Y-130115000D02*
X58207606Y-130353095D01*
X58207606Y-130353095D02*
X57969510Y-130115000D01*
X57969510Y-130115000D02*
X58207606Y-129876904D01*
X58207606Y-129876904D02*
X58207606Y-130353095D01*
X58207606Y-127257857D02*
X58445701Y-127495952D01*
X58445701Y-127495952D02*
X58207606Y-127734047D01*
X58207606Y-127734047D02*
X57969510Y-127495952D01*
X57969510Y-127495952D02*
X58207606Y-127257857D01*
X58207606Y-127257857D02*
X58207606Y-127734047D01*
X43921891Y-138403095D02*
X41064748Y-138403095D01*
X42493320Y-138403095D02*
X42493320Y-133403095D01*
X42493320Y-133403095D02*
X42017129Y-134117380D01*
X42017129Y-134117380D02*
X41540939Y-134593571D01*
X41540939Y-134593571D02*
X41064748Y-134831666D01*
X46064749Y-137926904D02*
X46302844Y-138165000D01*
X46302844Y-138165000D02*
X46064749Y-138403095D01*
X46064749Y-138403095D02*
X45826653Y-138165000D01*
X45826653Y-138165000D02*
X46064749Y-137926904D01*
X46064749Y-137926904D02*
X46064749Y-138403095D01*
X53921891Y-135784047D02*
X54636177Y-136022142D01*
X54636177Y-136022142D02*
X54874272Y-136260238D01*
X54874272Y-136260238D02*
X55112368Y-136736428D01*
X55112368Y-136736428D02*
X55112368Y-137450714D01*
X55112368Y-137450714D02*
X54874272Y-137926904D01*
X54874272Y-137926904D02*
X54636177Y-138165000D01*
X54636177Y-138165000D02*
X54159987Y-138403095D01*
X54159987Y-138403095D02*
X52255225Y-138403095D01*
X52255225Y-138403095D02*
X52255225Y-133403095D01*
X52255225Y-133403095D02*
X53921891Y-133403095D01*
X53921891Y-133403095D02*
X54398082Y-133641190D01*
X54398082Y-133641190D02*
X54636177Y-133879285D01*
X54636177Y-133879285D02*
X54874272Y-134355476D01*
X54874272Y-134355476D02*
X54874272Y-134831666D01*
X54874272Y-134831666D02*
X54636177Y-135307857D01*
X54636177Y-135307857D02*
X54398082Y-135545952D01*
X54398082Y-135545952D02*
X53921891Y-135784047D01*
X53921891Y-135784047D02*
X52255225Y-135784047D01*
X57969510Y-138403095D02*
X57493320Y-138165000D01*
X57493320Y-138165000D02*
X57255225Y-137926904D01*
X57255225Y-137926904D02*
X57017129Y-137450714D01*
X57017129Y-137450714D02*
X57017129Y-136022142D01*
X57017129Y-136022142D02*
X57255225Y-135545952D01*
X57255225Y-135545952D02*
X57493320Y-135307857D01*
X57493320Y-135307857D02*
X57969510Y-135069761D01*
X57969510Y-135069761D02*
X58683796Y-135069761D01*
X58683796Y-135069761D02*
X59159987Y-135307857D01*
X59159987Y-135307857D02*
X59398082Y-135545952D01*
X59398082Y-135545952D02*
X59636177Y-136022142D01*
X59636177Y-136022142D02*
X59636177Y-137450714D01*
X59636177Y-137450714D02*
X59398082Y-137926904D01*
X59398082Y-137926904D02*
X59159987Y-138165000D01*
X59159987Y-138165000D02*
X58683796Y-138403095D01*
X58683796Y-138403095D02*
X57969510Y-138403095D01*
X63921892Y-138403095D02*
X63921892Y-135784047D01*
X63921892Y-135784047D02*
X63683797Y-135307857D01*
X63683797Y-135307857D02*
X63207606Y-135069761D01*
X63207606Y-135069761D02*
X62255225Y-135069761D01*
X62255225Y-135069761D02*
X61779035Y-135307857D01*
X63921892Y-138165000D02*
X63445701Y-138403095D01*
X63445701Y-138403095D02*
X62255225Y-138403095D01*
X62255225Y-138403095D02*
X61779035Y-138165000D01*
X61779035Y-138165000D02*
X61540939Y-137688809D01*
X61540939Y-137688809D02*
X61540939Y-137212619D01*
X61540939Y-137212619D02*
X61779035Y-136736428D01*
X61779035Y-136736428D02*
X62255225Y-136498333D01*
X62255225Y-136498333D02*
X63445701Y-136498333D01*
X63445701Y-136498333D02*
X63921892Y-136260238D01*
X66302845Y-138403095D02*
X66302845Y-135069761D01*
X66302845Y-136022142D02*
X66540940Y-135545952D01*
X66540940Y-135545952D02*
X66779035Y-135307857D01*
X66779035Y-135307857D02*
X67255226Y-135069761D01*
X67255226Y-135069761D02*
X67731416Y-135069761D01*
X71540940Y-138403095D02*
X71540940Y-133403095D01*
X71540940Y-138165000D02*
X71064749Y-138403095D01*
X71064749Y-138403095D02*
X70112368Y-138403095D01*
X70112368Y-138403095D02*
X69636178Y-138165000D01*
X69636178Y-138165000D02*
X69398083Y-137926904D01*
X69398083Y-137926904D02*
X69159987Y-137450714D01*
X69159987Y-137450714D02*
X69159987Y-136022142D01*
X69159987Y-136022142D02*
X69398083Y-135545952D01*
X69398083Y-135545952D02*
X69636178Y-135307857D01*
X69636178Y-135307857D02*
X70112368Y-135069761D01*
X70112368Y-135069761D02*
X71064749Y-135069761D01*
X71064749Y-135069761D02*
X71540940Y-135307857D01*
X79874274Y-138403095D02*
X79874274Y-133403095D01*
X79874274Y-138165000D02*
X79398083Y-138403095D01*
X79398083Y-138403095D02*
X78445702Y-138403095D01*
X78445702Y-138403095D02*
X77969512Y-138165000D01*
X77969512Y-138165000D02*
X77731417Y-137926904D01*
X77731417Y-137926904D02*
X77493321Y-137450714D01*
X77493321Y-137450714D02*
X77493321Y-136022142D01*
X77493321Y-136022142D02*
X77731417Y-135545952D01*
X77731417Y-135545952D02*
X77969512Y-135307857D01*
X77969512Y-135307857D02*
X78445702Y-135069761D01*
X78445702Y-135069761D02*
X79398083Y-135069761D01*
X79398083Y-135069761D02*
X79874274Y-135307857D01*
X82255227Y-138403095D02*
X82255227Y-135069761D01*
X82255227Y-133403095D02*
X82017131Y-133641190D01*
X82017131Y-133641190D02*
X82255227Y-133879285D01*
X82255227Y-133879285D02*
X82493322Y-133641190D01*
X82493322Y-133641190D02*
X82255227Y-133403095D01*
X82255227Y-133403095D02*
X82255227Y-133879285D01*
X84636179Y-138403095D02*
X84636179Y-135069761D01*
X84636179Y-135545952D02*
X84874274Y-135307857D01*
X84874274Y-135307857D02*
X85350464Y-135069761D01*
X85350464Y-135069761D02*
X86064750Y-135069761D01*
X86064750Y-135069761D02*
X86540941Y-135307857D01*
X86540941Y-135307857D02*
X86779036Y-135784047D01*
X86779036Y-135784047D02*
X86779036Y-138403095D01*
X86779036Y-135784047D02*
X87017131Y-135307857D01*
X87017131Y-135307857D02*
X87493322Y-135069761D01*
X87493322Y-135069761D02*
X88207607Y-135069761D01*
X88207607Y-135069761D02*
X88683798Y-135307857D01*
X88683798Y-135307857D02*
X88921893Y-135784047D01*
X88921893Y-135784047D02*
X88921893Y-138403095D01*
X93207608Y-138165000D02*
X92731417Y-138403095D01*
X92731417Y-138403095D02*
X91779036Y-138403095D01*
X91779036Y-138403095D02*
X91302846Y-138165000D01*
X91302846Y-138165000D02*
X91064750Y-137688809D01*
X91064750Y-137688809D02*
X91064750Y-135784047D01*
X91064750Y-135784047D02*
X91302846Y-135307857D01*
X91302846Y-135307857D02*
X91779036Y-135069761D01*
X91779036Y-135069761D02*
X92731417Y-135069761D01*
X92731417Y-135069761D02*
X93207608Y-135307857D01*
X93207608Y-135307857D02*
X93445703Y-135784047D01*
X93445703Y-135784047D02*
X93445703Y-136260238D01*
X93445703Y-136260238D02*
X91064750Y-136736428D01*
X95588560Y-135069761D02*
X95588560Y-138403095D01*
X95588560Y-135545952D02*
X95826655Y-135307857D01*
X95826655Y-135307857D02*
X96302845Y-135069761D01*
X96302845Y-135069761D02*
X97017131Y-135069761D01*
X97017131Y-135069761D02*
X97493322Y-135307857D01*
X97493322Y-135307857D02*
X97731417Y-135784047D01*
X97731417Y-135784047D02*
X97731417Y-138403095D01*
X99874274Y-138165000D02*
X100350465Y-138403095D01*
X100350465Y-138403095D02*
X101302846Y-138403095D01*
X101302846Y-138403095D02*
X101779036Y-138165000D01*
X101779036Y-138165000D02*
X102017132Y-137688809D01*
X102017132Y-137688809D02*
X102017132Y-137450714D01*
X102017132Y-137450714D02*
X101779036Y-136974523D01*
X101779036Y-136974523D02*
X101302846Y-136736428D01*
X101302846Y-136736428D02*
X100588560Y-136736428D01*
X100588560Y-136736428D02*
X100112370Y-136498333D01*
X100112370Y-136498333D02*
X99874274Y-136022142D01*
X99874274Y-136022142D02*
X99874274Y-135784047D01*
X99874274Y-135784047D02*
X100112370Y-135307857D01*
X100112370Y-135307857D02*
X100588560Y-135069761D01*
X100588560Y-135069761D02*
X101302846Y-135069761D01*
X101302846Y-135069761D02*
X101779036Y-135307857D01*
X104159989Y-138403095D02*
X104159989Y-135069761D01*
X104159989Y-133403095D02*
X103921893Y-133641190D01*
X103921893Y-133641190D02*
X104159989Y-133879285D01*
X104159989Y-133879285D02*
X104398084Y-133641190D01*
X104398084Y-133641190D02*
X104159989Y-133403095D01*
X104159989Y-133403095D02*
X104159989Y-133879285D01*
X107255226Y-138403095D02*
X106779036Y-138165000D01*
X106779036Y-138165000D02*
X106540941Y-137926904D01*
X106540941Y-137926904D02*
X106302845Y-137450714D01*
X106302845Y-137450714D02*
X106302845Y-136022142D01*
X106302845Y-136022142D02*
X106540941Y-135545952D01*
X106540941Y-135545952D02*
X106779036Y-135307857D01*
X106779036Y-135307857D02*
X107255226Y-135069761D01*
X107255226Y-135069761D02*
X107969512Y-135069761D01*
X107969512Y-135069761D02*
X108445703Y-135307857D01*
X108445703Y-135307857D02*
X108683798Y-135545952D01*
X108683798Y-135545952D02*
X108921893Y-136022142D01*
X108921893Y-136022142D02*
X108921893Y-137450714D01*
X108921893Y-137450714D02*
X108683798Y-137926904D01*
X108683798Y-137926904D02*
X108445703Y-138165000D01*
X108445703Y-138165000D02*
X107969512Y-138403095D01*
X107969512Y-138403095D02*
X107255226Y-138403095D01*
X111064751Y-135069761D02*
X111064751Y-138403095D01*
X111064751Y-135545952D02*
X111302846Y-135307857D01*
X111302846Y-135307857D02*
X111779036Y-135069761D01*
X111779036Y-135069761D02*
X112493322Y-135069761D01*
X112493322Y-135069761D02*
X112969513Y-135307857D01*
X112969513Y-135307857D02*
X113207608Y-135784047D01*
X113207608Y-135784047D02*
X113207608Y-138403095D01*
X115588561Y-137926904D02*
X115826656Y-138165000D01*
X115826656Y-138165000D02*
X115588561Y-138403095D01*
X115588561Y-138403095D02*
X115350465Y-138165000D01*
X115350465Y-138165000D02*
X115588561Y-137926904D01*
X115588561Y-137926904D02*
X115588561Y-138403095D01*
X115588561Y-135307857D02*
X115826656Y-135545952D01*
X115826656Y-135545952D02*
X115588561Y-135784047D01*
X115588561Y-135784047D02*
X115350465Y-135545952D01*
X115350465Y-135545952D02*
X115588561Y-135307857D01*
X115588561Y-135307857D02*
X115588561Y-135784047D01*
X124398084Y-138403095D02*
X121540941Y-138403095D01*
X122969513Y-138403095D02*
X122969513Y-133403095D01*
X122969513Y-133403095D02*
X122493322Y-134117380D01*
X122493322Y-134117380D02*
X122017132Y-134593571D01*
X122017132Y-134593571D02*
X121540941Y-134831666D01*
X128683799Y-133403095D02*
X127731418Y-133403095D01*
X127731418Y-133403095D02*
X127255227Y-133641190D01*
X127255227Y-133641190D02*
X127017132Y-133879285D01*
X127017132Y-133879285D02*
X126540942Y-134593571D01*
X126540942Y-134593571D02*
X126302846Y-135545952D01*
X126302846Y-135545952D02*
X126302846Y-137450714D01*
X126302846Y-137450714D02*
X126540942Y-137926904D01*
X126540942Y-137926904D02*
X126779037Y-138165000D01*
X126779037Y-138165000D02*
X127255227Y-138403095D01*
X127255227Y-138403095D02*
X128207608Y-138403095D01*
X128207608Y-138403095D02*
X128683799Y-138165000D01*
X128683799Y-138165000D02*
X128921894Y-137926904D01*
X128921894Y-137926904D02*
X129159989Y-137450714D01*
X129159989Y-137450714D02*
X129159989Y-136260238D01*
X129159989Y-136260238D02*
X128921894Y-135784047D01*
X128921894Y-135784047D02*
X128683799Y-135545952D01*
X128683799Y-135545952D02*
X128207608Y-135307857D01*
X128207608Y-135307857D02*
X127255227Y-135307857D01*
X127255227Y-135307857D02*
X126779037Y-135545952D01*
X126779037Y-135545952D02*
X126540942Y-135784047D01*
X126540942Y-135784047D02*
X126302846Y-136260238D01*
X133921894Y-138403095D02*
X131064751Y-138403095D01*
X132493323Y-138403095D02*
X132493323Y-133403095D01*
X132493323Y-133403095D02*
X132017132Y-134117380D01*
X132017132Y-134117380D02*
X131540942Y-134593571D01*
X131540942Y-134593571D02*
X131064751Y-134831666D01*
X136064752Y-137926904D02*
X136302847Y-138165000D01*
X136302847Y-138165000D02*
X136064752Y-138403095D01*
X136064752Y-138403095D02*
X135826656Y-138165000D01*
X135826656Y-138165000D02*
X136064752Y-137926904D01*
X136064752Y-137926904D02*
X136064752Y-138403095D01*
X138207608Y-133879285D02*
X138445704Y-133641190D01*
X138445704Y-133641190D02*
X138921894Y-133403095D01*
X138921894Y-133403095D02*
X140112370Y-133403095D01*
X140112370Y-133403095D02*
X140588561Y-133641190D01*
X140588561Y-133641190D02*
X140826656Y-133879285D01*
X140826656Y-133879285D02*
X141064751Y-134355476D01*
X141064751Y-134355476D02*
X141064751Y-134831666D01*
X141064751Y-134831666D02*
X140826656Y-135545952D01*
X140826656Y-135545952D02*
X137969513Y-138403095D01*
X137969513Y-138403095D02*
X141064751Y-138403095D01*
X144159990Y-133403095D02*
X144636180Y-133403095D01*
X144636180Y-133403095D02*
X145112371Y-133641190D01*
X145112371Y-133641190D02*
X145350466Y-133879285D01*
X145350466Y-133879285D02*
X145588561Y-134355476D01*
X145588561Y-134355476D02*
X145826656Y-135307857D01*
X145826656Y-135307857D02*
X145826656Y-136498333D01*
X145826656Y-136498333D02*
X145588561Y-137450714D01*
X145588561Y-137450714D02*
X145350466Y-137926904D01*
X145350466Y-137926904D02*
X145112371Y-138165000D01*
X145112371Y-138165000D02*
X144636180Y-138403095D01*
X144636180Y-138403095D02*
X144159990Y-138403095D01*
X144159990Y-138403095D02*
X143683799Y-138165000D01*
X143683799Y-138165000D02*
X143445704Y-137926904D01*
X143445704Y-137926904D02*
X143207609Y-137450714D01*
X143207609Y-137450714D02*
X142969513Y-136498333D01*
X142969513Y-136498333D02*
X142969513Y-135307857D01*
X142969513Y-135307857D02*
X143207609Y-134355476D01*
X143207609Y-134355476D02*
X143445704Y-133879285D01*
X143445704Y-133879285D02*
X143683799Y-133641190D01*
X143683799Y-133641190D02*
X144159990Y-133403095D01*
X150112371Y-135069761D02*
X150112371Y-138403095D01*
X148921895Y-133165000D02*
X147731418Y-136736428D01*
X147731418Y-136736428D02*
X150826657Y-136736428D01*
X155350466Y-138403095D02*
X152493323Y-138403095D01*
X153921895Y-138403095D02*
X153921895Y-133403095D01*
X153921895Y-133403095D02*
X153445704Y-134117380D01*
X153445704Y-134117380D02*
X152969514Y-134593571D01*
X152969514Y-134593571D02*
X152493323Y-134831666D01*
X160826657Y-138403095D02*
X163445705Y-135069761D01*
X160826657Y-135069761D02*
X163445705Y-138403095D01*
X171302848Y-133403095D02*
X170350467Y-133403095D01*
X170350467Y-133403095D02*
X169874276Y-133641190D01*
X169874276Y-133641190D02*
X169636181Y-133879285D01*
X169636181Y-133879285D02*
X169159991Y-134593571D01*
X169159991Y-134593571D02*
X168921895Y-135545952D01*
X168921895Y-135545952D02*
X168921895Y-137450714D01*
X168921895Y-137450714D02*
X169159991Y-137926904D01*
X169159991Y-137926904D02*
X169398086Y-138165000D01*
X169398086Y-138165000D02*
X169874276Y-138403095D01*
X169874276Y-138403095D02*
X170826657Y-138403095D01*
X170826657Y-138403095D02*
X171302848Y-138165000D01*
X171302848Y-138165000D02*
X171540943Y-137926904D01*
X171540943Y-137926904D02*
X171779038Y-137450714D01*
X171779038Y-137450714D02*
X171779038Y-136260238D01*
X171779038Y-136260238D02*
X171540943Y-135784047D01*
X171540943Y-135784047D02*
X171302848Y-135545952D01*
X171302848Y-135545952D02*
X170826657Y-135307857D01*
X170826657Y-135307857D02*
X169874276Y-135307857D01*
X169874276Y-135307857D02*
X169398086Y-135545952D01*
X169398086Y-135545952D02*
X169159991Y-135784047D01*
X169159991Y-135784047D02*
X168921895Y-136260238D01*
X173445705Y-133403095D02*
X176779039Y-133403095D01*
X176779039Y-133403095D02*
X174636181Y-138403095D01*
X178683801Y-137926904D02*
X178921896Y-138165000D01*
X178921896Y-138165000D02*
X178683801Y-138403095D01*
X178683801Y-138403095D02*
X178445705Y-138165000D01*
X178445705Y-138165000D02*
X178683801Y-137926904D01*
X178683801Y-137926904D02*
X178683801Y-138403095D01*
X181302848Y-138403095D02*
X182255229Y-138403095D01*
X182255229Y-138403095D02*
X182731419Y-138165000D01*
X182731419Y-138165000D02*
X182969515Y-137926904D01*
X182969515Y-137926904D02*
X183445705Y-137212619D01*
X183445705Y-137212619D02*
X183683800Y-136260238D01*
X183683800Y-136260238D02*
X183683800Y-134355476D01*
X183683800Y-134355476D02*
X183445705Y-133879285D01*
X183445705Y-133879285D02*
X183207610Y-133641190D01*
X183207610Y-133641190D02*
X182731419Y-133403095D01*
X182731419Y-133403095D02*
X181779038Y-133403095D01*
X181779038Y-133403095D02*
X181302848Y-133641190D01*
X181302848Y-133641190D02*
X181064753Y-133879285D01*
X181064753Y-133879285D02*
X180826657Y-134355476D01*
X180826657Y-134355476D02*
X180826657Y-135545952D01*
X180826657Y-135545952D02*
X181064753Y-136022142D01*
X181064753Y-136022142D02*
X181302848Y-136260238D01*
X181302848Y-136260238D02*
X181779038Y-136498333D01*
X181779038Y-136498333D02*
X182731419Y-136498333D01*
X182731419Y-136498333D02*
X183207610Y-136260238D01*
X183207610Y-136260238D02*
X183445705Y-136022142D01*
X183445705Y-136022142D02*
X183683800Y-135545952D01*
X185350467Y-133403095D02*
X188683801Y-133403095D01*
X188683801Y-133403095D02*
X186540943Y-138403095D01*
X191540944Y-133403095D02*
X192017134Y-133403095D01*
X192017134Y-133403095D02*
X192493325Y-133641190D01*
X192493325Y-133641190D02*
X192731420Y-133879285D01*
X192731420Y-133879285D02*
X192969515Y-134355476D01*
X192969515Y-134355476D02*
X193207610Y-135307857D01*
X193207610Y-135307857D02*
X193207610Y-136498333D01*
X193207610Y-136498333D02*
X192969515Y-137450714D01*
X192969515Y-137450714D02*
X192731420Y-137926904D01*
X192731420Y-137926904D02*
X192493325Y-138165000D01*
X192493325Y-138165000D02*
X192017134Y-138403095D01*
X192017134Y-138403095D02*
X191540944Y-138403095D01*
X191540944Y-138403095D02*
X191064753Y-138165000D01*
X191064753Y-138165000D02*
X190826658Y-137926904D01*
X190826658Y-137926904D02*
X190588563Y-137450714D01*
X190588563Y-137450714D02*
X190350467Y-136498333D01*
X190350467Y-136498333D02*
X190350467Y-135307857D01*
X190350467Y-135307857D02*
X190588563Y-134355476D01*
X190588563Y-134355476D02*
X190826658Y-133879285D01*
X190826658Y-133879285D02*
X191064753Y-133641190D01*
X191064753Y-133641190D02*
X191540944Y-133403095D01*
X197493325Y-135069761D02*
X197493325Y-138403095D01*
X196302849Y-133165000D02*
X195112372Y-136736428D01*
X195112372Y-136736428D02*
X198207611Y-136736428D01*
X203921897Y-138403095D02*
X203921897Y-135069761D01*
X203921897Y-135545952D02*
X204159992Y-135307857D01*
X204159992Y-135307857D02*
X204636182Y-135069761D01*
X204636182Y-135069761D02*
X205350468Y-135069761D01*
X205350468Y-135069761D02*
X205826659Y-135307857D01*
X205826659Y-135307857D02*
X206064754Y-135784047D01*
X206064754Y-135784047D02*
X206064754Y-138403095D01*
X206064754Y-135784047D02*
X206302849Y-135307857D01*
X206302849Y-135307857D02*
X206779040Y-135069761D01*
X206779040Y-135069761D02*
X207493325Y-135069761D01*
X207493325Y-135069761D02*
X207969516Y-135307857D01*
X207969516Y-135307857D02*
X208207611Y-135784047D01*
X208207611Y-135784047D02*
X208207611Y-138403095D01*
X210588564Y-138403095D02*
X210588564Y-135069761D01*
X210588564Y-135545952D02*
X210826659Y-135307857D01*
X210826659Y-135307857D02*
X211302849Y-135069761D01*
X211302849Y-135069761D02*
X212017135Y-135069761D01*
X212017135Y-135069761D02*
X212493326Y-135307857D01*
X212493326Y-135307857D02*
X212731421Y-135784047D01*
X212731421Y-135784047D02*
X212731421Y-138403095D01*
X212731421Y-135784047D02*
X212969516Y-135307857D01*
X212969516Y-135307857D02*
X213445707Y-135069761D01*
X213445707Y-135069761D02*
X214159992Y-135069761D01*
X214159992Y-135069761D02*
X214636183Y-135307857D01*
X214636183Y-135307857D02*
X214874278Y-135784047D01*
X214874278Y-135784047D02*
X214874278Y-138403095D01*
X41064748Y-141929285D02*
X41302844Y-141691190D01*
X41302844Y-141691190D02*
X41779034Y-141453095D01*
X41779034Y-141453095D02*
X42969510Y-141453095D01*
X42969510Y-141453095D02*
X43445701Y-141691190D01*
X43445701Y-141691190D02*
X43683796Y-141929285D01*
X43683796Y-141929285D02*
X43921891Y-142405476D01*
X43921891Y-142405476D02*
X43921891Y-142881666D01*
X43921891Y-142881666D02*
X43683796Y-143595952D01*
X43683796Y-143595952D02*
X40826653Y-146453095D01*
X40826653Y-146453095D02*
X43921891Y-146453095D01*
X46064749Y-145976904D02*
X46302844Y-146215000D01*
X46302844Y-146215000D02*
X46064749Y-146453095D01*
X46064749Y-146453095D02*
X45826653Y-146215000D01*
X45826653Y-146215000D02*
X46064749Y-145976904D01*
X46064749Y-145976904D02*
X46064749Y-146453095D01*
X52017129Y-141929285D02*
X52255225Y-141691190D01*
X52255225Y-141691190D02*
X52731415Y-141453095D01*
X52731415Y-141453095D02*
X53921891Y-141453095D01*
X53921891Y-141453095D02*
X54398082Y-141691190D01*
X54398082Y-141691190D02*
X54636177Y-141929285D01*
X54636177Y-141929285D02*
X54874272Y-142405476D01*
X54874272Y-142405476D02*
X54874272Y-142881666D01*
X54874272Y-142881666D02*
X54636177Y-143595952D01*
X54636177Y-143595952D02*
X51779034Y-146453095D01*
X51779034Y-146453095D02*
X54874272Y-146453095D01*
X61540939Y-146453095D02*
X61064749Y-146215000D01*
X61064749Y-146215000D02*
X60826654Y-145738809D01*
X60826654Y-145738809D02*
X60826654Y-141453095D01*
X65588559Y-146453095D02*
X65588559Y-143834047D01*
X65588559Y-143834047D02*
X65350464Y-143357857D01*
X65350464Y-143357857D02*
X64874273Y-143119761D01*
X64874273Y-143119761D02*
X63921892Y-143119761D01*
X63921892Y-143119761D02*
X63445702Y-143357857D01*
X65588559Y-146215000D02*
X65112368Y-146453095D01*
X65112368Y-146453095D02*
X63921892Y-146453095D01*
X63921892Y-146453095D02*
X63445702Y-146215000D01*
X63445702Y-146215000D02*
X63207606Y-145738809D01*
X63207606Y-145738809D02*
X63207606Y-145262619D01*
X63207606Y-145262619D02*
X63445702Y-144786428D01*
X63445702Y-144786428D02*
X63921892Y-144548333D01*
X63921892Y-144548333D02*
X65112368Y-144548333D01*
X65112368Y-144548333D02*
X65588559Y-144310238D01*
X67493321Y-143119761D02*
X68683797Y-146453095D01*
X69874274Y-143119761D02*
X68683797Y-146453095D01*
X68683797Y-146453095D02*
X68207607Y-147643571D01*
X68207607Y-147643571D02*
X67969512Y-147881666D01*
X67969512Y-147881666D02*
X67493321Y-148119761D01*
X73683798Y-146215000D02*
X73207607Y-146453095D01*
X73207607Y-146453095D02*
X72255226Y-146453095D01*
X72255226Y-146453095D02*
X71779036Y-146215000D01*
X71779036Y-146215000D02*
X71540940Y-145738809D01*
X71540940Y-145738809D02*
X71540940Y-143834047D01*
X71540940Y-143834047D02*
X71779036Y-143357857D01*
X71779036Y-143357857D02*
X72255226Y-143119761D01*
X72255226Y-143119761D02*
X73207607Y-143119761D01*
X73207607Y-143119761D02*
X73683798Y-143357857D01*
X73683798Y-143357857D02*
X73921893Y-143834047D01*
X73921893Y-143834047D02*
X73921893Y-144310238D01*
X73921893Y-144310238D02*
X71540940Y-144786428D01*
X76064750Y-146453095D02*
X76064750Y-143119761D01*
X76064750Y-144072142D02*
X76302845Y-143595952D01*
X76302845Y-143595952D02*
X76540940Y-143357857D01*
X76540940Y-143357857D02*
X77017131Y-143119761D01*
X77017131Y-143119761D02*
X77493321Y-143119761D01*
X40826653Y-149503095D02*
X43921891Y-149503095D01*
X43921891Y-149503095D02*
X42255225Y-151407857D01*
X42255225Y-151407857D02*
X42969510Y-151407857D01*
X42969510Y-151407857D02*
X43445701Y-151645952D01*
X43445701Y-151645952D02*
X43683796Y-151884047D01*
X43683796Y-151884047D02*
X43921891Y-152360238D01*
X43921891Y-152360238D02*
X43921891Y-153550714D01*
X43921891Y-153550714D02*
X43683796Y-154026904D01*
X43683796Y-154026904D02*
X43445701Y-154265000D01*
X43445701Y-154265000D02*
X42969510Y-154503095D01*
X42969510Y-154503095D02*
X41540939Y-154503095D01*
X41540939Y-154503095D02*
X41064748Y-154265000D01*
X41064748Y-154265000D02*
X40826653Y-154026904D01*
X46064749Y-154026904D02*
X46302844Y-154265000D01*
X46302844Y-154265000D02*
X46064749Y-154503095D01*
X46064749Y-154503095D02*
X45826653Y-154265000D01*
X45826653Y-154265000D02*
X46064749Y-154026904D01*
X46064749Y-154026904D02*
X46064749Y-154503095D01*
X54874272Y-154503095D02*
X52017129Y-154503095D01*
X53445701Y-154503095D02*
X53445701Y-149503095D01*
X53445701Y-149503095D02*
X52969510Y-150217380D01*
X52969510Y-150217380D02*
X52493320Y-150693571D01*
X52493320Y-150693571D02*
X52017129Y-150931666D01*
X57017130Y-154026904D02*
X57255225Y-154265000D01*
X57255225Y-154265000D02*
X57017130Y-154503095D01*
X57017130Y-154503095D02*
X56779034Y-154265000D01*
X56779034Y-154265000D02*
X57017130Y-154026904D01*
X57017130Y-154026904D02*
X57017130Y-154503095D01*
X61540939Y-149503095D02*
X60588558Y-149503095D01*
X60588558Y-149503095D02*
X60112367Y-149741190D01*
X60112367Y-149741190D02*
X59874272Y-149979285D01*
X59874272Y-149979285D02*
X59398082Y-150693571D01*
X59398082Y-150693571D02*
X59159986Y-151645952D01*
X59159986Y-151645952D02*
X59159986Y-153550714D01*
X59159986Y-153550714D02*
X59398082Y-154026904D01*
X59398082Y-154026904D02*
X59636177Y-154265000D01*
X59636177Y-154265000D02*
X60112367Y-154503095D01*
X60112367Y-154503095D02*
X61064748Y-154503095D01*
X61064748Y-154503095D02*
X61540939Y-154265000D01*
X61540939Y-154265000D02*
X61779034Y-154026904D01*
X61779034Y-154026904D02*
X62017129Y-153550714D01*
X62017129Y-153550714D02*
X62017129Y-152360238D01*
X62017129Y-152360238D02*
X61779034Y-151884047D01*
X61779034Y-151884047D02*
X61540939Y-151645952D01*
X61540939Y-151645952D02*
X61064748Y-151407857D01*
X61064748Y-151407857D02*
X60112367Y-151407857D01*
X60112367Y-151407857D02*
X59636177Y-151645952D01*
X59636177Y-151645952D02*
X59398082Y-151884047D01*
X59398082Y-151884047D02*
X59159986Y-152360238D01*
X67969511Y-154503095D02*
X67969511Y-151169761D01*
X67969511Y-151645952D02*
X68207606Y-151407857D01*
X68207606Y-151407857D02*
X68683796Y-151169761D01*
X68683796Y-151169761D02*
X69398082Y-151169761D01*
X69398082Y-151169761D02*
X69874273Y-151407857D01*
X69874273Y-151407857D02*
X70112368Y-151884047D01*
X70112368Y-151884047D02*
X70112368Y-154503095D01*
X70112368Y-151884047D02*
X70350463Y-151407857D01*
X70350463Y-151407857D02*
X70826654Y-151169761D01*
X70826654Y-151169761D02*
X71540939Y-151169761D01*
X71540939Y-151169761D02*
X72017130Y-151407857D01*
X72017130Y-151407857D02*
X72255225Y-151884047D01*
X72255225Y-151884047D02*
X72255225Y-154503095D01*
X74636178Y-154503095D02*
X74636178Y-151169761D01*
X74636178Y-151645952D02*
X74874273Y-151407857D01*
X74874273Y-151407857D02*
X75350463Y-151169761D01*
X75350463Y-151169761D02*
X76064749Y-151169761D01*
X76064749Y-151169761D02*
X76540940Y-151407857D01*
X76540940Y-151407857D02*
X76779035Y-151884047D01*
X76779035Y-151884047D02*
X76779035Y-154503095D01*
X76779035Y-151884047D02*
X77017130Y-151407857D01*
X77017130Y-151407857D02*
X77493321Y-151169761D01*
X77493321Y-151169761D02*
X78207606Y-151169761D01*
X78207606Y-151169761D02*
X78683797Y-151407857D01*
X78683797Y-151407857D02*
X78921892Y-151884047D01*
X78921892Y-151884047D02*
X78921892Y-154503095D01*
X84398083Y-151169761D02*
X86302845Y-151169761D01*
X85112369Y-149503095D02*
X85112369Y-153788809D01*
X85112369Y-153788809D02*
X85350464Y-154265000D01*
X85350464Y-154265000D02*
X85826654Y-154503095D01*
X85826654Y-154503095D02*
X86302845Y-154503095D01*
X87969512Y-154503095D02*
X87969512Y-149503095D01*
X90112369Y-154503095D02*
X90112369Y-151884047D01*
X90112369Y-151884047D02*
X89874274Y-151407857D01*
X89874274Y-151407857D02*
X89398083Y-151169761D01*
X89398083Y-151169761D02*
X88683797Y-151169761D01*
X88683797Y-151169761D02*
X88207607Y-151407857D01*
X88207607Y-151407857D02*
X87969512Y-151645952D01*
X92493322Y-154503095D02*
X92493322Y-151169761D01*
X92493322Y-149503095D02*
X92255226Y-149741190D01*
X92255226Y-149741190D02*
X92493322Y-149979285D01*
X92493322Y-149979285D02*
X92731417Y-149741190D01*
X92731417Y-149741190D02*
X92493322Y-149503095D01*
X92493322Y-149503095D02*
X92493322Y-149979285D01*
X97017131Y-154265000D02*
X96540940Y-154503095D01*
X96540940Y-154503095D02*
X95588559Y-154503095D01*
X95588559Y-154503095D02*
X95112369Y-154265000D01*
X95112369Y-154265000D02*
X94874274Y-154026904D01*
X94874274Y-154026904D02*
X94636178Y-153550714D01*
X94636178Y-153550714D02*
X94636178Y-152122142D01*
X94636178Y-152122142D02*
X94874274Y-151645952D01*
X94874274Y-151645952D02*
X95112369Y-151407857D01*
X95112369Y-151407857D02*
X95588559Y-151169761D01*
X95588559Y-151169761D02*
X96540940Y-151169761D01*
X96540940Y-151169761D02*
X97017131Y-151407857D01*
X99159988Y-154503095D02*
X99159988Y-149503095D01*
X99636178Y-152598333D02*
X101064750Y-154503095D01*
X101064750Y-151169761D02*
X99159988Y-153074523D01*
X103207607Y-151169761D02*
X103207607Y-154503095D01*
X103207607Y-151645952D02*
X103445702Y-151407857D01*
X103445702Y-151407857D02*
X103921892Y-151169761D01*
X103921892Y-151169761D02*
X104636178Y-151169761D01*
X104636178Y-151169761D02*
X105112369Y-151407857D01*
X105112369Y-151407857D02*
X105350464Y-151884047D01*
X105350464Y-151884047D02*
X105350464Y-154503095D01*
X109636179Y-154265000D02*
X109159988Y-154503095D01*
X109159988Y-154503095D02*
X108207607Y-154503095D01*
X108207607Y-154503095D02*
X107731417Y-154265000D01*
X107731417Y-154265000D02*
X107493321Y-153788809D01*
X107493321Y-153788809D02*
X107493321Y-151884047D01*
X107493321Y-151884047D02*
X107731417Y-151407857D01*
X107731417Y-151407857D02*
X108207607Y-151169761D01*
X108207607Y-151169761D02*
X109159988Y-151169761D01*
X109159988Y-151169761D02*
X109636179Y-151407857D01*
X109636179Y-151407857D02*
X109874274Y-151884047D01*
X109874274Y-151884047D02*
X109874274Y-152360238D01*
X109874274Y-152360238D02*
X107493321Y-152836428D01*
X111779035Y-154265000D02*
X112255226Y-154503095D01*
X112255226Y-154503095D02*
X113207607Y-154503095D01*
X113207607Y-154503095D02*
X113683797Y-154265000D01*
X113683797Y-154265000D02*
X113921893Y-153788809D01*
X113921893Y-153788809D02*
X113921893Y-153550714D01*
X113921893Y-153550714D02*
X113683797Y-153074523D01*
X113683797Y-153074523D02*
X113207607Y-152836428D01*
X113207607Y-152836428D02*
X112493321Y-152836428D01*
X112493321Y-152836428D02*
X112017131Y-152598333D01*
X112017131Y-152598333D02*
X111779035Y-152122142D01*
X111779035Y-152122142D02*
X111779035Y-151884047D01*
X111779035Y-151884047D02*
X112017131Y-151407857D01*
X112017131Y-151407857D02*
X112493321Y-151169761D01*
X112493321Y-151169761D02*
X113207607Y-151169761D01*
X113207607Y-151169761D02*
X113683797Y-151407857D01*
X115826654Y-154265000D02*
X116302845Y-154503095D01*
X116302845Y-154503095D02*
X117255226Y-154503095D01*
X117255226Y-154503095D02*
X117731416Y-154265000D01*
X117731416Y-154265000D02*
X117969512Y-153788809D01*
X117969512Y-153788809D02*
X117969512Y-153550714D01*
X117969512Y-153550714D02*
X117731416Y-153074523D01*
X117731416Y-153074523D02*
X117255226Y-152836428D01*
X117255226Y-152836428D02*
X116540940Y-152836428D01*
X116540940Y-152836428D02*
X116064750Y-152598333D01*
X116064750Y-152598333D02*
X115826654Y-152122142D01*
X115826654Y-152122142D02*
X115826654Y-151884047D01*
X115826654Y-151884047D02*
X116064750Y-151407857D01*
X116064750Y-151407857D02*
X116540940Y-151169761D01*
X116540940Y-151169761D02*
X117255226Y-151169761D01*
X117255226Y-151169761D02*
X117731416Y-151407857D01*
X43445701Y-159219761D02*
X43445701Y-162553095D01*
X42255225Y-157315000D02*
X41064748Y-160886428D01*
X41064748Y-160886428D02*
X44159987Y-160886428D01*
X46064749Y-162076904D02*
X46302844Y-162315000D01*
X46302844Y-162315000D02*
X46064749Y-162553095D01*
X46064749Y-162553095D02*
X45826653Y-162315000D01*
X45826653Y-162315000D02*
X46064749Y-162076904D01*
X46064749Y-162076904D02*
X46064749Y-162553095D01*
X52017129Y-162315000D02*
X52731415Y-162553095D01*
X52731415Y-162553095D02*
X53921891Y-162553095D01*
X53921891Y-162553095D02*
X54398082Y-162315000D01*
X54398082Y-162315000D02*
X54636177Y-162076904D01*
X54636177Y-162076904D02*
X54874272Y-161600714D01*
X54874272Y-161600714D02*
X54874272Y-161124523D01*
X54874272Y-161124523D02*
X54636177Y-160648333D01*
X54636177Y-160648333D02*
X54398082Y-160410238D01*
X54398082Y-160410238D02*
X53921891Y-160172142D01*
X53921891Y-160172142D02*
X52969510Y-159934047D01*
X52969510Y-159934047D02*
X52493320Y-159695952D01*
X52493320Y-159695952D02*
X52255225Y-159457857D01*
X52255225Y-159457857D02*
X52017129Y-158981666D01*
X52017129Y-158981666D02*
X52017129Y-158505476D01*
X52017129Y-158505476D02*
X52255225Y-158029285D01*
X52255225Y-158029285D02*
X52493320Y-157791190D01*
X52493320Y-157791190D02*
X52969510Y-157553095D01*
X52969510Y-157553095D02*
X54159987Y-157553095D01*
X54159987Y-157553095D02*
X54874272Y-157791190D01*
X57017130Y-162553095D02*
X57017130Y-159219761D01*
X57017130Y-157553095D02*
X56779034Y-157791190D01*
X56779034Y-157791190D02*
X57017130Y-158029285D01*
X57017130Y-158029285D02*
X57255225Y-157791190D01*
X57255225Y-157791190D02*
X57017130Y-157553095D01*
X57017130Y-157553095D02*
X57017130Y-158029285D01*
X60112367Y-162553095D02*
X59636177Y-162315000D01*
X59636177Y-162315000D02*
X59398082Y-161838809D01*
X59398082Y-161838809D02*
X59398082Y-157553095D01*
X62017130Y-162553095D02*
X62017130Y-157553095D01*
X62493320Y-160648333D02*
X63921892Y-162553095D01*
X63921892Y-159219761D02*
X62017130Y-161124523D01*
X65826653Y-162315000D02*
X66302844Y-162553095D01*
X66302844Y-162553095D02*
X67255225Y-162553095D01*
X67255225Y-162553095D02*
X67731415Y-162315000D01*
X67731415Y-162315000D02*
X67969511Y-161838809D01*
X67969511Y-161838809D02*
X67969511Y-161600714D01*
X67969511Y-161600714D02*
X67731415Y-161124523D01*
X67731415Y-161124523D02*
X67255225Y-160886428D01*
X67255225Y-160886428D02*
X66540939Y-160886428D01*
X66540939Y-160886428D02*
X66064749Y-160648333D01*
X66064749Y-160648333D02*
X65826653Y-160172142D01*
X65826653Y-160172142D02*
X65826653Y-159934047D01*
X65826653Y-159934047D02*
X66064749Y-159457857D01*
X66064749Y-159457857D02*
X66540939Y-159219761D01*
X66540939Y-159219761D02*
X67255225Y-159219761D01*
X67255225Y-159219761D02*
X67731415Y-159457857D01*
X72255225Y-162315000D02*
X71779034Y-162553095D01*
X71779034Y-162553095D02*
X70826653Y-162553095D01*
X70826653Y-162553095D02*
X70350463Y-162315000D01*
X70350463Y-162315000D02*
X70112368Y-162076904D01*
X70112368Y-162076904D02*
X69874272Y-161600714D01*
X69874272Y-161600714D02*
X69874272Y-160172142D01*
X69874272Y-160172142D02*
X70112368Y-159695952D01*
X70112368Y-159695952D02*
X70350463Y-159457857D01*
X70350463Y-159457857D02*
X70826653Y-159219761D01*
X70826653Y-159219761D02*
X71779034Y-159219761D01*
X71779034Y-159219761D02*
X72255225Y-159457857D01*
X74398082Y-162553095D02*
X74398082Y-159219761D01*
X74398082Y-160172142D02*
X74636177Y-159695952D01*
X74636177Y-159695952D02*
X74874272Y-159457857D01*
X74874272Y-159457857D02*
X75350463Y-159219761D01*
X75350463Y-159219761D02*
X75826653Y-159219761D01*
X79398082Y-162315000D02*
X78921891Y-162553095D01*
X78921891Y-162553095D02*
X77969510Y-162553095D01*
X77969510Y-162553095D02*
X77493320Y-162315000D01*
X77493320Y-162315000D02*
X77255224Y-161838809D01*
X77255224Y-161838809D02*
X77255224Y-159934047D01*
X77255224Y-159934047D02*
X77493320Y-159457857D01*
X77493320Y-159457857D02*
X77969510Y-159219761D01*
X77969510Y-159219761D02*
X78921891Y-159219761D01*
X78921891Y-159219761D02*
X79398082Y-159457857D01*
X79398082Y-159457857D02*
X79636177Y-159934047D01*
X79636177Y-159934047D02*
X79636177Y-160410238D01*
X79636177Y-160410238D02*
X77255224Y-160886428D01*
X83683796Y-162315000D02*
X83207605Y-162553095D01*
X83207605Y-162553095D02*
X82255224Y-162553095D01*
X82255224Y-162553095D02*
X81779034Y-162315000D01*
X81779034Y-162315000D02*
X81540938Y-161838809D01*
X81540938Y-161838809D02*
X81540938Y-159934047D01*
X81540938Y-159934047D02*
X81779034Y-159457857D01*
X81779034Y-159457857D02*
X82255224Y-159219761D01*
X82255224Y-159219761D02*
X83207605Y-159219761D01*
X83207605Y-159219761D02*
X83683796Y-159457857D01*
X83683796Y-159457857D02*
X83921891Y-159934047D01*
X83921891Y-159934047D02*
X83921891Y-160410238D01*
X83921891Y-160410238D02*
X81540938Y-160886428D01*
X86064748Y-159219761D02*
X86064748Y-162553095D01*
X86064748Y-159695952D02*
X86302843Y-159457857D01*
X86302843Y-159457857D02*
X86779033Y-159219761D01*
X86779033Y-159219761D02*
X87493319Y-159219761D01*
X87493319Y-159219761D02*
X87969510Y-159457857D01*
X87969510Y-159457857D02*
X88207605Y-159934047D01*
X88207605Y-159934047D02*
X88207605Y-162553095D01*
X96540939Y-159219761D02*
X96540939Y-162553095D01*
X94398082Y-159219761D02*
X94398082Y-161838809D01*
X94398082Y-161838809D02*
X94636177Y-162315000D01*
X94636177Y-162315000D02*
X95112367Y-162553095D01*
X95112367Y-162553095D02*
X95826653Y-162553095D01*
X95826653Y-162553095D02*
X96302844Y-162315000D01*
X96302844Y-162315000D02*
X96540939Y-162076904D01*
X98683796Y-162315000D02*
X99159987Y-162553095D01*
X99159987Y-162553095D02*
X100112368Y-162553095D01*
X100112368Y-162553095D02*
X100588558Y-162315000D01*
X100588558Y-162315000D02*
X100826654Y-161838809D01*
X100826654Y-161838809D02*
X100826654Y-161600714D01*
X100826654Y-161600714D02*
X100588558Y-161124523D01*
X100588558Y-161124523D02*
X100112368Y-160886428D01*
X100112368Y-160886428D02*
X99398082Y-160886428D01*
X99398082Y-160886428D02*
X98921892Y-160648333D01*
X98921892Y-160648333D02*
X98683796Y-160172142D01*
X98683796Y-160172142D02*
X98683796Y-159934047D01*
X98683796Y-159934047D02*
X98921892Y-159457857D01*
X98921892Y-159457857D02*
X99398082Y-159219761D01*
X99398082Y-159219761D02*
X100112368Y-159219761D01*
X100112368Y-159219761D02*
X100588558Y-159457857D01*
X102969511Y-162553095D02*
X102969511Y-159219761D01*
X102969511Y-157553095D02*
X102731415Y-157791190D01*
X102731415Y-157791190D02*
X102969511Y-158029285D01*
X102969511Y-158029285D02*
X103207606Y-157791190D01*
X103207606Y-157791190D02*
X102969511Y-157553095D01*
X102969511Y-157553095D02*
X102969511Y-158029285D01*
X105350463Y-159219761D02*
X105350463Y-162553095D01*
X105350463Y-159695952D02*
X105588558Y-159457857D01*
X105588558Y-159457857D02*
X106064748Y-159219761D01*
X106064748Y-159219761D02*
X106779034Y-159219761D01*
X106779034Y-159219761D02*
X107255225Y-159457857D01*
X107255225Y-159457857D02*
X107493320Y-159934047D01*
X107493320Y-159934047D02*
X107493320Y-162553095D01*
X112017130Y-159219761D02*
X112017130Y-163267380D01*
X112017130Y-163267380D02*
X111779035Y-163743571D01*
X111779035Y-163743571D02*
X111540939Y-163981666D01*
X111540939Y-163981666D02*
X111064749Y-164219761D01*
X111064749Y-164219761D02*
X110350463Y-164219761D01*
X110350463Y-164219761D02*
X109874273Y-163981666D01*
X112017130Y-162315000D02*
X111540939Y-162553095D01*
X111540939Y-162553095D02*
X110588558Y-162553095D01*
X110588558Y-162553095D02*
X110112368Y-162315000D01*
X110112368Y-162315000D02*
X109874273Y-162076904D01*
X109874273Y-162076904D02*
X109636177Y-161600714D01*
X109636177Y-161600714D02*
X109636177Y-160172142D01*
X109636177Y-160172142D02*
X109874273Y-159695952D01*
X109874273Y-159695952D02*
X110112368Y-159457857D01*
X110112368Y-159457857D02*
X110588558Y-159219761D01*
X110588558Y-159219761D02*
X111540939Y-159219761D01*
X111540939Y-159219761D02*
X112017130Y-159457857D01*
X117731416Y-159219761D02*
X118921892Y-162553095D01*
X120112369Y-159219761D02*
X118921892Y-162553095D01*
X118921892Y-162553095D02*
X118445702Y-163743571D01*
X118445702Y-163743571D02*
X118207607Y-163981666D01*
X118207607Y-163981666D02*
X117731416Y-164219761D01*
X123921893Y-162315000D02*
X123445702Y-162553095D01*
X123445702Y-162553095D02*
X122493321Y-162553095D01*
X122493321Y-162553095D02*
X122017131Y-162315000D01*
X122017131Y-162315000D02*
X121779035Y-161838809D01*
X121779035Y-161838809D02*
X121779035Y-159934047D01*
X121779035Y-159934047D02*
X122017131Y-159457857D01*
X122017131Y-159457857D02*
X122493321Y-159219761D01*
X122493321Y-159219761D02*
X123445702Y-159219761D01*
X123445702Y-159219761D02*
X123921893Y-159457857D01*
X123921893Y-159457857D02*
X124159988Y-159934047D01*
X124159988Y-159934047D02*
X124159988Y-160410238D01*
X124159988Y-160410238D02*
X121779035Y-160886428D01*
X127017130Y-162553095D02*
X126540940Y-162315000D01*
X126540940Y-162315000D02*
X126302845Y-161838809D01*
X126302845Y-161838809D02*
X126302845Y-157553095D01*
X129636178Y-162553095D02*
X129159988Y-162315000D01*
X129159988Y-162315000D02*
X128921893Y-161838809D01*
X128921893Y-161838809D02*
X128921893Y-157553095D01*
X132255226Y-162553095D02*
X131779036Y-162315000D01*
X131779036Y-162315000D02*
X131540941Y-162076904D01*
X131540941Y-162076904D02*
X131302845Y-161600714D01*
X131302845Y-161600714D02*
X131302845Y-160172142D01*
X131302845Y-160172142D02*
X131540941Y-159695952D01*
X131540941Y-159695952D02*
X131779036Y-159457857D01*
X131779036Y-159457857D02*
X132255226Y-159219761D01*
X132255226Y-159219761D02*
X132969512Y-159219761D01*
X132969512Y-159219761D02*
X133445703Y-159457857D01*
X133445703Y-159457857D02*
X133683798Y-159695952D01*
X133683798Y-159695952D02*
X133921893Y-160172142D01*
X133921893Y-160172142D02*
X133921893Y-161600714D01*
X133921893Y-161600714D02*
X133683798Y-162076904D01*
X133683798Y-162076904D02*
X133445703Y-162315000D01*
X133445703Y-162315000D02*
X132969512Y-162553095D01*
X132969512Y-162553095D02*
X132255226Y-162553095D01*
X135588560Y-159219761D02*
X136540941Y-162553095D01*
X136540941Y-162553095D02*
X137493322Y-160172142D01*
X137493322Y-160172142D02*
X138445703Y-162553095D01*
X138445703Y-162553095D02*
X139398084Y-159219761D01*
X43683796Y-165603095D02*
X41302844Y-165603095D01*
X41302844Y-165603095D02*
X41064748Y-167984047D01*
X41064748Y-167984047D02*
X41302844Y-167745952D01*
X41302844Y-167745952D02*
X41779034Y-167507857D01*
X41779034Y-167507857D02*
X42969510Y-167507857D01*
X42969510Y-167507857D02*
X43445701Y-167745952D01*
X43445701Y-167745952D02*
X43683796Y-167984047D01*
X43683796Y-167984047D02*
X43921891Y-168460238D01*
X43921891Y-168460238D02*
X43921891Y-169650714D01*
X43921891Y-169650714D02*
X43683796Y-170126904D01*
X43683796Y-170126904D02*
X43445701Y-170365000D01*
X43445701Y-170365000D02*
X42969510Y-170603095D01*
X42969510Y-170603095D02*
X41779034Y-170603095D01*
X41779034Y-170603095D02*
X41302844Y-170365000D01*
X41302844Y-170365000D02*
X41064748Y-170126904D01*
X46064749Y-170126904D02*
X46302844Y-170365000D01*
X46302844Y-170365000D02*
X46064749Y-170603095D01*
X46064749Y-170603095D02*
X45826653Y-170365000D01*
X45826653Y-170365000D02*
X46064749Y-170126904D01*
X46064749Y-170126904D02*
X46064749Y-170603095D01*
X52017129Y-170365000D02*
X52731415Y-170603095D01*
X52731415Y-170603095D02*
X53921891Y-170603095D01*
X53921891Y-170603095D02*
X54398082Y-170365000D01*
X54398082Y-170365000D02*
X54636177Y-170126904D01*
X54636177Y-170126904D02*
X54874272Y-169650714D01*
X54874272Y-169650714D02*
X54874272Y-169174523D01*
X54874272Y-169174523D02*
X54636177Y-168698333D01*
X54636177Y-168698333D02*
X54398082Y-168460238D01*
X54398082Y-168460238D02*
X53921891Y-168222142D01*
X53921891Y-168222142D02*
X52969510Y-167984047D01*
X52969510Y-167984047D02*
X52493320Y-167745952D01*
X52493320Y-167745952D02*
X52255225Y-167507857D01*
X52255225Y-167507857D02*
X52017129Y-167031666D01*
X52017129Y-167031666D02*
X52017129Y-166555476D01*
X52017129Y-166555476D02*
X52255225Y-166079285D01*
X52255225Y-166079285D02*
X52493320Y-165841190D01*
X52493320Y-165841190D02*
X52969510Y-165603095D01*
X52969510Y-165603095D02*
X54159987Y-165603095D01*
X54159987Y-165603095D02*
X54874272Y-165841190D01*
X57731415Y-170603095D02*
X57255225Y-170365000D01*
X57255225Y-170365000D02*
X57017130Y-170126904D01*
X57017130Y-170126904D02*
X56779034Y-169650714D01*
X56779034Y-169650714D02*
X56779034Y-168222142D01*
X56779034Y-168222142D02*
X57017130Y-167745952D01*
X57017130Y-167745952D02*
X57255225Y-167507857D01*
X57255225Y-167507857D02*
X57731415Y-167269761D01*
X57731415Y-167269761D02*
X58445701Y-167269761D01*
X58445701Y-167269761D02*
X58921892Y-167507857D01*
X58921892Y-167507857D02*
X59159987Y-167745952D01*
X59159987Y-167745952D02*
X59398082Y-168222142D01*
X59398082Y-168222142D02*
X59398082Y-169650714D01*
X59398082Y-169650714D02*
X59159987Y-170126904D01*
X59159987Y-170126904D02*
X58921892Y-170365000D01*
X58921892Y-170365000D02*
X58445701Y-170603095D01*
X58445701Y-170603095D02*
X57731415Y-170603095D01*
X62255225Y-170603095D02*
X61779035Y-170365000D01*
X61779035Y-170365000D02*
X61540940Y-169888809D01*
X61540940Y-169888809D02*
X61540940Y-165603095D01*
X66302845Y-170603095D02*
X66302845Y-165603095D01*
X66302845Y-170365000D02*
X65826654Y-170603095D01*
X65826654Y-170603095D02*
X64874273Y-170603095D01*
X64874273Y-170603095D02*
X64398083Y-170365000D01*
X64398083Y-170365000D02*
X64159988Y-170126904D01*
X64159988Y-170126904D02*
X63921892Y-169650714D01*
X63921892Y-169650714D02*
X63921892Y-168222142D01*
X63921892Y-168222142D02*
X64159988Y-167745952D01*
X64159988Y-167745952D02*
X64398083Y-167507857D01*
X64398083Y-167507857D02*
X64874273Y-167269761D01*
X64874273Y-167269761D02*
X65826654Y-167269761D01*
X65826654Y-167269761D02*
X66302845Y-167507857D01*
X70588560Y-170365000D02*
X70112369Y-170603095D01*
X70112369Y-170603095D02*
X69159988Y-170603095D01*
X69159988Y-170603095D02*
X68683798Y-170365000D01*
X68683798Y-170365000D02*
X68445702Y-169888809D01*
X68445702Y-169888809D02*
X68445702Y-167984047D01*
X68445702Y-167984047D02*
X68683798Y-167507857D01*
X68683798Y-167507857D02*
X69159988Y-167269761D01*
X69159988Y-167269761D02*
X70112369Y-167269761D01*
X70112369Y-167269761D02*
X70588560Y-167507857D01*
X70588560Y-167507857D02*
X70826655Y-167984047D01*
X70826655Y-167984047D02*
X70826655Y-168460238D01*
X70826655Y-168460238D02*
X68445702Y-168936428D01*
X72969512Y-170603095D02*
X72969512Y-167269761D01*
X72969512Y-168222142D02*
X73207607Y-167745952D01*
X73207607Y-167745952D02*
X73445702Y-167507857D01*
X73445702Y-167507857D02*
X73921893Y-167269761D01*
X73921893Y-167269761D02*
X74398083Y-167269761D01*
X79874274Y-170603095D02*
X79874274Y-167269761D01*
X79874274Y-167745952D02*
X80112369Y-167507857D01*
X80112369Y-167507857D02*
X80588559Y-167269761D01*
X80588559Y-167269761D02*
X81302845Y-167269761D01*
X81302845Y-167269761D02*
X81779036Y-167507857D01*
X81779036Y-167507857D02*
X82017131Y-167984047D01*
X82017131Y-167984047D02*
X82017131Y-170603095D01*
X82017131Y-167984047D02*
X82255226Y-167507857D01*
X82255226Y-167507857D02*
X82731417Y-167269761D01*
X82731417Y-167269761D02*
X83445702Y-167269761D01*
X83445702Y-167269761D02*
X83921893Y-167507857D01*
X83921893Y-167507857D02*
X84159988Y-167984047D01*
X84159988Y-167984047D02*
X84159988Y-170603095D01*
X88683798Y-170603095D02*
X88683798Y-167984047D01*
X88683798Y-167984047D02*
X88445703Y-167507857D01*
X88445703Y-167507857D02*
X87969512Y-167269761D01*
X87969512Y-167269761D02*
X87017131Y-167269761D01*
X87017131Y-167269761D02*
X86540941Y-167507857D01*
X88683798Y-170365000D02*
X88207607Y-170603095D01*
X88207607Y-170603095D02*
X87017131Y-170603095D01*
X87017131Y-170603095D02*
X86540941Y-170365000D01*
X86540941Y-170365000D02*
X86302845Y-169888809D01*
X86302845Y-169888809D02*
X86302845Y-169412619D01*
X86302845Y-169412619D02*
X86540941Y-168936428D01*
X86540941Y-168936428D02*
X87017131Y-168698333D01*
X87017131Y-168698333D02*
X88207607Y-168698333D01*
X88207607Y-168698333D02*
X88683798Y-168460238D01*
X90826655Y-170365000D02*
X91302846Y-170603095D01*
X91302846Y-170603095D02*
X92255227Y-170603095D01*
X92255227Y-170603095D02*
X92731417Y-170365000D01*
X92731417Y-170365000D02*
X92969513Y-169888809D01*
X92969513Y-169888809D02*
X92969513Y-169650714D01*
X92969513Y-169650714D02*
X92731417Y-169174523D01*
X92731417Y-169174523D02*
X92255227Y-168936428D01*
X92255227Y-168936428D02*
X91540941Y-168936428D01*
X91540941Y-168936428D02*
X91064751Y-168698333D01*
X91064751Y-168698333D02*
X90826655Y-168222142D01*
X90826655Y-168222142D02*
X90826655Y-167984047D01*
X90826655Y-167984047D02*
X91064751Y-167507857D01*
X91064751Y-167507857D02*
X91540941Y-167269761D01*
X91540941Y-167269761D02*
X92255227Y-167269761D01*
X92255227Y-167269761D02*
X92731417Y-167507857D01*
X95112370Y-170603095D02*
X95112370Y-165603095D01*
X95588560Y-168698333D02*
X97017132Y-170603095D01*
X97017132Y-167269761D02*
X95112370Y-169174523D01*
X105112370Y-167269761D02*
X105112370Y-170603095D01*
X102969513Y-167269761D02*
X102969513Y-169888809D01*
X102969513Y-169888809D02*
X103207608Y-170365000D01*
X103207608Y-170365000D02*
X103683798Y-170603095D01*
X103683798Y-170603095D02*
X104398084Y-170603095D01*
X104398084Y-170603095D02*
X104874275Y-170365000D01*
X104874275Y-170365000D02*
X105112370Y-170126904D01*
X107255227Y-170365000D02*
X107731418Y-170603095D01*
X107731418Y-170603095D02*
X108683799Y-170603095D01*
X108683799Y-170603095D02*
X109159989Y-170365000D01*
X109159989Y-170365000D02*
X109398085Y-169888809D01*
X109398085Y-169888809D02*
X109398085Y-169650714D01*
X109398085Y-169650714D02*
X109159989Y-169174523D01*
X109159989Y-169174523D02*
X108683799Y-168936428D01*
X108683799Y-168936428D02*
X107969513Y-168936428D01*
X107969513Y-168936428D02*
X107493323Y-168698333D01*
X107493323Y-168698333D02*
X107255227Y-168222142D01*
X107255227Y-168222142D02*
X107255227Y-167984047D01*
X107255227Y-167984047D02*
X107493323Y-167507857D01*
X107493323Y-167507857D02*
X107969513Y-167269761D01*
X107969513Y-167269761D02*
X108683799Y-167269761D01*
X108683799Y-167269761D02*
X109159989Y-167507857D01*
X111540942Y-170603095D02*
X111540942Y-167269761D01*
X111540942Y-165603095D02*
X111302846Y-165841190D01*
X111302846Y-165841190D02*
X111540942Y-166079285D01*
X111540942Y-166079285D02*
X111779037Y-165841190D01*
X111779037Y-165841190D02*
X111540942Y-165603095D01*
X111540942Y-165603095D02*
X111540942Y-166079285D01*
X113921894Y-167269761D02*
X113921894Y-170603095D01*
X113921894Y-167745952D02*
X114159989Y-167507857D01*
X114159989Y-167507857D02*
X114636179Y-167269761D01*
X114636179Y-167269761D02*
X115350465Y-167269761D01*
X115350465Y-167269761D02*
X115826656Y-167507857D01*
X115826656Y-167507857D02*
X116064751Y-167984047D01*
X116064751Y-167984047D02*
X116064751Y-170603095D01*
X120588561Y-167269761D02*
X120588561Y-171317380D01*
X120588561Y-171317380D02*
X120350466Y-171793571D01*
X120350466Y-171793571D02*
X120112370Y-172031666D01*
X120112370Y-172031666D02*
X119636180Y-172269761D01*
X119636180Y-172269761D02*
X118921894Y-172269761D01*
X118921894Y-172269761D02*
X118445704Y-172031666D01*
X120588561Y-170365000D02*
X120112370Y-170603095D01*
X120112370Y-170603095D02*
X119159989Y-170603095D01*
X119159989Y-170603095D02*
X118683799Y-170365000D01*
X118683799Y-170365000D02*
X118445704Y-170126904D01*
X118445704Y-170126904D02*
X118207608Y-169650714D01*
X118207608Y-169650714D02*
X118207608Y-168222142D01*
X118207608Y-168222142D02*
X118445704Y-167745952D01*
X118445704Y-167745952D02*
X118683799Y-167507857D01*
X118683799Y-167507857D02*
X119159989Y-167269761D01*
X119159989Y-167269761D02*
X120112370Y-167269761D01*
X120112370Y-167269761D02*
X120588561Y-167507857D01*
X126302847Y-167269761D02*
X127255228Y-170603095D01*
X127255228Y-170603095D02*
X128207609Y-168222142D01*
X128207609Y-168222142D02*
X129159990Y-170603095D01*
X129159990Y-170603095D02*
X130112371Y-167269761D01*
X132017133Y-170603095D02*
X132017133Y-165603095D01*
X134159990Y-170603095D02*
X134159990Y-167984047D01*
X134159990Y-167984047D02*
X133921895Y-167507857D01*
X133921895Y-167507857D02*
X133445704Y-167269761D01*
X133445704Y-167269761D02*
X132731418Y-167269761D01*
X132731418Y-167269761D02*
X132255228Y-167507857D01*
X132255228Y-167507857D02*
X132017133Y-167745952D01*
X136540943Y-170603095D02*
X136540943Y-167269761D01*
X136540943Y-165603095D02*
X136302847Y-165841190D01*
X136302847Y-165841190D02*
X136540943Y-166079285D01*
X136540943Y-166079285D02*
X136779038Y-165841190D01*
X136779038Y-165841190D02*
X136540943Y-165603095D01*
X136540943Y-165603095D02*
X136540943Y-166079285D01*
X138207609Y-167269761D02*
X140112371Y-167269761D01*
X138921895Y-165603095D02*
X138921895Y-169888809D01*
X138921895Y-169888809D02*
X139159990Y-170365000D01*
X139159990Y-170365000D02*
X139636180Y-170603095D01*
X139636180Y-170603095D02*
X140112371Y-170603095D01*
X143683800Y-170365000D02*
X143207609Y-170603095D01*
X143207609Y-170603095D02*
X142255228Y-170603095D01*
X142255228Y-170603095D02*
X141779038Y-170365000D01*
X141779038Y-170365000D02*
X141540942Y-169888809D01*
X141540942Y-169888809D02*
X141540942Y-167984047D01*
X141540942Y-167984047D02*
X141779038Y-167507857D01*
X141779038Y-167507857D02*
X142255228Y-167269761D01*
X142255228Y-167269761D02*
X143207609Y-167269761D01*
X143207609Y-167269761D02*
X143683800Y-167507857D01*
X143683800Y-167507857D02*
X143921895Y-167984047D01*
X143921895Y-167984047D02*
X143921895Y-168460238D01*
X143921895Y-168460238D02*
X141540942Y-168936428D01*
X100733796Y-35203095D02*
X98352844Y-35203095D01*
X98352844Y-35203095D02*
X98352844Y-30203095D01*
X104543320Y-35203095D02*
X104543320Y-32584047D01*
X104543320Y-32584047D02*
X104305225Y-32107857D01*
X104305225Y-32107857D02*
X103829034Y-31869761D01*
X103829034Y-31869761D02*
X102876653Y-31869761D01*
X102876653Y-31869761D02*
X102400463Y-32107857D01*
X104543320Y-34965000D02*
X104067129Y-35203095D01*
X104067129Y-35203095D02*
X102876653Y-35203095D01*
X102876653Y-35203095D02*
X102400463Y-34965000D01*
X102400463Y-34965000D02*
X102162367Y-34488809D01*
X102162367Y-34488809D02*
X102162367Y-34012619D01*
X102162367Y-34012619D02*
X102400463Y-33536428D01*
X102400463Y-33536428D02*
X102876653Y-33298333D01*
X102876653Y-33298333D02*
X104067129Y-33298333D01*
X104067129Y-33298333D02*
X104543320Y-33060238D01*
X106448082Y-31869761D02*
X107638558Y-35203095D01*
X108829035Y-31869761D02*
X107638558Y-35203095D01*
X107638558Y-35203095D02*
X107162368Y-36393571D01*
X107162368Y-36393571D02*
X106924273Y-36631666D01*
X106924273Y-36631666D02*
X106448082Y-36869761D01*
X112638559Y-34965000D02*
X112162368Y-35203095D01*
X112162368Y-35203095D02*
X111209987Y-35203095D01*
X111209987Y-35203095D02*
X110733797Y-34965000D01*
X110733797Y-34965000D02*
X110495701Y-34488809D01*
X110495701Y-34488809D02*
X110495701Y-32584047D01*
X110495701Y-32584047D02*
X110733797Y-32107857D01*
X110733797Y-32107857D02*
X111209987Y-31869761D01*
X111209987Y-31869761D02*
X112162368Y-31869761D01*
X112162368Y-31869761D02*
X112638559Y-32107857D01*
X112638559Y-32107857D02*
X112876654Y-32584047D01*
X112876654Y-32584047D02*
X112876654Y-33060238D01*
X112876654Y-33060238D02*
X110495701Y-33536428D01*
X115019511Y-35203095D02*
X115019511Y-31869761D01*
X115019511Y-32822142D02*
X115257606Y-32345952D01*
X115257606Y-32345952D02*
X115495701Y-32107857D01*
X115495701Y-32107857D02*
X115971892Y-31869761D01*
X115971892Y-31869761D02*
X116448082Y-31869761D01*
X121686177Y-34965000D02*
X122162368Y-35203095D01*
X122162368Y-35203095D02*
X123114749Y-35203095D01*
X123114749Y-35203095D02*
X123590939Y-34965000D01*
X123590939Y-34965000D02*
X123829035Y-34488809D01*
X123829035Y-34488809D02*
X123829035Y-34250714D01*
X123829035Y-34250714D02*
X123590939Y-33774523D01*
X123590939Y-33774523D02*
X123114749Y-33536428D01*
X123114749Y-33536428D02*
X122400463Y-33536428D01*
X122400463Y-33536428D02*
X121924273Y-33298333D01*
X121924273Y-33298333D02*
X121686177Y-32822142D01*
X121686177Y-32822142D02*
X121686177Y-32584047D01*
X121686177Y-32584047D02*
X121924273Y-32107857D01*
X121924273Y-32107857D02*
X122400463Y-31869761D01*
X122400463Y-31869761D02*
X123114749Y-31869761D01*
X123114749Y-31869761D02*
X123590939Y-32107857D01*
X125257606Y-31869761D02*
X127162368Y-31869761D01*
X125971892Y-30203095D02*
X125971892Y-34488809D01*
X125971892Y-34488809D02*
X126209987Y-34965000D01*
X126209987Y-34965000D02*
X126686177Y-35203095D01*
X126686177Y-35203095D02*
X127162368Y-35203095D01*
X130971892Y-35203095D02*
X130971892Y-32584047D01*
X130971892Y-32584047D02*
X130733797Y-32107857D01*
X130733797Y-32107857D02*
X130257606Y-31869761D01*
X130257606Y-31869761D02*
X129305225Y-31869761D01*
X129305225Y-31869761D02*
X128829035Y-32107857D01*
X130971892Y-34965000D02*
X130495701Y-35203095D01*
X130495701Y-35203095D02*
X129305225Y-35203095D01*
X129305225Y-35203095D02*
X128829035Y-34965000D01*
X128829035Y-34965000D02*
X128590939Y-34488809D01*
X128590939Y-34488809D02*
X128590939Y-34012619D01*
X128590939Y-34012619D02*
X128829035Y-33536428D01*
X128829035Y-33536428D02*
X129305225Y-33298333D01*
X129305225Y-33298333D02*
X130495701Y-33298333D01*
X130495701Y-33298333D02*
X130971892Y-33060238D01*
X135495702Y-34965000D02*
X135019511Y-35203095D01*
X135019511Y-35203095D02*
X134067130Y-35203095D01*
X134067130Y-35203095D02*
X133590940Y-34965000D01*
X133590940Y-34965000D02*
X133352845Y-34726904D01*
X133352845Y-34726904D02*
X133114749Y-34250714D01*
X133114749Y-34250714D02*
X133114749Y-32822142D01*
X133114749Y-32822142D02*
X133352845Y-32345952D01*
X133352845Y-32345952D02*
X133590940Y-32107857D01*
X133590940Y-32107857D02*
X134067130Y-31869761D01*
X134067130Y-31869761D02*
X135019511Y-31869761D01*
X135019511Y-31869761D02*
X135495702Y-32107857D01*
X137638559Y-35203095D02*
X137638559Y-30203095D01*
X138114749Y-33298333D02*
X139543321Y-35203095D01*
X139543321Y-31869761D02*
X137638559Y-33774523D01*
X143829035Y-31869761D02*
X143829035Y-35203095D01*
X141686178Y-31869761D02*
X141686178Y-34488809D01*
X141686178Y-34488809D02*
X141924273Y-34965000D01*
X141924273Y-34965000D02*
X142400463Y-35203095D01*
X142400463Y-35203095D02*
X143114749Y-35203095D01*
X143114749Y-35203095D02*
X143590940Y-34965000D01*
X143590940Y-34965000D02*
X143829035Y-34726904D01*
X146209988Y-31869761D02*
X146209988Y-36869761D01*
X146209988Y-32107857D02*
X146686178Y-31869761D01*
X146686178Y-31869761D02*
X147638559Y-31869761D01*
X147638559Y-31869761D02*
X148114750Y-32107857D01*
X148114750Y-32107857D02*
X148352845Y-32345952D01*
X148352845Y-32345952D02*
X148590940Y-32822142D01*
X148590940Y-32822142D02*
X148590940Y-34250714D01*
X148590940Y-34250714D02*
X148352845Y-34726904D01*
X148352845Y-34726904D02*
X148114750Y-34965000D01*
X148114750Y-34965000D02*
X147638559Y-35203095D01*
X147638559Y-35203095D02*
X146686178Y-35203095D01*
X146686178Y-35203095D02*
X146209988Y-34965000D01*
X100971891Y-43253095D02*
X98114748Y-43253095D01*
X99543320Y-43253095D02*
X99543320Y-38253095D01*
X99543320Y-38253095D02*
X99067129Y-38967380D01*
X99067129Y-38967380D02*
X98590939Y-39443571D01*
X98590939Y-39443571D02*
X98114748Y-39681666D01*
X102638558Y-45157857D02*
X102876653Y-44919761D01*
X102876653Y-44919761D02*
X103352844Y-44205476D01*
X103352844Y-44205476D02*
X103590939Y-43729285D01*
X103590939Y-43729285D02*
X103829034Y-43015000D01*
X103829034Y-43015000D02*
X104067130Y-41824523D01*
X104067130Y-41824523D02*
X104067130Y-40872142D01*
X104067130Y-40872142D02*
X103829034Y-39681666D01*
X103829034Y-39681666D02*
X103590939Y-38967380D01*
X103590939Y-38967380D02*
X103352844Y-38491190D01*
X103352844Y-38491190D02*
X102876653Y-37776904D01*
X102876653Y-37776904D02*
X102638558Y-37538809D01*
X109543320Y-38253095D02*
X112400463Y-38253095D01*
X110971891Y-43253095D02*
X110971891Y-38253095D01*
X114781415Y-43253095D02*
X114305225Y-43015000D01*
X114305225Y-43015000D02*
X114067130Y-42776904D01*
X114067130Y-42776904D02*
X113829034Y-42300714D01*
X113829034Y-42300714D02*
X113829034Y-40872142D01*
X113829034Y-40872142D02*
X114067130Y-40395952D01*
X114067130Y-40395952D02*
X114305225Y-40157857D01*
X114305225Y-40157857D02*
X114781415Y-39919761D01*
X114781415Y-39919761D02*
X115495701Y-39919761D01*
X115495701Y-39919761D02*
X115971892Y-40157857D01*
X115971892Y-40157857D02*
X116209987Y-40395952D01*
X116209987Y-40395952D02*
X116448082Y-40872142D01*
X116448082Y-40872142D02*
X116448082Y-42300714D01*
X116448082Y-42300714D02*
X116209987Y-42776904D01*
X116209987Y-42776904D02*
X115971892Y-43015000D01*
X115971892Y-43015000D02*
X115495701Y-43253095D01*
X115495701Y-43253095D02*
X114781415Y-43253095D01*
X118590940Y-39919761D02*
X118590940Y-44919761D01*
X118590940Y-40157857D02*
X119067130Y-39919761D01*
X119067130Y-39919761D02*
X120019511Y-39919761D01*
X120019511Y-39919761D02*
X120495702Y-40157857D01*
X120495702Y-40157857D02*
X120733797Y-40395952D01*
X120733797Y-40395952D02*
X120971892Y-40872142D01*
X120971892Y-40872142D02*
X120971892Y-42300714D01*
X120971892Y-42300714D02*
X120733797Y-42776904D01*
X120733797Y-42776904D02*
X120495702Y-43015000D01*
X120495702Y-43015000D02*
X120019511Y-43253095D01*
X120019511Y-43253095D02*
X119067130Y-43253095D01*
X119067130Y-43253095D02*
X118590940Y-43015000D01*
X129305226Y-43253095D02*
X126924274Y-43253095D01*
X126924274Y-43253095D02*
X126924274Y-38253095D01*
X133114750Y-43253095D02*
X133114750Y-40634047D01*
X133114750Y-40634047D02*
X132876655Y-40157857D01*
X132876655Y-40157857D02*
X132400464Y-39919761D01*
X132400464Y-39919761D02*
X131448083Y-39919761D01*
X131448083Y-39919761D02*
X130971893Y-40157857D01*
X133114750Y-43015000D02*
X132638559Y-43253095D01*
X132638559Y-43253095D02*
X131448083Y-43253095D01*
X131448083Y-43253095D02*
X130971893Y-43015000D01*
X130971893Y-43015000D02*
X130733797Y-42538809D01*
X130733797Y-42538809D02*
X130733797Y-42062619D01*
X130733797Y-42062619D02*
X130971893Y-41586428D01*
X130971893Y-41586428D02*
X131448083Y-41348333D01*
X131448083Y-41348333D02*
X132638559Y-41348333D01*
X132638559Y-41348333D02*
X133114750Y-41110238D01*
X135019512Y-39919761D02*
X136209988Y-43253095D01*
X137400465Y-39919761D02*
X136209988Y-43253095D01*
X136209988Y-43253095D02*
X135733798Y-44443571D01*
X135733798Y-44443571D02*
X135495703Y-44681666D01*
X135495703Y-44681666D02*
X135019512Y-44919761D01*
X141209989Y-43015000D02*
X140733798Y-43253095D01*
X140733798Y-43253095D02*
X139781417Y-43253095D01*
X139781417Y-43253095D02*
X139305227Y-43015000D01*
X139305227Y-43015000D02*
X139067131Y-42538809D01*
X139067131Y-42538809D02*
X139067131Y-40634047D01*
X139067131Y-40634047D02*
X139305227Y-40157857D01*
X139305227Y-40157857D02*
X139781417Y-39919761D01*
X139781417Y-39919761D02*
X140733798Y-39919761D01*
X140733798Y-39919761D02*
X141209989Y-40157857D01*
X141209989Y-40157857D02*
X141448084Y-40634047D01*
X141448084Y-40634047D02*
X141448084Y-41110238D01*
X141448084Y-41110238D02*
X139067131Y-41586428D01*
X143590941Y-43253095D02*
X143590941Y-39919761D01*
X143590941Y-40872142D02*
X143829036Y-40395952D01*
X143829036Y-40395952D02*
X144067131Y-40157857D01*
X144067131Y-40157857D02*
X144543322Y-39919761D01*
X144543322Y-39919761D02*
X145019512Y-39919761D01*
X98114748Y-46779285D02*
X98352844Y-46541190D01*
X98352844Y-46541190D02*
X98829034Y-46303095D01*
X98829034Y-46303095D02*
X100019510Y-46303095D01*
X100019510Y-46303095D02*
X100495701Y-46541190D01*
X100495701Y-46541190D02*
X100733796Y-46779285D01*
X100733796Y-46779285D02*
X100971891Y-47255476D01*
X100971891Y-47255476D02*
X100971891Y-47731666D01*
X100971891Y-47731666D02*
X100733796Y-48445952D01*
X100733796Y-48445952D02*
X97876653Y-51303095D01*
X97876653Y-51303095D02*
X100971891Y-51303095D01*
X102638558Y-53207857D02*
X102876653Y-52969761D01*
X102876653Y-52969761D02*
X103352844Y-52255476D01*
X103352844Y-52255476D02*
X103590939Y-51779285D01*
X103590939Y-51779285D02*
X103829034Y-51065000D01*
X103829034Y-51065000D02*
X104067130Y-49874523D01*
X104067130Y-49874523D02*
X104067130Y-48922142D01*
X104067130Y-48922142D02*
X103829034Y-47731666D01*
X103829034Y-47731666D02*
X103590939Y-47017380D01*
X103590939Y-47017380D02*
X103352844Y-46541190D01*
X103352844Y-46541190D02*
X102876653Y-45826904D01*
X102876653Y-45826904D02*
X102638558Y-45588809D01*
X111924272Y-48684047D02*
X112638558Y-48922142D01*
X112638558Y-48922142D02*
X112876653Y-49160238D01*
X112876653Y-49160238D02*
X113114749Y-49636428D01*
X113114749Y-49636428D02*
X113114749Y-50350714D01*
X113114749Y-50350714D02*
X112876653Y-50826904D01*
X112876653Y-50826904D02*
X112638558Y-51065000D01*
X112638558Y-51065000D02*
X112162368Y-51303095D01*
X112162368Y-51303095D02*
X110257606Y-51303095D01*
X110257606Y-51303095D02*
X110257606Y-46303095D01*
X110257606Y-46303095D02*
X111924272Y-46303095D01*
X111924272Y-46303095D02*
X112400463Y-46541190D01*
X112400463Y-46541190D02*
X112638558Y-46779285D01*
X112638558Y-46779285D02*
X112876653Y-47255476D01*
X112876653Y-47255476D02*
X112876653Y-47731666D01*
X112876653Y-47731666D02*
X112638558Y-48207857D01*
X112638558Y-48207857D02*
X112400463Y-48445952D01*
X112400463Y-48445952D02*
X111924272Y-48684047D01*
X111924272Y-48684047D02*
X110257606Y-48684047D01*
X115971891Y-51303095D02*
X115495701Y-51065000D01*
X115495701Y-51065000D02*
X115257606Y-50826904D01*
X115257606Y-50826904D02*
X115019510Y-50350714D01*
X115019510Y-50350714D02*
X115019510Y-48922142D01*
X115019510Y-48922142D02*
X115257606Y-48445952D01*
X115257606Y-48445952D02*
X115495701Y-48207857D01*
X115495701Y-48207857D02*
X115971891Y-47969761D01*
X115971891Y-47969761D02*
X116686177Y-47969761D01*
X116686177Y-47969761D02*
X117162368Y-48207857D01*
X117162368Y-48207857D02*
X117400463Y-48445952D01*
X117400463Y-48445952D02*
X117638558Y-48922142D01*
X117638558Y-48922142D02*
X117638558Y-50350714D01*
X117638558Y-50350714D02*
X117400463Y-50826904D01*
X117400463Y-50826904D02*
X117162368Y-51065000D01*
X117162368Y-51065000D02*
X116686177Y-51303095D01*
X116686177Y-51303095D02*
X115971891Y-51303095D01*
X119067130Y-47969761D02*
X120971892Y-47969761D01*
X119781416Y-46303095D02*
X119781416Y-50588809D01*
X119781416Y-50588809D02*
X120019511Y-51065000D01*
X120019511Y-51065000D02*
X120495701Y-51303095D01*
X120495701Y-51303095D02*
X120971892Y-51303095D01*
X121924273Y-47969761D02*
X123829035Y-47969761D01*
X122638559Y-46303095D02*
X122638559Y-50588809D01*
X122638559Y-50588809D02*
X122876654Y-51065000D01*
X122876654Y-51065000D02*
X123352844Y-51303095D01*
X123352844Y-51303095D02*
X123829035Y-51303095D01*
X126209987Y-51303095D02*
X125733797Y-51065000D01*
X125733797Y-51065000D02*
X125495702Y-50826904D01*
X125495702Y-50826904D02*
X125257606Y-50350714D01*
X125257606Y-50350714D02*
X125257606Y-48922142D01*
X125257606Y-48922142D02*
X125495702Y-48445952D01*
X125495702Y-48445952D02*
X125733797Y-48207857D01*
X125733797Y-48207857D02*
X126209987Y-47969761D01*
X126209987Y-47969761D02*
X126924273Y-47969761D01*
X126924273Y-47969761D02*
X127400464Y-48207857D01*
X127400464Y-48207857D02*
X127638559Y-48445952D01*
X127638559Y-48445952D02*
X127876654Y-48922142D01*
X127876654Y-48922142D02*
X127876654Y-50350714D01*
X127876654Y-50350714D02*
X127638559Y-50826904D01*
X127638559Y-50826904D02*
X127400464Y-51065000D01*
X127400464Y-51065000D02*
X126924273Y-51303095D01*
X126924273Y-51303095D02*
X126209987Y-51303095D01*
X130019512Y-51303095D02*
X130019512Y-47969761D01*
X130019512Y-48445952D02*
X130257607Y-48207857D01*
X130257607Y-48207857D02*
X130733797Y-47969761D01*
X130733797Y-47969761D02*
X131448083Y-47969761D01*
X131448083Y-47969761D02*
X131924274Y-48207857D01*
X131924274Y-48207857D02*
X132162369Y-48684047D01*
X132162369Y-48684047D02*
X132162369Y-51303095D01*
X132162369Y-48684047D02*
X132400464Y-48207857D01*
X132400464Y-48207857D02*
X132876655Y-47969761D01*
X132876655Y-47969761D02*
X133590940Y-47969761D01*
X133590940Y-47969761D02*
X134067131Y-48207857D01*
X134067131Y-48207857D02*
X134305226Y-48684047D01*
X134305226Y-48684047D02*
X134305226Y-51303095D01*
X142876655Y-51303095D02*
X140495703Y-51303095D01*
X140495703Y-51303095D02*
X140495703Y-46303095D01*
X146686179Y-51303095D02*
X146686179Y-48684047D01*
X146686179Y-48684047D02*
X146448084Y-48207857D01*
X146448084Y-48207857D02*
X145971893Y-47969761D01*
X145971893Y-47969761D02*
X145019512Y-47969761D01*
X145019512Y-47969761D02*
X144543322Y-48207857D01*
X146686179Y-51065000D02*
X146209988Y-51303095D01*
X146209988Y-51303095D02*
X145019512Y-51303095D01*
X145019512Y-51303095D02*
X144543322Y-51065000D01*
X144543322Y-51065000D02*
X144305226Y-50588809D01*
X144305226Y-50588809D02*
X144305226Y-50112619D01*
X144305226Y-50112619D02*
X144543322Y-49636428D01*
X144543322Y-49636428D02*
X145019512Y-49398333D01*
X145019512Y-49398333D02*
X146209988Y-49398333D01*
X146209988Y-49398333D02*
X146686179Y-49160238D01*
X148590941Y-47969761D02*
X149781417Y-51303095D01*
X150971894Y-47969761D02*
X149781417Y-51303095D01*
X149781417Y-51303095D02*
X149305227Y-52493571D01*
X149305227Y-52493571D02*
X149067132Y-52731666D01*
X149067132Y-52731666D02*
X148590941Y-52969761D01*
X154781418Y-51065000D02*
X154305227Y-51303095D01*
X154305227Y-51303095D02*
X153352846Y-51303095D01*
X153352846Y-51303095D02*
X152876656Y-51065000D01*
X152876656Y-51065000D02*
X152638560Y-50588809D01*
X152638560Y-50588809D02*
X152638560Y-48684047D01*
X152638560Y-48684047D02*
X152876656Y-48207857D01*
X152876656Y-48207857D02*
X153352846Y-47969761D01*
X153352846Y-47969761D02*
X154305227Y-47969761D01*
X154305227Y-47969761D02*
X154781418Y-48207857D01*
X154781418Y-48207857D02*
X155019513Y-48684047D01*
X155019513Y-48684047D02*
X155019513Y-49160238D01*
X155019513Y-49160238D02*
X152638560Y-49636428D01*
X157162370Y-51303095D02*
X157162370Y-47969761D01*
X157162370Y-48922142D02*
X157400465Y-48445952D01*
X157400465Y-48445952D02*
X157638560Y-48207857D01*
X157638560Y-48207857D02*
X158114751Y-47969761D01*
X158114751Y-47969761D02*
X158590941Y-47969761D01*
D12*
X40152380Y-31879239D02*
X39009523Y-31879239D01*
X39580951Y-31879239D02*
X39580951Y-29879239D01*
X39580951Y-29879239D02*
X39390475Y-30164953D01*
X39390475Y-30164953D02*
X39199999Y-30355429D01*
X39199999Y-30355429D02*
X39009523Y-30450667D01*
X41866666Y-29879239D02*
X41485713Y-29879239D01*
X41485713Y-29879239D02*
X41295237Y-29974477D01*
X41295237Y-29974477D02*
X41199999Y-30069715D01*
X41199999Y-30069715D02*
X41009523Y-30355429D01*
X41009523Y-30355429D02*
X40914285Y-30736381D01*
X40914285Y-30736381D02*
X40914285Y-31498286D01*
X40914285Y-31498286D02*
X41009523Y-31688762D01*
X41009523Y-31688762D02*
X41104761Y-31784001D01*
X41104761Y-31784001D02*
X41295237Y-31879239D01*
X41295237Y-31879239D02*
X41676190Y-31879239D01*
X41676190Y-31879239D02*
X41866666Y-31784001D01*
X41866666Y-31784001D02*
X41961904Y-31688762D01*
X41961904Y-31688762D02*
X42057142Y-31498286D01*
X42057142Y-31498286D02*
X42057142Y-31022096D01*
X42057142Y-31022096D02*
X41961904Y-30831620D01*
X41961904Y-30831620D02*
X41866666Y-30736381D01*
X41866666Y-30736381D02*
X41676190Y-30641143D01*
X41676190Y-30641143D02*
X41295237Y-30641143D01*
X41295237Y-30641143D02*
X41104761Y-30736381D01*
X41104761Y-30736381D02*
X41009523Y-30831620D01*
X41009523Y-30831620D02*
X40914285Y-31022096D01*
X43961904Y-31879239D02*
X42819047Y-31879239D01*
X43390475Y-31879239D02*
X43390475Y-29879239D01*
X43390475Y-29879239D02*
X43199999Y-30164953D01*
X43199999Y-30164953D02*
X43009523Y-30355429D01*
X43009523Y-30355429D02*
X42819047Y-30450667D01*
X44819047Y-31688762D02*
X44914285Y-31784001D01*
X44914285Y-31784001D02*
X44819047Y-31879239D01*
X44819047Y-31879239D02*
X44723809Y-31784001D01*
X44723809Y-31784001D02*
X44819047Y-31688762D01*
X44819047Y-31688762D02*
X44819047Y-31879239D01*
X45676190Y-30069715D02*
X45771428Y-29974477D01*
X45771428Y-29974477D02*
X45961904Y-29879239D01*
X45961904Y-29879239D02*
X46438095Y-29879239D01*
X46438095Y-29879239D02*
X46628571Y-29974477D01*
X46628571Y-29974477D02*
X46723809Y-30069715D01*
X46723809Y-30069715D02*
X46819047Y-30260191D01*
X46819047Y-30260191D02*
X46819047Y-30450667D01*
X46819047Y-30450667D02*
X46723809Y-30736381D01*
X46723809Y-30736381D02*
X45580952Y-31879239D01*
X45580952Y-31879239D02*
X46819047Y-31879239D01*
X48057142Y-29879239D02*
X48247619Y-29879239D01*
X48247619Y-29879239D02*
X48438095Y-29974477D01*
X48438095Y-29974477D02*
X48533333Y-30069715D01*
X48533333Y-30069715D02*
X48628571Y-30260191D01*
X48628571Y-30260191D02*
X48723809Y-30641143D01*
X48723809Y-30641143D02*
X48723809Y-31117334D01*
X48723809Y-31117334D02*
X48628571Y-31498286D01*
X48628571Y-31498286D02*
X48533333Y-31688762D01*
X48533333Y-31688762D02*
X48438095Y-31784001D01*
X48438095Y-31784001D02*
X48247619Y-31879239D01*
X48247619Y-31879239D02*
X48057142Y-31879239D01*
X48057142Y-31879239D02*
X47866666Y-31784001D01*
X47866666Y-31784001D02*
X47771428Y-31688762D01*
X47771428Y-31688762D02*
X47676190Y-31498286D01*
X47676190Y-31498286D02*
X47580952Y-31117334D01*
X47580952Y-31117334D02*
X47580952Y-30641143D01*
X47580952Y-30641143D02*
X47676190Y-30260191D01*
X47676190Y-30260191D02*
X47771428Y-30069715D01*
X47771428Y-30069715D02*
X47866666Y-29974477D01*
X47866666Y-29974477D02*
X48057142Y-29879239D01*
X50438095Y-30545905D02*
X50438095Y-31879239D01*
X49961904Y-29784001D02*
X49485714Y-31212572D01*
X49485714Y-31212572D02*
X50723809Y-31212572D01*
X52533333Y-31879239D02*
X51390476Y-31879239D01*
X51961904Y-31879239D02*
X51961904Y-29879239D01*
X51961904Y-29879239D02*
X51771428Y-30164953D01*
X51771428Y-30164953D02*
X51580952Y-30355429D01*
X51580952Y-30355429D02*
X51390476Y-30450667D01*
X54914286Y-31879239D02*
X54914286Y-30545905D01*
X54914286Y-30736381D02*
X55009524Y-30641143D01*
X55009524Y-30641143D02*
X55200000Y-30545905D01*
X55200000Y-30545905D02*
X55485715Y-30545905D01*
X55485715Y-30545905D02*
X55676191Y-30641143D01*
X55676191Y-30641143D02*
X55771429Y-30831620D01*
X55771429Y-30831620D02*
X55771429Y-31879239D01*
X55771429Y-30831620D02*
X55866667Y-30641143D01*
X55866667Y-30641143D02*
X56057143Y-30545905D01*
X56057143Y-30545905D02*
X56342857Y-30545905D01*
X56342857Y-30545905D02*
X56533334Y-30641143D01*
X56533334Y-30641143D02*
X56628572Y-30831620D01*
X56628572Y-30831620D02*
X56628572Y-31879239D01*
X57580953Y-31879239D02*
X57580953Y-30545905D01*
X57580953Y-30736381D02*
X57676191Y-30641143D01*
X57676191Y-30641143D02*
X57866667Y-30545905D01*
X57866667Y-30545905D02*
X58152382Y-30545905D01*
X58152382Y-30545905D02*
X58342858Y-30641143D01*
X58342858Y-30641143D02*
X58438096Y-30831620D01*
X58438096Y-30831620D02*
X58438096Y-31879239D01*
X58438096Y-30831620D02*
X58533334Y-30641143D01*
X58533334Y-30641143D02*
X58723810Y-30545905D01*
X58723810Y-30545905D02*
X59009524Y-30545905D01*
X59009524Y-30545905D02*
X59200001Y-30641143D01*
X59200001Y-30641143D02*
X59295239Y-30831620D01*
X59295239Y-30831620D02*
X59295239Y-31879239D01*
D10*
X77940000Y-47850000D02*
X77940000Y-32893581D01*
X20460000Y-47850000D02*
X20460000Y-32893581D01*
X77940000Y-33480001D02*
X20460000Y-33480001D01*
X77940000Y-33480001D02*
X20460000Y-33480001D01*
X77940000Y-33480001D02*
X76813496Y-34066422D01*
X77940000Y-33480001D02*
X76813496Y-32893580D01*
X20460000Y-33480001D02*
X21586504Y-32893580D01*
X20460000Y-33480001D02*
X21586504Y-34066422D01*
D12*
X80429238Y-71185714D02*
X80429238Y-71566667D01*
X80429238Y-71566667D02*
X80524476Y-71757143D01*
X80524476Y-71757143D02*
X80619714Y-71852381D01*
X80619714Y-71852381D02*
X80905428Y-72042857D01*
X80905428Y-72042857D02*
X81286380Y-72138095D01*
X81286380Y-72138095D02*
X82048285Y-72138095D01*
X82048285Y-72138095D02*
X82238761Y-72042857D01*
X82238761Y-72042857D02*
X82334000Y-71947619D01*
X82334000Y-71947619D02*
X82429238Y-71757143D01*
X82429238Y-71757143D02*
X82429238Y-71376190D01*
X82429238Y-71376190D02*
X82334000Y-71185714D01*
X82334000Y-71185714D02*
X82238761Y-71090476D01*
X82238761Y-71090476D02*
X82048285Y-70995238D01*
X82048285Y-70995238D02*
X81572095Y-70995238D01*
X81572095Y-70995238D02*
X81381619Y-71090476D01*
X81381619Y-71090476D02*
X81286380Y-71185714D01*
X81286380Y-71185714D02*
X81191142Y-71376190D01*
X81191142Y-71376190D02*
X81191142Y-71757143D01*
X81191142Y-71757143D02*
X81286380Y-71947619D01*
X81286380Y-71947619D02*
X81381619Y-72042857D01*
X81381619Y-72042857D02*
X81572095Y-72138095D01*
X80429238Y-70328571D02*
X80429238Y-68995238D01*
X80429238Y-68995238D02*
X82429238Y-69852381D01*
X82238761Y-68233333D02*
X82334000Y-68138095D01*
X82334000Y-68138095D02*
X82429238Y-68233333D01*
X82429238Y-68233333D02*
X82334000Y-68328571D01*
X82334000Y-68328571D02*
X82238761Y-68233333D01*
X82238761Y-68233333D02*
X82429238Y-68233333D01*
X82429238Y-67185714D02*
X82429238Y-66804762D01*
X82429238Y-66804762D02*
X82334000Y-66614285D01*
X82334000Y-66614285D02*
X82238761Y-66519047D01*
X82238761Y-66519047D02*
X81953047Y-66328571D01*
X81953047Y-66328571D02*
X81572095Y-66233333D01*
X81572095Y-66233333D02*
X80810190Y-66233333D01*
X80810190Y-66233333D02*
X80619714Y-66328571D01*
X80619714Y-66328571D02*
X80524476Y-66423809D01*
X80524476Y-66423809D02*
X80429238Y-66614285D01*
X80429238Y-66614285D02*
X80429238Y-66995238D01*
X80429238Y-66995238D02*
X80524476Y-67185714D01*
X80524476Y-67185714D02*
X80619714Y-67280952D01*
X80619714Y-67280952D02*
X80810190Y-67376190D01*
X80810190Y-67376190D02*
X81286380Y-67376190D01*
X81286380Y-67376190D02*
X81476857Y-67280952D01*
X81476857Y-67280952D02*
X81572095Y-67185714D01*
X81572095Y-67185714D02*
X81667333Y-66995238D01*
X81667333Y-66995238D02*
X81667333Y-66614285D01*
X81667333Y-66614285D02*
X81572095Y-66423809D01*
X81572095Y-66423809D02*
X81476857Y-66328571D01*
X81476857Y-66328571D02*
X81286380Y-66233333D01*
X80429238Y-65566666D02*
X80429238Y-64233333D01*
X80429238Y-64233333D02*
X82429238Y-65090476D01*
X80429238Y-63090476D02*
X80429238Y-62899999D01*
X80429238Y-62899999D02*
X80524476Y-62709523D01*
X80524476Y-62709523D02*
X80619714Y-62614285D01*
X80619714Y-62614285D02*
X80810190Y-62519047D01*
X80810190Y-62519047D02*
X81191142Y-62423809D01*
X81191142Y-62423809D02*
X81667333Y-62423809D01*
X81667333Y-62423809D02*
X82048285Y-62519047D01*
X82048285Y-62519047D02*
X82238761Y-62614285D01*
X82238761Y-62614285D02*
X82334000Y-62709523D01*
X82334000Y-62709523D02*
X82429238Y-62899999D01*
X82429238Y-62899999D02*
X82429238Y-63090476D01*
X82429238Y-63090476D02*
X82334000Y-63280952D01*
X82334000Y-63280952D02*
X82238761Y-63376190D01*
X82238761Y-63376190D02*
X82048285Y-63471428D01*
X82048285Y-63471428D02*
X81667333Y-63566666D01*
X81667333Y-63566666D02*
X81191142Y-63566666D01*
X81191142Y-63566666D02*
X80810190Y-63471428D01*
X80810190Y-63471428D02*
X80619714Y-63376190D01*
X80619714Y-63376190D02*
X80524476Y-63280952D01*
X80524476Y-63280952D02*
X80429238Y-63090476D01*
X81095904Y-60709523D02*
X82429238Y-60709523D01*
X80334000Y-61185714D02*
X81762571Y-61661904D01*
X81762571Y-61661904D02*
X81762571Y-60423809D01*
X82429238Y-58138094D02*
X81095904Y-58138094D01*
X81286380Y-58138094D02*
X81191142Y-58042856D01*
X81191142Y-58042856D02*
X81095904Y-57852380D01*
X81095904Y-57852380D02*
X81095904Y-57566665D01*
X81095904Y-57566665D02*
X81191142Y-57376189D01*
X81191142Y-57376189D02*
X81381619Y-57280951D01*
X81381619Y-57280951D02*
X82429238Y-57280951D01*
X81381619Y-57280951D02*
X81191142Y-57185713D01*
X81191142Y-57185713D02*
X81095904Y-56995237D01*
X81095904Y-56995237D02*
X81095904Y-56709523D01*
X81095904Y-56709523D02*
X81191142Y-56519046D01*
X81191142Y-56519046D02*
X81381619Y-56423808D01*
X81381619Y-56423808D02*
X82429238Y-56423808D01*
X82429238Y-55471427D02*
X81095904Y-55471427D01*
X81286380Y-55471427D02*
X81191142Y-55376189D01*
X81191142Y-55376189D02*
X81095904Y-55185713D01*
X81095904Y-55185713D02*
X81095904Y-54899998D01*
X81095904Y-54899998D02*
X81191142Y-54709522D01*
X81191142Y-54709522D02*
X81381619Y-54614284D01*
X81381619Y-54614284D02*
X82429238Y-54614284D01*
X81381619Y-54614284D02*
X81191142Y-54519046D01*
X81191142Y-54519046D02*
X81095904Y-54328570D01*
X81095904Y-54328570D02*
X81095904Y-54042856D01*
X81095904Y-54042856D02*
X81191142Y-53852379D01*
X81191142Y-53852379D02*
X81381619Y-53757141D01*
X81381619Y-53757141D02*
X82429238Y-53757141D01*
D10*
X78970000Y-48310000D02*
X84616420Y-48310000D01*
X78970000Y-77490000D02*
X84616420Y-77490000D01*
X84030000Y-48310000D02*
X84030000Y-77490000D01*
X84030000Y-48310000D02*
X84030000Y-77490000D01*
X84030000Y-48310000D02*
X84616421Y-49436504D01*
X84030000Y-48310000D02*
X83443579Y-49436504D01*
X84030000Y-77490000D02*
X83443579Y-76363496D01*
X84030000Y-77490000D02*
X84616421Y-76363496D01*
%TO.C,H4*%
X113329600Y-48717200D02*
G75*
G03*
X113329600Y-48717200I-2200000J0D01*
G01*
%TO.C,H2*%
X113329600Y-104902000D02*
G75*
G03*
X113329600Y-104902000I-2200000J0D01*
G01*
%TO.C,H3*%
X204210800Y-104902000D02*
G75*
G03*
X204210800Y-104902000I-2200000J0D01*
G01*
%TO.C,H1*%
X204210800Y-48717200D02*
G75*
G03*
X204210800Y-48717200I-2200000J0D01*
G01*
%TD*%
M02*
