%TF.GenerationSoftware,KiCad,Pcbnew,7.0.5*%
%TF.CreationDate,2023-07-07T07:55:25+07:00*%
%TF.ProjectId,THUC_TAPP,54485543-5f54-4415-9050-2e6b69636164,rev?*%
%TF.SameCoordinates,Original*%
%TF.FileFunction,Legend,Bot*%
%TF.FilePolarity,Positive*%
%FSLAX46Y46*%
G04 Gerber Fmt 4.6, Leading zero omitted, Abs format (unit mm)*
G04 Created by KiCad (PCBNEW 7.0.5) date 2023-07-07 07:55:25*
%MOMM*%
%LPD*%
G01*
G04 APERTURE LIST*
G04 Aperture macros list*
%AMRoundRect*
0 Rectangle with rounded corners*
0 $1 Rounding radius*
0 $2 $3 $4 $5 $6 $7 $8 $9 X,Y pos of 4 corners*
0 Add a 4 corners polygon primitive as box body*
4,1,4,$2,$3,$4,$5,$6,$7,$8,$9,$2,$3,0*
0 Add four circle primitives for the rounded corners*
1,1,$1+$1,$2,$3*
1,1,$1+$1,$4,$5*
1,1,$1+$1,$6,$7*
1,1,$1+$1,$8,$9*
0 Add four rect primitives between the rounded corners*
20,1,$1+$1,$2,$3,$4,$5,0*
20,1,$1+$1,$4,$5,$6,$7,0*
20,1,$1+$1,$6,$7,$8,$9,0*
20,1,$1+$1,$8,$9,$2,$3,0*%
G04 Aperture macros list end*
%ADD10C,0.150000*%
%ADD11C,0.120000*%
%ADD12C,1.601600*%
%ADD13RoundRect,0.050800X0.850000X-0.850000X0.850000X0.850000X-0.850000X0.850000X-0.850000X-0.850000X0*%
%ADD14C,1.801600*%
%ADD15RoundRect,0.050800X-0.850000X-0.850000X0.850000X-0.850000X0.850000X0.850000X-0.850000X0.850000X0*%
%ADD16O,1.801600X1.801600*%
%ADD17C,5.711600*%
%ADD18RoundRect,0.050800X0.750000X-0.525000X0.750000X0.525000X-0.750000X0.525000X-0.750000X-0.525000X0*%
%ADD19O,1.601600X1.151600*%
%ADD20C,5.101600*%
%ADD21RoundRect,0.050800X0.850000X0.850000X-0.850000X0.850000X-0.850000X-0.850000X0.850000X-0.850000X0*%
%ADD22RoundRect,0.050800X-0.750000X0.525000X-0.750000X-0.525000X0.750000X-0.525000X0.750000X0.525000X0*%
%ADD23RoundRect,0.300800X-0.750000X-1.550000X0.750000X-1.550000X0.750000X1.550000X-0.750000X1.550000X0*%
%ADD24O,2.101600X3.701600*%
%ADD25RoundRect,0.050800X-0.900000X0.900000X-0.900000X-0.900000X0.900000X-0.900000X0.900000X0.900000X0*%
%ADD26O,1.901600X1.901600*%
%ADD27RoundRect,0.288300X0.250000X0.237500X-0.250000X0.237500X-0.250000X-0.237500X0.250000X-0.237500X0*%
%ADD28RoundRect,0.050800X-0.250000X-0.187500X0.250000X-0.187500X0.250000X0.187500X-0.250000X0.187500X0*%
%ADD29RoundRect,0.050800X-0.325000X-0.150000X0.325000X-0.150000X0.325000X0.150000X-0.325000X0.150000X0*%
%ADD30C,0.801600*%
%ADD31RoundRect,0.050800X-0.225000X-0.650000X0.225000X-0.650000X0.225000X0.650000X-0.225000X0.650000X0*%
%ADD32C,1.901600*%
%ADD33C,2.101600*%
G04 APERTURE END LIST*
D10*
%TO.C,R3*%
X127078866Y-97798619D02*
X127412199Y-97322428D01*
X127650294Y-97798619D02*
X127650294Y-96798619D01*
X127650294Y-96798619D02*
X127269342Y-96798619D01*
X127269342Y-96798619D02*
X127174104Y-96846238D01*
X127174104Y-96846238D02*
X127126485Y-96893857D01*
X127126485Y-96893857D02*
X127078866Y-96989095D01*
X127078866Y-96989095D02*
X127078866Y-97131952D01*
X127078866Y-97131952D02*
X127126485Y-97227190D01*
X127126485Y-97227190D02*
X127174104Y-97274809D01*
X127174104Y-97274809D02*
X127269342Y-97322428D01*
X127269342Y-97322428D02*
X127650294Y-97322428D01*
X126745532Y-96798619D02*
X126126485Y-96798619D01*
X126126485Y-96798619D02*
X126459818Y-97179571D01*
X126459818Y-97179571D02*
X126316961Y-97179571D01*
X126316961Y-97179571D02*
X126221723Y-97227190D01*
X126221723Y-97227190D02*
X126174104Y-97274809D01*
X126174104Y-97274809D02*
X126126485Y-97370047D01*
X126126485Y-97370047D02*
X126126485Y-97608142D01*
X126126485Y-97608142D02*
X126174104Y-97703380D01*
X126174104Y-97703380D02*
X126221723Y-97751000D01*
X126221723Y-97751000D02*
X126316961Y-97798619D01*
X126316961Y-97798619D02*
X126602675Y-97798619D01*
X126602675Y-97798619D02*
X126697913Y-97751000D01*
X126697913Y-97751000D02*
X126745532Y-97703380D01*
%TO.C,U6*%
X137361904Y-67974819D02*
X137361904Y-68784342D01*
X137361904Y-68784342D02*
X137314285Y-68879580D01*
X137314285Y-68879580D02*
X137266666Y-68927200D01*
X137266666Y-68927200D02*
X137171428Y-68974819D01*
X137171428Y-68974819D02*
X136980952Y-68974819D01*
X136980952Y-68974819D02*
X136885714Y-68927200D01*
X136885714Y-68927200D02*
X136838095Y-68879580D01*
X136838095Y-68879580D02*
X136790476Y-68784342D01*
X136790476Y-68784342D02*
X136790476Y-67974819D01*
X135885714Y-67974819D02*
X136076190Y-67974819D01*
X136076190Y-67974819D02*
X136171428Y-68022438D01*
X136171428Y-68022438D02*
X136219047Y-68070057D01*
X136219047Y-68070057D02*
X136314285Y-68212914D01*
X136314285Y-68212914D02*
X136361904Y-68403390D01*
X136361904Y-68403390D02*
X136361904Y-68784342D01*
X136361904Y-68784342D02*
X136314285Y-68879580D01*
X136314285Y-68879580D02*
X136266666Y-68927200D01*
X136266666Y-68927200D02*
X136171428Y-68974819D01*
X136171428Y-68974819D02*
X135980952Y-68974819D01*
X135980952Y-68974819D02*
X135885714Y-68927200D01*
X135885714Y-68927200D02*
X135838095Y-68879580D01*
X135838095Y-68879580D02*
X135790476Y-68784342D01*
X135790476Y-68784342D02*
X135790476Y-68546247D01*
X135790476Y-68546247D02*
X135838095Y-68451009D01*
X135838095Y-68451009D02*
X135885714Y-68403390D01*
X135885714Y-68403390D02*
X135980952Y-68355771D01*
X135980952Y-68355771D02*
X136171428Y-68355771D01*
X136171428Y-68355771D02*
X136266666Y-68403390D01*
X136266666Y-68403390D02*
X136314285Y-68451009D01*
X136314285Y-68451009D02*
X136361904Y-68546247D01*
%TO.C,R4*%
X123222866Y-99113619D02*
X123556199Y-98637428D01*
X123794294Y-99113619D02*
X123794294Y-98113619D01*
X123794294Y-98113619D02*
X123413342Y-98113619D01*
X123413342Y-98113619D02*
X123318104Y-98161238D01*
X123318104Y-98161238D02*
X123270485Y-98208857D01*
X123270485Y-98208857D02*
X123222866Y-98304095D01*
X123222866Y-98304095D02*
X123222866Y-98446952D01*
X123222866Y-98446952D02*
X123270485Y-98542190D01*
X123270485Y-98542190D02*
X123318104Y-98589809D01*
X123318104Y-98589809D02*
X123413342Y-98637428D01*
X123413342Y-98637428D02*
X123794294Y-98637428D01*
X122365723Y-98446952D02*
X122365723Y-99113619D01*
X122603818Y-98066000D02*
X122841913Y-98780285D01*
X122841913Y-98780285D02*
X122222866Y-98780285D01*
%TO.C,H1*%
X202772704Y-45972019D02*
X202772704Y-44972019D01*
X202772704Y-45448209D02*
X202201276Y-45448209D01*
X202201276Y-45972019D02*
X202201276Y-44972019D01*
X201201276Y-45972019D02*
X201772704Y-45972019D01*
X201486990Y-45972019D02*
X201486990Y-44972019D01*
X201486990Y-44972019D02*
X201582228Y-45114876D01*
X201582228Y-45114876D02*
X201677466Y-45210114D01*
X201677466Y-45210114D02*
X201772704Y-45257733D01*
%TO.C,J12*%
X150719523Y-58154819D02*
X150719523Y-58869104D01*
X150719523Y-58869104D02*
X150767142Y-59011961D01*
X150767142Y-59011961D02*
X150862380Y-59107200D01*
X150862380Y-59107200D02*
X151005237Y-59154819D01*
X151005237Y-59154819D02*
X151100475Y-59154819D01*
X149719523Y-59154819D02*
X150290951Y-59154819D01*
X150005237Y-59154819D02*
X150005237Y-58154819D01*
X150005237Y-58154819D02*
X150100475Y-58297676D01*
X150100475Y-58297676D02*
X150195713Y-58392914D01*
X150195713Y-58392914D02*
X150290951Y-58440533D01*
X149338570Y-58250057D02*
X149290951Y-58202438D01*
X149290951Y-58202438D02*
X149195713Y-58154819D01*
X149195713Y-58154819D02*
X148957618Y-58154819D01*
X148957618Y-58154819D02*
X148862380Y-58202438D01*
X148862380Y-58202438D02*
X148814761Y-58250057D01*
X148814761Y-58250057D02*
X148767142Y-58345295D01*
X148767142Y-58345295D02*
X148767142Y-58440533D01*
X148767142Y-58440533D02*
X148814761Y-58583390D01*
X148814761Y-58583390D02*
X149386189Y-59154819D01*
X149386189Y-59154819D02*
X148767142Y-59154819D01*
D11*
%TO.C,R3*%
X127222224Y-99392500D02*
X126712776Y-99392500D01*
X127222224Y-98347500D02*
X126712776Y-98347500D01*
%TO.C,U6*%
X135847400Y-65566700D02*
X137447400Y-65566700D01*
X137447400Y-67366700D02*
X135547400Y-67366700D01*
%TO.C,R4*%
X123512224Y-100642500D02*
X123002776Y-100642500D01*
X123512224Y-99597500D02*
X123002776Y-99597500D01*
D10*
%TO.C,J12*%
X145800000Y-51420000D02*
X146100000Y-51420000D01*
X145800000Y-51570000D02*
X145800000Y-51420000D01*
X145800000Y-55370000D02*
X145800000Y-53970000D01*
X146100000Y-51420000D02*
X146100000Y-50970000D01*
X148150000Y-57120000D02*
X147425000Y-57120000D01*
X148150000Y-57545000D02*
X148150000Y-57120000D01*
X148875000Y-57545000D02*
X148150000Y-57545000D01*
X151750000Y-57120000D02*
X152475000Y-57120000D01*
X153800000Y-50970000D02*
X153800000Y-51420000D01*
X153800000Y-51420000D02*
X154100000Y-51420000D01*
X154100000Y-51420000D02*
X154100000Y-51570000D01*
X154100000Y-53970000D02*
X154100000Y-55370000D01*
%TD*%
%LPC*%
D12*
%TO.C,Y1*%
X208670000Y-63090000D03*
X203790000Y-63090000D03*
%TD*%
D13*
%TO.C,U2*%
X160498800Y-57571200D03*
D14*
X160498800Y-55031200D03*
X163038800Y-57571200D03*
X163038800Y-55031200D03*
X165578800Y-57571200D03*
X165578800Y-55031200D03*
X168118800Y-57571200D03*
X168118800Y-55031200D03*
%TD*%
D15*
%TO.C,J7*%
X214092800Y-78201700D03*
D16*
X214092800Y-80741700D03*
X214092800Y-83281700D03*
X214092800Y-85821700D03*
%TD*%
D17*
%TO.C,H4*%
X111129600Y-48717200D03*
%TD*%
D18*
%TO.C,Q2*%
X135658800Y-80143200D03*
D19*
X135658800Y-78873200D03*
X135658800Y-77603200D03*
%TD*%
D20*
%TO.C,H2*%
X111129600Y-104902000D03*
%TD*%
D21*
%TO.C,J5*%
X204747300Y-93146700D03*
D16*
X204747300Y-90606700D03*
%TD*%
D21*
%TO.C,J11*%
X108374800Y-66427200D03*
D16*
X108374800Y-63887200D03*
%TD*%
D22*
%TO.C,Q1*%
X135298800Y-89030000D03*
D19*
X135298800Y-90300000D03*
X135298800Y-91570000D03*
%TD*%
D20*
%TO.C,H3*%
X202010800Y-104902000D03*
%TD*%
D21*
%TO.C,J4*%
X185719550Y-94582950D03*
D16*
X185719550Y-92042950D03*
X185719550Y-89502950D03*
%TD*%
D21*
%TO.C,J2*%
X200097300Y-93146700D03*
D16*
X200097300Y-90606700D03*
%TD*%
D21*
%TO.C,J8*%
X209247300Y-93421700D03*
D16*
X209247300Y-90881700D03*
%TD*%
D15*
%TO.C,J3*%
X189549550Y-89497950D03*
D16*
X189549550Y-92037950D03*
X189549550Y-94577950D03*
%TD*%
D23*
%TO.C,J10*%
X155244800Y-92496200D03*
D24*
X160244800Y-92496200D03*
%TD*%
D21*
%TO.C,J1*%
X195447300Y-93146700D03*
D16*
X195447300Y-90606700D03*
%TD*%
D15*
%TO.C,J9*%
X231067300Y-67481700D03*
D16*
X231067300Y-70021700D03*
X231067300Y-72561700D03*
X231067300Y-75101700D03*
X231067300Y-77641700D03*
X231067300Y-80181700D03*
X231067300Y-82721700D03*
X231067300Y-85261700D03*
%TD*%
D25*
%TO.C,U3*%
X160862800Y-69222200D03*
D26*
X164562800Y-70922200D03*
X160862800Y-72622200D03*
X164562800Y-74322200D03*
X160862800Y-76022200D03*
%TD*%
D21*
%TO.C,J6*%
X213963550Y-93464950D03*
D16*
X213963550Y-90924950D03*
%TD*%
D27*
%TO.C,R3*%
X127880000Y-98870000D03*
X126055000Y-98870000D03*
%TD*%
D28*
%TO.C,U6*%
X135797400Y-67004200D03*
D29*
X135722400Y-66466700D03*
D28*
X135797400Y-65929200D03*
X137497400Y-65929200D03*
D29*
X137572400Y-66466700D03*
D28*
X137497400Y-67004200D03*
%TD*%
D27*
%TO.C,R4*%
X124170000Y-100120000D03*
X122345000Y-100120000D03*
%TD*%
D17*
%TO.C,H1*%
X202010800Y-48717200D03*
%TD*%
D30*
%TO.C,J12*%
X147450000Y-55520000D03*
X152450000Y-55520000D03*
D31*
X148650000Y-56620000D03*
X149300000Y-56620000D03*
X149950000Y-56620000D03*
X150600000Y-56620000D03*
X151250000Y-56620000D03*
D32*
X146075000Y-52770000D03*
D33*
X146225000Y-56570000D03*
X153675000Y-56570000D03*
D32*
X153825000Y-52770000D03*
%TD*%
%LPD*%
M02*
