M48
; DRILL file {KiCad 7.0.5} date Fri Jul  7 07:55:33 2023
; FORMAT={-:-/ absolute / metric / decimal}
; #@! TF.CreationDate,2023-07-07T07:55:33+07:00
; #@! TF.GenerationSoftware,Kicad,Pcbnew,7.0.5
; #@! TF.FileFunction,Plated,1,2,PTH
FMAT,2
METRIC
; #@! TA.AperFunction,Plated,PTH,ViaDrill
T1C0.300
; #@! TA.AperFunction,Plated,PTH,ViaDrill
T2C0.350
; #@! TA.AperFunction,Plated,PTH,ViaDrill
T3C0.400
; #@! TA.AperFunction,Plated,PTH,ComponentDrill
T4C0.750
; #@! TA.AperFunction,Plated,PTH,ComponentDrill
T5C0.800
; #@! TA.AperFunction,Plated,PTH,ComponentDrill
T6C1.000
; #@! TA.AperFunction,Plated,PTH,ComponentDrill
T7C1.100
; #@! TA.AperFunction,Plated,PTH,ComponentDrill
T8C1.200
; #@! TA.AperFunction,Plated,PTH,ComponentDrill
T9C1.400
; #@! TA.AperFunction,Plated,PTH,ComponentDrill
T10C2.500
; #@! TA.AperFunction,Plated,PTH,ComponentDrill
T11C3.200
%
G90
G05
T1
X108.883Y-92.97
X115.02Y-68.84
X118.059Y-68.427
X118.535Y-71.761
X120.059Y-58.934
X120.315Y-71.632
X122.218Y-60.331
X125.018Y-68.055
X126.971Y-69.985
X133.013Y-80.524
X135.791Y-86.985
X136.569Y-67.697
X212.125Y-74.744
T2
X93.46Y-71.96
X96.04Y-59.63
X105.36Y-48.35
X110.78Y-60.02
X113.05Y-69.41
X114.23Y-108.05
X114.44Y-45.44
X115.66Y-97.12
X117.77Y-98.99
X118.89Y-62.35
X118.91Y-95.49
X120.32Y-57.05
X120.51Y-99.2
X122.09Y-101.93
X123.17Y-62.44
X123.43Y-91.43
X124.16Y-92.48
X124.53Y-102.43
X124.73Y-91.53
X124.75Y-95.8
X125.15Y-55.33
X125.49Y-62.21
X125.9Y-58.6
X127.17Y-93.48
X128.566Y-96.503
X132.01Y-94.5
X132.09Y-92.21
X132.94Y-60.43
X132.94Y-61.254
X137.301Y-60.74
X138.17Y-64.71
X140.67Y-72.18
X142.74Y-68.15
X143.78Y-70.2
X144.06Y-64.35
X145.24Y-54.66
X146.2Y-62.32
X146.87Y-67.06
X148.12Y-60.31
X149.73Y-53.92
X150.2Y-65.07
X151.11Y-59.67
X151.7Y-79.89
X152.09Y-58.38
X152.48Y-74.11
X152.97Y-85.81
X154.21Y-74.92
X154.27Y-77.41
X154.29Y-79.7
X155.07Y-87.22
X155.42Y-55.54
X156.98Y-74.44
X157.03Y-84.7
X157.14Y-89.12
X157.79Y-53.55
X158.04Y-71.39
X159.35Y-87.32
X160.26Y-81.39
X162.0Y-93.7
X162.21Y-91.34
X162.49Y-77.98
X162.54Y-92.77
X163.13Y-79.14
X164.94Y-93.66
X164.99Y-81.7
X165.29Y-91.5
X169.05Y-88.53
X170.51Y-91.32
X170.68Y-55.93
X170.79Y-87.56
X172.44Y-57.59
X180.98Y-66.15
X181.67Y-83.37
X182.57Y-100.68
X183.59Y-68.79
X184.19Y-100.4
X185.7Y-96.773
X185.71Y-85.3
X189.56Y-96.623
X189.61Y-58.96
X190.02Y-64.37
X190.43Y-66.73
X191.3Y-75.89
X191.68Y-68.26
X192.98Y-56.61
X193.05Y-92.39
X193.87Y-80.22
X193.9Y-77.04
X194.0Y-83.68
X194.057Y-67.612
X194.21Y-88.4
X194.462Y-81.742
X195.477Y-95.452
X197.75Y-91.99
X197.79Y-94.16
X198.06Y-86.7
X198.56Y-56.94
X198.65Y-45.17
X198.67Y-108.41
X199.51Y-67.45
X200.067Y-95.432
X200.21Y-65.22
X200.23Y-60.98
X200.25Y-62.51
X200.27Y-59.2
X201.39Y-57.76
X202.35Y-83.89
X202.82Y-65.42
X204.827Y-95.442
X205.6Y-64.83
X205.61Y-102.73
X205.71Y-61.55
X205.92Y-59.26
X205.95Y-57.6
X206.52Y-105.88
X207.53Y-85.529
X209.247Y-95.372
X209.71Y-85.38
X212.01Y-59.19
X215.99Y-66.3
X216.2Y-61.7
X216.29Y-64.24
X216.33Y-56.81
X216.37Y-59.03
X217.26Y-89.77
X218.27Y-71.82
X218.58Y-69.57
X219.72Y-71.8
X219.8Y-89.91
X220.31Y-69.11
X221.17Y-88.44
X222.88Y-100.48
X222.96Y-73.0
X223.0Y-87.14
X223.227Y-83.292
X223.61Y-71.18
X223.86Y-84.68
X224.047Y-75.232
X225.19Y-71.26
X225.95Y-100.19
X227.64Y-53.2
X228.41Y-84.36
X228.44Y-79.27
X228.49Y-81.88
X228.53Y-86.72
X228.54Y-76.32
X228.74Y-71.32
X228.81Y-73.78
X229.01Y-99.86
X230.68Y-53.31
X231.38Y-99.73
X233.55Y-83.4
X233.62Y-86.23
X233.66Y-77.74
X233.66Y-80.74
X233.9Y-99.73
X234.44Y-53.47
X236.43Y-99.69
X238.8Y-99.69
X239.25Y-53.64
X241.82Y-96.75
X244.54Y-62.64
X244.56Y-88.29
X246.75Y-69.53
X247.0Y-83.11
X249.49Y-76.24
T3
X92.699Y-75.516
X92.699Y-78.056
X95.239Y-62.816
X95.239Y-65.356
X95.239Y-67.896
X95.239Y-70.436
X95.239Y-72.976
X95.239Y-75.516
X95.239Y-78.056
X95.239Y-80.596
X95.239Y-83.136
X95.239Y-85.676
X95.239Y-88.216
X97.779Y-55.196
X97.779Y-57.736
X97.779Y-60.276
X97.779Y-62.816
X97.779Y-65.356
X97.779Y-67.896
X97.779Y-70.436
X97.779Y-72.976
X97.779Y-75.516
X97.779Y-78.056
X97.779Y-80.596
X97.779Y-83.136
X97.779Y-85.676
X97.779Y-88.216
X97.779Y-90.756
X97.779Y-93.296
X97.779Y-95.836
X100.319Y-52.656
X100.319Y-55.196
X100.319Y-57.736
X100.319Y-60.276
X100.319Y-62.816
X100.319Y-65.356
X100.319Y-67.896
X100.319Y-70.436
X100.319Y-72.976
X100.319Y-75.516
X100.319Y-78.056
X100.319Y-80.596
X100.319Y-83.136
X100.319Y-85.676
X100.319Y-88.216
X100.319Y-90.756
X100.319Y-93.296
X100.319Y-95.836
X100.319Y-98.376
X100.319Y-100.916
X102.859Y-50.116
X102.859Y-52.656
X102.859Y-55.196
X102.859Y-57.736
X102.859Y-60.276
X102.859Y-62.816
X102.859Y-65.356
X102.859Y-67.896
X102.859Y-70.436
X102.859Y-72.976
X102.859Y-75.516
X102.859Y-78.056
X102.859Y-80.596
X102.859Y-83.136
X102.859Y-85.676
X102.859Y-88.216
X102.859Y-90.756
X102.859Y-93.296
X102.859Y-95.836
X102.859Y-98.376
X102.859Y-100.916
X102.859Y-103.456
X105.399Y-50.116
X105.399Y-52.656
X105.399Y-55.196
X105.399Y-57.736
X105.399Y-60.276
X105.399Y-62.816
X105.399Y-65.356
X105.399Y-67.896
X105.399Y-70.436
X105.399Y-72.976
X105.399Y-75.516
X105.399Y-78.056
X105.399Y-80.596
X105.399Y-83.136
X105.399Y-85.676
X105.399Y-88.216
X105.399Y-90.756
X105.399Y-93.296
X105.399Y-95.836
X105.399Y-98.376
X105.399Y-100.916
X105.399Y-103.456
X107.36Y-90.94
X107.38Y-47.91
X107.939Y-52.656
X107.939Y-55.196
X107.939Y-57.736
X107.939Y-60.276
X107.939Y-70.436
X107.939Y-95.836
X107.939Y-98.376
X107.939Y-100.916
X107.939Y-103.456
X107.939Y-105.996
X107.95Y-71.7
X110.44Y-91.02
X110.479Y-52.656
X110.479Y-55.196
X110.479Y-57.736
X110.479Y-70.436
X110.479Y-93.296
X110.479Y-95.836
X110.479Y-98.376
X110.479Y-100.916
X110.53Y-71.7
X113.019Y-52.656
X113.019Y-55.196
X113.019Y-70.436
X113.019Y-93.296
X113.019Y-95.836
X113.019Y-98.376
X113.019Y-100.916
X113.09Y-71.8
X113.17Y-91.1
X113.24Y-62.43
X115.287Y-75.732
X115.559Y-47.576
X115.559Y-50.116
X115.559Y-52.656
X115.559Y-55.196
X115.559Y-78.056
X115.559Y-80.596
X115.559Y-83.136
X115.559Y-85.676
X115.559Y-98.376
X115.559Y-100.916
X115.559Y-103.456
X115.559Y-105.996
X116.47Y-60.55
X116.78Y-79.76
X117.192Y-75.732
X118.099Y-47.576
X118.099Y-50.116
X118.099Y-52.656
X118.099Y-55.196
X118.099Y-80.596
X118.099Y-83.136
X118.099Y-85.676
X118.099Y-100.916
X118.099Y-103.456
X118.099Y-105.996
X120.639Y-50.116
X120.639Y-52.656
X120.639Y-55.196
X120.639Y-67.896
X120.639Y-83.136
X120.639Y-85.676
X120.639Y-95.836
X120.639Y-100.916
X120.639Y-103.456
X120.65Y-69.33
X120.76Y-66.5
X120.98Y-76.55
X121.964Y-64.265
X121.964Y-65.315
X123.179Y-50.116
X123.179Y-52.656
X123.179Y-55.196
X123.179Y-78.056
X123.179Y-95.836
X123.8Y-85.69
X124.35Y-71.2
X124.36Y-98.68
X124.47Y-79.4
X125.719Y-52.656
X125.719Y-60.276
X125.719Y-80.596
X128.259Y-52.656
X128.259Y-83.136
X128.259Y-85.676
X128.3Y-76.72
X130.799Y-52.656
X130.799Y-65.356
X130.799Y-88.216
X130.799Y-90.756
X132.2Y-89.87
X132.44Y-87.12
X132.631Y-64.628
X132.66Y-82.38
X133.267Y-76.333
X133.339Y-52.656
X133.339Y-67.896
X133.339Y-78.056
X133.53Y-93.91
X134.91Y-97.76
X135.879Y-52.656
X136.46Y-55.68
X136.92Y-97.79
X137.26Y-94.42
X137.56Y-71.99
X137.59Y-74.8
X138.419Y-52.656
X138.419Y-62.816
X138.419Y-67.896
X140.959Y-52.656
X140.959Y-65.356
X140.959Y-67.896
X141.576Y-71.033
X143.499Y-52.656
X143.499Y-55.196
X143.499Y-57.736
X144.316Y-61.728
X146.039Y-60.276
X148.579Y-52.656
X148.579Y-55.196
X150.696Y-55.098
X151.119Y-52.656
X151.119Y-72.976
X151.119Y-75.516
X151.119Y-78.056
X151.119Y-85.676
X151.119Y-88.216
X153.659Y-62.816
X153.659Y-70.436
X153.659Y-88.216
X156.199Y-52.656
X156.199Y-60.276
X156.199Y-62.816
X156.199Y-75.516
X156.199Y-78.056
X156.199Y-80.596
X156.199Y-83.136
X157.705Y-57.952
X158.739Y-52.656
X158.739Y-60.276
X158.739Y-62.816
X158.739Y-75.516
X158.739Y-78.056
X158.739Y-80.596
X158.739Y-83.136
X158.739Y-85.676
X161.279Y-52.656
X161.279Y-62.816
X161.279Y-83.136
X161.279Y-85.676
X161.279Y-88.216
X162.03Y-96.4
X163.801Y-61.381
X163.819Y-52.656
X163.819Y-80.596
X163.819Y-85.676
X163.819Y-88.216
X163.819Y-90.756
X163.819Y-93.296
X164.92Y-96.52
X166.359Y-83.136
X166.68Y-96.33
X168.7Y-86.73
X168.899Y-90.756
X169.516Y-52.872
X171.439Y-52.656
X173.143Y-96.377
X173.979Y-52.656
X173.979Y-55.196
X176.519Y-52.656
X176.519Y-55.196
X176.519Y-57.736
X178.533Y-60.941
X179.059Y-52.656
X179.059Y-55.196
X179.059Y-57.736
X181.599Y-52.656
X181.599Y-55.196
X181.599Y-57.736
X182.597Y-62.016
X184.139Y-52.656
X184.139Y-55.196
X184.139Y-57.736
X184.139Y-60.276
X184.139Y-70.436
X184.139Y-72.976
X184.139Y-75.516
X184.139Y-78.056
X184.139Y-80.596
X184.139Y-85.676
X184.26Y-93.01
X184.5Y-96.43
X184.63Y-98.19
X186.679Y-52.656
X186.679Y-55.196
X186.679Y-57.736
X186.679Y-60.276
X186.679Y-62.816
X186.679Y-72.976
X186.679Y-75.516
X186.679Y-78.056
X186.679Y-80.596
X186.679Y-98.376
X186.679Y-100.916
X189.219Y-50.116
X189.219Y-52.656
X189.219Y-98.376
X189.219Y-100.916
X189.56Y-87.09
X191.759Y-50.116
X191.759Y-52.656
X191.759Y-57.736
X191.759Y-60.276
X191.759Y-65.356
X191.759Y-93.296
X191.759Y-95.836
X191.759Y-98.376
X191.759Y-100.916
X191.759Y-103.456
X192.238Y-83.098
X192.92Y-94.94
X193.011Y-68.874
X194.299Y-47.576
X194.299Y-50.116
X194.299Y-52.656
X194.299Y-57.736
X194.299Y-60.276
X194.299Y-62.816
X194.299Y-65.356
X194.299Y-98.376
X194.299Y-100.916
X194.299Y-103.456
X194.299Y-105.996
X196.839Y-47.576
X196.839Y-50.116
X196.839Y-52.656
X196.839Y-57.736
X196.839Y-60.276
X196.839Y-62.816
X196.839Y-65.356
X196.839Y-85.676
X196.839Y-98.376
X196.839Y-100.916
X196.839Y-103.456
X196.839Y-105.996
X198.83Y-103.2
X199.33Y-72.2
X199.379Y-52.656
X199.379Y-85.676
X199.379Y-98.376
X199.379Y-100.916
X199.924Y-70.581
X201.266Y-80.189
X201.919Y-52.656
X201.919Y-62.816
X201.919Y-93.296
X201.919Y-95.836
X201.919Y-98.376
X201.919Y-100.916
X202.06Y-91.76
X204.45Y-77.17
X204.459Y-52.656
X204.459Y-75.516
X204.459Y-98.376
X204.459Y-100.916
X204.81Y-73.59
X205.83Y-76.92
X206.91Y-74.59
X206.99Y-91.39
X206.999Y-47.576
X206.999Y-50.116
X206.999Y-52.656
X206.999Y-60.276
X206.999Y-62.816
X206.999Y-72.976
X206.999Y-93.296
X206.999Y-95.836
X206.999Y-98.376
X206.999Y-100.916
X206.999Y-103.456
X209.539Y-50.116
X209.539Y-52.656
X209.539Y-65.356
X209.539Y-98.376
X209.539Y-100.916
X209.539Y-103.456
X209.58Y-79.28
X211.58Y-91.77
X212.079Y-50.116
X212.079Y-52.656
X212.079Y-62.816
X212.079Y-65.356
X212.079Y-93.296
X212.079Y-95.836
X212.079Y-98.376
X212.079Y-100.916
X212.079Y-103.456
X214.619Y-50.116
X214.619Y-52.656
X214.619Y-57.736
X214.619Y-60.276
X214.619Y-62.816
X214.619Y-65.356
X214.619Y-88.216
X214.619Y-95.836
X214.619Y-98.376
X214.619Y-100.916
X216.77Y-68.99
X217.159Y-52.656
X217.159Y-83.136
X217.159Y-95.836
X217.159Y-98.376
X217.159Y-100.916
X217.44Y-77.28
X219.699Y-52.656
X219.699Y-55.196
X219.699Y-57.736
X219.699Y-60.276
X219.699Y-62.816
X219.699Y-65.356
X219.699Y-70.436
X219.699Y-83.136
X219.699Y-95.836
X219.699Y-98.376
X219.699Y-100.916
X221.97Y-78.28
X222.239Y-52.656
X222.239Y-55.196
X222.239Y-57.736
X222.239Y-60.276
X222.239Y-62.816
X222.239Y-65.356
X222.239Y-85.676
X222.239Y-93.296
X222.239Y-95.836
X222.239Y-98.376
X223.618Y-69.509
X223.745Y-67.477
X224.779Y-52.656
X224.779Y-55.196
X224.779Y-57.736
X224.779Y-60.276
X224.779Y-62.816
X224.779Y-65.356
X224.779Y-90.756
X224.779Y-93.296
X224.779Y-95.836
X224.779Y-98.376
X225.76Y-89.23
X227.319Y-55.196
X227.319Y-57.736
X227.319Y-60.276
X227.319Y-62.816
X227.319Y-65.356
X227.319Y-78.056
X227.319Y-80.596
X227.319Y-83.136
X227.319Y-85.676
X227.319Y-88.216
X227.319Y-90.756
X227.319Y-93.296
X227.319Y-95.836
X227.319Y-98.376
X229.859Y-55.196
X229.859Y-57.736
X229.859Y-60.276
X229.859Y-62.816
X229.859Y-65.356
X229.859Y-88.216
X229.859Y-90.756
X229.859Y-93.296
X229.859Y-95.836
X229.859Y-98.376
X232.399Y-55.196
X232.399Y-57.736
X232.399Y-60.276
X232.399Y-62.816
X232.399Y-65.356
X232.399Y-88.216
X232.399Y-90.756
X232.399Y-93.296
X232.399Y-95.836
X232.399Y-98.376
X234.939Y-55.196
X234.939Y-57.736
X234.939Y-60.276
X234.939Y-62.816
X234.939Y-65.356
X234.939Y-67.896
X234.939Y-70.436
X234.939Y-72.976
X234.939Y-75.516
X234.939Y-78.056
X234.939Y-80.596
X234.939Y-83.136
X234.939Y-85.676
X234.939Y-88.216
X234.939Y-90.756
X234.939Y-93.296
X234.939Y-95.836
X234.939Y-98.376
X237.479Y-55.196
X237.479Y-57.736
X237.479Y-60.276
X237.479Y-62.816
X237.479Y-65.356
X237.479Y-67.896
X237.479Y-70.436
X237.479Y-72.976
X237.479Y-75.516
X237.479Y-78.056
X237.479Y-80.596
X237.479Y-83.136
X237.479Y-85.676
X237.479Y-88.216
X237.479Y-90.756
X237.479Y-93.296
X237.479Y-95.836
X237.479Y-98.376
X240.019Y-55.196
X240.019Y-57.736
X240.019Y-60.276
X240.019Y-62.816
X240.019Y-65.356
X240.019Y-67.896
X240.019Y-70.436
X240.019Y-72.976
X240.019Y-75.516
X240.019Y-78.056
X240.019Y-80.596
X240.019Y-83.136
X240.019Y-85.676
X240.019Y-88.216
X240.019Y-90.756
X240.019Y-93.296
X240.019Y-95.836
X240.019Y-98.376
X242.559Y-57.736
X242.559Y-60.276
X242.559Y-62.816
X242.559Y-65.356
X242.559Y-67.896
X242.559Y-70.436
X242.559Y-72.976
X242.559Y-75.516
X242.559Y-78.056
X242.559Y-80.596
X242.559Y-83.136
X242.559Y-85.676
X242.559Y-88.216
X242.559Y-90.756
X242.559Y-93.296
X245.099Y-65.356
X245.099Y-67.896
X245.099Y-70.436
X245.099Y-72.976
X245.099Y-75.516
X245.099Y-78.056
X245.099Y-80.596
X245.099Y-83.136
X245.099Y-85.676
X247.639Y-72.976
X247.639Y-75.516
X247.639Y-78.056
X247.639Y-80.596
T4
X135.299Y-89.03
X135.299Y-90.3
X135.299Y-91.57
X135.659Y-77.603
X135.659Y-78.873
X135.659Y-80.143
T5
X203.79Y-63.09
X208.67Y-63.09
T6
X108.375Y-63.887
X108.375Y-66.427
X160.499Y-55.031
X160.499Y-57.571
X163.039Y-55.031
X163.039Y-57.571
X165.579Y-55.031
X165.579Y-57.571
X168.119Y-55.031
X168.119Y-57.571
X185.72Y-89.503
X185.72Y-92.043
X185.72Y-94.583
X189.55Y-89.498
X189.55Y-92.038
X189.55Y-94.578
X195.447Y-90.607
X195.447Y-93.147
X200.097Y-90.607
X200.097Y-93.147
X204.747Y-90.607
X204.747Y-93.147
X209.247Y-90.882
X209.247Y-93.422
X213.964Y-90.925
X213.964Y-93.465
X214.093Y-78.202
X214.093Y-80.742
X214.093Y-83.282
X214.093Y-85.822
X231.067Y-67.482
X231.067Y-70.022
X231.067Y-72.562
X231.067Y-75.102
X231.067Y-77.642
X231.067Y-80.182
X231.067Y-82.722
X231.067Y-85.262
T7
X160.863Y-69.222
X160.863Y-72.622
X160.863Y-76.022
X164.563Y-70.922
X164.563Y-74.322
T8
X146.075Y-52.77
X153.825Y-52.77
T9
X146.225Y-56.57
X153.675Y-56.57
X155.245Y-92.496
X160.245Y-92.496
T10
X111.13Y-104.902
X202.011Y-104.902
T11
X111.13Y-48.717
X202.011Y-48.717
T0
M30
