%TF.GenerationSoftware,KiCad,Pcbnew,7.0.5*%
%TF.CreationDate,2023-07-07T07:55:25+07:00*%
%TF.ProjectId,THUC_TAPP,54485543-5f54-4415-9050-2e6b69636164,rev?*%
%TF.SameCoordinates,Original*%
%TF.FileFunction,Soldermask,Top*%
%TF.FilePolarity,Negative*%
%FSLAX46Y46*%
G04 Gerber Fmt 4.6, Leading zero omitted, Abs format (unit mm)*
G04 Created by KiCad (PCBNEW 7.0.5) date 2023-07-07 07:55:25*
%MOMM*%
%LPD*%
G01*
G04 APERTURE LIST*
G04 Aperture macros list*
%AMRoundRect*
0 Rectangle with rounded corners*
0 $1 Rounding radius*
0 $2 $3 $4 $5 $6 $7 $8 $9 X,Y pos of 4 corners*
0 Add a 4 corners polygon primitive as box body*
4,1,4,$2,$3,$4,$5,$6,$7,$8,$9,$2,$3,0*
0 Add four circle primitives for the rounded corners*
1,1,$1+$1,$2,$3*
1,1,$1+$1,$4,$5*
1,1,$1+$1,$6,$7*
1,1,$1+$1,$8,$9*
0 Add four rect primitives between the rounded corners*
20,1,$1+$1,$2,$3,$4,$5,0*
20,1,$1+$1,$4,$5,$6,$7,0*
20,1,$1+$1,$6,$7,$8,$9,0*
20,1,$1+$1,$8,$9,$2,$3,0*%
G04 Aperture macros list end*
%ADD10RoundRect,0.300800X0.450000X-0.350000X0.450000X0.350000X-0.450000X0.350000X-0.450000X-0.350000X0*%
%ADD11RoundRect,0.300800X-0.337500X-0.475000X0.337500X-0.475000X0.337500X0.475000X-0.337500X0.475000X0*%
%ADD12C,1.601600*%
%ADD13RoundRect,0.300800X0.475000X-0.337500X0.475000X0.337500X-0.475000X0.337500X-0.475000X-0.337500X0*%
%ADD14RoundRect,0.300800X-0.350000X-0.450000X0.350000X-0.450000X0.350000X0.450000X-0.350000X0.450000X0*%
%ADD15RoundRect,0.300800X-0.475000X0.337500X-0.475000X-0.337500X0.475000X-0.337500X0.475000X0.337500X0*%
%ADD16RoundRect,0.050800X0.500000X-1.250000X0.500000X1.250000X-0.500000X1.250000X-0.500000X-1.250000X0*%
%ADD17RoundRect,0.050800X0.900000X-0.500000X0.900000X0.500000X-0.900000X0.500000X-0.900000X-0.500000X0*%
%ADD18RoundRect,0.050800X0.850000X-0.850000X0.850000X0.850000X-0.850000X0.850000X-0.850000X-0.850000X0*%
%ADD19C,1.801600*%
%ADD20RoundRect,0.300800X-1.950000X-1.000000X1.950000X-1.000000X1.950000X1.000000X-1.950000X1.000000X0*%
%ADD21RoundRect,0.050800X-0.850000X-0.850000X0.850000X-0.850000X0.850000X0.850000X-0.850000X0.850000X0*%
%ADD22O,1.801600X1.801600*%
%ADD23RoundRect,0.300800X0.350000X0.450000X-0.350000X0.450000X-0.350000X-0.450000X0.350000X-0.450000X0*%
%ADD24RoundRect,0.300800X0.337500X0.475000X-0.337500X0.475000X-0.337500X-0.475000X0.337500X-0.475000X0*%
%ADD25C,5.711600*%
%ADD26RoundRect,0.050800X0.750000X-0.525000X0.750000X0.525000X-0.750000X0.525000X-0.750000X-0.525000X0*%
%ADD27O,1.601600X1.151600*%
%ADD28RoundRect,0.300800X-0.450000X0.350000X-0.450000X-0.350000X0.450000X-0.350000X0.450000X0.350000X0*%
%ADD29RoundRect,0.125800X-0.075000X0.662500X-0.075000X-0.662500X0.075000X-0.662500X0.075000X0.662500X0*%
%ADD30RoundRect,0.125800X-0.662500X0.075000X-0.662500X-0.075000X0.662500X-0.075000X0.662500X0.075000X0*%
%ADD31C,5.101600*%
%ADD32RoundRect,0.050800X1.000000X0.750000X-1.000000X0.750000X-1.000000X-0.750000X1.000000X-0.750000X0*%
%ADD33RoundRect,0.050800X1.000000X1.900000X-1.000000X1.900000X-1.000000X-1.900000X1.000000X-1.900000X0*%
%ADD34RoundRect,0.300800X1.500000X0.550000X-1.500000X0.550000X-1.500000X-0.550000X1.500000X-0.550000X0*%
%ADD35RoundRect,0.050800X0.850000X0.850000X-0.850000X0.850000X-0.850000X-0.850000X0.850000X-0.850000X0*%
%ADD36RoundRect,0.300800X-0.325000X-0.450000X0.325000X-0.450000X0.325000X0.450000X-0.325000X0.450000X0*%
%ADD37RoundRect,0.300800X-0.900000X1.500000X-0.900000X-1.500000X0.900000X-1.500000X0.900000X1.500000X0*%
%ADD38RoundRect,0.288300X0.250000X0.237500X-0.250000X0.237500X-0.250000X-0.237500X0.250000X-0.237500X0*%
%ADD39RoundRect,0.300800X0.325000X0.450000X-0.325000X0.450000X-0.325000X-0.450000X0.325000X-0.450000X0*%
%ADD40RoundRect,0.205800X-0.155000X0.212500X-0.155000X-0.212500X0.155000X-0.212500X0.155000X0.212500X0*%
%ADD41RoundRect,0.288300X-0.250000X-0.237500X0.250000X-0.237500X0.250000X0.237500X-0.250000X0.237500X0*%
%ADD42RoundRect,0.050800X-0.750000X0.525000X-0.750000X-0.525000X0.750000X-0.525000X0.750000X0.525000X0*%
%ADD43RoundRect,0.300800X1.450000X-0.400000X1.450000X0.400000X-1.450000X0.400000X-1.450000X-0.400000X0*%
%ADD44RoundRect,0.288300X0.237500X-0.250000X0.237500X0.250000X-0.237500X0.250000X-0.237500X-0.250000X0*%
%ADD45RoundRect,0.113300X0.337500X0.062500X-0.337500X0.062500X-0.337500X-0.062500X0.337500X-0.062500X0*%
%ADD46RoundRect,0.113300X0.062500X0.337500X-0.062500X0.337500X-0.062500X-0.337500X0.062500X-0.337500X0*%
%ADD47RoundRect,0.050800X1.675000X1.675000X-1.675000X1.675000X-1.675000X-1.675000X1.675000X-1.675000X0*%
%ADD48RoundRect,0.050800X-2.705100X1.447800X-2.705100X-1.447800X2.705100X-1.447800X2.705100X1.447800X0*%
%ADD49RoundRect,0.300800X-0.750000X-1.550000X0.750000X-1.550000X0.750000X1.550000X-0.750000X1.550000X0*%
%ADD50O,2.101600X3.701600*%
%ADD51RoundRect,0.050800X-0.750000X-0.750000X0.750000X-0.750000X0.750000X0.750000X-0.750000X0.750000X0*%
%ADD52RoundRect,0.205800X-0.212500X-0.155000X0.212500X-0.155000X0.212500X0.155000X-0.212500X0.155000X0*%
%ADD53RoundRect,0.050800X0.750000X-0.750000X0.750000X0.750000X-0.750000X0.750000X-0.750000X-0.750000X0*%
%ADD54RoundRect,0.300800X0.450000X-0.325000X0.450000X0.325000X-0.450000X0.325000X-0.450000X-0.325000X0*%
%ADD55RoundRect,0.050800X-0.900000X0.900000X-0.900000X-0.900000X0.900000X-0.900000X0.900000X0.900000X0*%
%ADD56O,1.901600X1.901600*%
%ADD57C,0.801600*%
%ADD58C,1.901600*%
%ADD59C,2.101600*%
G04 APERTURE END LIST*
D10*
%TO.C,R15*%
X119804800Y-93700200D03*
X119804800Y-91700200D03*
%TD*%
D11*
%TO.C,C13*%
X201717500Y-59190000D03*
X203792500Y-59190000D03*
%TD*%
D12*
%TO.C,Y1*%
X208670000Y-63090000D03*
X203790000Y-63090000D03*
%TD*%
D13*
%TO.C,C5*%
X197770000Y-79145000D03*
X197770000Y-77070000D03*
%TD*%
D14*
%TO.C,R21*%
X116645800Y-58944200D03*
X118645800Y-58944200D03*
%TD*%
D11*
%TO.C,C24*%
X130555800Y-63360200D03*
X132630800Y-63360200D03*
%TD*%
D15*
%TO.C,C16*%
X227967300Y-67476700D03*
X227967300Y-69551700D03*
%TD*%
D10*
%TO.C,R14*%
X117518800Y-93827200D03*
X117518800Y-91827200D03*
%TD*%
%TO.C,R2*%
X182779550Y-92047950D03*
X182779550Y-90047950D03*
%TD*%
D16*
%TO.C,U4*%
X115092800Y-89013200D03*
X117092800Y-89013200D03*
X119092800Y-89013200D03*
X121092800Y-89013200D03*
X123092800Y-89013200D03*
X125092800Y-89013200D03*
X127092800Y-89013200D03*
X129092800Y-89013200D03*
D17*
X130592800Y-86413200D03*
X130592800Y-84413200D03*
X130592800Y-82413200D03*
X130592800Y-80413200D03*
X130592800Y-78413200D03*
X130592800Y-76413200D03*
D16*
X129092800Y-73813200D03*
X127092800Y-73813200D03*
X125092800Y-73813200D03*
X123092800Y-73813200D03*
X121092800Y-73813200D03*
X119092800Y-73813200D03*
X117092800Y-73813200D03*
X115092800Y-73813200D03*
%TD*%
D18*
%TO.C,U2*%
X160498800Y-57571200D03*
D19*
X160498800Y-55031200D03*
X163038800Y-57571200D03*
X163038800Y-55031200D03*
X165578800Y-57571200D03*
X165578800Y-55031200D03*
X168118800Y-57571200D03*
X168118800Y-55031200D03*
%TD*%
D20*
%TO.C,C17*%
X143783800Y-82484200D03*
X152183800Y-82484200D03*
%TD*%
D21*
%TO.C,J7*%
X214092800Y-78201700D03*
D22*
X214092800Y-80741700D03*
X214092800Y-83281700D03*
X214092800Y-85821700D03*
%TD*%
D23*
%TO.C,FB1*%
X198027300Y-71731700D03*
X196027300Y-71731700D03*
%TD*%
D15*
%TO.C,C11*%
X223207300Y-79891700D03*
X223207300Y-81966700D03*
%TD*%
D24*
%TO.C,C6*%
X209655000Y-81620000D03*
X207580000Y-81620000D03*
%TD*%
D11*
%TO.C,C7*%
X207715000Y-68960000D03*
X209790000Y-68960000D03*
%TD*%
D25*
%TO.C,H4*%
X111129600Y-48717200D03*
%TD*%
D26*
%TO.C,Q2*%
X135658800Y-80143200D03*
D27*
X135658800Y-78873200D03*
X135658800Y-77603200D03*
%TD*%
D28*
%TO.C,R20*%
X111438800Y-65576200D03*
X111438800Y-67576200D03*
%TD*%
D29*
%TO.C,U1*%
X207727300Y-71081700D03*
X207227300Y-71081700D03*
X206727300Y-71081700D03*
X206227300Y-71081700D03*
X205727300Y-71081700D03*
X205227300Y-71081700D03*
X204727300Y-71081700D03*
X204227300Y-71081700D03*
X203727300Y-71081700D03*
X203227300Y-71081700D03*
X202727300Y-71081700D03*
X202227300Y-71081700D03*
D30*
X200814800Y-72494200D03*
X200814800Y-72994200D03*
X200814800Y-73494200D03*
X200814800Y-73994200D03*
X200814800Y-74494200D03*
X200814800Y-74994200D03*
X200814800Y-75494200D03*
X200814800Y-75994200D03*
X200814800Y-76494200D03*
X200814800Y-76994200D03*
X200814800Y-77494200D03*
X200814800Y-77994200D03*
D29*
X202227300Y-79406700D03*
X202727300Y-79406700D03*
X203227300Y-79406700D03*
X203727300Y-79406700D03*
X204227300Y-79406700D03*
X204727300Y-79406700D03*
X205227300Y-79406700D03*
X205727300Y-79406700D03*
X206227300Y-79406700D03*
X206727300Y-79406700D03*
X207227300Y-79406700D03*
X207727300Y-79406700D03*
D30*
X209139800Y-77994200D03*
X209139800Y-77494200D03*
X209139800Y-76994200D03*
X209139800Y-76494200D03*
X209139800Y-75994200D03*
X209139800Y-75494200D03*
X209139800Y-74994200D03*
X209139800Y-74494200D03*
X209139800Y-73994200D03*
X209139800Y-73494200D03*
X209139800Y-72994200D03*
X209139800Y-72494200D03*
%TD*%
D31*
%TO.C,H2*%
X111129600Y-104902000D03*
%TD*%
D13*
%TO.C,C2*%
X198067300Y-69631700D03*
X198067300Y-67556700D03*
%TD*%
D32*
%TO.C,U7*%
X134590800Y-60760200D03*
X134590800Y-58460200D03*
D33*
X128290800Y-58460200D03*
D32*
X134590800Y-56160200D03*
%TD*%
D34*
%TO.C,C18*%
X175690000Y-85180000D03*
X170290000Y-85180000D03*
%TD*%
D24*
%TO.C,C12*%
X210747500Y-59220000D03*
X208672500Y-59220000D03*
%TD*%
D35*
%TO.C,J5*%
X204747300Y-93146700D03*
D22*
X204747300Y-90606700D03*
%TD*%
D36*
%TO.C,LED1*%
X171092800Y-94102200D03*
X173142800Y-94102200D03*
%TD*%
D35*
%TO.C,J11*%
X108374800Y-66427200D03*
D22*
X108374800Y-63887200D03*
%TD*%
D24*
%TO.C,R1*%
X202472300Y-81734200D03*
X200397300Y-81734200D03*
%TD*%
D37*
%TO.C,D1*%
X218597300Y-80401700D03*
X218597300Y-85801700D03*
%TD*%
D10*
%TO.C,R18*%
X134155800Y-86080200D03*
X134155800Y-84080200D03*
%TD*%
D11*
%TO.C,C1*%
X200925000Y-67750000D03*
X203000000Y-67750000D03*
%TD*%
D38*
%TO.C,R9*%
X227337300Y-72561700D03*
X225512300Y-72561700D03*
%TD*%
D39*
%TO.C,LED3*%
X114585800Y-58944200D03*
X112535800Y-58944200D03*
%TD*%
D40*
%TO.C,C14*%
X157704800Y-55801200D03*
X157704800Y-56936200D03*
%TD*%
D41*
%TO.C,R6*%
X168143800Y-60191200D03*
X169968800Y-60191200D03*
%TD*%
D42*
%TO.C,Q1*%
X135298800Y-89030000D03*
D27*
X135298800Y-90300000D03*
X135298800Y-91570000D03*
%TD*%
D15*
%TO.C,C23*%
X137260800Y-57535200D03*
X137260800Y-59610200D03*
%TD*%
D31*
%TO.C,H3*%
X202010800Y-104902000D03*
%TD*%
D43*
%TO.C,F1*%
X143952800Y-93884200D03*
X143952800Y-89434200D03*
%TD*%
D13*
%TO.C,C3*%
X195869800Y-69684200D03*
X195869800Y-67609200D03*
%TD*%
D35*
%TO.C,J4*%
X185719550Y-94582950D03*
D22*
X185719550Y-92042950D03*
X185719550Y-89502950D03*
%TD*%
D13*
%TO.C,C25*%
X195340000Y-79105000D03*
X195340000Y-77030000D03*
%TD*%
D15*
%TO.C,C15*%
X225377300Y-67496700D03*
X225377300Y-69571700D03*
%TD*%
D35*
%TO.C,J2*%
X200097300Y-93146700D03*
D22*
X200097300Y-90606700D03*
%TD*%
D44*
%TO.C,R16*%
X116920000Y-71405000D03*
X116920000Y-69580000D03*
%TD*%
D38*
%TO.C,R5*%
X165598800Y-60181200D03*
X163773800Y-60181200D03*
%TD*%
D35*
%TO.C,J8*%
X209247300Y-93421700D03*
D22*
X209247300Y-90881700D03*
%TD*%
D24*
%TO.C,C9*%
X198047300Y-81761700D03*
X195972300Y-81761700D03*
%TD*%
D28*
%TO.C,R17*%
X133259800Y-72968200D03*
X133259800Y-74968200D03*
%TD*%
D21*
%TO.C,J3*%
X189549550Y-89497950D03*
D22*
X189549550Y-92037950D03*
X189549550Y-94577950D03*
%TD*%
D45*
%TO.C,U5*%
X118610800Y-66540200D03*
X118610800Y-66040200D03*
X118610800Y-65540200D03*
X118610800Y-65040200D03*
X118610800Y-64540200D03*
X118610800Y-64040200D03*
X118610800Y-63540200D03*
D46*
X117660800Y-62590200D03*
X117160800Y-62590200D03*
X116660800Y-62590200D03*
X116160800Y-62590200D03*
X115660800Y-62590200D03*
X115160800Y-62590200D03*
X114660800Y-62590200D03*
D45*
X113710800Y-63540200D03*
X113710800Y-64040200D03*
X113710800Y-64540200D03*
X113710800Y-65040200D03*
X113710800Y-65540200D03*
X113710800Y-66040200D03*
X113710800Y-66540200D03*
D46*
X114660800Y-67490200D03*
X115160800Y-67490200D03*
X115660800Y-67490200D03*
X116160800Y-67490200D03*
X116660800Y-67490200D03*
X117160800Y-67490200D03*
X117660800Y-67490200D03*
D47*
X116160800Y-65040200D03*
%TD*%
D23*
%TO.C,R11*%
X168672800Y-94102200D03*
X166672800Y-94102200D03*
%TD*%
D15*
%TO.C,C4*%
X214790000Y-69602500D03*
X214790000Y-71677500D03*
%TD*%
D41*
%TO.C,R7*%
X165595000Y-52560000D03*
X167420000Y-52560000D03*
%TD*%
D28*
%TO.C,R19*%
X136695800Y-84080200D03*
X136695800Y-86080200D03*
%TD*%
D40*
%TO.C,C10*%
X221477300Y-79881700D03*
X221477300Y-81016700D03*
%TD*%
D37*
%TO.C,D2*%
X155592800Y-66422200D03*
X155592800Y-71822200D03*
%TD*%
D15*
%TO.C,C8*%
X212270000Y-69580000D03*
X212270000Y-71655000D03*
%TD*%
D10*
%TO.C,R8*%
X192200000Y-79370000D03*
X192200000Y-77370000D03*
%TD*%
D48*
%TO.C,L1*%
X176222800Y-68656200D03*
X176222800Y-78562200D03*
%TD*%
D24*
%TO.C,C26*%
X209650000Y-83710000D03*
X207575000Y-83710000D03*
%TD*%
D49*
%TO.C,J10*%
X155244800Y-92496200D03*
D50*
X160244800Y-92496200D03*
%TD*%
D35*
%TO.C,J1*%
X195447300Y-93146700D03*
D22*
X195447300Y-90606700D03*
%TD*%
D21*
%TO.C,J9*%
X231067300Y-67481700D03*
D22*
X231067300Y-70021700D03*
X231067300Y-72561700D03*
X231067300Y-75101700D03*
X231067300Y-77641700D03*
X231067300Y-80181700D03*
X231067300Y-82721700D03*
X231067300Y-85261700D03*
%TD*%
D23*
%TO.C,R13*%
X124979800Y-69602200D03*
X122979800Y-69602200D03*
%TD*%
D11*
%TO.C,C20*%
X128545000Y-94500000D03*
X130620000Y-94500000D03*
%TD*%
D37*
%TO.C,D3*%
X141410800Y-56117200D03*
X141410800Y-61517200D03*
%TD*%
D51*
%TO.C,RESET*%
X107305800Y-92970200D03*
X115105800Y-92970200D03*
%TD*%
D11*
%TO.C,C19*%
X128575000Y-92210000D03*
X130650000Y-92210000D03*
%TD*%
D38*
%TO.C,R10*%
X227317300Y-75091700D03*
X225492300Y-75091700D03*
%TD*%
D52*
%TO.C,C22*%
X117669800Y-61230200D03*
X118804800Y-61230200D03*
%TD*%
D13*
%TO.C,C21*%
X120455800Y-63389200D03*
X120455800Y-61314200D03*
%TD*%
D53*
%TO.C,D_CODE*%
X124011800Y-66654200D03*
X124011800Y-58854200D03*
%TD*%
D14*
%TO.C,R12*%
X126916800Y-68586200D03*
X128916800Y-68586200D03*
%TD*%
D54*
%TO.C,LED2*%
X111438800Y-63516200D03*
X111438800Y-61466200D03*
%TD*%
D55*
%TO.C,U3*%
X160862800Y-69222200D03*
D56*
X164562800Y-70922200D03*
X160862800Y-72622200D03*
X164562800Y-74322200D03*
X160862800Y-76022200D03*
%TD*%
D51*
%TO.C,RESET*%
X194087300Y-85454200D03*
X201887300Y-85454200D03*
%TD*%
D35*
%TO.C,J6*%
X213963550Y-93464950D03*
D22*
X213963550Y-90924950D03*
%TD*%
D25*
%TO.C,H1*%
X202010800Y-48717200D03*
%TD*%
D57*
%TO.C,J12*%
X147450000Y-55520000D03*
X152450000Y-55520000D03*
D58*
X146075000Y-52770000D03*
D59*
X146225000Y-56570000D03*
X153675000Y-56570000D03*
D58*
X153825000Y-52770000D03*
%TD*%
M02*
