%TF.GenerationSoftware,KiCad,Pcbnew,7.0.5*%
%TF.CreationDate,2023-07-07T07:55:25+07:00*%
%TF.ProjectId,THUC_TAPP,54485543-5f54-4415-9050-2e6b69636164,rev?*%
%TF.SameCoordinates,Original*%
%TF.FileFunction,Soldermask,Bot*%
%TF.FilePolarity,Negative*%
%FSLAX46Y46*%
G04 Gerber Fmt 4.6, Leading zero omitted, Abs format (unit mm)*
G04 Created by KiCad (PCBNEW 7.0.5) date 2023-07-07 07:55:25*
%MOMM*%
%LPD*%
G01*
G04 APERTURE LIST*
G04 Aperture macros list*
%AMRoundRect*
0 Rectangle with rounded corners*
0 $1 Rounding radius*
0 $2 $3 $4 $5 $6 $7 $8 $9 X,Y pos of 4 corners*
0 Add a 4 corners polygon primitive as box body*
4,1,4,$2,$3,$4,$5,$6,$7,$8,$9,$2,$3,0*
0 Add four circle primitives for the rounded corners*
1,1,$1+$1,$2,$3*
1,1,$1+$1,$4,$5*
1,1,$1+$1,$6,$7*
1,1,$1+$1,$8,$9*
0 Add four rect primitives between the rounded corners*
20,1,$1+$1,$2,$3,$4,$5,0*
20,1,$1+$1,$4,$5,$6,$7,0*
20,1,$1+$1,$6,$7,$8,$9,0*
20,1,$1+$1,$8,$9,$2,$3,0*%
G04 Aperture macros list end*
%ADD10C,1.601600*%
%ADD11RoundRect,0.050800X0.850000X-0.850000X0.850000X0.850000X-0.850000X0.850000X-0.850000X-0.850000X0*%
%ADD12C,1.801600*%
%ADD13RoundRect,0.050800X-0.850000X-0.850000X0.850000X-0.850000X0.850000X0.850000X-0.850000X0.850000X0*%
%ADD14O,1.801600X1.801600*%
%ADD15C,5.711600*%
%ADD16RoundRect,0.050800X0.750000X-0.525000X0.750000X0.525000X-0.750000X0.525000X-0.750000X-0.525000X0*%
%ADD17O,1.601600X1.151600*%
%ADD18C,5.101600*%
%ADD19RoundRect,0.050800X0.850000X0.850000X-0.850000X0.850000X-0.850000X-0.850000X0.850000X-0.850000X0*%
%ADD20RoundRect,0.050800X-0.750000X0.525000X-0.750000X-0.525000X0.750000X-0.525000X0.750000X0.525000X0*%
%ADD21RoundRect,0.300800X-0.750000X-1.550000X0.750000X-1.550000X0.750000X1.550000X-0.750000X1.550000X0*%
%ADD22O,2.101600X3.701600*%
%ADD23RoundRect,0.050800X-0.900000X0.900000X-0.900000X-0.900000X0.900000X-0.900000X0.900000X0.900000X0*%
%ADD24O,1.901600X1.901600*%
%ADD25RoundRect,0.288300X0.250000X0.237500X-0.250000X0.237500X-0.250000X-0.237500X0.250000X-0.237500X0*%
%ADD26RoundRect,0.050800X-0.250000X-0.187500X0.250000X-0.187500X0.250000X0.187500X-0.250000X0.187500X0*%
%ADD27RoundRect,0.050800X-0.325000X-0.150000X0.325000X-0.150000X0.325000X0.150000X-0.325000X0.150000X0*%
%ADD28C,0.801600*%
%ADD29RoundRect,0.050800X-0.225000X-0.650000X0.225000X-0.650000X0.225000X0.650000X-0.225000X0.650000X0*%
%ADD30C,1.901600*%
%ADD31C,2.101600*%
G04 APERTURE END LIST*
D10*
%TO.C,Y1*%
X208670000Y-63090000D03*
X203790000Y-63090000D03*
%TD*%
D11*
%TO.C,U2*%
X160498800Y-57571200D03*
D12*
X160498800Y-55031200D03*
X163038800Y-57571200D03*
X163038800Y-55031200D03*
X165578800Y-57571200D03*
X165578800Y-55031200D03*
X168118800Y-57571200D03*
X168118800Y-55031200D03*
%TD*%
D13*
%TO.C,J7*%
X214092800Y-78201700D03*
D14*
X214092800Y-80741700D03*
X214092800Y-83281700D03*
X214092800Y-85821700D03*
%TD*%
D15*
%TO.C,H4*%
X111129600Y-48717200D03*
%TD*%
D16*
%TO.C,Q2*%
X135658800Y-80143200D03*
D17*
X135658800Y-78873200D03*
X135658800Y-77603200D03*
%TD*%
D18*
%TO.C,H2*%
X111129600Y-104902000D03*
%TD*%
D19*
%TO.C,J5*%
X204747300Y-93146700D03*
D14*
X204747300Y-90606700D03*
%TD*%
D19*
%TO.C,J11*%
X108374800Y-66427200D03*
D14*
X108374800Y-63887200D03*
%TD*%
D20*
%TO.C,Q1*%
X135298800Y-89030000D03*
D17*
X135298800Y-90300000D03*
X135298800Y-91570000D03*
%TD*%
D18*
%TO.C,H3*%
X202010800Y-104902000D03*
%TD*%
D19*
%TO.C,J4*%
X185719550Y-94582950D03*
D14*
X185719550Y-92042950D03*
X185719550Y-89502950D03*
%TD*%
D19*
%TO.C,J2*%
X200097300Y-93146700D03*
D14*
X200097300Y-90606700D03*
%TD*%
D19*
%TO.C,J8*%
X209247300Y-93421700D03*
D14*
X209247300Y-90881700D03*
%TD*%
D13*
%TO.C,J3*%
X189549550Y-89497950D03*
D14*
X189549550Y-92037950D03*
X189549550Y-94577950D03*
%TD*%
D21*
%TO.C,J10*%
X155244800Y-92496200D03*
D22*
X160244800Y-92496200D03*
%TD*%
D19*
%TO.C,J1*%
X195447300Y-93146700D03*
D14*
X195447300Y-90606700D03*
%TD*%
D13*
%TO.C,J9*%
X231067300Y-67481700D03*
D14*
X231067300Y-70021700D03*
X231067300Y-72561700D03*
X231067300Y-75101700D03*
X231067300Y-77641700D03*
X231067300Y-80181700D03*
X231067300Y-82721700D03*
X231067300Y-85261700D03*
%TD*%
D23*
%TO.C,U3*%
X160862800Y-69222200D03*
D24*
X164562800Y-70922200D03*
X160862800Y-72622200D03*
X164562800Y-74322200D03*
X160862800Y-76022200D03*
%TD*%
D19*
%TO.C,J6*%
X213963550Y-93464950D03*
D14*
X213963550Y-90924950D03*
%TD*%
D25*
%TO.C,R3*%
X127880000Y-98870000D03*
X126055000Y-98870000D03*
%TD*%
D26*
%TO.C,U6*%
X135797400Y-67004200D03*
D27*
X135722400Y-66466700D03*
D26*
X135797400Y-65929200D03*
X137497400Y-65929200D03*
D27*
X137572400Y-66466700D03*
D26*
X137497400Y-67004200D03*
%TD*%
D25*
%TO.C,R4*%
X124170000Y-100120000D03*
X122345000Y-100120000D03*
%TD*%
D15*
%TO.C,H1*%
X202010800Y-48717200D03*
%TD*%
D28*
%TO.C,J12*%
X147450000Y-55520000D03*
X152450000Y-55520000D03*
D29*
X148650000Y-56620000D03*
X149300000Y-56620000D03*
X149950000Y-56620000D03*
X150600000Y-56620000D03*
X151250000Y-56620000D03*
D30*
X146075000Y-52770000D03*
D31*
X146225000Y-56570000D03*
X153675000Y-56570000D03*
D30*
X153825000Y-52770000D03*
%TD*%
M02*
