%TF.GenerationSoftware,KiCad,Pcbnew,7.0.5*%
%TF.CreationDate,2023-07-07T07:55:25+07:00*%
%TF.ProjectId,THUC_TAPP,54485543-5f54-4415-9050-2e6b69636164,rev?*%
%TF.SameCoordinates,Original*%
%TF.FileFunction,Legend,Top*%
%TF.FilePolarity,Positive*%
%FSLAX46Y46*%
G04 Gerber Fmt 4.6, Leading zero omitted, Abs format (unit mm)*
G04 Created by KiCad (PCBNEW 7.0.5) date 2023-07-07 07:55:25*
%MOMM*%
%LPD*%
G01*
G04 APERTURE LIST*
G04 Aperture macros list*
%AMRoundRect*
0 Rectangle with rounded corners*
0 $1 Rounding radius*
0 $2 $3 $4 $5 $6 $7 $8 $9 X,Y pos of 4 corners*
0 Add a 4 corners polygon primitive as box body*
4,1,4,$2,$3,$4,$5,$6,$7,$8,$9,$2,$3,0*
0 Add four circle primitives for the rounded corners*
1,1,$1+$1,$2,$3*
1,1,$1+$1,$4,$5*
1,1,$1+$1,$6,$7*
1,1,$1+$1,$8,$9*
0 Add four rect primitives between the rounded corners*
20,1,$1+$1,$2,$3,$4,$5,0*
20,1,$1+$1,$4,$5,$6,$7,0*
20,1,$1+$1,$6,$7,$8,$9,0*
20,1,$1+$1,$8,$9,$2,$3,0*%
G04 Aperture macros list end*
%ADD10C,0.125000*%
%ADD11C,1.000000*%
%ADD12C,0.150000*%
%ADD13C,0.120000*%
%ADD14C,0.152400*%
%ADD15RoundRect,0.300800X0.450000X-0.350000X0.450000X0.350000X-0.450000X0.350000X-0.450000X-0.350000X0*%
%ADD16RoundRect,0.300800X-0.337500X-0.475000X0.337500X-0.475000X0.337500X0.475000X-0.337500X0.475000X0*%
%ADD17C,1.601600*%
%ADD18RoundRect,0.300800X0.475000X-0.337500X0.475000X0.337500X-0.475000X0.337500X-0.475000X-0.337500X0*%
%ADD19RoundRect,0.300800X-0.350000X-0.450000X0.350000X-0.450000X0.350000X0.450000X-0.350000X0.450000X0*%
%ADD20RoundRect,0.300800X-0.475000X0.337500X-0.475000X-0.337500X0.475000X-0.337500X0.475000X0.337500X0*%
%ADD21RoundRect,0.050800X0.500000X-1.250000X0.500000X1.250000X-0.500000X1.250000X-0.500000X-1.250000X0*%
%ADD22RoundRect,0.050800X0.900000X-0.500000X0.900000X0.500000X-0.900000X0.500000X-0.900000X-0.500000X0*%
%ADD23RoundRect,0.050800X0.850000X-0.850000X0.850000X0.850000X-0.850000X0.850000X-0.850000X-0.850000X0*%
%ADD24C,1.801600*%
%ADD25RoundRect,0.300800X-1.950000X-1.000000X1.950000X-1.000000X1.950000X1.000000X-1.950000X1.000000X0*%
%ADD26RoundRect,0.050800X-0.850000X-0.850000X0.850000X-0.850000X0.850000X0.850000X-0.850000X0.850000X0*%
%ADD27O,1.801600X1.801600*%
%ADD28RoundRect,0.300800X0.350000X0.450000X-0.350000X0.450000X-0.350000X-0.450000X0.350000X-0.450000X0*%
%ADD29RoundRect,0.300800X0.337500X0.475000X-0.337500X0.475000X-0.337500X-0.475000X0.337500X-0.475000X0*%
%ADD30C,5.711600*%
%ADD31RoundRect,0.050800X0.750000X-0.525000X0.750000X0.525000X-0.750000X0.525000X-0.750000X-0.525000X0*%
%ADD32O,1.601600X1.151600*%
%ADD33RoundRect,0.300800X-0.450000X0.350000X-0.450000X-0.350000X0.450000X-0.350000X0.450000X0.350000X0*%
%ADD34RoundRect,0.125800X-0.075000X0.662500X-0.075000X-0.662500X0.075000X-0.662500X0.075000X0.662500X0*%
%ADD35RoundRect,0.125800X-0.662500X0.075000X-0.662500X-0.075000X0.662500X-0.075000X0.662500X0.075000X0*%
%ADD36C,5.101600*%
%ADD37RoundRect,0.050800X1.000000X0.750000X-1.000000X0.750000X-1.000000X-0.750000X1.000000X-0.750000X0*%
%ADD38RoundRect,0.050800X1.000000X1.900000X-1.000000X1.900000X-1.000000X-1.900000X1.000000X-1.900000X0*%
%ADD39RoundRect,0.300800X1.500000X0.550000X-1.500000X0.550000X-1.500000X-0.550000X1.500000X-0.550000X0*%
%ADD40RoundRect,0.050800X0.850000X0.850000X-0.850000X0.850000X-0.850000X-0.850000X0.850000X-0.850000X0*%
%ADD41RoundRect,0.300800X-0.325000X-0.450000X0.325000X-0.450000X0.325000X0.450000X-0.325000X0.450000X0*%
%ADD42RoundRect,0.300800X-0.900000X1.500000X-0.900000X-1.500000X0.900000X-1.500000X0.900000X1.500000X0*%
%ADD43RoundRect,0.288300X0.250000X0.237500X-0.250000X0.237500X-0.250000X-0.237500X0.250000X-0.237500X0*%
%ADD44RoundRect,0.300800X0.325000X0.450000X-0.325000X0.450000X-0.325000X-0.450000X0.325000X-0.450000X0*%
%ADD45RoundRect,0.205800X-0.155000X0.212500X-0.155000X-0.212500X0.155000X-0.212500X0.155000X0.212500X0*%
%ADD46RoundRect,0.288300X-0.250000X-0.237500X0.250000X-0.237500X0.250000X0.237500X-0.250000X0.237500X0*%
%ADD47RoundRect,0.050800X-0.750000X0.525000X-0.750000X-0.525000X0.750000X-0.525000X0.750000X0.525000X0*%
%ADD48RoundRect,0.300800X1.450000X-0.400000X1.450000X0.400000X-1.450000X0.400000X-1.450000X-0.400000X0*%
%ADD49RoundRect,0.288300X0.237500X-0.250000X0.237500X0.250000X-0.237500X0.250000X-0.237500X-0.250000X0*%
%ADD50RoundRect,0.113300X0.337500X0.062500X-0.337500X0.062500X-0.337500X-0.062500X0.337500X-0.062500X0*%
%ADD51RoundRect,0.113300X0.062500X0.337500X-0.062500X0.337500X-0.062500X-0.337500X0.062500X-0.337500X0*%
%ADD52RoundRect,0.050800X1.675000X1.675000X-1.675000X1.675000X-1.675000X-1.675000X1.675000X-1.675000X0*%
%ADD53RoundRect,0.050800X-2.705100X1.447800X-2.705100X-1.447800X2.705100X-1.447800X2.705100X1.447800X0*%
%ADD54RoundRect,0.300800X-0.750000X-1.550000X0.750000X-1.550000X0.750000X1.550000X-0.750000X1.550000X0*%
%ADD55O,2.101600X3.701600*%
%ADD56RoundRect,0.050800X-0.750000X-0.750000X0.750000X-0.750000X0.750000X0.750000X-0.750000X0.750000X0*%
%ADD57RoundRect,0.205800X-0.212500X-0.155000X0.212500X-0.155000X0.212500X0.155000X-0.212500X0.155000X0*%
%ADD58RoundRect,0.050800X0.750000X-0.750000X0.750000X0.750000X-0.750000X0.750000X-0.750000X-0.750000X0*%
%ADD59RoundRect,0.300800X0.450000X-0.325000X0.450000X0.325000X-0.450000X0.325000X-0.450000X-0.325000X0*%
%ADD60RoundRect,0.050800X-0.900000X0.900000X-0.900000X-0.900000X0.900000X-0.900000X0.900000X0.900000X0*%
%ADD61O,1.901600X1.901600*%
%ADD62C,0.801600*%
%ADD63C,1.901600*%
%ADD64C,2.101600*%
G04 APERTURE END LIST*
D10*
X215611500Y-82777474D02*
X215587690Y-82848902D01*
X215587690Y-82848902D02*
X215587690Y-82967950D01*
X215587690Y-82967950D02*
X215611500Y-83015569D01*
X215611500Y-83015569D02*
X215635309Y-83039378D01*
X215635309Y-83039378D02*
X215682928Y-83063188D01*
X215682928Y-83063188D02*
X215730547Y-83063188D01*
X215730547Y-83063188D02*
X215778166Y-83039378D01*
X215778166Y-83039378D02*
X215801976Y-83015569D01*
X215801976Y-83015569D02*
X215825785Y-82967950D01*
X215825785Y-82967950D02*
X215849595Y-82872712D01*
X215849595Y-82872712D02*
X215873404Y-82825093D01*
X215873404Y-82825093D02*
X215897214Y-82801283D01*
X215897214Y-82801283D02*
X215944833Y-82777474D01*
X215944833Y-82777474D02*
X215992452Y-82777474D01*
X215992452Y-82777474D02*
X216040071Y-82801283D01*
X216040071Y-82801283D02*
X216063880Y-82825093D01*
X216063880Y-82825093D02*
X216087690Y-82872712D01*
X216087690Y-82872712D02*
X216087690Y-82991759D01*
X216087690Y-82991759D02*
X216063880Y-83063188D01*
X216087690Y-83229854D02*
X215587690Y-83348902D01*
X215587690Y-83348902D02*
X215944833Y-83444140D01*
X215944833Y-83444140D02*
X215587690Y-83539378D01*
X215587690Y-83539378D02*
X216087690Y-83658426D01*
X215587690Y-83848902D02*
X216087690Y-83848902D01*
X216087690Y-83848902D02*
X216087690Y-83967950D01*
X216087690Y-83967950D02*
X216063880Y-84039378D01*
X216063880Y-84039378D02*
X216016261Y-84086997D01*
X216016261Y-84086997D02*
X215968642Y-84110807D01*
X215968642Y-84110807D02*
X215873404Y-84134616D01*
X215873404Y-84134616D02*
X215801976Y-84134616D01*
X215801976Y-84134616D02*
X215706738Y-84110807D01*
X215706738Y-84110807D02*
X215659119Y-84086997D01*
X215659119Y-84086997D02*
X215611500Y-84039378D01*
X215611500Y-84039378D02*
X215587690Y-83967950D01*
X215587690Y-83967950D02*
X215587690Y-83848902D01*
X215587690Y-84348902D02*
X216087690Y-84348902D01*
X216087690Y-84682235D02*
X216087690Y-84777473D01*
X216087690Y-84777473D02*
X216063880Y-84825092D01*
X216063880Y-84825092D02*
X216016261Y-84872711D01*
X216016261Y-84872711D02*
X215921023Y-84896521D01*
X215921023Y-84896521D02*
X215754357Y-84896521D01*
X215754357Y-84896521D02*
X215659119Y-84872711D01*
X215659119Y-84872711D02*
X215611500Y-84825092D01*
X215611500Y-84825092D02*
X215587690Y-84777473D01*
X215587690Y-84777473D02*
X215587690Y-84682235D01*
X215587690Y-84682235D02*
X215611500Y-84634616D01*
X215611500Y-84634616D02*
X215659119Y-84586997D01*
X215659119Y-84586997D02*
X215754357Y-84563188D01*
X215754357Y-84563188D02*
X215921023Y-84563188D01*
X215921023Y-84563188D02*
X216016261Y-84586997D01*
X216016261Y-84586997D02*
X216063880Y-84634616D01*
X216063880Y-84634616D02*
X216087690Y-84682235D01*
X233528166Y-67141283D02*
X233528166Y-67522236D01*
X233337690Y-67331759D02*
X233718642Y-67331759D01*
X233837690Y-67712712D02*
X233837690Y-68022236D01*
X233837690Y-68022236D02*
X233647214Y-67855569D01*
X233647214Y-67855569D02*
X233647214Y-67926998D01*
X233647214Y-67926998D02*
X233623404Y-67974617D01*
X233623404Y-67974617D02*
X233599595Y-67998426D01*
X233599595Y-67998426D02*
X233551976Y-68022236D01*
X233551976Y-68022236D02*
X233432928Y-68022236D01*
X233432928Y-68022236D02*
X233385309Y-67998426D01*
X233385309Y-67998426D02*
X233361500Y-67974617D01*
X233361500Y-67974617D02*
X233337690Y-67926998D01*
X233337690Y-67926998D02*
X233337690Y-67784141D01*
X233337690Y-67784141D02*
X233361500Y-67736522D01*
X233361500Y-67736522D02*
X233385309Y-67712712D01*
X233837690Y-68165093D02*
X233337690Y-68331759D01*
X233337690Y-68331759D02*
X233837690Y-68498426D01*
X233837690Y-68617473D02*
X233837690Y-68926997D01*
X233837690Y-68926997D02*
X233647214Y-68760330D01*
X233647214Y-68760330D02*
X233647214Y-68831759D01*
X233647214Y-68831759D02*
X233623404Y-68879378D01*
X233623404Y-68879378D02*
X233599595Y-68903187D01*
X233599595Y-68903187D02*
X233551976Y-68926997D01*
X233551976Y-68926997D02*
X233432928Y-68926997D01*
X233432928Y-68926997D02*
X233385309Y-68903187D01*
X233385309Y-68903187D02*
X233361500Y-68879378D01*
X233361500Y-68879378D02*
X233337690Y-68831759D01*
X233337690Y-68831759D02*
X233337690Y-68688902D01*
X233337690Y-68688902D02*
X233361500Y-68641283D01*
X233361500Y-68641283D02*
X233385309Y-68617473D01*
X233441500Y-72017474D02*
X233417690Y-72088902D01*
X233417690Y-72088902D02*
X233417690Y-72207950D01*
X233417690Y-72207950D02*
X233441500Y-72255569D01*
X233441500Y-72255569D02*
X233465309Y-72279378D01*
X233465309Y-72279378D02*
X233512928Y-72303188D01*
X233512928Y-72303188D02*
X233560547Y-72303188D01*
X233560547Y-72303188D02*
X233608166Y-72279378D01*
X233608166Y-72279378D02*
X233631976Y-72255569D01*
X233631976Y-72255569D02*
X233655785Y-72207950D01*
X233655785Y-72207950D02*
X233679595Y-72112712D01*
X233679595Y-72112712D02*
X233703404Y-72065093D01*
X233703404Y-72065093D02*
X233727214Y-72041283D01*
X233727214Y-72041283D02*
X233774833Y-72017474D01*
X233774833Y-72017474D02*
X233822452Y-72017474D01*
X233822452Y-72017474D02*
X233870071Y-72041283D01*
X233870071Y-72041283D02*
X233893880Y-72065093D01*
X233893880Y-72065093D02*
X233917690Y-72112712D01*
X233917690Y-72112712D02*
X233917690Y-72231759D01*
X233917690Y-72231759D02*
X233893880Y-72303188D01*
X233465309Y-72803187D02*
X233441500Y-72779378D01*
X233441500Y-72779378D02*
X233417690Y-72707949D01*
X233417690Y-72707949D02*
X233417690Y-72660330D01*
X233417690Y-72660330D02*
X233441500Y-72588902D01*
X233441500Y-72588902D02*
X233489119Y-72541283D01*
X233489119Y-72541283D02*
X233536738Y-72517473D01*
X233536738Y-72517473D02*
X233631976Y-72493664D01*
X233631976Y-72493664D02*
X233703404Y-72493664D01*
X233703404Y-72493664D02*
X233798642Y-72517473D01*
X233798642Y-72517473D02*
X233846261Y-72541283D01*
X233846261Y-72541283D02*
X233893880Y-72588902D01*
X233893880Y-72588902D02*
X233917690Y-72660330D01*
X233917690Y-72660330D02*
X233917690Y-72707949D01*
X233917690Y-72707949D02*
X233893880Y-72779378D01*
X233893880Y-72779378D02*
X233870071Y-72803187D01*
X233417690Y-73255568D02*
X233417690Y-73017473D01*
X233417690Y-73017473D02*
X233917690Y-73017473D01*
X216041283Y-91722309D02*
X216041283Y-91222309D01*
X216041283Y-91222309D02*
X216231759Y-91222309D01*
X216231759Y-91222309D02*
X216279378Y-91246119D01*
X216279378Y-91246119D02*
X216303188Y-91269928D01*
X216303188Y-91269928D02*
X216326997Y-91317547D01*
X216326997Y-91317547D02*
X216326997Y-91388976D01*
X216326997Y-91388976D02*
X216303188Y-91436595D01*
X216303188Y-91436595D02*
X216279378Y-91460404D01*
X216279378Y-91460404D02*
X216231759Y-91484214D01*
X216231759Y-91484214D02*
X216041283Y-91484214D01*
X216707950Y-91460404D02*
X216779378Y-91484214D01*
X216779378Y-91484214D02*
X216803188Y-91508023D01*
X216803188Y-91508023D02*
X216826997Y-91555642D01*
X216826997Y-91555642D02*
X216826997Y-91627071D01*
X216826997Y-91627071D02*
X216803188Y-91674690D01*
X216803188Y-91674690D02*
X216779378Y-91698500D01*
X216779378Y-91698500D02*
X216731759Y-91722309D01*
X216731759Y-91722309D02*
X216541283Y-91722309D01*
X216541283Y-91722309D02*
X216541283Y-91222309D01*
X216541283Y-91222309D02*
X216707950Y-91222309D01*
X216707950Y-91222309D02*
X216755569Y-91246119D01*
X216755569Y-91246119D02*
X216779378Y-91269928D01*
X216779378Y-91269928D02*
X216803188Y-91317547D01*
X216803188Y-91317547D02*
X216803188Y-91365166D01*
X216803188Y-91365166D02*
X216779378Y-91412785D01*
X216779378Y-91412785D02*
X216755569Y-91436595D01*
X216755569Y-91436595D02*
X216707950Y-91460404D01*
X216707950Y-91460404D02*
X216541283Y-91460404D01*
X217255569Y-91222309D02*
X217160331Y-91222309D01*
X217160331Y-91222309D02*
X217112712Y-91246119D01*
X217112712Y-91246119D02*
X217088902Y-91269928D01*
X217088902Y-91269928D02*
X217041283Y-91341357D01*
X217041283Y-91341357D02*
X217017474Y-91436595D01*
X217017474Y-91436595D02*
X217017474Y-91627071D01*
X217017474Y-91627071D02*
X217041283Y-91674690D01*
X217041283Y-91674690D02*
X217065093Y-91698500D01*
X217065093Y-91698500D02*
X217112712Y-91722309D01*
X217112712Y-91722309D02*
X217207950Y-91722309D01*
X217207950Y-91722309D02*
X217255569Y-91698500D01*
X217255569Y-91698500D02*
X217279378Y-91674690D01*
X217279378Y-91674690D02*
X217303188Y-91627071D01*
X217303188Y-91627071D02*
X217303188Y-91508023D01*
X217303188Y-91508023D02*
X217279378Y-91460404D01*
X217279378Y-91460404D02*
X217255569Y-91436595D01*
X217255569Y-91436595D02*
X217207950Y-91412785D01*
X217207950Y-91412785D02*
X217112712Y-91412785D01*
X217112712Y-91412785D02*
X217065093Y-91436595D01*
X217065093Y-91436595D02*
X217041283Y-91460404D01*
X217041283Y-91460404D02*
X217017474Y-91508023D01*
X215961283Y-94432309D02*
X215961283Y-93932309D01*
X215961283Y-93932309D02*
X216151759Y-93932309D01*
X216151759Y-93932309D02*
X216199378Y-93956119D01*
X216199378Y-93956119D02*
X216223188Y-93979928D01*
X216223188Y-93979928D02*
X216246997Y-94027547D01*
X216246997Y-94027547D02*
X216246997Y-94098976D01*
X216246997Y-94098976D02*
X216223188Y-94146595D01*
X216223188Y-94146595D02*
X216199378Y-94170404D01*
X216199378Y-94170404D02*
X216151759Y-94194214D01*
X216151759Y-94194214D02*
X215961283Y-94194214D01*
X216627950Y-94170404D02*
X216699378Y-94194214D01*
X216699378Y-94194214D02*
X216723188Y-94218023D01*
X216723188Y-94218023D02*
X216746997Y-94265642D01*
X216746997Y-94265642D02*
X216746997Y-94337071D01*
X216746997Y-94337071D02*
X216723188Y-94384690D01*
X216723188Y-94384690D02*
X216699378Y-94408500D01*
X216699378Y-94408500D02*
X216651759Y-94432309D01*
X216651759Y-94432309D02*
X216461283Y-94432309D01*
X216461283Y-94432309D02*
X216461283Y-93932309D01*
X216461283Y-93932309D02*
X216627950Y-93932309D01*
X216627950Y-93932309D02*
X216675569Y-93956119D01*
X216675569Y-93956119D02*
X216699378Y-93979928D01*
X216699378Y-93979928D02*
X216723188Y-94027547D01*
X216723188Y-94027547D02*
X216723188Y-94075166D01*
X216723188Y-94075166D02*
X216699378Y-94122785D01*
X216699378Y-94122785D02*
X216675569Y-94146595D01*
X216675569Y-94146595D02*
X216627950Y-94170404D01*
X216627950Y-94170404D02*
X216461283Y-94170404D01*
X216913664Y-93932309D02*
X217246997Y-93932309D01*
X217246997Y-93932309D02*
X217032712Y-94432309D01*
X233863880Y-69803188D02*
X233887690Y-69755569D01*
X233887690Y-69755569D02*
X233887690Y-69684140D01*
X233887690Y-69684140D02*
X233863880Y-69612712D01*
X233863880Y-69612712D02*
X233816261Y-69565093D01*
X233816261Y-69565093D02*
X233768642Y-69541283D01*
X233768642Y-69541283D02*
X233673404Y-69517474D01*
X233673404Y-69517474D02*
X233601976Y-69517474D01*
X233601976Y-69517474D02*
X233506738Y-69541283D01*
X233506738Y-69541283D02*
X233459119Y-69565093D01*
X233459119Y-69565093D02*
X233411500Y-69612712D01*
X233411500Y-69612712D02*
X233387690Y-69684140D01*
X233387690Y-69684140D02*
X233387690Y-69731759D01*
X233387690Y-69731759D02*
X233411500Y-69803188D01*
X233411500Y-69803188D02*
X233435309Y-69826997D01*
X233435309Y-69826997D02*
X233601976Y-69826997D01*
X233601976Y-69826997D02*
X233601976Y-69731759D01*
X233387690Y-70041283D02*
X233887690Y-70041283D01*
X233887690Y-70041283D02*
X233387690Y-70326997D01*
X233387690Y-70326997D02*
X233887690Y-70326997D01*
X233387690Y-70565093D02*
X233887690Y-70565093D01*
X233887690Y-70565093D02*
X233887690Y-70684141D01*
X233887690Y-70684141D02*
X233863880Y-70755569D01*
X233863880Y-70755569D02*
X233816261Y-70803188D01*
X233816261Y-70803188D02*
X233768642Y-70826998D01*
X233768642Y-70826998D02*
X233673404Y-70850807D01*
X233673404Y-70850807D02*
X233601976Y-70850807D01*
X233601976Y-70850807D02*
X233506738Y-70826998D01*
X233506738Y-70826998D02*
X233459119Y-70803188D01*
X233459119Y-70803188D02*
X233411500Y-70755569D01*
X233411500Y-70755569D02*
X233387690Y-70684141D01*
X233387690Y-70684141D02*
X233387690Y-70565093D01*
X197455309Y-89946997D02*
X197431500Y-89923188D01*
X197431500Y-89923188D02*
X197407690Y-89851759D01*
X197407690Y-89851759D02*
X197407690Y-89804140D01*
X197407690Y-89804140D02*
X197431500Y-89732712D01*
X197431500Y-89732712D02*
X197479119Y-89685093D01*
X197479119Y-89685093D02*
X197526738Y-89661283D01*
X197526738Y-89661283D02*
X197621976Y-89637474D01*
X197621976Y-89637474D02*
X197693404Y-89637474D01*
X197693404Y-89637474D02*
X197788642Y-89661283D01*
X197788642Y-89661283D02*
X197836261Y-89685093D01*
X197836261Y-89685093D02*
X197883880Y-89732712D01*
X197883880Y-89732712D02*
X197907690Y-89804140D01*
X197907690Y-89804140D02*
X197907690Y-89851759D01*
X197907690Y-89851759D02*
X197883880Y-89923188D01*
X197883880Y-89923188D02*
X197860071Y-89946997D01*
X197407690Y-90161283D02*
X197907690Y-90161283D01*
X197669595Y-90161283D02*
X197669595Y-90446997D01*
X197407690Y-90446997D02*
X197907690Y-90446997D01*
X197407690Y-90946998D02*
X197407690Y-90661284D01*
X197407690Y-90804141D02*
X197907690Y-90804141D01*
X197907690Y-90804141D02*
X197836261Y-90756522D01*
X197836261Y-90756522D02*
X197788642Y-90708903D01*
X197788642Y-90708903D02*
X197764833Y-90661284D01*
X211345309Y-89836997D02*
X211321500Y-89813188D01*
X211321500Y-89813188D02*
X211297690Y-89741759D01*
X211297690Y-89741759D02*
X211297690Y-89694140D01*
X211297690Y-89694140D02*
X211321500Y-89622712D01*
X211321500Y-89622712D02*
X211369119Y-89575093D01*
X211369119Y-89575093D02*
X211416738Y-89551283D01*
X211416738Y-89551283D02*
X211511976Y-89527474D01*
X211511976Y-89527474D02*
X211583404Y-89527474D01*
X211583404Y-89527474D02*
X211678642Y-89551283D01*
X211678642Y-89551283D02*
X211726261Y-89575093D01*
X211726261Y-89575093D02*
X211773880Y-89622712D01*
X211773880Y-89622712D02*
X211797690Y-89694140D01*
X211797690Y-89694140D02*
X211797690Y-89741759D01*
X211797690Y-89741759D02*
X211773880Y-89813188D01*
X211773880Y-89813188D02*
X211750071Y-89836997D01*
X211297690Y-90051283D02*
X211797690Y-90051283D01*
X211559595Y-90051283D02*
X211559595Y-90336997D01*
X211297690Y-90336997D02*
X211797690Y-90336997D01*
X211631023Y-90789379D02*
X211297690Y-90789379D01*
X211821500Y-90670331D02*
X211464357Y-90551284D01*
X211464357Y-90551284D02*
X211464357Y-90860807D01*
X106353880Y-66153188D02*
X106377690Y-66105569D01*
X106377690Y-66105569D02*
X106377690Y-66034140D01*
X106377690Y-66034140D02*
X106353880Y-65962712D01*
X106353880Y-65962712D02*
X106306261Y-65915093D01*
X106306261Y-65915093D02*
X106258642Y-65891283D01*
X106258642Y-65891283D02*
X106163404Y-65867474D01*
X106163404Y-65867474D02*
X106091976Y-65867474D01*
X106091976Y-65867474D02*
X105996738Y-65891283D01*
X105996738Y-65891283D02*
X105949119Y-65915093D01*
X105949119Y-65915093D02*
X105901500Y-65962712D01*
X105901500Y-65962712D02*
X105877690Y-66034140D01*
X105877690Y-66034140D02*
X105877690Y-66081759D01*
X105877690Y-66081759D02*
X105901500Y-66153188D01*
X105901500Y-66153188D02*
X105925309Y-66176997D01*
X105925309Y-66176997D02*
X106091976Y-66176997D01*
X106091976Y-66176997D02*
X106091976Y-66081759D01*
X105877690Y-66391283D02*
X106377690Y-66391283D01*
X106377690Y-66391283D02*
X106377690Y-66581759D01*
X106377690Y-66581759D02*
X106353880Y-66629378D01*
X106353880Y-66629378D02*
X106330071Y-66653188D01*
X106330071Y-66653188D02*
X106282452Y-66676997D01*
X106282452Y-66676997D02*
X106211023Y-66676997D01*
X106211023Y-66676997D02*
X106163404Y-66653188D01*
X106163404Y-66653188D02*
X106139595Y-66629378D01*
X106139595Y-66629378D02*
X106115785Y-66581759D01*
X106115785Y-66581759D02*
X106115785Y-66391283D01*
X105877690Y-66891283D02*
X106377690Y-66891283D01*
X106377690Y-67224616D02*
X106377690Y-67319854D01*
X106377690Y-67319854D02*
X106353880Y-67367473D01*
X106353880Y-67367473D02*
X106306261Y-67415092D01*
X106306261Y-67415092D02*
X106211023Y-67438902D01*
X106211023Y-67438902D02*
X106044357Y-67438902D01*
X106044357Y-67438902D02*
X105949119Y-67415092D01*
X105949119Y-67415092D02*
X105901500Y-67367473D01*
X105901500Y-67367473D02*
X105877690Y-67319854D01*
X105877690Y-67319854D02*
X105877690Y-67224616D01*
X105877690Y-67224616D02*
X105901500Y-67176997D01*
X105901500Y-67176997D02*
X105949119Y-67129378D01*
X105949119Y-67129378D02*
X106044357Y-67105569D01*
X106044357Y-67105569D02*
X106211023Y-67105569D01*
X106211023Y-67105569D02*
X106306261Y-67129378D01*
X106306261Y-67129378D02*
X106353880Y-67176997D01*
X106353880Y-67176997D02*
X106377690Y-67224616D01*
X106377690Y-67891283D02*
X106377690Y-67653188D01*
X106377690Y-67653188D02*
X106139595Y-67629379D01*
X106139595Y-67629379D02*
X106163404Y-67653188D01*
X106163404Y-67653188D02*
X106187214Y-67700807D01*
X106187214Y-67700807D02*
X106187214Y-67819855D01*
X106187214Y-67819855D02*
X106163404Y-67867474D01*
X106163404Y-67867474D02*
X106139595Y-67891283D01*
X106139595Y-67891283D02*
X106091976Y-67915093D01*
X106091976Y-67915093D02*
X105972928Y-67915093D01*
X105972928Y-67915093D02*
X105925309Y-67891283D01*
X105925309Y-67891283D02*
X105901500Y-67867474D01*
X105901500Y-67867474D02*
X105877690Y-67819855D01*
X105877690Y-67819855D02*
X105877690Y-67700807D01*
X105877690Y-67700807D02*
X105901500Y-67653188D01*
X105901500Y-67653188D02*
X105925309Y-67629379D01*
X216113880Y-77713188D02*
X216137690Y-77665569D01*
X216137690Y-77665569D02*
X216137690Y-77594140D01*
X216137690Y-77594140D02*
X216113880Y-77522712D01*
X216113880Y-77522712D02*
X216066261Y-77475093D01*
X216066261Y-77475093D02*
X216018642Y-77451283D01*
X216018642Y-77451283D02*
X215923404Y-77427474D01*
X215923404Y-77427474D02*
X215851976Y-77427474D01*
X215851976Y-77427474D02*
X215756738Y-77451283D01*
X215756738Y-77451283D02*
X215709119Y-77475093D01*
X215709119Y-77475093D02*
X215661500Y-77522712D01*
X215661500Y-77522712D02*
X215637690Y-77594140D01*
X215637690Y-77594140D02*
X215637690Y-77641759D01*
X215637690Y-77641759D02*
X215661500Y-77713188D01*
X215661500Y-77713188D02*
X215685309Y-77736997D01*
X215685309Y-77736997D02*
X215851976Y-77736997D01*
X215851976Y-77736997D02*
X215851976Y-77641759D01*
X215637690Y-77951283D02*
X216137690Y-77951283D01*
X216137690Y-77951283D02*
X215637690Y-78236997D01*
X215637690Y-78236997D02*
X216137690Y-78236997D01*
X215637690Y-78475093D02*
X216137690Y-78475093D01*
X216137690Y-78475093D02*
X216137690Y-78594141D01*
X216137690Y-78594141D02*
X216113880Y-78665569D01*
X216113880Y-78665569D02*
X216066261Y-78713188D01*
X216066261Y-78713188D02*
X216018642Y-78736998D01*
X216018642Y-78736998D02*
X215923404Y-78760807D01*
X215923404Y-78760807D02*
X215851976Y-78760807D01*
X215851976Y-78760807D02*
X215756738Y-78736998D01*
X215756738Y-78736998D02*
X215709119Y-78713188D01*
X215709119Y-78713188D02*
X215661500Y-78665569D01*
X215661500Y-78665569D02*
X215637690Y-78594141D01*
X215637690Y-78594141D02*
X215637690Y-78475093D01*
X233431500Y-74507474D02*
X233407690Y-74578902D01*
X233407690Y-74578902D02*
X233407690Y-74697950D01*
X233407690Y-74697950D02*
X233431500Y-74745569D01*
X233431500Y-74745569D02*
X233455309Y-74769378D01*
X233455309Y-74769378D02*
X233502928Y-74793188D01*
X233502928Y-74793188D02*
X233550547Y-74793188D01*
X233550547Y-74793188D02*
X233598166Y-74769378D01*
X233598166Y-74769378D02*
X233621976Y-74745569D01*
X233621976Y-74745569D02*
X233645785Y-74697950D01*
X233645785Y-74697950D02*
X233669595Y-74602712D01*
X233669595Y-74602712D02*
X233693404Y-74555093D01*
X233693404Y-74555093D02*
X233717214Y-74531283D01*
X233717214Y-74531283D02*
X233764833Y-74507474D01*
X233764833Y-74507474D02*
X233812452Y-74507474D01*
X233812452Y-74507474D02*
X233860071Y-74531283D01*
X233860071Y-74531283D02*
X233883880Y-74555093D01*
X233883880Y-74555093D02*
X233907690Y-74602712D01*
X233907690Y-74602712D02*
X233907690Y-74721759D01*
X233907690Y-74721759D02*
X233883880Y-74793188D01*
X233407690Y-75007473D02*
X233907690Y-75007473D01*
X233907690Y-75007473D02*
X233907690Y-75126521D01*
X233907690Y-75126521D02*
X233883880Y-75197949D01*
X233883880Y-75197949D02*
X233836261Y-75245568D01*
X233836261Y-75245568D02*
X233788642Y-75269378D01*
X233788642Y-75269378D02*
X233693404Y-75293187D01*
X233693404Y-75293187D02*
X233621976Y-75293187D01*
X233621976Y-75293187D02*
X233526738Y-75269378D01*
X233526738Y-75269378D02*
X233479119Y-75245568D01*
X233479119Y-75245568D02*
X233431500Y-75197949D01*
X233431500Y-75197949D02*
X233407690Y-75126521D01*
X233407690Y-75126521D02*
X233407690Y-75007473D01*
X233550547Y-75483664D02*
X233550547Y-75721759D01*
X233407690Y-75436045D02*
X233907690Y-75602711D01*
X233907690Y-75602711D02*
X233407690Y-75769378D01*
D11*
X101518476Y-86179725D02*
X97518476Y-86179725D01*
X97518476Y-86179725D02*
X97518476Y-84655915D01*
X97518476Y-84655915D02*
X97708952Y-84274963D01*
X97708952Y-84274963D02*
X97899428Y-84084486D01*
X97899428Y-84084486D02*
X98280380Y-83894010D01*
X98280380Y-83894010D02*
X98851809Y-83894010D01*
X98851809Y-83894010D02*
X99232761Y-84084486D01*
X99232761Y-84084486D02*
X99423238Y-84274963D01*
X99423238Y-84274963D02*
X99613714Y-84655915D01*
X99613714Y-84655915D02*
X99613714Y-86179725D01*
X101518476Y-82179725D02*
X97518476Y-82179725D01*
X99423238Y-78941629D02*
X99423238Y-80274963D01*
X101518476Y-80274963D02*
X97518476Y-80274963D01*
X97518476Y-80274963D02*
X97518476Y-78370201D01*
X101899428Y-77798773D02*
X101899428Y-74751153D01*
X101518476Y-71894011D02*
X101518476Y-73798773D01*
X101518476Y-73798773D02*
X97518476Y-73798773D01*
X100375619Y-70751154D02*
X100375619Y-68846392D01*
X101518476Y-71132106D02*
X97518476Y-69798773D01*
X97518476Y-69798773D02*
X101518476Y-68465439D01*
X99423238Y-65798773D02*
X99613714Y-65227345D01*
X99613714Y-65227345D02*
X99804190Y-65036868D01*
X99804190Y-65036868D02*
X100185142Y-64846392D01*
X100185142Y-64846392D02*
X100756571Y-64846392D01*
X100756571Y-64846392D02*
X101137523Y-65036868D01*
X101137523Y-65036868D02*
X101328000Y-65227345D01*
X101328000Y-65227345D02*
X101518476Y-65608297D01*
X101518476Y-65608297D02*
X101518476Y-67132107D01*
X101518476Y-67132107D02*
X97518476Y-67132107D01*
X97518476Y-67132107D02*
X97518476Y-65798773D01*
X97518476Y-65798773D02*
X97708952Y-65417821D01*
X97708952Y-65417821D02*
X97899428Y-65227345D01*
X97899428Y-65227345D02*
X98280380Y-65036868D01*
X98280380Y-65036868D02*
X98661333Y-65036868D01*
X98661333Y-65036868D02*
X99042285Y-65227345D01*
X99042285Y-65227345D02*
X99232761Y-65417821D01*
X99232761Y-65417821D02*
X99423238Y-65798773D01*
X99423238Y-65798773D02*
X99423238Y-67132107D01*
D10*
X187371283Y-87141833D02*
X187752236Y-87141833D01*
X187561759Y-87332309D02*
X187561759Y-86951357D01*
X187942712Y-86832309D02*
X188252236Y-86832309D01*
X188252236Y-86832309D02*
X188085569Y-87022785D01*
X188085569Y-87022785D02*
X188156998Y-87022785D01*
X188156998Y-87022785D02*
X188204617Y-87046595D01*
X188204617Y-87046595D02*
X188228426Y-87070404D01*
X188228426Y-87070404D02*
X188252236Y-87118023D01*
X188252236Y-87118023D02*
X188252236Y-87237071D01*
X188252236Y-87237071D02*
X188228426Y-87284690D01*
X188228426Y-87284690D02*
X188204617Y-87308500D01*
X188204617Y-87308500D02*
X188156998Y-87332309D01*
X188156998Y-87332309D02*
X188014141Y-87332309D01*
X188014141Y-87332309D02*
X187966522Y-87308500D01*
X187966522Y-87308500D02*
X187942712Y-87284690D01*
X188395093Y-86832309D02*
X188561759Y-87332309D01*
X188561759Y-87332309D02*
X188728426Y-86832309D01*
X188847473Y-86832309D02*
X189156997Y-86832309D01*
X189156997Y-86832309D02*
X188990330Y-87022785D01*
X188990330Y-87022785D02*
X189061759Y-87022785D01*
X189061759Y-87022785D02*
X189109378Y-87046595D01*
X189109378Y-87046595D02*
X189133187Y-87070404D01*
X189133187Y-87070404D02*
X189156997Y-87118023D01*
X189156997Y-87118023D02*
X189156997Y-87237071D01*
X189156997Y-87237071D02*
X189133187Y-87284690D01*
X189133187Y-87284690D02*
X189109378Y-87308500D01*
X189109378Y-87308500D02*
X189061759Y-87332309D01*
X189061759Y-87332309D02*
X188918902Y-87332309D01*
X188918902Y-87332309D02*
X188871283Y-87308500D01*
X188871283Y-87308500D02*
X188847473Y-87284690D01*
X187983188Y-96586119D02*
X187935569Y-96562309D01*
X187935569Y-96562309D02*
X187864140Y-96562309D01*
X187864140Y-96562309D02*
X187792712Y-96586119D01*
X187792712Y-96586119D02*
X187745093Y-96633738D01*
X187745093Y-96633738D02*
X187721283Y-96681357D01*
X187721283Y-96681357D02*
X187697474Y-96776595D01*
X187697474Y-96776595D02*
X187697474Y-96848023D01*
X187697474Y-96848023D02*
X187721283Y-96943261D01*
X187721283Y-96943261D02*
X187745093Y-96990880D01*
X187745093Y-96990880D02*
X187792712Y-97038500D01*
X187792712Y-97038500D02*
X187864140Y-97062309D01*
X187864140Y-97062309D02*
X187911759Y-97062309D01*
X187911759Y-97062309D02*
X187983188Y-97038500D01*
X187983188Y-97038500D02*
X188006997Y-97014690D01*
X188006997Y-97014690D02*
X188006997Y-96848023D01*
X188006997Y-96848023D02*
X187911759Y-96848023D01*
X188221283Y-97062309D02*
X188221283Y-96562309D01*
X188221283Y-96562309D02*
X188506997Y-97062309D01*
X188506997Y-97062309D02*
X188506997Y-96562309D01*
X188745093Y-97062309D02*
X188745093Y-96562309D01*
X188745093Y-96562309D02*
X188864141Y-96562309D01*
X188864141Y-96562309D02*
X188935569Y-96586119D01*
X188935569Y-96586119D02*
X188983188Y-96633738D01*
X188983188Y-96633738D02*
X189006998Y-96681357D01*
X189006998Y-96681357D02*
X189030807Y-96776595D01*
X189030807Y-96776595D02*
X189030807Y-96848023D01*
X189030807Y-96848023D02*
X189006998Y-96943261D01*
X189006998Y-96943261D02*
X188983188Y-96990880D01*
X188983188Y-96990880D02*
X188935569Y-97038500D01*
X188935569Y-97038500D02*
X188864141Y-97062309D01*
X188864141Y-97062309D02*
X188745093Y-97062309D01*
D12*
X150678866Y-96343220D02*
X150678866Y-95581316D01*
X151059819Y-95962268D02*
X150297914Y-95962268D01*
X151059819Y-94581316D02*
X151059819Y-95152744D01*
X151059819Y-94867030D02*
X150059819Y-94867030D01*
X150059819Y-94867030D02*
X150202676Y-94962268D01*
X150202676Y-94962268D02*
X150297914Y-95057506D01*
X150297914Y-95057506D02*
X150345533Y-95152744D01*
X150155057Y-94200363D02*
X150107438Y-94152744D01*
X150107438Y-94152744D02*
X150059819Y-94057506D01*
X150059819Y-94057506D02*
X150059819Y-93819411D01*
X150059819Y-93819411D02*
X150107438Y-93724173D01*
X150107438Y-93724173D02*
X150155057Y-93676554D01*
X150155057Y-93676554D02*
X150250295Y-93628935D01*
X150250295Y-93628935D02*
X150345533Y-93628935D01*
X150345533Y-93628935D02*
X150488390Y-93676554D01*
X150488390Y-93676554D02*
X151059819Y-94247982D01*
X151059819Y-94247982D02*
X151059819Y-93628935D01*
X150059819Y-93343220D02*
X151059819Y-93009887D01*
X151059819Y-93009887D02*
X150059819Y-92676554D01*
D10*
X215868166Y-86231283D02*
X215868166Y-86612236D01*
X215677690Y-86421759D02*
X216058642Y-86421759D01*
X216177690Y-86802712D02*
X216177690Y-87112236D01*
X216177690Y-87112236D02*
X215987214Y-86945569D01*
X215987214Y-86945569D02*
X215987214Y-87016998D01*
X215987214Y-87016998D02*
X215963404Y-87064617D01*
X215963404Y-87064617D02*
X215939595Y-87088426D01*
X215939595Y-87088426D02*
X215891976Y-87112236D01*
X215891976Y-87112236D02*
X215772928Y-87112236D01*
X215772928Y-87112236D02*
X215725309Y-87088426D01*
X215725309Y-87088426D02*
X215701500Y-87064617D01*
X215701500Y-87064617D02*
X215677690Y-87016998D01*
X215677690Y-87016998D02*
X215677690Y-86874141D01*
X215677690Y-86874141D02*
X215701500Y-86826522D01*
X215701500Y-86826522D02*
X215725309Y-86802712D01*
X216177690Y-87255093D02*
X215677690Y-87421759D01*
X215677690Y-87421759D02*
X216177690Y-87588426D01*
X216177690Y-87707473D02*
X216177690Y-88016997D01*
X216177690Y-88016997D02*
X215987214Y-87850330D01*
X215987214Y-87850330D02*
X215987214Y-87921759D01*
X215987214Y-87921759D02*
X215963404Y-87969378D01*
X215963404Y-87969378D02*
X215939595Y-87993187D01*
X215939595Y-87993187D02*
X215891976Y-88016997D01*
X215891976Y-88016997D02*
X215772928Y-88016997D01*
X215772928Y-88016997D02*
X215725309Y-87993187D01*
X215725309Y-87993187D02*
X215701500Y-87969378D01*
X215701500Y-87969378D02*
X215677690Y-87921759D01*
X215677690Y-87921759D02*
X215677690Y-87778902D01*
X215677690Y-87778902D02*
X215701500Y-87731283D01*
X215701500Y-87731283D02*
X215725309Y-87707473D01*
X202115309Y-89966997D02*
X202091500Y-89943188D01*
X202091500Y-89943188D02*
X202067690Y-89871759D01*
X202067690Y-89871759D02*
X202067690Y-89824140D01*
X202067690Y-89824140D02*
X202091500Y-89752712D01*
X202091500Y-89752712D02*
X202139119Y-89705093D01*
X202139119Y-89705093D02*
X202186738Y-89681283D01*
X202186738Y-89681283D02*
X202281976Y-89657474D01*
X202281976Y-89657474D02*
X202353404Y-89657474D01*
X202353404Y-89657474D02*
X202448642Y-89681283D01*
X202448642Y-89681283D02*
X202496261Y-89705093D01*
X202496261Y-89705093D02*
X202543880Y-89752712D01*
X202543880Y-89752712D02*
X202567690Y-89824140D01*
X202567690Y-89824140D02*
X202567690Y-89871759D01*
X202567690Y-89871759D02*
X202543880Y-89943188D01*
X202543880Y-89943188D02*
X202520071Y-89966997D01*
X202067690Y-90181283D02*
X202567690Y-90181283D01*
X202329595Y-90181283D02*
X202329595Y-90466997D01*
X202067690Y-90466997D02*
X202567690Y-90466997D01*
X202520071Y-90681284D02*
X202543880Y-90705093D01*
X202543880Y-90705093D02*
X202567690Y-90752712D01*
X202567690Y-90752712D02*
X202567690Y-90871760D01*
X202567690Y-90871760D02*
X202543880Y-90919379D01*
X202543880Y-90919379D02*
X202520071Y-90943188D01*
X202520071Y-90943188D02*
X202472452Y-90966998D01*
X202472452Y-90966998D02*
X202424833Y-90966998D01*
X202424833Y-90966998D02*
X202353404Y-90943188D01*
X202353404Y-90943188D02*
X202067690Y-90657474D01*
X202067690Y-90657474D02*
X202067690Y-90966998D01*
D11*
X240098476Y-90689725D02*
X236098476Y-90689725D01*
X238003238Y-90689725D02*
X238003238Y-88404010D01*
X240098476Y-88404010D02*
X236098476Y-88404010D01*
X236098476Y-85737344D02*
X236098476Y-84975439D01*
X236098476Y-84975439D02*
X236288952Y-84594487D01*
X236288952Y-84594487D02*
X236669904Y-84213534D01*
X236669904Y-84213534D02*
X237431809Y-84023058D01*
X237431809Y-84023058D02*
X238765142Y-84023058D01*
X238765142Y-84023058D02*
X239527047Y-84213534D01*
X239527047Y-84213534D02*
X239908000Y-84594487D01*
X239908000Y-84594487D02*
X240098476Y-84975439D01*
X240098476Y-84975439D02*
X240098476Y-85737344D01*
X240098476Y-85737344D02*
X239908000Y-86118296D01*
X239908000Y-86118296D02*
X239527047Y-86499249D01*
X239527047Y-86499249D02*
X238765142Y-86689725D01*
X238765142Y-86689725D02*
X237431809Y-86689725D01*
X237431809Y-86689725D02*
X236669904Y-86499249D01*
X236669904Y-86499249D02*
X236288952Y-86118296D01*
X236288952Y-86118296D02*
X236098476Y-85737344D01*
X238955619Y-82499249D02*
X238955619Y-80594487D01*
X240098476Y-82880201D02*
X236098476Y-81546868D01*
X236098476Y-81546868D02*
X240098476Y-80213534D01*
X240098476Y-78880202D02*
X236098476Y-78880202D01*
X236098476Y-78880202D02*
X240098476Y-76594487D01*
X240098476Y-76594487D02*
X236098476Y-76594487D01*
X236098476Y-75261154D02*
X236098476Y-72975440D01*
X240098476Y-74118297D02*
X236098476Y-74118297D01*
X240098476Y-69356392D02*
X238193714Y-70689726D01*
X240098476Y-71642107D02*
X236098476Y-71642107D01*
X236098476Y-71642107D02*
X236098476Y-70118297D01*
X236098476Y-70118297D02*
X236288952Y-69737345D01*
X236288952Y-69737345D02*
X236479428Y-69546868D01*
X236479428Y-69546868D02*
X236860380Y-69356392D01*
X236860380Y-69356392D02*
X237431809Y-69356392D01*
X237431809Y-69356392D02*
X237812761Y-69546868D01*
X237812761Y-69546868D02*
X238003238Y-69737345D01*
X238003238Y-69737345D02*
X238193714Y-70118297D01*
X238193714Y-70118297D02*
X238193714Y-71642107D01*
X238955619Y-67832583D02*
X238955619Y-65927821D01*
X240098476Y-68213535D02*
X236098476Y-66880202D01*
X236098476Y-66880202D02*
X240098476Y-65546868D01*
X236098476Y-64213536D02*
X239336571Y-64213536D01*
X239336571Y-64213536D02*
X239717523Y-64023059D01*
X239717523Y-64023059D02*
X239908000Y-63832583D01*
X239908000Y-63832583D02*
X240098476Y-63451631D01*
X240098476Y-63451631D02*
X240098476Y-62689726D01*
X240098476Y-62689726D02*
X239908000Y-62308774D01*
X239908000Y-62308774D02*
X239717523Y-62118297D01*
X239717523Y-62118297D02*
X239336571Y-61927821D01*
X239336571Y-61927821D02*
X236098476Y-61927821D01*
D10*
X215651500Y-79917474D02*
X215627690Y-79988902D01*
X215627690Y-79988902D02*
X215627690Y-80107950D01*
X215627690Y-80107950D02*
X215651500Y-80155569D01*
X215651500Y-80155569D02*
X215675309Y-80179378D01*
X215675309Y-80179378D02*
X215722928Y-80203188D01*
X215722928Y-80203188D02*
X215770547Y-80203188D01*
X215770547Y-80203188D02*
X215818166Y-80179378D01*
X215818166Y-80179378D02*
X215841976Y-80155569D01*
X215841976Y-80155569D02*
X215865785Y-80107950D01*
X215865785Y-80107950D02*
X215889595Y-80012712D01*
X215889595Y-80012712D02*
X215913404Y-79965093D01*
X215913404Y-79965093D02*
X215937214Y-79941283D01*
X215937214Y-79941283D02*
X215984833Y-79917474D01*
X215984833Y-79917474D02*
X216032452Y-79917474D01*
X216032452Y-79917474D02*
X216080071Y-79941283D01*
X216080071Y-79941283D02*
X216103880Y-79965093D01*
X216103880Y-79965093D02*
X216127690Y-80012712D01*
X216127690Y-80012712D02*
X216127690Y-80131759D01*
X216127690Y-80131759D02*
X216103880Y-80203188D01*
X216127690Y-80369854D02*
X215627690Y-80488902D01*
X215627690Y-80488902D02*
X215984833Y-80584140D01*
X215984833Y-80584140D02*
X215627690Y-80679378D01*
X215627690Y-80679378D02*
X216127690Y-80798426D01*
X215675309Y-81274616D02*
X215651500Y-81250807D01*
X215651500Y-81250807D02*
X215627690Y-81179378D01*
X215627690Y-81179378D02*
X215627690Y-81131759D01*
X215627690Y-81131759D02*
X215651500Y-81060331D01*
X215651500Y-81060331D02*
X215699119Y-81012712D01*
X215699119Y-81012712D02*
X215746738Y-80988902D01*
X215746738Y-80988902D02*
X215841976Y-80965093D01*
X215841976Y-80965093D02*
X215913404Y-80965093D01*
X215913404Y-80965093D02*
X216008642Y-80988902D01*
X216008642Y-80988902D02*
X216056261Y-81012712D01*
X216056261Y-81012712D02*
X216103880Y-81060331D01*
X216103880Y-81060331D02*
X216127690Y-81131759D01*
X216127690Y-81131759D02*
X216127690Y-81179378D01*
X216127690Y-81179378D02*
X216103880Y-81250807D01*
X216103880Y-81250807D02*
X216080071Y-81274616D01*
X215627690Y-81726997D02*
X215627690Y-81488902D01*
X215627690Y-81488902D02*
X216127690Y-81488902D01*
X215627690Y-81893664D02*
X216127690Y-81893664D01*
X215627690Y-82179378D02*
X215913404Y-81965093D01*
X216127690Y-82179378D02*
X215841976Y-81893664D01*
X206755309Y-89826997D02*
X206731500Y-89803188D01*
X206731500Y-89803188D02*
X206707690Y-89731759D01*
X206707690Y-89731759D02*
X206707690Y-89684140D01*
X206707690Y-89684140D02*
X206731500Y-89612712D01*
X206731500Y-89612712D02*
X206779119Y-89565093D01*
X206779119Y-89565093D02*
X206826738Y-89541283D01*
X206826738Y-89541283D02*
X206921976Y-89517474D01*
X206921976Y-89517474D02*
X206993404Y-89517474D01*
X206993404Y-89517474D02*
X207088642Y-89541283D01*
X207088642Y-89541283D02*
X207136261Y-89565093D01*
X207136261Y-89565093D02*
X207183880Y-89612712D01*
X207183880Y-89612712D02*
X207207690Y-89684140D01*
X207207690Y-89684140D02*
X207207690Y-89731759D01*
X207207690Y-89731759D02*
X207183880Y-89803188D01*
X207183880Y-89803188D02*
X207160071Y-89826997D01*
X206707690Y-90041283D02*
X207207690Y-90041283D01*
X206969595Y-90041283D02*
X206969595Y-90326997D01*
X206707690Y-90326997D02*
X207207690Y-90326997D01*
X207207690Y-90517474D02*
X207207690Y-90826998D01*
X207207690Y-90826998D02*
X207017214Y-90660331D01*
X207017214Y-90660331D02*
X207017214Y-90731760D01*
X207017214Y-90731760D02*
X206993404Y-90779379D01*
X206993404Y-90779379D02*
X206969595Y-90803188D01*
X206969595Y-90803188D02*
X206921976Y-90826998D01*
X206921976Y-90826998D02*
X206802928Y-90826998D01*
X206802928Y-90826998D02*
X206755309Y-90803188D01*
X206755309Y-90803188D02*
X206731500Y-90779379D01*
X206731500Y-90779379D02*
X206707690Y-90731760D01*
X206707690Y-90731760D02*
X206707690Y-90588903D01*
X206707690Y-90588903D02*
X206731500Y-90541284D01*
X206731500Y-90541284D02*
X206755309Y-90517474D01*
X106253880Y-63283188D02*
X106277690Y-63235569D01*
X106277690Y-63235569D02*
X106277690Y-63164140D01*
X106277690Y-63164140D02*
X106253880Y-63092712D01*
X106253880Y-63092712D02*
X106206261Y-63045093D01*
X106206261Y-63045093D02*
X106158642Y-63021283D01*
X106158642Y-63021283D02*
X106063404Y-62997474D01*
X106063404Y-62997474D02*
X105991976Y-62997474D01*
X105991976Y-62997474D02*
X105896738Y-63021283D01*
X105896738Y-63021283D02*
X105849119Y-63045093D01*
X105849119Y-63045093D02*
X105801500Y-63092712D01*
X105801500Y-63092712D02*
X105777690Y-63164140D01*
X105777690Y-63164140D02*
X105777690Y-63211759D01*
X105777690Y-63211759D02*
X105801500Y-63283188D01*
X105801500Y-63283188D02*
X105825309Y-63306997D01*
X105825309Y-63306997D02*
X105991976Y-63306997D01*
X105991976Y-63306997D02*
X105991976Y-63211759D01*
X105777690Y-63521283D02*
X106277690Y-63521283D01*
X106277690Y-63521283D02*
X106277690Y-63711759D01*
X106277690Y-63711759D02*
X106253880Y-63759378D01*
X106253880Y-63759378D02*
X106230071Y-63783188D01*
X106230071Y-63783188D02*
X106182452Y-63806997D01*
X106182452Y-63806997D02*
X106111023Y-63806997D01*
X106111023Y-63806997D02*
X106063404Y-63783188D01*
X106063404Y-63783188D02*
X106039595Y-63759378D01*
X106039595Y-63759378D02*
X106015785Y-63711759D01*
X106015785Y-63711759D02*
X106015785Y-63521283D01*
X105777690Y-64021283D02*
X106277690Y-64021283D01*
X106277690Y-64354616D02*
X106277690Y-64449854D01*
X106277690Y-64449854D02*
X106253880Y-64497473D01*
X106253880Y-64497473D02*
X106206261Y-64545092D01*
X106206261Y-64545092D02*
X106111023Y-64568902D01*
X106111023Y-64568902D02*
X105944357Y-64568902D01*
X105944357Y-64568902D02*
X105849119Y-64545092D01*
X105849119Y-64545092D02*
X105801500Y-64497473D01*
X105801500Y-64497473D02*
X105777690Y-64449854D01*
X105777690Y-64449854D02*
X105777690Y-64354616D01*
X105777690Y-64354616D02*
X105801500Y-64306997D01*
X105801500Y-64306997D02*
X105849119Y-64259378D01*
X105849119Y-64259378D02*
X105944357Y-64235569D01*
X105944357Y-64235569D02*
X106111023Y-64235569D01*
X106111023Y-64235569D02*
X106206261Y-64259378D01*
X106206261Y-64259378D02*
X106253880Y-64306997D01*
X106253880Y-64306997D02*
X106277690Y-64354616D01*
X106111023Y-64997474D02*
X105777690Y-64997474D01*
X106301500Y-64878426D02*
X105944357Y-64759379D01*
X105944357Y-64759379D02*
X105944357Y-65068902D01*
D12*
%TO.C,R15*%
X121659771Y-92105714D02*
X121374057Y-92305714D01*
X121659771Y-92448571D02*
X121059771Y-92448571D01*
X121059771Y-92448571D02*
X121059771Y-92220000D01*
X121059771Y-92220000D02*
X121088342Y-92162857D01*
X121088342Y-92162857D02*
X121116914Y-92134286D01*
X121116914Y-92134286D02*
X121174057Y-92105714D01*
X121174057Y-92105714D02*
X121259771Y-92105714D01*
X121259771Y-92105714D02*
X121316914Y-92134286D01*
X121316914Y-92134286D02*
X121345485Y-92162857D01*
X121345485Y-92162857D02*
X121374057Y-92220000D01*
X121374057Y-92220000D02*
X121374057Y-92448571D01*
X121659771Y-91534286D02*
X121659771Y-91877143D01*
X121659771Y-91705714D02*
X121059771Y-91705714D01*
X121059771Y-91705714D02*
X121145485Y-91762857D01*
X121145485Y-91762857D02*
X121202628Y-91820000D01*
X121202628Y-91820000D02*
X121231200Y-91877143D01*
X121059771Y-90991428D02*
X121059771Y-91277142D01*
X121059771Y-91277142D02*
X121345485Y-91305714D01*
X121345485Y-91305714D02*
X121316914Y-91277142D01*
X121316914Y-91277142D02*
X121288342Y-91220000D01*
X121288342Y-91220000D02*
X121288342Y-91077142D01*
X121288342Y-91077142D02*
X121316914Y-91020000D01*
X121316914Y-91020000D02*
X121345485Y-90991428D01*
X121345485Y-90991428D02*
X121402628Y-90962857D01*
X121402628Y-90962857D02*
X121545485Y-90962857D01*
X121545485Y-90962857D02*
X121602628Y-90991428D01*
X121602628Y-90991428D02*
X121631200Y-91020000D01*
X121631200Y-91020000D02*
X121659771Y-91077142D01*
X121659771Y-91077142D02*
X121659771Y-91220000D01*
X121659771Y-91220000D02*
X121631200Y-91277142D01*
X121631200Y-91277142D02*
X121602628Y-91305714D01*
%TO.C,C13*%
X203236985Y-57970928D02*
X203208413Y-57999500D01*
X203208413Y-57999500D02*
X203122699Y-58028071D01*
X203122699Y-58028071D02*
X203065556Y-58028071D01*
X203065556Y-58028071D02*
X202979842Y-57999500D01*
X202979842Y-57999500D02*
X202922699Y-57942357D01*
X202922699Y-57942357D02*
X202894128Y-57885214D01*
X202894128Y-57885214D02*
X202865556Y-57770928D01*
X202865556Y-57770928D02*
X202865556Y-57685214D01*
X202865556Y-57685214D02*
X202894128Y-57570928D01*
X202894128Y-57570928D02*
X202922699Y-57513785D01*
X202922699Y-57513785D02*
X202979842Y-57456642D01*
X202979842Y-57456642D02*
X203065556Y-57428071D01*
X203065556Y-57428071D02*
X203122699Y-57428071D01*
X203122699Y-57428071D02*
X203208413Y-57456642D01*
X203208413Y-57456642D02*
X203236985Y-57485214D01*
X203808413Y-58028071D02*
X203465556Y-58028071D01*
X203636985Y-58028071D02*
X203636985Y-57428071D01*
X203636985Y-57428071D02*
X203579842Y-57513785D01*
X203579842Y-57513785D02*
X203522699Y-57570928D01*
X203522699Y-57570928D02*
X203465556Y-57599500D01*
X204008414Y-57428071D02*
X204379842Y-57428071D01*
X204379842Y-57428071D02*
X204179842Y-57656642D01*
X204179842Y-57656642D02*
X204265557Y-57656642D01*
X204265557Y-57656642D02*
X204322700Y-57685214D01*
X204322700Y-57685214D02*
X204351271Y-57713785D01*
X204351271Y-57713785D02*
X204379842Y-57770928D01*
X204379842Y-57770928D02*
X204379842Y-57913785D01*
X204379842Y-57913785D02*
X204351271Y-57970928D01*
X204351271Y-57970928D02*
X204322700Y-57999500D01*
X204322700Y-57999500D02*
X204265557Y-58028071D01*
X204265557Y-58028071D02*
X204094128Y-58028071D01*
X204094128Y-58028071D02*
X204036985Y-57999500D01*
X204036985Y-57999500D02*
X204008414Y-57970928D01*
%TO.C,Y1*%
X205506509Y-63136928D02*
X205506509Y-63613119D01*
X205173176Y-62613119D02*
X205506509Y-63136928D01*
X205506509Y-63136928D02*
X205839842Y-62613119D01*
X206696985Y-63613119D02*
X206125557Y-63613119D01*
X206411271Y-63613119D02*
X206411271Y-62613119D01*
X206411271Y-62613119D02*
X206316033Y-62755976D01*
X206316033Y-62755976D02*
X206220795Y-62851214D01*
X206220795Y-62851214D02*
X206125557Y-62898833D01*
%TO.C,C5*%
X197610000Y-78342628D02*
X197581428Y-78371200D01*
X197581428Y-78371200D02*
X197495714Y-78399771D01*
X197495714Y-78399771D02*
X197438571Y-78399771D01*
X197438571Y-78399771D02*
X197352857Y-78371200D01*
X197352857Y-78371200D02*
X197295714Y-78314057D01*
X197295714Y-78314057D02*
X197267143Y-78256914D01*
X197267143Y-78256914D02*
X197238571Y-78142628D01*
X197238571Y-78142628D02*
X197238571Y-78056914D01*
X197238571Y-78056914D02*
X197267143Y-77942628D01*
X197267143Y-77942628D02*
X197295714Y-77885485D01*
X197295714Y-77885485D02*
X197352857Y-77828342D01*
X197352857Y-77828342D02*
X197438571Y-77799771D01*
X197438571Y-77799771D02*
X197495714Y-77799771D01*
X197495714Y-77799771D02*
X197581428Y-77828342D01*
X197581428Y-77828342D02*
X197610000Y-77856914D01*
X198152857Y-77799771D02*
X197867143Y-77799771D01*
X197867143Y-77799771D02*
X197838571Y-78085485D01*
X197838571Y-78085485D02*
X197867143Y-78056914D01*
X197867143Y-78056914D02*
X197924286Y-78028342D01*
X197924286Y-78028342D02*
X198067143Y-78028342D01*
X198067143Y-78028342D02*
X198124286Y-78056914D01*
X198124286Y-78056914D02*
X198152857Y-78085485D01*
X198152857Y-78085485D02*
X198181428Y-78142628D01*
X198181428Y-78142628D02*
X198181428Y-78285485D01*
X198181428Y-78285485D02*
X198152857Y-78342628D01*
X198152857Y-78342628D02*
X198124286Y-78371200D01*
X198124286Y-78371200D02*
X198067143Y-78399771D01*
X198067143Y-78399771D02*
X197924286Y-78399771D01*
X197924286Y-78399771D02*
X197867143Y-78371200D01*
X197867143Y-78371200D02*
X197838571Y-78342628D01*
%TO.C,R21*%
X117260085Y-57563971D02*
X117060085Y-57278257D01*
X116917228Y-57563971D02*
X116917228Y-56963971D01*
X116917228Y-56963971D02*
X117145799Y-56963971D01*
X117145799Y-56963971D02*
X117202942Y-56992542D01*
X117202942Y-56992542D02*
X117231513Y-57021114D01*
X117231513Y-57021114D02*
X117260085Y-57078257D01*
X117260085Y-57078257D02*
X117260085Y-57163971D01*
X117260085Y-57163971D02*
X117231513Y-57221114D01*
X117231513Y-57221114D02*
X117202942Y-57249685D01*
X117202942Y-57249685D02*
X117145799Y-57278257D01*
X117145799Y-57278257D02*
X116917228Y-57278257D01*
X117488656Y-57021114D02*
X117517228Y-56992542D01*
X117517228Y-56992542D02*
X117574371Y-56963971D01*
X117574371Y-56963971D02*
X117717228Y-56963971D01*
X117717228Y-56963971D02*
X117774371Y-56992542D01*
X117774371Y-56992542D02*
X117802942Y-57021114D01*
X117802942Y-57021114D02*
X117831513Y-57078257D01*
X117831513Y-57078257D02*
X117831513Y-57135400D01*
X117831513Y-57135400D02*
X117802942Y-57221114D01*
X117802942Y-57221114D02*
X117460085Y-57563971D01*
X117460085Y-57563971D02*
X117831513Y-57563971D01*
X118402942Y-57563971D02*
X118060085Y-57563971D01*
X118231514Y-57563971D02*
X118231514Y-56963971D01*
X118231514Y-56963971D02*
X118174371Y-57049685D01*
X118174371Y-57049685D02*
X118117228Y-57106828D01*
X118117228Y-57106828D02*
X118060085Y-57135400D01*
%TO.C,C24*%
X134472628Y-63715714D02*
X134501200Y-63744286D01*
X134501200Y-63744286D02*
X134529771Y-63830000D01*
X134529771Y-63830000D02*
X134529771Y-63887143D01*
X134529771Y-63887143D02*
X134501200Y-63972857D01*
X134501200Y-63972857D02*
X134444057Y-64030000D01*
X134444057Y-64030000D02*
X134386914Y-64058571D01*
X134386914Y-64058571D02*
X134272628Y-64087143D01*
X134272628Y-64087143D02*
X134186914Y-64087143D01*
X134186914Y-64087143D02*
X134072628Y-64058571D01*
X134072628Y-64058571D02*
X134015485Y-64030000D01*
X134015485Y-64030000D02*
X133958342Y-63972857D01*
X133958342Y-63972857D02*
X133929771Y-63887143D01*
X133929771Y-63887143D02*
X133929771Y-63830000D01*
X133929771Y-63830000D02*
X133958342Y-63744286D01*
X133958342Y-63744286D02*
X133986914Y-63715714D01*
X133986914Y-63487143D02*
X133958342Y-63458571D01*
X133958342Y-63458571D02*
X133929771Y-63401429D01*
X133929771Y-63401429D02*
X133929771Y-63258571D01*
X133929771Y-63258571D02*
X133958342Y-63201429D01*
X133958342Y-63201429D02*
X133986914Y-63172857D01*
X133986914Y-63172857D02*
X134044057Y-63144286D01*
X134044057Y-63144286D02*
X134101200Y-63144286D01*
X134101200Y-63144286D02*
X134186914Y-63172857D01*
X134186914Y-63172857D02*
X134529771Y-63515714D01*
X134529771Y-63515714D02*
X134529771Y-63144286D01*
X134129771Y-62630000D02*
X134529771Y-62630000D01*
X133901200Y-62772857D02*
X134329771Y-62915714D01*
X134329771Y-62915714D02*
X134329771Y-62544285D01*
%TO.C,C16*%
X227464285Y-66412628D02*
X227435713Y-66441200D01*
X227435713Y-66441200D02*
X227349999Y-66469771D01*
X227349999Y-66469771D02*
X227292856Y-66469771D01*
X227292856Y-66469771D02*
X227207142Y-66441200D01*
X227207142Y-66441200D02*
X227149999Y-66384057D01*
X227149999Y-66384057D02*
X227121428Y-66326914D01*
X227121428Y-66326914D02*
X227092856Y-66212628D01*
X227092856Y-66212628D02*
X227092856Y-66126914D01*
X227092856Y-66126914D02*
X227121428Y-66012628D01*
X227121428Y-66012628D02*
X227149999Y-65955485D01*
X227149999Y-65955485D02*
X227207142Y-65898342D01*
X227207142Y-65898342D02*
X227292856Y-65869771D01*
X227292856Y-65869771D02*
X227349999Y-65869771D01*
X227349999Y-65869771D02*
X227435713Y-65898342D01*
X227435713Y-65898342D02*
X227464285Y-65926914D01*
X228035713Y-66469771D02*
X227692856Y-66469771D01*
X227864285Y-66469771D02*
X227864285Y-65869771D01*
X227864285Y-65869771D02*
X227807142Y-65955485D01*
X227807142Y-65955485D02*
X227749999Y-66012628D01*
X227749999Y-66012628D02*
X227692856Y-66041200D01*
X228550000Y-65869771D02*
X228435714Y-65869771D01*
X228435714Y-65869771D02*
X228378571Y-65898342D01*
X228378571Y-65898342D02*
X228350000Y-65926914D01*
X228350000Y-65926914D02*
X228292857Y-66012628D01*
X228292857Y-66012628D02*
X228264285Y-66126914D01*
X228264285Y-66126914D02*
X228264285Y-66355485D01*
X228264285Y-66355485D02*
X228292857Y-66412628D01*
X228292857Y-66412628D02*
X228321428Y-66441200D01*
X228321428Y-66441200D02*
X228378571Y-66469771D01*
X228378571Y-66469771D02*
X228492857Y-66469771D01*
X228492857Y-66469771D02*
X228550000Y-66441200D01*
X228550000Y-66441200D02*
X228578571Y-66412628D01*
X228578571Y-66412628D02*
X228607142Y-66355485D01*
X228607142Y-66355485D02*
X228607142Y-66212628D01*
X228607142Y-66212628D02*
X228578571Y-66155485D01*
X228578571Y-66155485D02*
X228550000Y-66126914D01*
X228550000Y-66126914D02*
X228492857Y-66098342D01*
X228492857Y-66098342D02*
X228378571Y-66098342D01*
X228378571Y-66098342D02*
X228321428Y-66126914D01*
X228321428Y-66126914D02*
X228292857Y-66155485D01*
X228292857Y-66155485D02*
X228264285Y-66212628D01*
%TO.C,R14*%
X117474285Y-95509771D02*
X117274285Y-95224057D01*
X117131428Y-95509771D02*
X117131428Y-94909771D01*
X117131428Y-94909771D02*
X117359999Y-94909771D01*
X117359999Y-94909771D02*
X117417142Y-94938342D01*
X117417142Y-94938342D02*
X117445713Y-94966914D01*
X117445713Y-94966914D02*
X117474285Y-95024057D01*
X117474285Y-95024057D02*
X117474285Y-95109771D01*
X117474285Y-95109771D02*
X117445713Y-95166914D01*
X117445713Y-95166914D02*
X117417142Y-95195485D01*
X117417142Y-95195485D02*
X117359999Y-95224057D01*
X117359999Y-95224057D02*
X117131428Y-95224057D01*
X118045713Y-95509771D02*
X117702856Y-95509771D01*
X117874285Y-95509771D02*
X117874285Y-94909771D01*
X117874285Y-94909771D02*
X117817142Y-94995485D01*
X117817142Y-94995485D02*
X117759999Y-95052628D01*
X117759999Y-95052628D02*
X117702856Y-95081200D01*
X118560000Y-95109771D02*
X118560000Y-95509771D01*
X118417142Y-94881200D02*
X118274285Y-95309771D01*
X118274285Y-95309771D02*
X118645714Y-95309771D01*
%TO.C,R2*%
X181399321Y-91147949D02*
X181113607Y-91347949D01*
X181399321Y-91490806D02*
X180799321Y-91490806D01*
X180799321Y-91490806D02*
X180799321Y-91262235D01*
X180799321Y-91262235D02*
X180827892Y-91205092D01*
X180827892Y-91205092D02*
X180856464Y-91176521D01*
X180856464Y-91176521D02*
X180913607Y-91147949D01*
X180913607Y-91147949D02*
X180999321Y-91147949D01*
X180999321Y-91147949D02*
X181056464Y-91176521D01*
X181056464Y-91176521D02*
X181085035Y-91205092D01*
X181085035Y-91205092D02*
X181113607Y-91262235D01*
X181113607Y-91262235D02*
X181113607Y-91490806D01*
X180856464Y-90919378D02*
X180827892Y-90890806D01*
X180827892Y-90890806D02*
X180799321Y-90833664D01*
X180799321Y-90833664D02*
X180799321Y-90690806D01*
X180799321Y-90690806D02*
X180827892Y-90633664D01*
X180827892Y-90633664D02*
X180856464Y-90605092D01*
X180856464Y-90605092D02*
X180913607Y-90576521D01*
X180913607Y-90576521D02*
X180970750Y-90576521D01*
X180970750Y-90576521D02*
X181056464Y-90605092D01*
X181056464Y-90605092D02*
X181399321Y-90947949D01*
X181399321Y-90947949D02*
X181399321Y-90576521D01*
%TO.C,U4*%
X118534819Y-82081904D02*
X119344342Y-82081904D01*
X119344342Y-82081904D02*
X119439580Y-82034285D01*
X119439580Y-82034285D02*
X119487200Y-81986666D01*
X119487200Y-81986666D02*
X119534819Y-81891428D01*
X119534819Y-81891428D02*
X119534819Y-81700952D01*
X119534819Y-81700952D02*
X119487200Y-81605714D01*
X119487200Y-81605714D02*
X119439580Y-81558095D01*
X119439580Y-81558095D02*
X119344342Y-81510476D01*
X119344342Y-81510476D02*
X118534819Y-81510476D01*
X118868152Y-80605714D02*
X119534819Y-80605714D01*
X118487200Y-80843809D02*
X119201485Y-81081904D01*
X119201485Y-81081904D02*
X119201485Y-80462857D01*
%TO.C,U2*%
X159582857Y-52569771D02*
X159582857Y-53055485D01*
X159582857Y-53055485D02*
X159611428Y-53112628D01*
X159611428Y-53112628D02*
X159640000Y-53141200D01*
X159640000Y-53141200D02*
X159697142Y-53169771D01*
X159697142Y-53169771D02*
X159811428Y-53169771D01*
X159811428Y-53169771D02*
X159868571Y-53141200D01*
X159868571Y-53141200D02*
X159897142Y-53112628D01*
X159897142Y-53112628D02*
X159925714Y-53055485D01*
X159925714Y-53055485D02*
X159925714Y-52569771D01*
X160182856Y-52626914D02*
X160211428Y-52598342D01*
X160211428Y-52598342D02*
X160268571Y-52569771D01*
X160268571Y-52569771D02*
X160411428Y-52569771D01*
X160411428Y-52569771D02*
X160468571Y-52598342D01*
X160468571Y-52598342D02*
X160497142Y-52626914D01*
X160497142Y-52626914D02*
X160525713Y-52684057D01*
X160525713Y-52684057D02*
X160525713Y-52741200D01*
X160525713Y-52741200D02*
X160497142Y-52826914D01*
X160497142Y-52826914D02*
X160154285Y-53169771D01*
X160154285Y-53169771D02*
X160525713Y-53169771D01*
%TO.C,C17*%
X147598085Y-76396828D02*
X147569513Y-76425400D01*
X147569513Y-76425400D02*
X147483799Y-76453971D01*
X147483799Y-76453971D02*
X147426656Y-76453971D01*
X147426656Y-76453971D02*
X147340942Y-76425400D01*
X147340942Y-76425400D02*
X147283799Y-76368257D01*
X147283799Y-76368257D02*
X147255228Y-76311114D01*
X147255228Y-76311114D02*
X147226656Y-76196828D01*
X147226656Y-76196828D02*
X147226656Y-76111114D01*
X147226656Y-76111114D02*
X147255228Y-75996828D01*
X147255228Y-75996828D02*
X147283799Y-75939685D01*
X147283799Y-75939685D02*
X147340942Y-75882542D01*
X147340942Y-75882542D02*
X147426656Y-75853971D01*
X147426656Y-75853971D02*
X147483799Y-75853971D01*
X147483799Y-75853971D02*
X147569513Y-75882542D01*
X147569513Y-75882542D02*
X147598085Y-75911114D01*
X148169513Y-76453971D02*
X147826656Y-76453971D01*
X147998085Y-76453971D02*
X147998085Y-75853971D01*
X147998085Y-75853971D02*
X147940942Y-75939685D01*
X147940942Y-75939685D02*
X147883799Y-75996828D01*
X147883799Y-75996828D02*
X147826656Y-76025400D01*
X148369514Y-75853971D02*
X148769514Y-75853971D01*
X148769514Y-75853971D02*
X148512371Y-76453971D01*
%TO.C,J7*%
X213339999Y-87829771D02*
X213339999Y-88258342D01*
X213339999Y-88258342D02*
X213311428Y-88344057D01*
X213311428Y-88344057D02*
X213254285Y-88401200D01*
X213254285Y-88401200D02*
X213168571Y-88429771D01*
X213168571Y-88429771D02*
X213111428Y-88429771D01*
X213568571Y-87829771D02*
X213968571Y-87829771D01*
X213968571Y-87829771D02*
X213711428Y-88429771D01*
D10*
%TO.C,FB1*%
X194413334Y-72402904D02*
X194246667Y-72402904D01*
X194246667Y-72664809D02*
X194246667Y-72164809D01*
X194246667Y-72164809D02*
X194484762Y-72164809D01*
X194841905Y-72402904D02*
X194913333Y-72426714D01*
X194913333Y-72426714D02*
X194937143Y-72450523D01*
X194937143Y-72450523D02*
X194960952Y-72498142D01*
X194960952Y-72498142D02*
X194960952Y-72569571D01*
X194960952Y-72569571D02*
X194937143Y-72617190D01*
X194937143Y-72617190D02*
X194913333Y-72641000D01*
X194913333Y-72641000D02*
X194865714Y-72664809D01*
X194865714Y-72664809D02*
X194675238Y-72664809D01*
X194675238Y-72664809D02*
X194675238Y-72164809D01*
X194675238Y-72164809D02*
X194841905Y-72164809D01*
X194841905Y-72164809D02*
X194889524Y-72188619D01*
X194889524Y-72188619D02*
X194913333Y-72212428D01*
X194913333Y-72212428D02*
X194937143Y-72260047D01*
X194937143Y-72260047D02*
X194937143Y-72307666D01*
X194937143Y-72307666D02*
X194913333Y-72355285D01*
X194913333Y-72355285D02*
X194889524Y-72379095D01*
X194889524Y-72379095D02*
X194841905Y-72402904D01*
X194841905Y-72402904D02*
X194675238Y-72402904D01*
X195437143Y-72664809D02*
X195151429Y-72664809D01*
X195294286Y-72664809D02*
X195294286Y-72164809D01*
X195294286Y-72164809D02*
X195246667Y-72236238D01*
X195246667Y-72236238D02*
X195199048Y-72283857D01*
X195199048Y-72283857D02*
X195151429Y-72307666D01*
D12*
%TO.C,C11*%
X224822628Y-81345714D02*
X224851200Y-81374286D01*
X224851200Y-81374286D02*
X224879771Y-81460000D01*
X224879771Y-81460000D02*
X224879771Y-81517143D01*
X224879771Y-81517143D02*
X224851200Y-81602857D01*
X224851200Y-81602857D02*
X224794057Y-81660000D01*
X224794057Y-81660000D02*
X224736914Y-81688571D01*
X224736914Y-81688571D02*
X224622628Y-81717143D01*
X224622628Y-81717143D02*
X224536914Y-81717143D01*
X224536914Y-81717143D02*
X224422628Y-81688571D01*
X224422628Y-81688571D02*
X224365485Y-81660000D01*
X224365485Y-81660000D02*
X224308342Y-81602857D01*
X224308342Y-81602857D02*
X224279771Y-81517143D01*
X224279771Y-81517143D02*
X224279771Y-81460000D01*
X224279771Y-81460000D02*
X224308342Y-81374286D01*
X224308342Y-81374286D02*
X224336914Y-81345714D01*
X224879771Y-80774286D02*
X224879771Y-81117143D01*
X224879771Y-80945714D02*
X224279771Y-80945714D01*
X224279771Y-80945714D02*
X224365485Y-81002857D01*
X224365485Y-81002857D02*
X224422628Y-81060000D01*
X224422628Y-81060000D02*
X224451200Y-81117143D01*
X224879771Y-80202857D02*
X224879771Y-80545714D01*
X224879771Y-80374285D02*
X224279771Y-80374285D01*
X224279771Y-80374285D02*
X224365485Y-80431428D01*
X224365485Y-80431428D02*
X224422628Y-80488571D01*
X224422628Y-80488571D02*
X224451200Y-80545714D01*
%TO.C,C6*%
X211192628Y-81859999D02*
X211221200Y-81888571D01*
X211221200Y-81888571D02*
X211249771Y-81974285D01*
X211249771Y-81974285D02*
X211249771Y-82031428D01*
X211249771Y-82031428D02*
X211221200Y-82117142D01*
X211221200Y-82117142D02*
X211164057Y-82174285D01*
X211164057Y-82174285D02*
X211106914Y-82202856D01*
X211106914Y-82202856D02*
X210992628Y-82231428D01*
X210992628Y-82231428D02*
X210906914Y-82231428D01*
X210906914Y-82231428D02*
X210792628Y-82202856D01*
X210792628Y-82202856D02*
X210735485Y-82174285D01*
X210735485Y-82174285D02*
X210678342Y-82117142D01*
X210678342Y-82117142D02*
X210649771Y-82031428D01*
X210649771Y-82031428D02*
X210649771Y-81974285D01*
X210649771Y-81974285D02*
X210678342Y-81888571D01*
X210678342Y-81888571D02*
X210706914Y-81859999D01*
X210649771Y-81345714D02*
X210649771Y-81459999D01*
X210649771Y-81459999D02*
X210678342Y-81517142D01*
X210678342Y-81517142D02*
X210706914Y-81545714D01*
X210706914Y-81545714D02*
X210792628Y-81602856D01*
X210792628Y-81602856D02*
X210906914Y-81631428D01*
X210906914Y-81631428D02*
X211135485Y-81631428D01*
X211135485Y-81631428D02*
X211192628Y-81602856D01*
X211192628Y-81602856D02*
X211221200Y-81574285D01*
X211221200Y-81574285D02*
X211249771Y-81517142D01*
X211249771Y-81517142D02*
X211249771Y-81402856D01*
X211249771Y-81402856D02*
X211221200Y-81345714D01*
X211221200Y-81345714D02*
X211192628Y-81317142D01*
X211192628Y-81317142D02*
X211135485Y-81288571D01*
X211135485Y-81288571D02*
X210992628Y-81288571D01*
X210992628Y-81288571D02*
X210935485Y-81317142D01*
X210935485Y-81317142D02*
X210906914Y-81345714D01*
X210906914Y-81345714D02*
X210878342Y-81402856D01*
X210878342Y-81402856D02*
X210878342Y-81517142D01*
X210878342Y-81517142D02*
X210906914Y-81574285D01*
X210906914Y-81574285D02*
X210935485Y-81602856D01*
X210935485Y-81602856D02*
X210992628Y-81631428D01*
%TO.C,C7*%
X208585833Y-67639580D02*
X208538214Y-67687200D01*
X208538214Y-67687200D02*
X208395357Y-67734819D01*
X208395357Y-67734819D02*
X208300119Y-67734819D01*
X208300119Y-67734819D02*
X208157262Y-67687200D01*
X208157262Y-67687200D02*
X208062024Y-67591961D01*
X208062024Y-67591961D02*
X208014405Y-67496723D01*
X208014405Y-67496723D02*
X207966786Y-67306247D01*
X207966786Y-67306247D02*
X207966786Y-67163390D01*
X207966786Y-67163390D02*
X208014405Y-66972914D01*
X208014405Y-66972914D02*
X208062024Y-66877676D01*
X208062024Y-66877676D02*
X208157262Y-66782438D01*
X208157262Y-66782438D02*
X208300119Y-66734819D01*
X208300119Y-66734819D02*
X208395357Y-66734819D01*
X208395357Y-66734819D02*
X208538214Y-66782438D01*
X208538214Y-66782438D02*
X208585833Y-66830057D01*
X208919167Y-66734819D02*
X209585833Y-66734819D01*
X209585833Y-66734819D02*
X209157262Y-67734819D01*
%TO.C,H4*%
X114784419Y-49479104D02*
X113784419Y-49479104D01*
X114260609Y-49479104D02*
X114260609Y-48907676D01*
X114784419Y-48907676D02*
X113784419Y-48907676D01*
X114117752Y-48002914D02*
X114784419Y-48002914D01*
X113736800Y-48241009D02*
X114451085Y-48479104D01*
X114451085Y-48479104D02*
X114451085Y-47860057D01*
%TO.C,Q2*%
X138496914Y-79157142D02*
X138468342Y-79214285D01*
X138468342Y-79214285D02*
X138411200Y-79271428D01*
X138411200Y-79271428D02*
X138325485Y-79357142D01*
X138325485Y-79357142D02*
X138296914Y-79414285D01*
X138296914Y-79414285D02*
X138296914Y-79471428D01*
X138439771Y-79442857D02*
X138411200Y-79500000D01*
X138411200Y-79500000D02*
X138354057Y-79557142D01*
X138354057Y-79557142D02*
X138239771Y-79585714D01*
X138239771Y-79585714D02*
X138039771Y-79585714D01*
X138039771Y-79585714D02*
X137925485Y-79557142D01*
X137925485Y-79557142D02*
X137868342Y-79500000D01*
X137868342Y-79500000D02*
X137839771Y-79442857D01*
X137839771Y-79442857D02*
X137839771Y-79328571D01*
X137839771Y-79328571D02*
X137868342Y-79271428D01*
X137868342Y-79271428D02*
X137925485Y-79214285D01*
X137925485Y-79214285D02*
X138039771Y-79185714D01*
X138039771Y-79185714D02*
X138239771Y-79185714D01*
X138239771Y-79185714D02*
X138354057Y-79214285D01*
X138354057Y-79214285D02*
X138411200Y-79271428D01*
X138411200Y-79271428D02*
X138439771Y-79328571D01*
X138439771Y-79328571D02*
X138439771Y-79442857D01*
X137896914Y-78957143D02*
X137868342Y-78928571D01*
X137868342Y-78928571D02*
X137839771Y-78871429D01*
X137839771Y-78871429D02*
X137839771Y-78728571D01*
X137839771Y-78728571D02*
X137868342Y-78671429D01*
X137868342Y-78671429D02*
X137896914Y-78642857D01*
X137896914Y-78642857D02*
X137954057Y-78614286D01*
X137954057Y-78614286D02*
X138011200Y-78614286D01*
X138011200Y-78614286D02*
X138096914Y-78642857D01*
X138096914Y-78642857D02*
X138439771Y-78985714D01*
X138439771Y-78985714D02*
X138439771Y-78614286D01*
%TO.C,R20*%
X111184285Y-69429771D02*
X110984285Y-69144057D01*
X110841428Y-69429771D02*
X110841428Y-68829771D01*
X110841428Y-68829771D02*
X111069999Y-68829771D01*
X111069999Y-68829771D02*
X111127142Y-68858342D01*
X111127142Y-68858342D02*
X111155713Y-68886914D01*
X111155713Y-68886914D02*
X111184285Y-68944057D01*
X111184285Y-68944057D02*
X111184285Y-69029771D01*
X111184285Y-69029771D02*
X111155713Y-69086914D01*
X111155713Y-69086914D02*
X111127142Y-69115485D01*
X111127142Y-69115485D02*
X111069999Y-69144057D01*
X111069999Y-69144057D02*
X110841428Y-69144057D01*
X111412856Y-68886914D02*
X111441428Y-68858342D01*
X111441428Y-68858342D02*
X111498571Y-68829771D01*
X111498571Y-68829771D02*
X111641428Y-68829771D01*
X111641428Y-68829771D02*
X111698571Y-68858342D01*
X111698571Y-68858342D02*
X111727142Y-68886914D01*
X111727142Y-68886914D02*
X111755713Y-68944057D01*
X111755713Y-68944057D02*
X111755713Y-69001200D01*
X111755713Y-69001200D02*
X111727142Y-69086914D01*
X111727142Y-69086914D02*
X111384285Y-69429771D01*
X111384285Y-69429771D02*
X111755713Y-69429771D01*
X112127142Y-68829771D02*
X112184285Y-68829771D01*
X112184285Y-68829771D02*
X112241428Y-68858342D01*
X112241428Y-68858342D02*
X112270000Y-68886914D01*
X112270000Y-68886914D02*
X112298571Y-68944057D01*
X112298571Y-68944057D02*
X112327142Y-69058342D01*
X112327142Y-69058342D02*
X112327142Y-69201200D01*
X112327142Y-69201200D02*
X112298571Y-69315485D01*
X112298571Y-69315485D02*
X112270000Y-69372628D01*
X112270000Y-69372628D02*
X112241428Y-69401200D01*
X112241428Y-69401200D02*
X112184285Y-69429771D01*
X112184285Y-69429771D02*
X112127142Y-69429771D01*
X112127142Y-69429771D02*
X112070000Y-69401200D01*
X112070000Y-69401200D02*
X112041428Y-69372628D01*
X112041428Y-69372628D02*
X112012857Y-69315485D01*
X112012857Y-69315485D02*
X111984285Y-69201200D01*
X111984285Y-69201200D02*
X111984285Y-69058342D01*
X111984285Y-69058342D02*
X112012857Y-68944057D01*
X112012857Y-68944057D02*
X112041428Y-68886914D01*
X112041428Y-68886914D02*
X112070000Y-68858342D01*
X112070000Y-68858342D02*
X112127142Y-68829771D01*
%TO.C,U1*%
X205029771Y-75857142D02*
X205515485Y-75857142D01*
X205515485Y-75857142D02*
X205572628Y-75828571D01*
X205572628Y-75828571D02*
X205601200Y-75800000D01*
X205601200Y-75800000D02*
X205629771Y-75742857D01*
X205629771Y-75742857D02*
X205629771Y-75628571D01*
X205629771Y-75628571D02*
X205601200Y-75571428D01*
X205601200Y-75571428D02*
X205572628Y-75542857D01*
X205572628Y-75542857D02*
X205515485Y-75514285D01*
X205515485Y-75514285D02*
X205029771Y-75514285D01*
X205629771Y-74914286D02*
X205629771Y-75257143D01*
X205629771Y-75085714D02*
X205029771Y-75085714D01*
X205029771Y-75085714D02*
X205115485Y-75142857D01*
X205115485Y-75142857D02*
X205172628Y-75200000D01*
X205172628Y-75200000D02*
X205201200Y-75257143D01*
%TO.C,H2*%
X110367695Y-102156819D02*
X110367695Y-101156819D01*
X110367695Y-101633009D02*
X110939123Y-101633009D01*
X110939123Y-102156819D02*
X110939123Y-101156819D01*
X111367695Y-101252057D02*
X111415314Y-101204438D01*
X111415314Y-101204438D02*
X111510552Y-101156819D01*
X111510552Y-101156819D02*
X111748647Y-101156819D01*
X111748647Y-101156819D02*
X111843885Y-101204438D01*
X111843885Y-101204438D02*
X111891504Y-101252057D01*
X111891504Y-101252057D02*
X111939123Y-101347295D01*
X111939123Y-101347295D02*
X111939123Y-101442533D01*
X111939123Y-101442533D02*
X111891504Y-101585390D01*
X111891504Y-101585390D02*
X111320076Y-102156819D01*
X111320076Y-102156819D02*
X111939123Y-102156819D01*
%TO.C,C2*%
X198010000Y-66442628D02*
X197981428Y-66471200D01*
X197981428Y-66471200D02*
X197895714Y-66499771D01*
X197895714Y-66499771D02*
X197838571Y-66499771D01*
X197838571Y-66499771D02*
X197752857Y-66471200D01*
X197752857Y-66471200D02*
X197695714Y-66414057D01*
X197695714Y-66414057D02*
X197667143Y-66356914D01*
X197667143Y-66356914D02*
X197638571Y-66242628D01*
X197638571Y-66242628D02*
X197638571Y-66156914D01*
X197638571Y-66156914D02*
X197667143Y-66042628D01*
X197667143Y-66042628D02*
X197695714Y-65985485D01*
X197695714Y-65985485D02*
X197752857Y-65928342D01*
X197752857Y-65928342D02*
X197838571Y-65899771D01*
X197838571Y-65899771D02*
X197895714Y-65899771D01*
X197895714Y-65899771D02*
X197981428Y-65928342D01*
X197981428Y-65928342D02*
X198010000Y-65956914D01*
X198238571Y-65956914D02*
X198267143Y-65928342D01*
X198267143Y-65928342D02*
X198324286Y-65899771D01*
X198324286Y-65899771D02*
X198467143Y-65899771D01*
X198467143Y-65899771D02*
X198524286Y-65928342D01*
X198524286Y-65928342D02*
X198552857Y-65956914D01*
X198552857Y-65956914D02*
X198581428Y-66014057D01*
X198581428Y-66014057D02*
X198581428Y-66071200D01*
X198581428Y-66071200D02*
X198552857Y-66156914D01*
X198552857Y-66156914D02*
X198210000Y-66499771D01*
X198210000Y-66499771D02*
X198581428Y-66499771D01*
%TO.C,U7*%
X131312857Y-53579771D02*
X131312857Y-54065485D01*
X131312857Y-54065485D02*
X131341428Y-54122628D01*
X131341428Y-54122628D02*
X131370000Y-54151200D01*
X131370000Y-54151200D02*
X131427142Y-54179771D01*
X131427142Y-54179771D02*
X131541428Y-54179771D01*
X131541428Y-54179771D02*
X131598571Y-54151200D01*
X131598571Y-54151200D02*
X131627142Y-54122628D01*
X131627142Y-54122628D02*
X131655714Y-54065485D01*
X131655714Y-54065485D02*
X131655714Y-53579771D01*
X131884285Y-53579771D02*
X132284285Y-53579771D01*
X132284285Y-53579771D02*
X132027142Y-54179771D01*
%TO.C,C18*%
X172347142Y-89889580D02*
X172299523Y-89937200D01*
X172299523Y-89937200D02*
X172156666Y-89984819D01*
X172156666Y-89984819D02*
X172061428Y-89984819D01*
X172061428Y-89984819D02*
X171918571Y-89937200D01*
X171918571Y-89937200D02*
X171823333Y-89841961D01*
X171823333Y-89841961D02*
X171775714Y-89746723D01*
X171775714Y-89746723D02*
X171728095Y-89556247D01*
X171728095Y-89556247D02*
X171728095Y-89413390D01*
X171728095Y-89413390D02*
X171775714Y-89222914D01*
X171775714Y-89222914D02*
X171823333Y-89127676D01*
X171823333Y-89127676D02*
X171918571Y-89032438D01*
X171918571Y-89032438D02*
X172061428Y-88984819D01*
X172061428Y-88984819D02*
X172156666Y-88984819D01*
X172156666Y-88984819D02*
X172299523Y-89032438D01*
X172299523Y-89032438D02*
X172347142Y-89080057D01*
X173299523Y-89984819D02*
X172728095Y-89984819D01*
X173013809Y-89984819D02*
X173013809Y-88984819D01*
X173013809Y-88984819D02*
X172918571Y-89127676D01*
X172918571Y-89127676D02*
X172823333Y-89222914D01*
X172823333Y-89222914D02*
X172728095Y-89270533D01*
X173870952Y-89413390D02*
X173775714Y-89365771D01*
X173775714Y-89365771D02*
X173728095Y-89318152D01*
X173728095Y-89318152D02*
X173680476Y-89222914D01*
X173680476Y-89222914D02*
X173680476Y-89175295D01*
X173680476Y-89175295D02*
X173728095Y-89080057D01*
X173728095Y-89080057D02*
X173775714Y-89032438D01*
X173775714Y-89032438D02*
X173870952Y-88984819D01*
X173870952Y-88984819D02*
X174061428Y-88984819D01*
X174061428Y-88984819D02*
X174156666Y-89032438D01*
X174156666Y-89032438D02*
X174204285Y-89080057D01*
X174204285Y-89080057D02*
X174251904Y-89175295D01*
X174251904Y-89175295D02*
X174251904Y-89222914D01*
X174251904Y-89222914D02*
X174204285Y-89318152D01*
X174204285Y-89318152D02*
X174156666Y-89365771D01*
X174156666Y-89365771D02*
X174061428Y-89413390D01*
X174061428Y-89413390D02*
X173870952Y-89413390D01*
X173870952Y-89413390D02*
X173775714Y-89461009D01*
X173775714Y-89461009D02*
X173728095Y-89508628D01*
X173728095Y-89508628D02*
X173680476Y-89603866D01*
X173680476Y-89603866D02*
X173680476Y-89794342D01*
X173680476Y-89794342D02*
X173728095Y-89889580D01*
X173728095Y-89889580D02*
X173775714Y-89937200D01*
X173775714Y-89937200D02*
X173870952Y-89984819D01*
X173870952Y-89984819D02*
X174061428Y-89984819D01*
X174061428Y-89984819D02*
X174156666Y-89937200D01*
X174156666Y-89937200D02*
X174204285Y-89889580D01*
X174204285Y-89889580D02*
X174251904Y-89794342D01*
X174251904Y-89794342D02*
X174251904Y-89603866D01*
X174251904Y-89603866D02*
X174204285Y-89508628D01*
X174204285Y-89508628D02*
X174156666Y-89461009D01*
X174156666Y-89461009D02*
X174061428Y-89413390D01*
%TO.C,C12*%
X209196985Y-57960928D02*
X209168413Y-57989500D01*
X209168413Y-57989500D02*
X209082699Y-58018071D01*
X209082699Y-58018071D02*
X209025556Y-58018071D01*
X209025556Y-58018071D02*
X208939842Y-57989500D01*
X208939842Y-57989500D02*
X208882699Y-57932357D01*
X208882699Y-57932357D02*
X208854128Y-57875214D01*
X208854128Y-57875214D02*
X208825556Y-57760928D01*
X208825556Y-57760928D02*
X208825556Y-57675214D01*
X208825556Y-57675214D02*
X208854128Y-57560928D01*
X208854128Y-57560928D02*
X208882699Y-57503785D01*
X208882699Y-57503785D02*
X208939842Y-57446642D01*
X208939842Y-57446642D02*
X209025556Y-57418071D01*
X209025556Y-57418071D02*
X209082699Y-57418071D01*
X209082699Y-57418071D02*
X209168413Y-57446642D01*
X209168413Y-57446642D02*
X209196985Y-57475214D01*
X209768413Y-58018071D02*
X209425556Y-58018071D01*
X209596985Y-58018071D02*
X209596985Y-57418071D01*
X209596985Y-57418071D02*
X209539842Y-57503785D01*
X209539842Y-57503785D02*
X209482699Y-57560928D01*
X209482699Y-57560928D02*
X209425556Y-57589500D01*
X209996985Y-57475214D02*
X210025557Y-57446642D01*
X210025557Y-57446642D02*
X210082700Y-57418071D01*
X210082700Y-57418071D02*
X210225557Y-57418071D01*
X210225557Y-57418071D02*
X210282700Y-57446642D01*
X210282700Y-57446642D02*
X210311271Y-57475214D01*
X210311271Y-57475214D02*
X210339842Y-57532357D01*
X210339842Y-57532357D02*
X210339842Y-57589500D01*
X210339842Y-57589500D02*
X210311271Y-57675214D01*
X210311271Y-57675214D02*
X209968414Y-58018071D01*
X209968414Y-58018071D02*
X210339842Y-58018071D01*
%TO.C,J5*%
X203336666Y-95104819D02*
X203336666Y-95819104D01*
X203336666Y-95819104D02*
X203289047Y-95961961D01*
X203289047Y-95961961D02*
X203193809Y-96057200D01*
X203193809Y-96057200D02*
X203050952Y-96104819D01*
X203050952Y-96104819D02*
X202955714Y-96104819D01*
X204289047Y-95104819D02*
X203812857Y-95104819D01*
X203812857Y-95104819D02*
X203765238Y-95581009D01*
X203765238Y-95581009D02*
X203812857Y-95533390D01*
X203812857Y-95533390D02*
X203908095Y-95485771D01*
X203908095Y-95485771D02*
X204146190Y-95485771D01*
X204146190Y-95485771D02*
X204241428Y-95533390D01*
X204241428Y-95533390D02*
X204289047Y-95581009D01*
X204289047Y-95581009D02*
X204336666Y-95676247D01*
X204336666Y-95676247D02*
X204336666Y-95914342D01*
X204336666Y-95914342D02*
X204289047Y-96009580D01*
X204289047Y-96009580D02*
X204241428Y-96057200D01*
X204241428Y-96057200D02*
X204146190Y-96104819D01*
X204146190Y-96104819D02*
X203908095Y-96104819D01*
X203908095Y-96104819D02*
X203812857Y-96057200D01*
X203812857Y-96057200D02*
X203765238Y-96009580D01*
%TO.C,LED1*%
X170980952Y-92364819D02*
X170504762Y-92364819D01*
X170504762Y-92364819D02*
X170504762Y-91364819D01*
X171314286Y-91841009D02*
X171647619Y-91841009D01*
X171790476Y-92364819D02*
X171314286Y-92364819D01*
X171314286Y-92364819D02*
X171314286Y-91364819D01*
X171314286Y-91364819D02*
X171790476Y-91364819D01*
X172219048Y-92364819D02*
X172219048Y-91364819D01*
X172219048Y-91364819D02*
X172457143Y-91364819D01*
X172457143Y-91364819D02*
X172600000Y-91412438D01*
X172600000Y-91412438D02*
X172695238Y-91507676D01*
X172695238Y-91507676D02*
X172742857Y-91602914D01*
X172742857Y-91602914D02*
X172790476Y-91793390D01*
X172790476Y-91793390D02*
X172790476Y-91936247D01*
X172790476Y-91936247D02*
X172742857Y-92126723D01*
X172742857Y-92126723D02*
X172695238Y-92221961D01*
X172695238Y-92221961D02*
X172600000Y-92317200D01*
X172600000Y-92317200D02*
X172457143Y-92364819D01*
X172457143Y-92364819D02*
X172219048Y-92364819D01*
X173742857Y-92364819D02*
X173171429Y-92364819D01*
X173457143Y-92364819D02*
X173457143Y-91364819D01*
X173457143Y-91364819D02*
X173361905Y-91507676D01*
X173361905Y-91507676D02*
X173266667Y-91602914D01*
X173266667Y-91602914D02*
X173171429Y-91650533D01*
%TO.C,J11*%
X107734285Y-68739771D02*
X107734285Y-69168342D01*
X107734285Y-69168342D02*
X107705714Y-69254057D01*
X107705714Y-69254057D02*
X107648571Y-69311200D01*
X107648571Y-69311200D02*
X107562857Y-69339771D01*
X107562857Y-69339771D02*
X107505714Y-69339771D01*
X108334285Y-69339771D02*
X107991428Y-69339771D01*
X108162857Y-69339771D02*
X108162857Y-68739771D01*
X108162857Y-68739771D02*
X108105714Y-68825485D01*
X108105714Y-68825485D02*
X108048571Y-68882628D01*
X108048571Y-68882628D02*
X107991428Y-68911200D01*
X108905714Y-69339771D02*
X108562857Y-69339771D01*
X108734286Y-69339771D02*
X108734286Y-68739771D01*
X108734286Y-68739771D02*
X108677143Y-68825485D01*
X108677143Y-68825485D02*
X108620000Y-68882628D01*
X108620000Y-68882628D02*
X108562857Y-68911200D01*
%TO.C,R1*%
X203999771Y-81489999D02*
X203714057Y-81689999D01*
X203999771Y-81832856D02*
X203399771Y-81832856D01*
X203399771Y-81832856D02*
X203399771Y-81604285D01*
X203399771Y-81604285D02*
X203428342Y-81547142D01*
X203428342Y-81547142D02*
X203456914Y-81518571D01*
X203456914Y-81518571D02*
X203514057Y-81489999D01*
X203514057Y-81489999D02*
X203599771Y-81489999D01*
X203599771Y-81489999D02*
X203656914Y-81518571D01*
X203656914Y-81518571D02*
X203685485Y-81547142D01*
X203685485Y-81547142D02*
X203714057Y-81604285D01*
X203714057Y-81604285D02*
X203714057Y-81832856D01*
X203999771Y-80918571D02*
X203999771Y-81261428D01*
X203999771Y-81089999D02*
X203399771Y-81089999D01*
X203399771Y-81089999D02*
X203485485Y-81147142D01*
X203485485Y-81147142D02*
X203542628Y-81204285D01*
X203542628Y-81204285D02*
X203571200Y-81261428D01*
%TO.C,D1*%
X218087143Y-78029771D02*
X218087143Y-77429771D01*
X218087143Y-77429771D02*
X218230000Y-77429771D01*
X218230000Y-77429771D02*
X218315714Y-77458342D01*
X218315714Y-77458342D02*
X218372857Y-77515485D01*
X218372857Y-77515485D02*
X218401428Y-77572628D01*
X218401428Y-77572628D02*
X218430000Y-77686914D01*
X218430000Y-77686914D02*
X218430000Y-77772628D01*
X218430000Y-77772628D02*
X218401428Y-77886914D01*
X218401428Y-77886914D02*
X218372857Y-77944057D01*
X218372857Y-77944057D02*
X218315714Y-78001200D01*
X218315714Y-78001200D02*
X218230000Y-78029771D01*
X218230000Y-78029771D02*
X218087143Y-78029771D01*
X219001428Y-78029771D02*
X218658571Y-78029771D01*
X218830000Y-78029771D02*
X218830000Y-77429771D01*
X218830000Y-77429771D02*
X218772857Y-77515485D01*
X218772857Y-77515485D02*
X218715714Y-77572628D01*
X218715714Y-77572628D02*
X218658571Y-77601200D01*
%TO.C,R18*%
X132775571Y-85465914D02*
X132489857Y-85665914D01*
X132775571Y-85808771D02*
X132175571Y-85808771D01*
X132175571Y-85808771D02*
X132175571Y-85580200D01*
X132175571Y-85580200D02*
X132204142Y-85523057D01*
X132204142Y-85523057D02*
X132232714Y-85494486D01*
X132232714Y-85494486D02*
X132289857Y-85465914D01*
X132289857Y-85465914D02*
X132375571Y-85465914D01*
X132375571Y-85465914D02*
X132432714Y-85494486D01*
X132432714Y-85494486D02*
X132461285Y-85523057D01*
X132461285Y-85523057D02*
X132489857Y-85580200D01*
X132489857Y-85580200D02*
X132489857Y-85808771D01*
X132775571Y-84894486D02*
X132775571Y-85237343D01*
X132775571Y-85065914D02*
X132175571Y-85065914D01*
X132175571Y-85065914D02*
X132261285Y-85123057D01*
X132261285Y-85123057D02*
X132318428Y-85180200D01*
X132318428Y-85180200D02*
X132347000Y-85237343D01*
X132432714Y-84551628D02*
X132404142Y-84608771D01*
X132404142Y-84608771D02*
X132375571Y-84637342D01*
X132375571Y-84637342D02*
X132318428Y-84665914D01*
X132318428Y-84665914D02*
X132289857Y-84665914D01*
X132289857Y-84665914D02*
X132232714Y-84637342D01*
X132232714Y-84637342D02*
X132204142Y-84608771D01*
X132204142Y-84608771D02*
X132175571Y-84551628D01*
X132175571Y-84551628D02*
X132175571Y-84437342D01*
X132175571Y-84437342D02*
X132204142Y-84380200D01*
X132204142Y-84380200D02*
X132232714Y-84351628D01*
X132232714Y-84351628D02*
X132289857Y-84323057D01*
X132289857Y-84323057D02*
X132318428Y-84323057D01*
X132318428Y-84323057D02*
X132375571Y-84351628D01*
X132375571Y-84351628D02*
X132404142Y-84380200D01*
X132404142Y-84380200D02*
X132432714Y-84437342D01*
X132432714Y-84437342D02*
X132432714Y-84551628D01*
X132432714Y-84551628D02*
X132461285Y-84608771D01*
X132461285Y-84608771D02*
X132489857Y-84637342D01*
X132489857Y-84637342D02*
X132547000Y-84665914D01*
X132547000Y-84665914D02*
X132661285Y-84665914D01*
X132661285Y-84665914D02*
X132718428Y-84637342D01*
X132718428Y-84637342D02*
X132747000Y-84608771D01*
X132747000Y-84608771D02*
X132775571Y-84551628D01*
X132775571Y-84551628D02*
X132775571Y-84437342D01*
X132775571Y-84437342D02*
X132747000Y-84380200D01*
X132747000Y-84380200D02*
X132718428Y-84351628D01*
X132718428Y-84351628D02*
X132661285Y-84323057D01*
X132661285Y-84323057D02*
X132547000Y-84323057D01*
X132547000Y-84323057D02*
X132489857Y-84351628D01*
X132489857Y-84351628D02*
X132461285Y-84380200D01*
X132461285Y-84380200D02*
X132432714Y-84437342D01*
%TO.C,C1*%
X201770000Y-66602628D02*
X201741428Y-66631200D01*
X201741428Y-66631200D02*
X201655714Y-66659771D01*
X201655714Y-66659771D02*
X201598571Y-66659771D01*
X201598571Y-66659771D02*
X201512857Y-66631200D01*
X201512857Y-66631200D02*
X201455714Y-66574057D01*
X201455714Y-66574057D02*
X201427143Y-66516914D01*
X201427143Y-66516914D02*
X201398571Y-66402628D01*
X201398571Y-66402628D02*
X201398571Y-66316914D01*
X201398571Y-66316914D02*
X201427143Y-66202628D01*
X201427143Y-66202628D02*
X201455714Y-66145485D01*
X201455714Y-66145485D02*
X201512857Y-66088342D01*
X201512857Y-66088342D02*
X201598571Y-66059771D01*
X201598571Y-66059771D02*
X201655714Y-66059771D01*
X201655714Y-66059771D02*
X201741428Y-66088342D01*
X201741428Y-66088342D02*
X201770000Y-66116914D01*
X202341428Y-66659771D02*
X201998571Y-66659771D01*
X202170000Y-66659771D02*
X202170000Y-66059771D01*
X202170000Y-66059771D02*
X202112857Y-66145485D01*
X202112857Y-66145485D02*
X202055714Y-66202628D01*
X202055714Y-66202628D02*
X201998571Y-66231200D01*
%TO.C,R9*%
X226420000Y-71559771D02*
X226220000Y-71274057D01*
X226077143Y-71559771D02*
X226077143Y-70959771D01*
X226077143Y-70959771D02*
X226305714Y-70959771D01*
X226305714Y-70959771D02*
X226362857Y-70988342D01*
X226362857Y-70988342D02*
X226391428Y-71016914D01*
X226391428Y-71016914D02*
X226420000Y-71074057D01*
X226420000Y-71074057D02*
X226420000Y-71159771D01*
X226420000Y-71159771D02*
X226391428Y-71216914D01*
X226391428Y-71216914D02*
X226362857Y-71245485D01*
X226362857Y-71245485D02*
X226305714Y-71274057D01*
X226305714Y-71274057D02*
X226077143Y-71274057D01*
X226705714Y-71559771D02*
X226820000Y-71559771D01*
X226820000Y-71559771D02*
X226877143Y-71531200D01*
X226877143Y-71531200D02*
X226905714Y-71502628D01*
X226905714Y-71502628D02*
X226962857Y-71416914D01*
X226962857Y-71416914D02*
X226991428Y-71302628D01*
X226991428Y-71302628D02*
X226991428Y-71074057D01*
X226991428Y-71074057D02*
X226962857Y-71016914D01*
X226962857Y-71016914D02*
X226934286Y-70988342D01*
X226934286Y-70988342D02*
X226877143Y-70959771D01*
X226877143Y-70959771D02*
X226762857Y-70959771D01*
X226762857Y-70959771D02*
X226705714Y-70988342D01*
X226705714Y-70988342D02*
X226677143Y-71016914D01*
X226677143Y-71016914D02*
X226648571Y-71074057D01*
X226648571Y-71074057D02*
X226648571Y-71216914D01*
X226648571Y-71216914D02*
X226677143Y-71274057D01*
X226677143Y-71274057D02*
X226705714Y-71302628D01*
X226705714Y-71302628D02*
X226762857Y-71331200D01*
X226762857Y-71331200D02*
X226877143Y-71331200D01*
X226877143Y-71331200D02*
X226934286Y-71302628D01*
X226934286Y-71302628D02*
X226962857Y-71274057D01*
X226962857Y-71274057D02*
X226991428Y-71216914D01*
%TO.C,LED3*%
X112798571Y-57659771D02*
X112512857Y-57659771D01*
X112512857Y-57659771D02*
X112512857Y-57059771D01*
X112998571Y-57345485D02*
X113198571Y-57345485D01*
X113284285Y-57659771D02*
X112998571Y-57659771D01*
X112998571Y-57659771D02*
X112998571Y-57059771D01*
X112998571Y-57059771D02*
X113284285Y-57059771D01*
X113541428Y-57659771D02*
X113541428Y-57059771D01*
X113541428Y-57059771D02*
X113684285Y-57059771D01*
X113684285Y-57059771D02*
X113769999Y-57088342D01*
X113769999Y-57088342D02*
X113827142Y-57145485D01*
X113827142Y-57145485D02*
X113855713Y-57202628D01*
X113855713Y-57202628D02*
X113884285Y-57316914D01*
X113884285Y-57316914D02*
X113884285Y-57402628D01*
X113884285Y-57402628D02*
X113855713Y-57516914D01*
X113855713Y-57516914D02*
X113827142Y-57574057D01*
X113827142Y-57574057D02*
X113769999Y-57631200D01*
X113769999Y-57631200D02*
X113684285Y-57659771D01*
X113684285Y-57659771D02*
X113541428Y-57659771D01*
X114084285Y-57059771D02*
X114455713Y-57059771D01*
X114455713Y-57059771D02*
X114255713Y-57288342D01*
X114255713Y-57288342D02*
X114341428Y-57288342D01*
X114341428Y-57288342D02*
X114398571Y-57316914D01*
X114398571Y-57316914D02*
X114427142Y-57345485D01*
X114427142Y-57345485D02*
X114455713Y-57402628D01*
X114455713Y-57402628D02*
X114455713Y-57545485D01*
X114455713Y-57545485D02*
X114427142Y-57602628D01*
X114427142Y-57602628D02*
X114398571Y-57631200D01*
X114398571Y-57631200D02*
X114341428Y-57659771D01*
X114341428Y-57659771D02*
X114169999Y-57659771D01*
X114169999Y-57659771D02*
X114112856Y-57631200D01*
X114112856Y-57631200D02*
X114084285Y-57602628D01*
%TO.C,C14*%
X156984285Y-54912628D02*
X156955713Y-54941200D01*
X156955713Y-54941200D02*
X156869999Y-54969771D01*
X156869999Y-54969771D02*
X156812856Y-54969771D01*
X156812856Y-54969771D02*
X156727142Y-54941200D01*
X156727142Y-54941200D02*
X156669999Y-54884057D01*
X156669999Y-54884057D02*
X156641428Y-54826914D01*
X156641428Y-54826914D02*
X156612856Y-54712628D01*
X156612856Y-54712628D02*
X156612856Y-54626914D01*
X156612856Y-54626914D02*
X156641428Y-54512628D01*
X156641428Y-54512628D02*
X156669999Y-54455485D01*
X156669999Y-54455485D02*
X156727142Y-54398342D01*
X156727142Y-54398342D02*
X156812856Y-54369771D01*
X156812856Y-54369771D02*
X156869999Y-54369771D01*
X156869999Y-54369771D02*
X156955713Y-54398342D01*
X156955713Y-54398342D02*
X156984285Y-54426914D01*
X157555713Y-54969771D02*
X157212856Y-54969771D01*
X157384285Y-54969771D02*
X157384285Y-54369771D01*
X157384285Y-54369771D02*
X157327142Y-54455485D01*
X157327142Y-54455485D02*
X157269999Y-54512628D01*
X157269999Y-54512628D02*
X157212856Y-54541200D01*
X158070000Y-54569771D02*
X158070000Y-54969771D01*
X157927142Y-54341200D02*
X157784285Y-54769771D01*
X157784285Y-54769771D02*
X158155714Y-54769771D01*
%TO.C,R6*%
X168963333Y-61746033D02*
X168730000Y-61412700D01*
X168563333Y-61746033D02*
X168563333Y-61046033D01*
X168563333Y-61046033D02*
X168830000Y-61046033D01*
X168830000Y-61046033D02*
X168896667Y-61079366D01*
X168896667Y-61079366D02*
X168930000Y-61112700D01*
X168930000Y-61112700D02*
X168963333Y-61179366D01*
X168963333Y-61179366D02*
X168963333Y-61279366D01*
X168963333Y-61279366D02*
X168930000Y-61346033D01*
X168930000Y-61346033D02*
X168896667Y-61379366D01*
X168896667Y-61379366D02*
X168830000Y-61412700D01*
X168830000Y-61412700D02*
X168563333Y-61412700D01*
X169563333Y-61046033D02*
X169430000Y-61046033D01*
X169430000Y-61046033D02*
X169363333Y-61079366D01*
X169363333Y-61079366D02*
X169330000Y-61112700D01*
X169330000Y-61112700D02*
X169263333Y-61212700D01*
X169263333Y-61212700D02*
X169230000Y-61346033D01*
X169230000Y-61346033D02*
X169230000Y-61612700D01*
X169230000Y-61612700D02*
X169263333Y-61679366D01*
X169263333Y-61679366D02*
X169296667Y-61712700D01*
X169296667Y-61712700D02*
X169363333Y-61746033D01*
X169363333Y-61746033D02*
X169496667Y-61746033D01*
X169496667Y-61746033D02*
X169563333Y-61712700D01*
X169563333Y-61712700D02*
X169596667Y-61679366D01*
X169596667Y-61679366D02*
X169630000Y-61612700D01*
X169630000Y-61612700D02*
X169630000Y-61446033D01*
X169630000Y-61446033D02*
X169596667Y-61379366D01*
X169596667Y-61379366D02*
X169563333Y-61346033D01*
X169563333Y-61346033D02*
X169496667Y-61312700D01*
X169496667Y-61312700D02*
X169363333Y-61312700D01*
X169363333Y-61312700D02*
X169296667Y-61346033D01*
X169296667Y-61346033D02*
X169263333Y-61379366D01*
X169263333Y-61379366D02*
X169230000Y-61446033D01*
%TO.C,Q1*%
X138746914Y-90357142D02*
X138718342Y-90414285D01*
X138718342Y-90414285D02*
X138661200Y-90471428D01*
X138661200Y-90471428D02*
X138575485Y-90557142D01*
X138575485Y-90557142D02*
X138546914Y-90614285D01*
X138546914Y-90614285D02*
X138546914Y-90671428D01*
X138689771Y-90642857D02*
X138661200Y-90700000D01*
X138661200Y-90700000D02*
X138604057Y-90757142D01*
X138604057Y-90757142D02*
X138489771Y-90785714D01*
X138489771Y-90785714D02*
X138289771Y-90785714D01*
X138289771Y-90785714D02*
X138175485Y-90757142D01*
X138175485Y-90757142D02*
X138118342Y-90700000D01*
X138118342Y-90700000D02*
X138089771Y-90642857D01*
X138089771Y-90642857D02*
X138089771Y-90528571D01*
X138089771Y-90528571D02*
X138118342Y-90471428D01*
X138118342Y-90471428D02*
X138175485Y-90414285D01*
X138175485Y-90414285D02*
X138289771Y-90385714D01*
X138289771Y-90385714D02*
X138489771Y-90385714D01*
X138489771Y-90385714D02*
X138604057Y-90414285D01*
X138604057Y-90414285D02*
X138661200Y-90471428D01*
X138661200Y-90471428D02*
X138689771Y-90528571D01*
X138689771Y-90528571D02*
X138689771Y-90642857D01*
X138689771Y-89814286D02*
X138689771Y-90157143D01*
X138689771Y-89985714D02*
X138089771Y-89985714D01*
X138089771Y-89985714D02*
X138175485Y-90042857D01*
X138175485Y-90042857D02*
X138232628Y-90100000D01*
X138232628Y-90100000D02*
X138261200Y-90157143D01*
%TO.C,C23*%
X138922628Y-58695714D02*
X138951200Y-58724286D01*
X138951200Y-58724286D02*
X138979771Y-58810000D01*
X138979771Y-58810000D02*
X138979771Y-58867143D01*
X138979771Y-58867143D02*
X138951200Y-58952857D01*
X138951200Y-58952857D02*
X138894057Y-59010000D01*
X138894057Y-59010000D02*
X138836914Y-59038571D01*
X138836914Y-59038571D02*
X138722628Y-59067143D01*
X138722628Y-59067143D02*
X138636914Y-59067143D01*
X138636914Y-59067143D02*
X138522628Y-59038571D01*
X138522628Y-59038571D02*
X138465485Y-59010000D01*
X138465485Y-59010000D02*
X138408342Y-58952857D01*
X138408342Y-58952857D02*
X138379771Y-58867143D01*
X138379771Y-58867143D02*
X138379771Y-58810000D01*
X138379771Y-58810000D02*
X138408342Y-58724286D01*
X138408342Y-58724286D02*
X138436914Y-58695714D01*
X138436914Y-58467143D02*
X138408342Y-58438571D01*
X138408342Y-58438571D02*
X138379771Y-58381429D01*
X138379771Y-58381429D02*
X138379771Y-58238571D01*
X138379771Y-58238571D02*
X138408342Y-58181429D01*
X138408342Y-58181429D02*
X138436914Y-58152857D01*
X138436914Y-58152857D02*
X138494057Y-58124286D01*
X138494057Y-58124286D02*
X138551200Y-58124286D01*
X138551200Y-58124286D02*
X138636914Y-58152857D01*
X138636914Y-58152857D02*
X138979771Y-58495714D01*
X138979771Y-58495714D02*
X138979771Y-58124286D01*
X138379771Y-57924285D02*
X138379771Y-57552857D01*
X138379771Y-57552857D02*
X138608342Y-57752857D01*
X138608342Y-57752857D02*
X138608342Y-57667142D01*
X138608342Y-57667142D02*
X138636914Y-57610000D01*
X138636914Y-57610000D02*
X138665485Y-57581428D01*
X138665485Y-57581428D02*
X138722628Y-57552857D01*
X138722628Y-57552857D02*
X138865485Y-57552857D01*
X138865485Y-57552857D02*
X138922628Y-57581428D01*
X138922628Y-57581428D02*
X138951200Y-57610000D01*
X138951200Y-57610000D02*
X138979771Y-57667142D01*
X138979771Y-57667142D02*
X138979771Y-57838571D01*
X138979771Y-57838571D02*
X138951200Y-57895714D01*
X138951200Y-57895714D02*
X138922628Y-57924285D01*
%TO.C,H3*%
X205438895Y-103646819D02*
X205438895Y-102646819D01*
X205438895Y-103123009D02*
X206010323Y-103123009D01*
X206010323Y-103646819D02*
X206010323Y-102646819D01*
X206391276Y-102646819D02*
X207010323Y-102646819D01*
X207010323Y-102646819D02*
X206676990Y-103027771D01*
X206676990Y-103027771D02*
X206819847Y-103027771D01*
X206819847Y-103027771D02*
X206915085Y-103075390D01*
X206915085Y-103075390D02*
X206962704Y-103123009D01*
X206962704Y-103123009D02*
X207010323Y-103218247D01*
X207010323Y-103218247D02*
X207010323Y-103456342D01*
X207010323Y-103456342D02*
X206962704Y-103551580D01*
X206962704Y-103551580D02*
X206915085Y-103599200D01*
X206915085Y-103599200D02*
X206819847Y-103646819D01*
X206819847Y-103646819D02*
X206534133Y-103646819D01*
X206534133Y-103646819D02*
X206438895Y-103599200D01*
X206438895Y-103599200D02*
X206391276Y-103551580D01*
%TO.C,F1*%
X141365485Y-91659999D02*
X141365485Y-91859999D01*
X141679771Y-91859999D02*
X141079771Y-91859999D01*
X141079771Y-91859999D02*
X141079771Y-91574285D01*
X141679771Y-91031428D02*
X141679771Y-91374285D01*
X141679771Y-91202856D02*
X141079771Y-91202856D01*
X141079771Y-91202856D02*
X141165485Y-91259999D01*
X141165485Y-91259999D02*
X141222628Y-91317142D01*
X141222628Y-91317142D02*
X141251200Y-91374285D01*
%TO.C,C3*%
X194522628Y-68746699D02*
X194551200Y-68775271D01*
X194551200Y-68775271D02*
X194579771Y-68860985D01*
X194579771Y-68860985D02*
X194579771Y-68918128D01*
X194579771Y-68918128D02*
X194551200Y-69003842D01*
X194551200Y-69003842D02*
X194494057Y-69060985D01*
X194494057Y-69060985D02*
X194436914Y-69089556D01*
X194436914Y-69089556D02*
X194322628Y-69118128D01*
X194322628Y-69118128D02*
X194236914Y-69118128D01*
X194236914Y-69118128D02*
X194122628Y-69089556D01*
X194122628Y-69089556D02*
X194065485Y-69060985D01*
X194065485Y-69060985D02*
X194008342Y-69003842D01*
X194008342Y-69003842D02*
X193979771Y-68918128D01*
X193979771Y-68918128D02*
X193979771Y-68860985D01*
X193979771Y-68860985D02*
X194008342Y-68775271D01*
X194008342Y-68775271D02*
X194036914Y-68746699D01*
X193979771Y-68546699D02*
X193979771Y-68175271D01*
X193979771Y-68175271D02*
X194208342Y-68375271D01*
X194208342Y-68375271D02*
X194208342Y-68289556D01*
X194208342Y-68289556D02*
X194236914Y-68232414D01*
X194236914Y-68232414D02*
X194265485Y-68203842D01*
X194265485Y-68203842D02*
X194322628Y-68175271D01*
X194322628Y-68175271D02*
X194465485Y-68175271D01*
X194465485Y-68175271D02*
X194522628Y-68203842D01*
X194522628Y-68203842D02*
X194551200Y-68232414D01*
X194551200Y-68232414D02*
X194579771Y-68289556D01*
X194579771Y-68289556D02*
X194579771Y-68460985D01*
X194579771Y-68460985D02*
X194551200Y-68518128D01*
X194551200Y-68518128D02*
X194522628Y-68546699D01*
%TO.C,J4*%
X186376666Y-96644819D02*
X186376666Y-97359104D01*
X186376666Y-97359104D02*
X186329047Y-97501961D01*
X186329047Y-97501961D02*
X186233809Y-97597200D01*
X186233809Y-97597200D02*
X186090952Y-97644819D01*
X186090952Y-97644819D02*
X185995714Y-97644819D01*
X187281428Y-96978152D02*
X187281428Y-97644819D01*
X187043333Y-96597200D02*
X186805238Y-97311485D01*
X186805238Y-97311485D02*
X187424285Y-97311485D01*
%TO.C,C25*%
X194092628Y-78655714D02*
X194121200Y-78684286D01*
X194121200Y-78684286D02*
X194149771Y-78770000D01*
X194149771Y-78770000D02*
X194149771Y-78827143D01*
X194149771Y-78827143D02*
X194121200Y-78912857D01*
X194121200Y-78912857D02*
X194064057Y-78970000D01*
X194064057Y-78970000D02*
X194006914Y-78998571D01*
X194006914Y-78998571D02*
X193892628Y-79027143D01*
X193892628Y-79027143D02*
X193806914Y-79027143D01*
X193806914Y-79027143D02*
X193692628Y-78998571D01*
X193692628Y-78998571D02*
X193635485Y-78970000D01*
X193635485Y-78970000D02*
X193578342Y-78912857D01*
X193578342Y-78912857D02*
X193549771Y-78827143D01*
X193549771Y-78827143D02*
X193549771Y-78770000D01*
X193549771Y-78770000D02*
X193578342Y-78684286D01*
X193578342Y-78684286D02*
X193606914Y-78655714D01*
X193606914Y-78427143D02*
X193578342Y-78398571D01*
X193578342Y-78398571D02*
X193549771Y-78341429D01*
X193549771Y-78341429D02*
X193549771Y-78198571D01*
X193549771Y-78198571D02*
X193578342Y-78141429D01*
X193578342Y-78141429D02*
X193606914Y-78112857D01*
X193606914Y-78112857D02*
X193664057Y-78084286D01*
X193664057Y-78084286D02*
X193721200Y-78084286D01*
X193721200Y-78084286D02*
X193806914Y-78112857D01*
X193806914Y-78112857D02*
X194149771Y-78455714D01*
X194149771Y-78455714D02*
X194149771Y-78084286D01*
X193549771Y-77541428D02*
X193549771Y-77827142D01*
X193549771Y-77827142D02*
X193835485Y-77855714D01*
X193835485Y-77855714D02*
X193806914Y-77827142D01*
X193806914Y-77827142D02*
X193778342Y-77770000D01*
X193778342Y-77770000D02*
X193778342Y-77627142D01*
X193778342Y-77627142D02*
X193806914Y-77570000D01*
X193806914Y-77570000D02*
X193835485Y-77541428D01*
X193835485Y-77541428D02*
X193892628Y-77512857D01*
X193892628Y-77512857D02*
X194035485Y-77512857D01*
X194035485Y-77512857D02*
X194092628Y-77541428D01*
X194092628Y-77541428D02*
X194121200Y-77570000D01*
X194121200Y-77570000D02*
X194149771Y-77627142D01*
X194149771Y-77627142D02*
X194149771Y-77770000D01*
X194149771Y-77770000D02*
X194121200Y-77827142D01*
X194121200Y-77827142D02*
X194092628Y-77855714D01*
%TO.C,C15*%
X224694285Y-66422628D02*
X224665713Y-66451200D01*
X224665713Y-66451200D02*
X224579999Y-66479771D01*
X224579999Y-66479771D02*
X224522856Y-66479771D01*
X224522856Y-66479771D02*
X224437142Y-66451200D01*
X224437142Y-66451200D02*
X224379999Y-66394057D01*
X224379999Y-66394057D02*
X224351428Y-66336914D01*
X224351428Y-66336914D02*
X224322856Y-66222628D01*
X224322856Y-66222628D02*
X224322856Y-66136914D01*
X224322856Y-66136914D02*
X224351428Y-66022628D01*
X224351428Y-66022628D02*
X224379999Y-65965485D01*
X224379999Y-65965485D02*
X224437142Y-65908342D01*
X224437142Y-65908342D02*
X224522856Y-65879771D01*
X224522856Y-65879771D02*
X224579999Y-65879771D01*
X224579999Y-65879771D02*
X224665713Y-65908342D01*
X224665713Y-65908342D02*
X224694285Y-65936914D01*
X225265713Y-66479771D02*
X224922856Y-66479771D01*
X225094285Y-66479771D02*
X225094285Y-65879771D01*
X225094285Y-65879771D02*
X225037142Y-65965485D01*
X225037142Y-65965485D02*
X224979999Y-66022628D01*
X224979999Y-66022628D02*
X224922856Y-66051200D01*
X225808571Y-65879771D02*
X225522857Y-65879771D01*
X225522857Y-65879771D02*
X225494285Y-66165485D01*
X225494285Y-66165485D02*
X225522857Y-66136914D01*
X225522857Y-66136914D02*
X225580000Y-66108342D01*
X225580000Y-66108342D02*
X225722857Y-66108342D01*
X225722857Y-66108342D02*
X225780000Y-66136914D01*
X225780000Y-66136914D02*
X225808571Y-66165485D01*
X225808571Y-66165485D02*
X225837142Y-66222628D01*
X225837142Y-66222628D02*
X225837142Y-66365485D01*
X225837142Y-66365485D02*
X225808571Y-66422628D01*
X225808571Y-66422628D02*
X225780000Y-66451200D01*
X225780000Y-66451200D02*
X225722857Y-66479771D01*
X225722857Y-66479771D02*
X225580000Y-66479771D01*
X225580000Y-66479771D02*
X225522857Y-66451200D01*
X225522857Y-66451200D02*
X225494285Y-66422628D01*
%TO.C,J2*%
X198666666Y-95054819D02*
X198666666Y-95769104D01*
X198666666Y-95769104D02*
X198619047Y-95911961D01*
X198619047Y-95911961D02*
X198523809Y-96007200D01*
X198523809Y-96007200D02*
X198380952Y-96054819D01*
X198380952Y-96054819D02*
X198285714Y-96054819D01*
X199095238Y-95150057D02*
X199142857Y-95102438D01*
X199142857Y-95102438D02*
X199238095Y-95054819D01*
X199238095Y-95054819D02*
X199476190Y-95054819D01*
X199476190Y-95054819D02*
X199571428Y-95102438D01*
X199571428Y-95102438D02*
X199619047Y-95150057D01*
X199619047Y-95150057D02*
X199666666Y-95245295D01*
X199666666Y-95245295D02*
X199666666Y-95340533D01*
X199666666Y-95340533D02*
X199619047Y-95483390D01*
X199619047Y-95483390D02*
X199047619Y-96054819D01*
X199047619Y-96054819D02*
X199666666Y-96054819D01*
D10*
%TO.C,R16*%
X115964809Y-71191428D02*
X115726714Y-71358094D01*
X115964809Y-71477142D02*
X115464809Y-71477142D01*
X115464809Y-71477142D02*
X115464809Y-71286666D01*
X115464809Y-71286666D02*
X115488619Y-71239047D01*
X115488619Y-71239047D02*
X115512428Y-71215237D01*
X115512428Y-71215237D02*
X115560047Y-71191428D01*
X115560047Y-71191428D02*
X115631476Y-71191428D01*
X115631476Y-71191428D02*
X115679095Y-71215237D01*
X115679095Y-71215237D02*
X115702904Y-71239047D01*
X115702904Y-71239047D02*
X115726714Y-71286666D01*
X115726714Y-71286666D02*
X115726714Y-71477142D01*
X115964809Y-70715237D02*
X115964809Y-71000951D01*
X115964809Y-70858094D02*
X115464809Y-70858094D01*
X115464809Y-70858094D02*
X115536238Y-70905713D01*
X115536238Y-70905713D02*
X115583857Y-70953332D01*
X115583857Y-70953332D02*
X115607666Y-71000951D01*
X115464809Y-70286666D02*
X115464809Y-70381904D01*
X115464809Y-70381904D02*
X115488619Y-70429523D01*
X115488619Y-70429523D02*
X115512428Y-70453333D01*
X115512428Y-70453333D02*
X115583857Y-70500952D01*
X115583857Y-70500952D02*
X115679095Y-70524761D01*
X115679095Y-70524761D02*
X115869571Y-70524761D01*
X115869571Y-70524761D02*
X115917190Y-70500952D01*
X115917190Y-70500952D02*
X115941000Y-70477142D01*
X115941000Y-70477142D02*
X115964809Y-70429523D01*
X115964809Y-70429523D02*
X115964809Y-70334285D01*
X115964809Y-70334285D02*
X115941000Y-70286666D01*
X115941000Y-70286666D02*
X115917190Y-70262857D01*
X115917190Y-70262857D02*
X115869571Y-70239047D01*
X115869571Y-70239047D02*
X115750523Y-70239047D01*
X115750523Y-70239047D02*
X115702904Y-70262857D01*
X115702904Y-70262857D02*
X115679095Y-70286666D01*
X115679095Y-70286666D02*
X115655285Y-70334285D01*
X115655285Y-70334285D02*
X115655285Y-70429523D01*
X115655285Y-70429523D02*
X115679095Y-70477142D01*
X115679095Y-70477142D02*
X115702904Y-70500952D01*
X115702904Y-70500952D02*
X115750523Y-70524761D01*
D12*
%TO.C,R5*%
X164943333Y-61786033D02*
X164710000Y-61452700D01*
X164543333Y-61786033D02*
X164543333Y-61086033D01*
X164543333Y-61086033D02*
X164810000Y-61086033D01*
X164810000Y-61086033D02*
X164876667Y-61119366D01*
X164876667Y-61119366D02*
X164910000Y-61152700D01*
X164910000Y-61152700D02*
X164943333Y-61219366D01*
X164943333Y-61219366D02*
X164943333Y-61319366D01*
X164943333Y-61319366D02*
X164910000Y-61386033D01*
X164910000Y-61386033D02*
X164876667Y-61419366D01*
X164876667Y-61419366D02*
X164810000Y-61452700D01*
X164810000Y-61452700D02*
X164543333Y-61452700D01*
X165576667Y-61086033D02*
X165243333Y-61086033D01*
X165243333Y-61086033D02*
X165210000Y-61419366D01*
X165210000Y-61419366D02*
X165243333Y-61386033D01*
X165243333Y-61386033D02*
X165310000Y-61352700D01*
X165310000Y-61352700D02*
X165476667Y-61352700D01*
X165476667Y-61352700D02*
X165543333Y-61386033D01*
X165543333Y-61386033D02*
X165576667Y-61419366D01*
X165576667Y-61419366D02*
X165610000Y-61486033D01*
X165610000Y-61486033D02*
X165610000Y-61652700D01*
X165610000Y-61652700D02*
X165576667Y-61719366D01*
X165576667Y-61719366D02*
X165543333Y-61752700D01*
X165543333Y-61752700D02*
X165476667Y-61786033D01*
X165476667Y-61786033D02*
X165310000Y-61786033D01*
X165310000Y-61786033D02*
X165243333Y-61752700D01*
X165243333Y-61752700D02*
X165210000Y-61719366D01*
%TO.C,J8*%
X209856666Y-95324819D02*
X209856666Y-96039104D01*
X209856666Y-96039104D02*
X209809047Y-96181961D01*
X209809047Y-96181961D02*
X209713809Y-96277200D01*
X209713809Y-96277200D02*
X209570952Y-96324819D01*
X209570952Y-96324819D02*
X209475714Y-96324819D01*
X210475714Y-95753390D02*
X210380476Y-95705771D01*
X210380476Y-95705771D02*
X210332857Y-95658152D01*
X210332857Y-95658152D02*
X210285238Y-95562914D01*
X210285238Y-95562914D02*
X210285238Y-95515295D01*
X210285238Y-95515295D02*
X210332857Y-95420057D01*
X210332857Y-95420057D02*
X210380476Y-95372438D01*
X210380476Y-95372438D02*
X210475714Y-95324819D01*
X210475714Y-95324819D02*
X210666190Y-95324819D01*
X210666190Y-95324819D02*
X210761428Y-95372438D01*
X210761428Y-95372438D02*
X210809047Y-95420057D01*
X210809047Y-95420057D02*
X210856666Y-95515295D01*
X210856666Y-95515295D02*
X210856666Y-95562914D01*
X210856666Y-95562914D02*
X210809047Y-95658152D01*
X210809047Y-95658152D02*
X210761428Y-95705771D01*
X210761428Y-95705771D02*
X210666190Y-95753390D01*
X210666190Y-95753390D02*
X210475714Y-95753390D01*
X210475714Y-95753390D02*
X210380476Y-95801009D01*
X210380476Y-95801009D02*
X210332857Y-95848628D01*
X210332857Y-95848628D02*
X210285238Y-95943866D01*
X210285238Y-95943866D02*
X210285238Y-96134342D01*
X210285238Y-96134342D02*
X210332857Y-96229580D01*
X210332857Y-96229580D02*
X210380476Y-96277200D01*
X210380476Y-96277200D02*
X210475714Y-96324819D01*
X210475714Y-96324819D02*
X210666190Y-96324819D01*
X210666190Y-96324819D02*
X210761428Y-96277200D01*
X210761428Y-96277200D02*
X210809047Y-96229580D01*
X210809047Y-96229580D02*
X210856666Y-96134342D01*
X210856666Y-96134342D02*
X210856666Y-95943866D01*
X210856666Y-95943866D02*
X210809047Y-95848628D01*
X210809047Y-95848628D02*
X210761428Y-95801009D01*
X210761428Y-95801009D02*
X210666190Y-95753390D01*
%TO.C,C9*%
X194792628Y-82919999D02*
X194821200Y-82948571D01*
X194821200Y-82948571D02*
X194849771Y-83034285D01*
X194849771Y-83034285D02*
X194849771Y-83091428D01*
X194849771Y-83091428D02*
X194821200Y-83177142D01*
X194821200Y-83177142D02*
X194764057Y-83234285D01*
X194764057Y-83234285D02*
X194706914Y-83262856D01*
X194706914Y-83262856D02*
X194592628Y-83291428D01*
X194592628Y-83291428D02*
X194506914Y-83291428D01*
X194506914Y-83291428D02*
X194392628Y-83262856D01*
X194392628Y-83262856D02*
X194335485Y-83234285D01*
X194335485Y-83234285D02*
X194278342Y-83177142D01*
X194278342Y-83177142D02*
X194249771Y-83091428D01*
X194249771Y-83091428D02*
X194249771Y-83034285D01*
X194249771Y-83034285D02*
X194278342Y-82948571D01*
X194278342Y-82948571D02*
X194306914Y-82919999D01*
X194849771Y-82634285D02*
X194849771Y-82519999D01*
X194849771Y-82519999D02*
X194821200Y-82462856D01*
X194821200Y-82462856D02*
X194792628Y-82434285D01*
X194792628Y-82434285D02*
X194706914Y-82377142D01*
X194706914Y-82377142D02*
X194592628Y-82348571D01*
X194592628Y-82348571D02*
X194364057Y-82348571D01*
X194364057Y-82348571D02*
X194306914Y-82377142D01*
X194306914Y-82377142D02*
X194278342Y-82405714D01*
X194278342Y-82405714D02*
X194249771Y-82462856D01*
X194249771Y-82462856D02*
X194249771Y-82577142D01*
X194249771Y-82577142D02*
X194278342Y-82634285D01*
X194278342Y-82634285D02*
X194306914Y-82662856D01*
X194306914Y-82662856D02*
X194364057Y-82691428D01*
X194364057Y-82691428D02*
X194506914Y-82691428D01*
X194506914Y-82691428D02*
X194564057Y-82662856D01*
X194564057Y-82662856D02*
X194592628Y-82634285D01*
X194592628Y-82634285D02*
X194621200Y-82577142D01*
X194621200Y-82577142D02*
X194621200Y-82462856D01*
X194621200Y-82462856D02*
X194592628Y-82405714D01*
X194592628Y-82405714D02*
X194564057Y-82377142D01*
X194564057Y-82377142D02*
X194506914Y-82348571D01*
%TO.C,R17*%
X135049771Y-74405714D02*
X134764057Y-74605714D01*
X135049771Y-74748571D02*
X134449771Y-74748571D01*
X134449771Y-74748571D02*
X134449771Y-74520000D01*
X134449771Y-74520000D02*
X134478342Y-74462857D01*
X134478342Y-74462857D02*
X134506914Y-74434286D01*
X134506914Y-74434286D02*
X134564057Y-74405714D01*
X134564057Y-74405714D02*
X134649771Y-74405714D01*
X134649771Y-74405714D02*
X134706914Y-74434286D01*
X134706914Y-74434286D02*
X134735485Y-74462857D01*
X134735485Y-74462857D02*
X134764057Y-74520000D01*
X134764057Y-74520000D02*
X134764057Y-74748571D01*
X135049771Y-73834286D02*
X135049771Y-74177143D01*
X135049771Y-74005714D02*
X134449771Y-74005714D01*
X134449771Y-74005714D02*
X134535485Y-74062857D01*
X134535485Y-74062857D02*
X134592628Y-74120000D01*
X134592628Y-74120000D02*
X134621200Y-74177143D01*
X134449771Y-73634285D02*
X134449771Y-73234285D01*
X134449771Y-73234285D02*
X135049771Y-73491428D01*
%TO.C,J3*%
X190266666Y-96604819D02*
X190266666Y-97319104D01*
X190266666Y-97319104D02*
X190219047Y-97461961D01*
X190219047Y-97461961D02*
X190123809Y-97557200D01*
X190123809Y-97557200D02*
X189980952Y-97604819D01*
X189980952Y-97604819D02*
X189885714Y-97604819D01*
X190647619Y-96604819D02*
X191266666Y-96604819D01*
X191266666Y-96604819D02*
X190933333Y-96985771D01*
X190933333Y-96985771D02*
X191076190Y-96985771D01*
X191076190Y-96985771D02*
X191171428Y-97033390D01*
X191171428Y-97033390D02*
X191219047Y-97081009D01*
X191219047Y-97081009D02*
X191266666Y-97176247D01*
X191266666Y-97176247D02*
X191266666Y-97414342D01*
X191266666Y-97414342D02*
X191219047Y-97509580D01*
X191219047Y-97509580D02*
X191171428Y-97557200D01*
X191171428Y-97557200D02*
X191076190Y-97604819D01*
X191076190Y-97604819D02*
X190790476Y-97604819D01*
X190790476Y-97604819D02*
X190695238Y-97557200D01*
X190695238Y-97557200D02*
X190647619Y-97509580D01*
%TO.C,U5*%
X118706666Y-67216033D02*
X118706666Y-67782700D01*
X118706666Y-67782700D02*
X118740000Y-67849366D01*
X118740000Y-67849366D02*
X118773333Y-67882700D01*
X118773333Y-67882700D02*
X118840000Y-67916033D01*
X118840000Y-67916033D02*
X118973333Y-67916033D01*
X118973333Y-67916033D02*
X119040000Y-67882700D01*
X119040000Y-67882700D02*
X119073333Y-67849366D01*
X119073333Y-67849366D02*
X119106666Y-67782700D01*
X119106666Y-67782700D02*
X119106666Y-67216033D01*
X119773333Y-67216033D02*
X119439999Y-67216033D01*
X119439999Y-67216033D02*
X119406666Y-67549366D01*
X119406666Y-67549366D02*
X119439999Y-67516033D01*
X119439999Y-67516033D02*
X119506666Y-67482700D01*
X119506666Y-67482700D02*
X119673333Y-67482700D01*
X119673333Y-67482700D02*
X119739999Y-67516033D01*
X119739999Y-67516033D02*
X119773333Y-67549366D01*
X119773333Y-67549366D02*
X119806666Y-67616033D01*
X119806666Y-67616033D02*
X119806666Y-67782700D01*
X119806666Y-67782700D02*
X119773333Y-67849366D01*
X119773333Y-67849366D02*
X119739999Y-67882700D01*
X119739999Y-67882700D02*
X119673333Y-67916033D01*
X119673333Y-67916033D02*
X119506666Y-67916033D01*
X119506666Y-67916033D02*
X119439999Y-67882700D01*
X119439999Y-67882700D02*
X119406666Y-67849366D01*
%TO.C,R11*%
X167667142Y-92774819D02*
X167333809Y-92298628D01*
X167095714Y-92774819D02*
X167095714Y-91774819D01*
X167095714Y-91774819D02*
X167476666Y-91774819D01*
X167476666Y-91774819D02*
X167571904Y-91822438D01*
X167571904Y-91822438D02*
X167619523Y-91870057D01*
X167619523Y-91870057D02*
X167667142Y-91965295D01*
X167667142Y-91965295D02*
X167667142Y-92108152D01*
X167667142Y-92108152D02*
X167619523Y-92203390D01*
X167619523Y-92203390D02*
X167571904Y-92251009D01*
X167571904Y-92251009D02*
X167476666Y-92298628D01*
X167476666Y-92298628D02*
X167095714Y-92298628D01*
X168619523Y-92774819D02*
X168048095Y-92774819D01*
X168333809Y-92774819D02*
X168333809Y-91774819D01*
X168333809Y-91774819D02*
X168238571Y-91917676D01*
X168238571Y-91917676D02*
X168143333Y-92012914D01*
X168143333Y-92012914D02*
X168048095Y-92060533D01*
X169571904Y-92774819D02*
X169000476Y-92774819D01*
X169286190Y-92774819D02*
X169286190Y-91774819D01*
X169286190Y-91774819D02*
X169190952Y-91917676D01*
X169190952Y-91917676D02*
X169095714Y-92012914D01*
X169095714Y-92012914D02*
X169000476Y-92060533D01*
%TO.C,C4*%
X216475828Y-71018299D02*
X216504400Y-71046871D01*
X216504400Y-71046871D02*
X216532971Y-71132585D01*
X216532971Y-71132585D02*
X216532971Y-71189728D01*
X216532971Y-71189728D02*
X216504400Y-71275442D01*
X216504400Y-71275442D02*
X216447257Y-71332585D01*
X216447257Y-71332585D02*
X216390114Y-71361156D01*
X216390114Y-71361156D02*
X216275828Y-71389728D01*
X216275828Y-71389728D02*
X216190114Y-71389728D01*
X216190114Y-71389728D02*
X216075828Y-71361156D01*
X216075828Y-71361156D02*
X216018685Y-71332585D01*
X216018685Y-71332585D02*
X215961542Y-71275442D01*
X215961542Y-71275442D02*
X215932971Y-71189728D01*
X215932971Y-71189728D02*
X215932971Y-71132585D01*
X215932971Y-71132585D02*
X215961542Y-71046871D01*
X215961542Y-71046871D02*
X215990114Y-71018299D01*
X216132971Y-70504014D02*
X216532971Y-70504014D01*
X215904400Y-70646871D02*
X216332971Y-70789728D01*
X216332971Y-70789728D02*
X216332971Y-70418299D01*
D10*
%TO.C,R7*%
X166446666Y-51724809D02*
X166280000Y-51486714D01*
X166160952Y-51724809D02*
X166160952Y-51224809D01*
X166160952Y-51224809D02*
X166351428Y-51224809D01*
X166351428Y-51224809D02*
X166399047Y-51248619D01*
X166399047Y-51248619D02*
X166422857Y-51272428D01*
X166422857Y-51272428D02*
X166446666Y-51320047D01*
X166446666Y-51320047D02*
X166446666Y-51391476D01*
X166446666Y-51391476D02*
X166422857Y-51439095D01*
X166422857Y-51439095D02*
X166399047Y-51462904D01*
X166399047Y-51462904D02*
X166351428Y-51486714D01*
X166351428Y-51486714D02*
X166160952Y-51486714D01*
X166613333Y-51224809D02*
X166946666Y-51224809D01*
X166946666Y-51224809D02*
X166732381Y-51724809D01*
D12*
%TO.C,R19*%
X138429771Y-84755714D02*
X138144057Y-84955714D01*
X138429771Y-85098571D02*
X137829771Y-85098571D01*
X137829771Y-85098571D02*
X137829771Y-84870000D01*
X137829771Y-84870000D02*
X137858342Y-84812857D01*
X137858342Y-84812857D02*
X137886914Y-84784286D01*
X137886914Y-84784286D02*
X137944057Y-84755714D01*
X137944057Y-84755714D02*
X138029771Y-84755714D01*
X138029771Y-84755714D02*
X138086914Y-84784286D01*
X138086914Y-84784286D02*
X138115485Y-84812857D01*
X138115485Y-84812857D02*
X138144057Y-84870000D01*
X138144057Y-84870000D02*
X138144057Y-85098571D01*
X138429771Y-84184286D02*
X138429771Y-84527143D01*
X138429771Y-84355714D02*
X137829771Y-84355714D01*
X137829771Y-84355714D02*
X137915485Y-84412857D01*
X137915485Y-84412857D02*
X137972628Y-84470000D01*
X137972628Y-84470000D02*
X138001200Y-84527143D01*
X138429771Y-83898571D02*
X138429771Y-83784285D01*
X138429771Y-83784285D02*
X138401200Y-83727142D01*
X138401200Y-83727142D02*
X138372628Y-83698571D01*
X138372628Y-83698571D02*
X138286914Y-83641428D01*
X138286914Y-83641428D02*
X138172628Y-83612857D01*
X138172628Y-83612857D02*
X137944057Y-83612857D01*
X137944057Y-83612857D02*
X137886914Y-83641428D01*
X137886914Y-83641428D02*
X137858342Y-83670000D01*
X137858342Y-83670000D02*
X137829771Y-83727142D01*
X137829771Y-83727142D02*
X137829771Y-83841428D01*
X137829771Y-83841428D02*
X137858342Y-83898571D01*
X137858342Y-83898571D02*
X137886914Y-83927142D01*
X137886914Y-83927142D02*
X137944057Y-83955714D01*
X137944057Y-83955714D02*
X138086914Y-83955714D01*
X138086914Y-83955714D02*
X138144057Y-83927142D01*
X138144057Y-83927142D02*
X138172628Y-83898571D01*
X138172628Y-83898571D02*
X138201200Y-83841428D01*
X138201200Y-83841428D02*
X138201200Y-83727142D01*
X138201200Y-83727142D02*
X138172628Y-83670000D01*
X138172628Y-83670000D02*
X138144057Y-83641428D01*
X138144057Y-83641428D02*
X138086914Y-83612857D01*
%TO.C,C10*%
X221622628Y-83025714D02*
X221651200Y-83054286D01*
X221651200Y-83054286D02*
X221679771Y-83140000D01*
X221679771Y-83140000D02*
X221679771Y-83197143D01*
X221679771Y-83197143D02*
X221651200Y-83282857D01*
X221651200Y-83282857D02*
X221594057Y-83340000D01*
X221594057Y-83340000D02*
X221536914Y-83368571D01*
X221536914Y-83368571D02*
X221422628Y-83397143D01*
X221422628Y-83397143D02*
X221336914Y-83397143D01*
X221336914Y-83397143D02*
X221222628Y-83368571D01*
X221222628Y-83368571D02*
X221165485Y-83340000D01*
X221165485Y-83340000D02*
X221108342Y-83282857D01*
X221108342Y-83282857D02*
X221079771Y-83197143D01*
X221079771Y-83197143D02*
X221079771Y-83140000D01*
X221079771Y-83140000D02*
X221108342Y-83054286D01*
X221108342Y-83054286D02*
X221136914Y-83025714D01*
X221679771Y-82454286D02*
X221679771Y-82797143D01*
X221679771Y-82625714D02*
X221079771Y-82625714D01*
X221079771Y-82625714D02*
X221165485Y-82682857D01*
X221165485Y-82682857D02*
X221222628Y-82740000D01*
X221222628Y-82740000D02*
X221251200Y-82797143D01*
X221079771Y-82082857D02*
X221079771Y-82025714D01*
X221079771Y-82025714D02*
X221108342Y-81968571D01*
X221108342Y-81968571D02*
X221136914Y-81940000D01*
X221136914Y-81940000D02*
X221194057Y-81911428D01*
X221194057Y-81911428D02*
X221308342Y-81882857D01*
X221308342Y-81882857D02*
X221451200Y-81882857D01*
X221451200Y-81882857D02*
X221565485Y-81911428D01*
X221565485Y-81911428D02*
X221622628Y-81940000D01*
X221622628Y-81940000D02*
X221651200Y-81968571D01*
X221651200Y-81968571D02*
X221679771Y-82025714D01*
X221679771Y-82025714D02*
X221679771Y-82082857D01*
X221679771Y-82082857D02*
X221651200Y-82140000D01*
X221651200Y-82140000D02*
X221622628Y-82168571D01*
X221622628Y-82168571D02*
X221565485Y-82197142D01*
X221565485Y-82197142D02*
X221451200Y-82225714D01*
X221451200Y-82225714D02*
X221308342Y-82225714D01*
X221308342Y-82225714D02*
X221194057Y-82197142D01*
X221194057Y-82197142D02*
X221136914Y-82168571D01*
X221136914Y-82168571D02*
X221108342Y-82140000D01*
X221108342Y-82140000D02*
X221079771Y-82082857D01*
%TO.C,D2*%
X153214819Y-67548094D02*
X152214819Y-67548094D01*
X152214819Y-67548094D02*
X152214819Y-67309999D01*
X152214819Y-67309999D02*
X152262438Y-67167142D01*
X152262438Y-67167142D02*
X152357676Y-67071904D01*
X152357676Y-67071904D02*
X152452914Y-67024285D01*
X152452914Y-67024285D02*
X152643390Y-66976666D01*
X152643390Y-66976666D02*
X152786247Y-66976666D01*
X152786247Y-66976666D02*
X152976723Y-67024285D01*
X152976723Y-67024285D02*
X153071961Y-67071904D01*
X153071961Y-67071904D02*
X153167200Y-67167142D01*
X153167200Y-67167142D02*
X153214819Y-67309999D01*
X153214819Y-67309999D02*
X153214819Y-67548094D01*
X152310057Y-66595713D02*
X152262438Y-66548094D01*
X152262438Y-66548094D02*
X152214819Y-66452856D01*
X152214819Y-66452856D02*
X152214819Y-66214761D01*
X152214819Y-66214761D02*
X152262438Y-66119523D01*
X152262438Y-66119523D02*
X152310057Y-66071904D01*
X152310057Y-66071904D02*
X152405295Y-66024285D01*
X152405295Y-66024285D02*
X152500533Y-66024285D01*
X152500533Y-66024285D02*
X152643390Y-66071904D01*
X152643390Y-66071904D02*
X153214819Y-66643332D01*
X153214819Y-66643332D02*
X153214819Y-66024285D01*
%TO.C,C8*%
X212190000Y-68512628D02*
X212161428Y-68541200D01*
X212161428Y-68541200D02*
X212075714Y-68569771D01*
X212075714Y-68569771D02*
X212018571Y-68569771D01*
X212018571Y-68569771D02*
X211932857Y-68541200D01*
X211932857Y-68541200D02*
X211875714Y-68484057D01*
X211875714Y-68484057D02*
X211847143Y-68426914D01*
X211847143Y-68426914D02*
X211818571Y-68312628D01*
X211818571Y-68312628D02*
X211818571Y-68226914D01*
X211818571Y-68226914D02*
X211847143Y-68112628D01*
X211847143Y-68112628D02*
X211875714Y-68055485D01*
X211875714Y-68055485D02*
X211932857Y-67998342D01*
X211932857Y-67998342D02*
X212018571Y-67969771D01*
X212018571Y-67969771D02*
X212075714Y-67969771D01*
X212075714Y-67969771D02*
X212161428Y-67998342D01*
X212161428Y-67998342D02*
X212190000Y-68026914D01*
X212532857Y-68226914D02*
X212475714Y-68198342D01*
X212475714Y-68198342D02*
X212447143Y-68169771D01*
X212447143Y-68169771D02*
X212418571Y-68112628D01*
X212418571Y-68112628D02*
X212418571Y-68084057D01*
X212418571Y-68084057D02*
X212447143Y-68026914D01*
X212447143Y-68026914D02*
X212475714Y-67998342D01*
X212475714Y-67998342D02*
X212532857Y-67969771D01*
X212532857Y-67969771D02*
X212647143Y-67969771D01*
X212647143Y-67969771D02*
X212704286Y-67998342D01*
X212704286Y-67998342D02*
X212732857Y-68026914D01*
X212732857Y-68026914D02*
X212761428Y-68084057D01*
X212761428Y-68084057D02*
X212761428Y-68112628D01*
X212761428Y-68112628D02*
X212732857Y-68169771D01*
X212732857Y-68169771D02*
X212704286Y-68198342D01*
X212704286Y-68198342D02*
X212647143Y-68226914D01*
X212647143Y-68226914D02*
X212532857Y-68226914D01*
X212532857Y-68226914D02*
X212475714Y-68255485D01*
X212475714Y-68255485D02*
X212447143Y-68284057D01*
X212447143Y-68284057D02*
X212418571Y-68341200D01*
X212418571Y-68341200D02*
X212418571Y-68455485D01*
X212418571Y-68455485D02*
X212447143Y-68512628D01*
X212447143Y-68512628D02*
X212475714Y-68541200D01*
X212475714Y-68541200D02*
X212532857Y-68569771D01*
X212532857Y-68569771D02*
X212647143Y-68569771D01*
X212647143Y-68569771D02*
X212704286Y-68541200D01*
X212704286Y-68541200D02*
X212732857Y-68512628D01*
X212732857Y-68512628D02*
X212761428Y-68455485D01*
X212761428Y-68455485D02*
X212761428Y-68341200D01*
X212761428Y-68341200D02*
X212732857Y-68284057D01*
X212732857Y-68284057D02*
X212704286Y-68255485D01*
X212704286Y-68255485D02*
X212647143Y-68226914D01*
%TO.C,R8*%
X191050971Y-78199799D02*
X190765257Y-78399799D01*
X191050971Y-78542656D02*
X190450971Y-78542656D01*
X190450971Y-78542656D02*
X190450971Y-78314085D01*
X190450971Y-78314085D02*
X190479542Y-78256942D01*
X190479542Y-78256942D02*
X190508114Y-78228371D01*
X190508114Y-78228371D02*
X190565257Y-78199799D01*
X190565257Y-78199799D02*
X190650971Y-78199799D01*
X190650971Y-78199799D02*
X190708114Y-78228371D01*
X190708114Y-78228371D02*
X190736685Y-78256942D01*
X190736685Y-78256942D02*
X190765257Y-78314085D01*
X190765257Y-78314085D02*
X190765257Y-78542656D01*
X190708114Y-77856942D02*
X190679542Y-77914085D01*
X190679542Y-77914085D02*
X190650971Y-77942656D01*
X190650971Y-77942656D02*
X190593828Y-77971228D01*
X190593828Y-77971228D02*
X190565257Y-77971228D01*
X190565257Y-77971228D02*
X190508114Y-77942656D01*
X190508114Y-77942656D02*
X190479542Y-77914085D01*
X190479542Y-77914085D02*
X190450971Y-77856942D01*
X190450971Y-77856942D02*
X190450971Y-77742656D01*
X190450971Y-77742656D02*
X190479542Y-77685514D01*
X190479542Y-77685514D02*
X190508114Y-77656942D01*
X190508114Y-77656942D02*
X190565257Y-77628371D01*
X190565257Y-77628371D02*
X190593828Y-77628371D01*
X190593828Y-77628371D02*
X190650971Y-77656942D01*
X190650971Y-77656942D02*
X190679542Y-77685514D01*
X190679542Y-77685514D02*
X190708114Y-77742656D01*
X190708114Y-77742656D02*
X190708114Y-77856942D01*
X190708114Y-77856942D02*
X190736685Y-77914085D01*
X190736685Y-77914085D02*
X190765257Y-77942656D01*
X190765257Y-77942656D02*
X190822400Y-77971228D01*
X190822400Y-77971228D02*
X190936685Y-77971228D01*
X190936685Y-77971228D02*
X190993828Y-77942656D01*
X190993828Y-77942656D02*
X191022400Y-77914085D01*
X191022400Y-77914085D02*
X191050971Y-77856942D01*
X191050971Y-77856942D02*
X191050971Y-77742656D01*
X191050971Y-77742656D02*
X191022400Y-77685514D01*
X191022400Y-77685514D02*
X190993828Y-77656942D01*
X190993828Y-77656942D02*
X190936685Y-77628371D01*
X190936685Y-77628371D02*
X190822400Y-77628371D01*
X190822400Y-77628371D02*
X190765257Y-77656942D01*
X190765257Y-77656942D02*
X190736685Y-77685514D01*
X190736685Y-77685514D02*
X190708114Y-77742656D01*
%TO.C,L1*%
X174333333Y-66716033D02*
X173999999Y-66716033D01*
X173999999Y-66716033D02*
X173999999Y-66016033D01*
X174933333Y-66716033D02*
X174533333Y-66716033D01*
X174733333Y-66716033D02*
X174733333Y-66016033D01*
X174733333Y-66016033D02*
X174666666Y-66116033D01*
X174666666Y-66116033D02*
X174600000Y-66182700D01*
X174600000Y-66182700D02*
X174533333Y-66216033D01*
X177080000Y-66176033D02*
X177513333Y-66176033D01*
X177513333Y-66176033D02*
X177280000Y-66442700D01*
X177280000Y-66442700D02*
X177380000Y-66442700D01*
X177380000Y-66442700D02*
X177446666Y-66476033D01*
X177446666Y-66476033D02*
X177480000Y-66509366D01*
X177480000Y-66509366D02*
X177513333Y-66576033D01*
X177513333Y-66576033D02*
X177513333Y-66742700D01*
X177513333Y-66742700D02*
X177480000Y-66809366D01*
X177480000Y-66809366D02*
X177446666Y-66842700D01*
X177446666Y-66842700D02*
X177380000Y-66876033D01*
X177380000Y-66876033D02*
X177180000Y-66876033D01*
X177180000Y-66876033D02*
X177113333Y-66842700D01*
X177113333Y-66842700D02*
X177080000Y-66809366D01*
X177746667Y-66176033D02*
X178180000Y-66176033D01*
X178180000Y-66176033D02*
X177946667Y-66442700D01*
X177946667Y-66442700D02*
X178046667Y-66442700D01*
X178046667Y-66442700D02*
X178113333Y-66476033D01*
X178113333Y-66476033D02*
X178146667Y-66509366D01*
X178146667Y-66509366D02*
X178180000Y-66576033D01*
X178180000Y-66576033D02*
X178180000Y-66742700D01*
X178180000Y-66742700D02*
X178146667Y-66809366D01*
X178146667Y-66809366D02*
X178113333Y-66842700D01*
X178113333Y-66842700D02*
X178046667Y-66876033D01*
X178046667Y-66876033D02*
X177846667Y-66876033D01*
X177846667Y-66876033D02*
X177780000Y-66842700D01*
X177780000Y-66842700D02*
X177746667Y-66809366D01*
X178780000Y-66409366D02*
X178780000Y-66876033D01*
X178480000Y-66409366D02*
X178480000Y-66776033D01*
X178480000Y-66776033D02*
X178513334Y-66842700D01*
X178513334Y-66842700D02*
X178580000Y-66876033D01*
X178580000Y-66876033D02*
X178680000Y-66876033D01*
X178680000Y-66876033D02*
X178746667Y-66842700D01*
X178746667Y-66842700D02*
X178780000Y-66809366D01*
X179113333Y-66876033D02*
X179113333Y-66176033D01*
X179113333Y-66509366D02*
X179513333Y-66509366D01*
X179513333Y-66876033D02*
X179513333Y-66176033D01*
%TO.C,C26*%
X211202628Y-84185714D02*
X211231200Y-84214286D01*
X211231200Y-84214286D02*
X211259771Y-84300000D01*
X211259771Y-84300000D02*
X211259771Y-84357143D01*
X211259771Y-84357143D02*
X211231200Y-84442857D01*
X211231200Y-84442857D02*
X211174057Y-84500000D01*
X211174057Y-84500000D02*
X211116914Y-84528571D01*
X211116914Y-84528571D02*
X211002628Y-84557143D01*
X211002628Y-84557143D02*
X210916914Y-84557143D01*
X210916914Y-84557143D02*
X210802628Y-84528571D01*
X210802628Y-84528571D02*
X210745485Y-84500000D01*
X210745485Y-84500000D02*
X210688342Y-84442857D01*
X210688342Y-84442857D02*
X210659771Y-84357143D01*
X210659771Y-84357143D02*
X210659771Y-84300000D01*
X210659771Y-84300000D02*
X210688342Y-84214286D01*
X210688342Y-84214286D02*
X210716914Y-84185714D01*
X210716914Y-83957143D02*
X210688342Y-83928571D01*
X210688342Y-83928571D02*
X210659771Y-83871429D01*
X210659771Y-83871429D02*
X210659771Y-83728571D01*
X210659771Y-83728571D02*
X210688342Y-83671429D01*
X210688342Y-83671429D02*
X210716914Y-83642857D01*
X210716914Y-83642857D02*
X210774057Y-83614286D01*
X210774057Y-83614286D02*
X210831200Y-83614286D01*
X210831200Y-83614286D02*
X210916914Y-83642857D01*
X210916914Y-83642857D02*
X211259771Y-83985714D01*
X211259771Y-83985714D02*
X211259771Y-83614286D01*
X210659771Y-83100000D02*
X210659771Y-83214285D01*
X210659771Y-83214285D02*
X210688342Y-83271428D01*
X210688342Y-83271428D02*
X210716914Y-83300000D01*
X210716914Y-83300000D02*
X210802628Y-83357142D01*
X210802628Y-83357142D02*
X210916914Y-83385714D01*
X210916914Y-83385714D02*
X211145485Y-83385714D01*
X211145485Y-83385714D02*
X211202628Y-83357142D01*
X211202628Y-83357142D02*
X211231200Y-83328571D01*
X211231200Y-83328571D02*
X211259771Y-83271428D01*
X211259771Y-83271428D02*
X211259771Y-83157142D01*
X211259771Y-83157142D02*
X211231200Y-83100000D01*
X211231200Y-83100000D02*
X211202628Y-83071428D01*
X211202628Y-83071428D02*
X211145485Y-83042857D01*
X211145485Y-83042857D02*
X211002628Y-83042857D01*
X211002628Y-83042857D02*
X210945485Y-83071428D01*
X210945485Y-83071428D02*
X210916914Y-83100000D01*
X210916914Y-83100000D02*
X210888342Y-83157142D01*
X210888342Y-83157142D02*
X210888342Y-83271428D01*
X210888342Y-83271428D02*
X210916914Y-83328571D01*
X210916914Y-83328571D02*
X210945485Y-83357142D01*
X210945485Y-83357142D02*
X211002628Y-83385714D01*
%TO.C,J10*%
X156030476Y-88704819D02*
X156030476Y-89419104D01*
X156030476Y-89419104D02*
X155982857Y-89561961D01*
X155982857Y-89561961D02*
X155887619Y-89657200D01*
X155887619Y-89657200D02*
X155744762Y-89704819D01*
X155744762Y-89704819D02*
X155649524Y-89704819D01*
X157030476Y-89704819D02*
X156459048Y-89704819D01*
X156744762Y-89704819D02*
X156744762Y-88704819D01*
X156744762Y-88704819D02*
X156649524Y-88847676D01*
X156649524Y-88847676D02*
X156554286Y-88942914D01*
X156554286Y-88942914D02*
X156459048Y-88990533D01*
X157649524Y-88704819D02*
X157744762Y-88704819D01*
X157744762Y-88704819D02*
X157840000Y-88752438D01*
X157840000Y-88752438D02*
X157887619Y-88800057D01*
X157887619Y-88800057D02*
X157935238Y-88895295D01*
X157935238Y-88895295D02*
X157982857Y-89085771D01*
X157982857Y-89085771D02*
X157982857Y-89323866D01*
X157982857Y-89323866D02*
X157935238Y-89514342D01*
X157935238Y-89514342D02*
X157887619Y-89609580D01*
X157887619Y-89609580D02*
X157840000Y-89657200D01*
X157840000Y-89657200D02*
X157744762Y-89704819D01*
X157744762Y-89704819D02*
X157649524Y-89704819D01*
X157649524Y-89704819D02*
X157554286Y-89657200D01*
X157554286Y-89657200D02*
X157506667Y-89609580D01*
X157506667Y-89609580D02*
X157459048Y-89514342D01*
X157459048Y-89514342D02*
X157411429Y-89323866D01*
X157411429Y-89323866D02*
X157411429Y-89085771D01*
X157411429Y-89085771D02*
X157459048Y-88895295D01*
X157459048Y-88895295D02*
X157506667Y-88800057D01*
X157506667Y-88800057D02*
X157554286Y-88752438D01*
X157554286Y-88752438D02*
X157649524Y-88704819D01*
%TO.C,J1*%
X196126666Y-95134819D02*
X196126666Y-95849104D01*
X196126666Y-95849104D02*
X196079047Y-95991961D01*
X196079047Y-95991961D02*
X195983809Y-96087200D01*
X195983809Y-96087200D02*
X195840952Y-96134819D01*
X195840952Y-96134819D02*
X195745714Y-96134819D01*
X197126666Y-96134819D02*
X196555238Y-96134819D01*
X196840952Y-96134819D02*
X196840952Y-95134819D01*
X196840952Y-95134819D02*
X196745714Y-95277676D01*
X196745714Y-95277676D02*
X196650476Y-95372914D01*
X196650476Y-95372914D02*
X196555238Y-95420533D01*
%TO.C,J9*%
X230733966Y-64166519D02*
X230733966Y-64880804D01*
X230733966Y-64880804D02*
X230686347Y-65023661D01*
X230686347Y-65023661D02*
X230591109Y-65118900D01*
X230591109Y-65118900D02*
X230448252Y-65166519D01*
X230448252Y-65166519D02*
X230353014Y-65166519D01*
X231257776Y-65166519D02*
X231448252Y-65166519D01*
X231448252Y-65166519D02*
X231543490Y-65118900D01*
X231543490Y-65118900D02*
X231591109Y-65071280D01*
X231591109Y-65071280D02*
X231686347Y-64928423D01*
X231686347Y-64928423D02*
X231733966Y-64737947D01*
X231733966Y-64737947D02*
X231733966Y-64356995D01*
X231733966Y-64356995D02*
X231686347Y-64261757D01*
X231686347Y-64261757D02*
X231638728Y-64214138D01*
X231638728Y-64214138D02*
X231543490Y-64166519D01*
X231543490Y-64166519D02*
X231353014Y-64166519D01*
X231353014Y-64166519D02*
X231257776Y-64214138D01*
X231257776Y-64214138D02*
X231210157Y-64261757D01*
X231210157Y-64261757D02*
X231162538Y-64356995D01*
X231162538Y-64356995D02*
X231162538Y-64595090D01*
X231162538Y-64595090D02*
X231210157Y-64690328D01*
X231210157Y-64690328D02*
X231257776Y-64737947D01*
X231257776Y-64737947D02*
X231353014Y-64785566D01*
X231353014Y-64785566D02*
X231543490Y-64785566D01*
X231543490Y-64785566D02*
X231638728Y-64737947D01*
X231638728Y-64737947D02*
X231686347Y-64690328D01*
X231686347Y-64690328D02*
X231733966Y-64595090D01*
%TO.C,R13*%
X121919771Y-69905714D02*
X121634057Y-70105714D01*
X121919771Y-70248571D02*
X121319771Y-70248571D01*
X121319771Y-70248571D02*
X121319771Y-70020000D01*
X121319771Y-70020000D02*
X121348342Y-69962857D01*
X121348342Y-69962857D02*
X121376914Y-69934286D01*
X121376914Y-69934286D02*
X121434057Y-69905714D01*
X121434057Y-69905714D02*
X121519771Y-69905714D01*
X121519771Y-69905714D02*
X121576914Y-69934286D01*
X121576914Y-69934286D02*
X121605485Y-69962857D01*
X121605485Y-69962857D02*
X121634057Y-70020000D01*
X121634057Y-70020000D02*
X121634057Y-70248571D01*
X121919771Y-69334286D02*
X121919771Y-69677143D01*
X121919771Y-69505714D02*
X121319771Y-69505714D01*
X121319771Y-69505714D02*
X121405485Y-69562857D01*
X121405485Y-69562857D02*
X121462628Y-69620000D01*
X121462628Y-69620000D02*
X121491200Y-69677143D01*
X121319771Y-69134285D02*
X121319771Y-68762857D01*
X121319771Y-68762857D02*
X121548342Y-68962857D01*
X121548342Y-68962857D02*
X121548342Y-68877142D01*
X121548342Y-68877142D02*
X121576914Y-68820000D01*
X121576914Y-68820000D02*
X121605485Y-68791428D01*
X121605485Y-68791428D02*
X121662628Y-68762857D01*
X121662628Y-68762857D02*
X121805485Y-68762857D01*
X121805485Y-68762857D02*
X121862628Y-68791428D01*
X121862628Y-68791428D02*
X121891200Y-68820000D01*
X121891200Y-68820000D02*
X121919771Y-68877142D01*
X121919771Y-68877142D02*
X121919771Y-69048571D01*
X121919771Y-69048571D02*
X121891200Y-69105714D01*
X121891200Y-69105714D02*
X121862628Y-69134285D01*
%TO.C,C20*%
X127341828Y-96022514D02*
X127370400Y-96051086D01*
X127370400Y-96051086D02*
X127398971Y-96136800D01*
X127398971Y-96136800D02*
X127398971Y-96193943D01*
X127398971Y-96193943D02*
X127370400Y-96279657D01*
X127370400Y-96279657D02*
X127313257Y-96336800D01*
X127313257Y-96336800D02*
X127256114Y-96365371D01*
X127256114Y-96365371D02*
X127141828Y-96393943D01*
X127141828Y-96393943D02*
X127056114Y-96393943D01*
X127056114Y-96393943D02*
X126941828Y-96365371D01*
X126941828Y-96365371D02*
X126884685Y-96336800D01*
X126884685Y-96336800D02*
X126827542Y-96279657D01*
X126827542Y-96279657D02*
X126798971Y-96193943D01*
X126798971Y-96193943D02*
X126798971Y-96136800D01*
X126798971Y-96136800D02*
X126827542Y-96051086D01*
X126827542Y-96051086D02*
X126856114Y-96022514D01*
X126856114Y-95793943D02*
X126827542Y-95765371D01*
X126827542Y-95765371D02*
X126798971Y-95708229D01*
X126798971Y-95708229D02*
X126798971Y-95565371D01*
X126798971Y-95565371D02*
X126827542Y-95508229D01*
X126827542Y-95508229D02*
X126856114Y-95479657D01*
X126856114Y-95479657D02*
X126913257Y-95451086D01*
X126913257Y-95451086D02*
X126970400Y-95451086D01*
X126970400Y-95451086D02*
X127056114Y-95479657D01*
X127056114Y-95479657D02*
X127398971Y-95822514D01*
X127398971Y-95822514D02*
X127398971Y-95451086D01*
X126798971Y-95079657D02*
X126798971Y-95022514D01*
X126798971Y-95022514D02*
X126827542Y-94965371D01*
X126827542Y-94965371D02*
X126856114Y-94936800D01*
X126856114Y-94936800D02*
X126913257Y-94908228D01*
X126913257Y-94908228D02*
X127027542Y-94879657D01*
X127027542Y-94879657D02*
X127170400Y-94879657D01*
X127170400Y-94879657D02*
X127284685Y-94908228D01*
X127284685Y-94908228D02*
X127341828Y-94936800D01*
X127341828Y-94936800D02*
X127370400Y-94965371D01*
X127370400Y-94965371D02*
X127398971Y-95022514D01*
X127398971Y-95022514D02*
X127398971Y-95079657D01*
X127398971Y-95079657D02*
X127370400Y-95136800D01*
X127370400Y-95136800D02*
X127341828Y-95165371D01*
X127341828Y-95165371D02*
X127284685Y-95193942D01*
X127284685Y-95193942D02*
X127170400Y-95222514D01*
X127170400Y-95222514D02*
X127027542Y-95222514D01*
X127027542Y-95222514D02*
X126913257Y-95193942D01*
X126913257Y-95193942D02*
X126856114Y-95165371D01*
X126856114Y-95165371D02*
X126827542Y-95136800D01*
X126827542Y-95136800D02*
X126798971Y-95079657D01*
%TO.C,D3*%
X144719771Y-59572856D02*
X144119771Y-59572856D01*
X144119771Y-59572856D02*
X144119771Y-59429999D01*
X144119771Y-59429999D02*
X144148342Y-59344285D01*
X144148342Y-59344285D02*
X144205485Y-59287142D01*
X144205485Y-59287142D02*
X144262628Y-59258571D01*
X144262628Y-59258571D02*
X144376914Y-59229999D01*
X144376914Y-59229999D02*
X144462628Y-59229999D01*
X144462628Y-59229999D02*
X144576914Y-59258571D01*
X144576914Y-59258571D02*
X144634057Y-59287142D01*
X144634057Y-59287142D02*
X144691200Y-59344285D01*
X144691200Y-59344285D02*
X144719771Y-59429999D01*
X144719771Y-59429999D02*
X144719771Y-59572856D01*
X144119771Y-59029999D02*
X144119771Y-58658571D01*
X144119771Y-58658571D02*
X144348342Y-58858571D01*
X144348342Y-58858571D02*
X144348342Y-58772856D01*
X144348342Y-58772856D02*
X144376914Y-58715714D01*
X144376914Y-58715714D02*
X144405485Y-58687142D01*
X144405485Y-58687142D02*
X144462628Y-58658571D01*
X144462628Y-58658571D02*
X144605485Y-58658571D01*
X144605485Y-58658571D02*
X144662628Y-58687142D01*
X144662628Y-58687142D02*
X144691200Y-58715714D01*
X144691200Y-58715714D02*
X144719771Y-58772856D01*
X144719771Y-58772856D02*
X144719771Y-58944285D01*
X144719771Y-58944285D02*
X144691200Y-59001428D01*
X144691200Y-59001428D02*
X144662628Y-59029999D01*
D10*
%TO.C,RESET*%
X103573333Y-95147333D02*
X103340000Y-94814000D01*
X103173333Y-95147333D02*
X103173333Y-94447333D01*
X103173333Y-94447333D02*
X103440000Y-94447333D01*
X103440000Y-94447333D02*
X103506667Y-94480666D01*
X103506667Y-94480666D02*
X103540000Y-94514000D01*
X103540000Y-94514000D02*
X103573333Y-94580666D01*
X103573333Y-94580666D02*
X103573333Y-94680666D01*
X103573333Y-94680666D02*
X103540000Y-94747333D01*
X103540000Y-94747333D02*
X103506667Y-94780666D01*
X103506667Y-94780666D02*
X103440000Y-94814000D01*
X103440000Y-94814000D02*
X103173333Y-94814000D01*
X103873333Y-94780666D02*
X104106667Y-94780666D01*
X104206667Y-95147333D02*
X103873333Y-95147333D01*
X103873333Y-95147333D02*
X103873333Y-94447333D01*
X103873333Y-94447333D02*
X104206667Y-94447333D01*
X104473333Y-95114000D02*
X104573333Y-95147333D01*
X104573333Y-95147333D02*
X104740000Y-95147333D01*
X104740000Y-95147333D02*
X104806666Y-95114000D01*
X104806666Y-95114000D02*
X104840000Y-95080666D01*
X104840000Y-95080666D02*
X104873333Y-95014000D01*
X104873333Y-95014000D02*
X104873333Y-94947333D01*
X104873333Y-94947333D02*
X104840000Y-94880666D01*
X104840000Y-94880666D02*
X104806666Y-94847333D01*
X104806666Y-94847333D02*
X104740000Y-94814000D01*
X104740000Y-94814000D02*
X104606666Y-94780666D01*
X104606666Y-94780666D02*
X104540000Y-94747333D01*
X104540000Y-94747333D02*
X104506666Y-94714000D01*
X104506666Y-94714000D02*
X104473333Y-94647333D01*
X104473333Y-94647333D02*
X104473333Y-94580666D01*
X104473333Y-94580666D02*
X104506666Y-94514000D01*
X104506666Y-94514000D02*
X104540000Y-94480666D01*
X104540000Y-94480666D02*
X104606666Y-94447333D01*
X104606666Y-94447333D02*
X104773333Y-94447333D01*
X104773333Y-94447333D02*
X104873333Y-94480666D01*
X105173333Y-94780666D02*
X105406667Y-94780666D01*
X105506667Y-95147333D02*
X105173333Y-95147333D01*
X105173333Y-95147333D02*
X105173333Y-94447333D01*
X105173333Y-94447333D02*
X105506667Y-94447333D01*
X105706666Y-94447333D02*
X106106666Y-94447333D01*
X105906666Y-95147333D02*
X105906666Y-94447333D01*
D12*
%TO.C,C19*%
X127252628Y-92525714D02*
X127281200Y-92554286D01*
X127281200Y-92554286D02*
X127309771Y-92640000D01*
X127309771Y-92640000D02*
X127309771Y-92697143D01*
X127309771Y-92697143D02*
X127281200Y-92782857D01*
X127281200Y-92782857D02*
X127224057Y-92840000D01*
X127224057Y-92840000D02*
X127166914Y-92868571D01*
X127166914Y-92868571D02*
X127052628Y-92897143D01*
X127052628Y-92897143D02*
X126966914Y-92897143D01*
X126966914Y-92897143D02*
X126852628Y-92868571D01*
X126852628Y-92868571D02*
X126795485Y-92840000D01*
X126795485Y-92840000D02*
X126738342Y-92782857D01*
X126738342Y-92782857D02*
X126709771Y-92697143D01*
X126709771Y-92697143D02*
X126709771Y-92640000D01*
X126709771Y-92640000D02*
X126738342Y-92554286D01*
X126738342Y-92554286D02*
X126766914Y-92525714D01*
X127309771Y-91954286D02*
X127309771Y-92297143D01*
X127309771Y-92125714D02*
X126709771Y-92125714D01*
X126709771Y-92125714D02*
X126795485Y-92182857D01*
X126795485Y-92182857D02*
X126852628Y-92240000D01*
X126852628Y-92240000D02*
X126881200Y-92297143D01*
X127309771Y-91668571D02*
X127309771Y-91554285D01*
X127309771Y-91554285D02*
X127281200Y-91497142D01*
X127281200Y-91497142D02*
X127252628Y-91468571D01*
X127252628Y-91468571D02*
X127166914Y-91411428D01*
X127166914Y-91411428D02*
X127052628Y-91382857D01*
X127052628Y-91382857D02*
X126824057Y-91382857D01*
X126824057Y-91382857D02*
X126766914Y-91411428D01*
X126766914Y-91411428D02*
X126738342Y-91440000D01*
X126738342Y-91440000D02*
X126709771Y-91497142D01*
X126709771Y-91497142D02*
X126709771Y-91611428D01*
X126709771Y-91611428D02*
X126738342Y-91668571D01*
X126738342Y-91668571D02*
X126766914Y-91697142D01*
X126766914Y-91697142D02*
X126824057Y-91725714D01*
X126824057Y-91725714D02*
X126966914Y-91725714D01*
X126966914Y-91725714D02*
X127024057Y-91697142D01*
X127024057Y-91697142D02*
X127052628Y-91668571D01*
X127052628Y-91668571D02*
X127081200Y-91611428D01*
X127081200Y-91611428D02*
X127081200Y-91497142D01*
X127081200Y-91497142D02*
X127052628Y-91440000D01*
X127052628Y-91440000D02*
X127024057Y-91411428D01*
X127024057Y-91411428D02*
X126966914Y-91382857D01*
%TO.C,R10*%
X226084285Y-76869771D02*
X225884285Y-76584057D01*
X225741428Y-76869771D02*
X225741428Y-76269771D01*
X225741428Y-76269771D02*
X225969999Y-76269771D01*
X225969999Y-76269771D02*
X226027142Y-76298342D01*
X226027142Y-76298342D02*
X226055713Y-76326914D01*
X226055713Y-76326914D02*
X226084285Y-76384057D01*
X226084285Y-76384057D02*
X226084285Y-76469771D01*
X226084285Y-76469771D02*
X226055713Y-76526914D01*
X226055713Y-76526914D02*
X226027142Y-76555485D01*
X226027142Y-76555485D02*
X225969999Y-76584057D01*
X225969999Y-76584057D02*
X225741428Y-76584057D01*
X226655713Y-76869771D02*
X226312856Y-76869771D01*
X226484285Y-76869771D02*
X226484285Y-76269771D01*
X226484285Y-76269771D02*
X226427142Y-76355485D01*
X226427142Y-76355485D02*
X226369999Y-76412628D01*
X226369999Y-76412628D02*
X226312856Y-76441200D01*
X227027142Y-76269771D02*
X227084285Y-76269771D01*
X227084285Y-76269771D02*
X227141428Y-76298342D01*
X227141428Y-76298342D02*
X227170000Y-76326914D01*
X227170000Y-76326914D02*
X227198571Y-76384057D01*
X227198571Y-76384057D02*
X227227142Y-76498342D01*
X227227142Y-76498342D02*
X227227142Y-76641200D01*
X227227142Y-76641200D02*
X227198571Y-76755485D01*
X227198571Y-76755485D02*
X227170000Y-76812628D01*
X227170000Y-76812628D02*
X227141428Y-76841200D01*
X227141428Y-76841200D02*
X227084285Y-76869771D01*
X227084285Y-76869771D02*
X227027142Y-76869771D01*
X227027142Y-76869771D02*
X226970000Y-76841200D01*
X226970000Y-76841200D02*
X226941428Y-76812628D01*
X226941428Y-76812628D02*
X226912857Y-76755485D01*
X226912857Y-76755485D02*
X226884285Y-76641200D01*
X226884285Y-76641200D02*
X226884285Y-76498342D01*
X226884285Y-76498342D02*
X226912857Y-76384057D01*
X226912857Y-76384057D02*
X226941428Y-76326914D01*
X226941428Y-76326914D02*
X226970000Y-76298342D01*
X226970000Y-76298342D02*
X227027142Y-76269771D01*
%TO.C,C22*%
X116732628Y-61425714D02*
X116761200Y-61454286D01*
X116761200Y-61454286D02*
X116789771Y-61540000D01*
X116789771Y-61540000D02*
X116789771Y-61597143D01*
X116789771Y-61597143D02*
X116761200Y-61682857D01*
X116761200Y-61682857D02*
X116704057Y-61740000D01*
X116704057Y-61740000D02*
X116646914Y-61768571D01*
X116646914Y-61768571D02*
X116532628Y-61797143D01*
X116532628Y-61797143D02*
X116446914Y-61797143D01*
X116446914Y-61797143D02*
X116332628Y-61768571D01*
X116332628Y-61768571D02*
X116275485Y-61740000D01*
X116275485Y-61740000D02*
X116218342Y-61682857D01*
X116218342Y-61682857D02*
X116189771Y-61597143D01*
X116189771Y-61597143D02*
X116189771Y-61540000D01*
X116189771Y-61540000D02*
X116218342Y-61454286D01*
X116218342Y-61454286D02*
X116246914Y-61425714D01*
X116246914Y-61197143D02*
X116218342Y-61168571D01*
X116218342Y-61168571D02*
X116189771Y-61111429D01*
X116189771Y-61111429D02*
X116189771Y-60968571D01*
X116189771Y-60968571D02*
X116218342Y-60911429D01*
X116218342Y-60911429D02*
X116246914Y-60882857D01*
X116246914Y-60882857D02*
X116304057Y-60854286D01*
X116304057Y-60854286D02*
X116361200Y-60854286D01*
X116361200Y-60854286D02*
X116446914Y-60882857D01*
X116446914Y-60882857D02*
X116789771Y-61225714D01*
X116789771Y-61225714D02*
X116789771Y-60854286D01*
X116246914Y-60625714D02*
X116218342Y-60597142D01*
X116218342Y-60597142D02*
X116189771Y-60540000D01*
X116189771Y-60540000D02*
X116189771Y-60397142D01*
X116189771Y-60397142D02*
X116218342Y-60340000D01*
X116218342Y-60340000D02*
X116246914Y-60311428D01*
X116246914Y-60311428D02*
X116304057Y-60282857D01*
X116304057Y-60282857D02*
X116361200Y-60282857D01*
X116361200Y-60282857D02*
X116446914Y-60311428D01*
X116446914Y-60311428D02*
X116789771Y-60654285D01*
X116789771Y-60654285D02*
X116789771Y-60282857D01*
%TO.C,C21*%
X119984285Y-65762628D02*
X119955713Y-65791200D01*
X119955713Y-65791200D02*
X119869999Y-65819771D01*
X119869999Y-65819771D02*
X119812856Y-65819771D01*
X119812856Y-65819771D02*
X119727142Y-65791200D01*
X119727142Y-65791200D02*
X119669999Y-65734057D01*
X119669999Y-65734057D02*
X119641428Y-65676914D01*
X119641428Y-65676914D02*
X119612856Y-65562628D01*
X119612856Y-65562628D02*
X119612856Y-65476914D01*
X119612856Y-65476914D02*
X119641428Y-65362628D01*
X119641428Y-65362628D02*
X119669999Y-65305485D01*
X119669999Y-65305485D02*
X119727142Y-65248342D01*
X119727142Y-65248342D02*
X119812856Y-65219771D01*
X119812856Y-65219771D02*
X119869999Y-65219771D01*
X119869999Y-65219771D02*
X119955713Y-65248342D01*
X119955713Y-65248342D02*
X119984285Y-65276914D01*
X120212856Y-65276914D02*
X120241428Y-65248342D01*
X120241428Y-65248342D02*
X120298571Y-65219771D01*
X120298571Y-65219771D02*
X120441428Y-65219771D01*
X120441428Y-65219771D02*
X120498571Y-65248342D01*
X120498571Y-65248342D02*
X120527142Y-65276914D01*
X120527142Y-65276914D02*
X120555713Y-65334057D01*
X120555713Y-65334057D02*
X120555713Y-65391200D01*
X120555713Y-65391200D02*
X120527142Y-65476914D01*
X120527142Y-65476914D02*
X120184285Y-65819771D01*
X120184285Y-65819771D02*
X120555713Y-65819771D01*
X121127142Y-65819771D02*
X120784285Y-65819771D01*
X120955714Y-65819771D02*
X120955714Y-65219771D01*
X120955714Y-65219771D02*
X120898571Y-65305485D01*
X120898571Y-65305485D02*
X120841428Y-65362628D01*
X120841428Y-65362628D02*
X120784285Y-65391200D01*
%TO.C,D_CODE*%
X126959771Y-63101427D02*
X126359771Y-63101427D01*
X126359771Y-63101427D02*
X126359771Y-62958570D01*
X126359771Y-62958570D02*
X126388342Y-62872856D01*
X126388342Y-62872856D02*
X126445485Y-62815713D01*
X126445485Y-62815713D02*
X126502628Y-62787142D01*
X126502628Y-62787142D02*
X126616914Y-62758570D01*
X126616914Y-62758570D02*
X126702628Y-62758570D01*
X126702628Y-62758570D02*
X126816914Y-62787142D01*
X126816914Y-62787142D02*
X126874057Y-62815713D01*
X126874057Y-62815713D02*
X126931200Y-62872856D01*
X126931200Y-62872856D02*
X126959771Y-62958570D01*
X126959771Y-62958570D02*
X126959771Y-63101427D01*
X127016914Y-62644285D02*
X127016914Y-62187142D01*
X126902628Y-61701427D02*
X126931200Y-61729999D01*
X126931200Y-61729999D02*
X126959771Y-61815713D01*
X126959771Y-61815713D02*
X126959771Y-61872856D01*
X126959771Y-61872856D02*
X126931200Y-61958570D01*
X126931200Y-61958570D02*
X126874057Y-62015713D01*
X126874057Y-62015713D02*
X126816914Y-62044284D01*
X126816914Y-62044284D02*
X126702628Y-62072856D01*
X126702628Y-62072856D02*
X126616914Y-62072856D01*
X126616914Y-62072856D02*
X126502628Y-62044284D01*
X126502628Y-62044284D02*
X126445485Y-62015713D01*
X126445485Y-62015713D02*
X126388342Y-61958570D01*
X126388342Y-61958570D02*
X126359771Y-61872856D01*
X126359771Y-61872856D02*
X126359771Y-61815713D01*
X126359771Y-61815713D02*
X126388342Y-61729999D01*
X126388342Y-61729999D02*
X126416914Y-61701427D01*
X126359771Y-61329999D02*
X126359771Y-61215713D01*
X126359771Y-61215713D02*
X126388342Y-61158570D01*
X126388342Y-61158570D02*
X126445485Y-61101427D01*
X126445485Y-61101427D02*
X126559771Y-61072856D01*
X126559771Y-61072856D02*
X126759771Y-61072856D01*
X126759771Y-61072856D02*
X126874057Y-61101427D01*
X126874057Y-61101427D02*
X126931200Y-61158570D01*
X126931200Y-61158570D02*
X126959771Y-61215713D01*
X126959771Y-61215713D02*
X126959771Y-61329999D01*
X126959771Y-61329999D02*
X126931200Y-61387142D01*
X126931200Y-61387142D02*
X126874057Y-61444284D01*
X126874057Y-61444284D02*
X126759771Y-61472856D01*
X126759771Y-61472856D02*
X126559771Y-61472856D01*
X126559771Y-61472856D02*
X126445485Y-61444284D01*
X126445485Y-61444284D02*
X126388342Y-61387142D01*
X126388342Y-61387142D02*
X126359771Y-61329999D01*
X126959771Y-60815713D02*
X126359771Y-60815713D01*
X126359771Y-60815713D02*
X126359771Y-60672856D01*
X126359771Y-60672856D02*
X126388342Y-60587142D01*
X126388342Y-60587142D02*
X126445485Y-60529999D01*
X126445485Y-60529999D02*
X126502628Y-60501428D01*
X126502628Y-60501428D02*
X126616914Y-60472856D01*
X126616914Y-60472856D02*
X126702628Y-60472856D01*
X126702628Y-60472856D02*
X126816914Y-60501428D01*
X126816914Y-60501428D02*
X126874057Y-60529999D01*
X126874057Y-60529999D02*
X126931200Y-60587142D01*
X126931200Y-60587142D02*
X126959771Y-60672856D01*
X126959771Y-60672856D02*
X126959771Y-60815713D01*
X126645485Y-60215713D02*
X126645485Y-60015713D01*
X126959771Y-59929999D02*
X126959771Y-60215713D01*
X126959771Y-60215713D02*
X126359771Y-60215713D01*
X126359771Y-60215713D02*
X126359771Y-59929999D01*
%TO.C,R12*%
X130549771Y-69835714D02*
X130264057Y-70035714D01*
X130549771Y-70178571D02*
X129949771Y-70178571D01*
X129949771Y-70178571D02*
X129949771Y-69950000D01*
X129949771Y-69950000D02*
X129978342Y-69892857D01*
X129978342Y-69892857D02*
X130006914Y-69864286D01*
X130006914Y-69864286D02*
X130064057Y-69835714D01*
X130064057Y-69835714D02*
X130149771Y-69835714D01*
X130149771Y-69835714D02*
X130206914Y-69864286D01*
X130206914Y-69864286D02*
X130235485Y-69892857D01*
X130235485Y-69892857D02*
X130264057Y-69950000D01*
X130264057Y-69950000D02*
X130264057Y-70178571D01*
X130549771Y-69264286D02*
X130549771Y-69607143D01*
X130549771Y-69435714D02*
X129949771Y-69435714D01*
X129949771Y-69435714D02*
X130035485Y-69492857D01*
X130035485Y-69492857D02*
X130092628Y-69550000D01*
X130092628Y-69550000D02*
X130121200Y-69607143D01*
X130006914Y-69035714D02*
X129978342Y-69007142D01*
X129978342Y-69007142D02*
X129949771Y-68950000D01*
X129949771Y-68950000D02*
X129949771Y-68807142D01*
X129949771Y-68807142D02*
X129978342Y-68750000D01*
X129978342Y-68750000D02*
X130006914Y-68721428D01*
X130006914Y-68721428D02*
X130064057Y-68692857D01*
X130064057Y-68692857D02*
X130121200Y-68692857D01*
X130121200Y-68692857D02*
X130206914Y-68721428D01*
X130206914Y-68721428D02*
X130549771Y-69064285D01*
X130549771Y-69064285D02*
X130549771Y-68692857D01*
%TO.C,LED2*%
X110059771Y-60821428D02*
X110059771Y-61107142D01*
X110059771Y-61107142D02*
X109459771Y-61107142D01*
X109745485Y-60621428D02*
X109745485Y-60421428D01*
X110059771Y-60335714D02*
X110059771Y-60621428D01*
X110059771Y-60621428D02*
X109459771Y-60621428D01*
X109459771Y-60621428D02*
X109459771Y-60335714D01*
X110059771Y-60078571D02*
X109459771Y-60078571D01*
X109459771Y-60078571D02*
X109459771Y-59935714D01*
X109459771Y-59935714D02*
X109488342Y-59850000D01*
X109488342Y-59850000D02*
X109545485Y-59792857D01*
X109545485Y-59792857D02*
X109602628Y-59764286D01*
X109602628Y-59764286D02*
X109716914Y-59735714D01*
X109716914Y-59735714D02*
X109802628Y-59735714D01*
X109802628Y-59735714D02*
X109916914Y-59764286D01*
X109916914Y-59764286D02*
X109974057Y-59792857D01*
X109974057Y-59792857D02*
X110031200Y-59850000D01*
X110031200Y-59850000D02*
X110059771Y-59935714D01*
X110059771Y-59935714D02*
X110059771Y-60078571D01*
X109516914Y-59507143D02*
X109488342Y-59478571D01*
X109488342Y-59478571D02*
X109459771Y-59421429D01*
X109459771Y-59421429D02*
X109459771Y-59278571D01*
X109459771Y-59278571D02*
X109488342Y-59221429D01*
X109488342Y-59221429D02*
X109516914Y-59192857D01*
X109516914Y-59192857D02*
X109574057Y-59164286D01*
X109574057Y-59164286D02*
X109631200Y-59164286D01*
X109631200Y-59164286D02*
X109716914Y-59192857D01*
X109716914Y-59192857D02*
X110059771Y-59535714D01*
X110059771Y-59535714D02*
X110059771Y-59164286D01*
%TO.C,U3*%
X165538095Y-67824819D02*
X165538095Y-68634342D01*
X165538095Y-68634342D02*
X165585714Y-68729580D01*
X165585714Y-68729580D02*
X165633333Y-68777200D01*
X165633333Y-68777200D02*
X165728571Y-68824819D01*
X165728571Y-68824819D02*
X165919047Y-68824819D01*
X165919047Y-68824819D02*
X166014285Y-68777200D01*
X166014285Y-68777200D02*
X166061904Y-68729580D01*
X166061904Y-68729580D02*
X166109523Y-68634342D01*
X166109523Y-68634342D02*
X166109523Y-67824819D01*
X166490476Y-67824819D02*
X167109523Y-67824819D01*
X167109523Y-67824819D02*
X166776190Y-68205771D01*
X166776190Y-68205771D02*
X166919047Y-68205771D01*
X166919047Y-68205771D02*
X167014285Y-68253390D01*
X167014285Y-68253390D02*
X167061904Y-68301009D01*
X167061904Y-68301009D02*
X167109523Y-68396247D01*
X167109523Y-68396247D02*
X167109523Y-68634342D01*
X167109523Y-68634342D02*
X167061904Y-68729580D01*
X167061904Y-68729580D02*
X167014285Y-68777200D01*
X167014285Y-68777200D02*
X166919047Y-68824819D01*
X166919047Y-68824819D02*
X166633333Y-68824819D01*
X166633333Y-68824819D02*
X166538095Y-68777200D01*
X166538095Y-68777200D02*
X166490476Y-68729580D01*
D10*
%TO.C,RESET*%
X197193809Y-83394809D02*
X197027143Y-83156714D01*
X196908095Y-83394809D02*
X196908095Y-82894809D01*
X196908095Y-82894809D02*
X197098571Y-82894809D01*
X197098571Y-82894809D02*
X197146190Y-82918619D01*
X197146190Y-82918619D02*
X197170000Y-82942428D01*
X197170000Y-82942428D02*
X197193809Y-82990047D01*
X197193809Y-82990047D02*
X197193809Y-83061476D01*
X197193809Y-83061476D02*
X197170000Y-83109095D01*
X197170000Y-83109095D02*
X197146190Y-83132904D01*
X197146190Y-83132904D02*
X197098571Y-83156714D01*
X197098571Y-83156714D02*
X196908095Y-83156714D01*
X197408095Y-83132904D02*
X197574762Y-83132904D01*
X197646190Y-83394809D02*
X197408095Y-83394809D01*
X197408095Y-83394809D02*
X197408095Y-82894809D01*
X197408095Y-82894809D02*
X197646190Y-82894809D01*
X197836667Y-83371000D02*
X197908095Y-83394809D01*
X197908095Y-83394809D02*
X198027143Y-83394809D01*
X198027143Y-83394809D02*
X198074762Y-83371000D01*
X198074762Y-83371000D02*
X198098571Y-83347190D01*
X198098571Y-83347190D02*
X198122381Y-83299571D01*
X198122381Y-83299571D02*
X198122381Y-83251952D01*
X198122381Y-83251952D02*
X198098571Y-83204333D01*
X198098571Y-83204333D02*
X198074762Y-83180523D01*
X198074762Y-83180523D02*
X198027143Y-83156714D01*
X198027143Y-83156714D02*
X197931905Y-83132904D01*
X197931905Y-83132904D02*
X197884286Y-83109095D01*
X197884286Y-83109095D02*
X197860476Y-83085285D01*
X197860476Y-83085285D02*
X197836667Y-83037666D01*
X197836667Y-83037666D02*
X197836667Y-82990047D01*
X197836667Y-82990047D02*
X197860476Y-82942428D01*
X197860476Y-82942428D02*
X197884286Y-82918619D01*
X197884286Y-82918619D02*
X197931905Y-82894809D01*
X197931905Y-82894809D02*
X198050952Y-82894809D01*
X198050952Y-82894809D02*
X198122381Y-82918619D01*
X198336666Y-83132904D02*
X198503333Y-83132904D01*
X198574761Y-83394809D02*
X198336666Y-83394809D01*
X198336666Y-83394809D02*
X198336666Y-82894809D01*
X198336666Y-82894809D02*
X198574761Y-82894809D01*
X198717619Y-82894809D02*
X199003333Y-82894809D01*
X198860476Y-83394809D02*
X198860476Y-82894809D01*
D12*
%TO.C,J6*%
X213086666Y-95424819D02*
X213086666Y-96139104D01*
X213086666Y-96139104D02*
X213039047Y-96281961D01*
X213039047Y-96281961D02*
X212943809Y-96377200D01*
X212943809Y-96377200D02*
X212800952Y-96424819D01*
X212800952Y-96424819D02*
X212705714Y-96424819D01*
X213991428Y-95424819D02*
X213800952Y-95424819D01*
X213800952Y-95424819D02*
X213705714Y-95472438D01*
X213705714Y-95472438D02*
X213658095Y-95520057D01*
X213658095Y-95520057D02*
X213562857Y-95662914D01*
X213562857Y-95662914D02*
X213515238Y-95853390D01*
X213515238Y-95853390D02*
X213515238Y-96234342D01*
X213515238Y-96234342D02*
X213562857Y-96329580D01*
X213562857Y-96329580D02*
X213610476Y-96377200D01*
X213610476Y-96377200D02*
X213705714Y-96424819D01*
X213705714Y-96424819D02*
X213896190Y-96424819D01*
X213896190Y-96424819D02*
X213991428Y-96377200D01*
X213991428Y-96377200D02*
X214039047Y-96329580D01*
X214039047Y-96329580D02*
X214086666Y-96234342D01*
X214086666Y-96234342D02*
X214086666Y-95996247D01*
X214086666Y-95996247D02*
X214039047Y-95901009D01*
X214039047Y-95901009D02*
X213991428Y-95853390D01*
X213991428Y-95853390D02*
X213896190Y-95805771D01*
X213896190Y-95805771D02*
X213705714Y-95805771D01*
X213705714Y-95805771D02*
X213610476Y-95853390D01*
X213610476Y-95853390D02*
X213562857Y-95901009D01*
X213562857Y-95901009D02*
X213515238Y-95996247D01*
D13*
%TO.C,R15*%
X119069800Y-92927264D02*
X119069800Y-92473136D01*
X120539800Y-92927264D02*
X120539800Y-92473136D01*
%TO.C,C13*%
X202493748Y-58455000D02*
X203016252Y-58455000D01*
X202493748Y-59925000D02*
X203016252Y-59925000D01*
%TO.C,Y1*%
X209430000Y-65615000D02*
X203030000Y-65615000D01*
X209430000Y-60565000D02*
X203030000Y-60565000D01*
X209430000Y-65615000D02*
G75*
G03*
X209430000Y-60565000I0J2525000D01*
G01*
X203030000Y-60565000D02*
G75*
G03*
X203030000Y-65615000I0J-2525000D01*
G01*
%TO.C,C5*%
X197035000Y-78368752D02*
X197035000Y-77846248D01*
X198505000Y-78368752D02*
X198505000Y-77846248D01*
%TO.C,R21*%
X117418736Y-58209200D02*
X117872864Y-58209200D01*
X117418736Y-59679200D02*
X117872864Y-59679200D01*
%TO.C,C24*%
X131332048Y-62625200D02*
X131854552Y-62625200D01*
X131332048Y-64095200D02*
X131854552Y-64095200D01*
%TO.C,C16*%
X228702300Y-68252948D02*
X228702300Y-68775452D01*
X227232300Y-68252948D02*
X227232300Y-68775452D01*
%TO.C,R14*%
X116783800Y-93054264D02*
X116783800Y-92600136D01*
X118253800Y-93054264D02*
X118253800Y-92600136D01*
%TO.C,R2*%
X182044550Y-91275014D02*
X182044550Y-90820886D01*
X183514550Y-91275014D02*
X183514550Y-90820886D01*
%TO.C,U4*%
X106472800Y-89533200D02*
X106472800Y-73293200D01*
X114092800Y-89533200D02*
X114092800Y-90143200D01*
X114092800Y-89533200D02*
X106472800Y-89533200D01*
X130712800Y-89533200D02*
X130092800Y-89533200D01*
X130712800Y-87413200D02*
X130712800Y-89533200D01*
X106472800Y-73293200D02*
X114092800Y-73293200D01*
X130092800Y-73293200D02*
X130712800Y-73293200D01*
X130712800Y-73293200D02*
X130712800Y-75413200D01*
%TO.C,U2*%
X158398800Y-59171200D02*
X158398800Y-59171200D01*
X158398800Y-59171200D02*
X158398800Y-29971200D01*
X173848800Y-59171200D02*
X158398800Y-59171200D01*
X158974800Y-58841200D02*
X158974800Y-58841200D01*
X158974800Y-58841200D02*
X158974800Y-53507200D01*
X169642800Y-58841200D02*
X158974800Y-58841200D01*
X169642800Y-58841200D02*
X169642800Y-58841200D01*
X161768800Y-58587200D02*
X161768800Y-58587200D01*
X159482800Y-56301200D02*
X161768800Y-56301200D01*
X161768800Y-56301200D02*
X161768800Y-58587200D01*
X158974800Y-53507200D02*
X169642800Y-53507200D01*
X169642800Y-53507200D02*
X169642800Y-58841200D01*
X158398800Y-29971200D02*
X173848800Y-29971200D01*
X173848800Y-29971200D02*
X173848800Y-59171200D01*
%TO.C,C17*%
X141133800Y-79724200D02*
X142383800Y-79724200D01*
X141758800Y-79099200D02*
X141758800Y-80349200D01*
X142623800Y-78188637D02*
X142623800Y-80974200D01*
X142623800Y-78188637D02*
X143688237Y-77124200D01*
X142623800Y-86779763D02*
X142623800Y-83994200D01*
X142623800Y-86779763D02*
X143688237Y-87844200D01*
X143688237Y-77124200D02*
X153343800Y-77124200D01*
X143688237Y-87844200D02*
X153343800Y-87844200D01*
X153343800Y-77124200D02*
X153343800Y-80974200D01*
X153343800Y-87844200D02*
X153343800Y-83994200D01*
%TO.C,J7*%
X212762800Y-76871700D02*
X214092800Y-76871700D01*
X212762800Y-78201700D02*
X212762800Y-76871700D01*
X212762800Y-79471700D02*
X212762800Y-87151700D01*
X212762800Y-79471700D02*
X215422800Y-79471700D01*
X212762800Y-87151700D02*
X215422800Y-87151700D01*
X215422800Y-79471700D02*
X215422800Y-87151700D01*
%TO.C,FB1*%
X197254364Y-72466700D02*
X196800236Y-72466700D01*
X197254364Y-70996700D02*
X196800236Y-70996700D01*
%TO.C,C11*%
X223942300Y-80667948D02*
X223942300Y-81190452D01*
X222472300Y-80667948D02*
X222472300Y-81190452D01*
%TO.C,C6*%
X208878752Y-82355000D02*
X208356248Y-82355000D01*
X208878752Y-80885000D02*
X208356248Y-80885000D01*
%TO.C,C7*%
X208491248Y-68225000D02*
X209013752Y-68225000D01*
X208491248Y-69695000D02*
X209013752Y-69695000D01*
%TO.C,Q2*%
X137508800Y-80673200D02*
X137508800Y-77073200D01*
X133058800Y-78873200D02*
G75*
G03*
X137497278Y-80711678I2600000J0D01*
G01*
X137497278Y-77034722D02*
G75*
G03*
X133058800Y-78873200I-1838478J-1838478D01*
G01*
%TO.C,R20*%
X112173800Y-66349136D02*
X112173800Y-66803264D01*
X110703800Y-66349136D02*
X110703800Y-66803264D01*
%TO.C,U1*%
X208587300Y-71634200D02*
X208137300Y-71634200D01*
X208137300Y-71634200D02*
X208137300Y-70344200D01*
X201367300Y-71634200D02*
X201817300Y-71634200D01*
X208587300Y-72084200D02*
X208587300Y-71634200D01*
X201367300Y-72084200D02*
X201367300Y-71634200D01*
X208587300Y-78404200D02*
X208587300Y-78854200D01*
X201367300Y-78404200D02*
X201367300Y-78854200D01*
X208587300Y-78854200D02*
X208137300Y-78854200D01*
X201367300Y-78854200D02*
X201817300Y-78854200D01*
%TO.C,C2*%
X197332300Y-68855452D02*
X197332300Y-68332948D01*
X198802300Y-68855452D02*
X198802300Y-68332948D01*
%TO.C,U7*%
X135540800Y-61870200D02*
X129530800Y-61870200D01*
X133290800Y-55050200D02*
X129530800Y-55050200D01*
X129530800Y-61870200D02*
X129530800Y-60610200D01*
X129530800Y-55050200D02*
X129530800Y-56310200D01*
%TO.C,C18*%
X177427500Y-87027500D02*
X176640000Y-87027500D01*
X177033750Y-87421250D02*
X177033750Y-86633750D01*
X176400000Y-87525563D02*
X176400000Y-86240000D01*
X176400000Y-87525563D02*
X175335563Y-88590000D01*
X176400000Y-82834437D02*
X176400000Y-84120000D01*
X176400000Y-82834437D02*
X175335563Y-81770000D01*
X175335563Y-88590000D02*
X169580000Y-88590000D01*
X175335563Y-81770000D02*
X169580000Y-81770000D01*
X169580000Y-88590000D02*
X169580000Y-86240000D01*
X169580000Y-81770000D02*
X169580000Y-84120000D01*
%TO.C,C12*%
X209971252Y-59955000D02*
X209448748Y-59955000D01*
X209971252Y-58485000D02*
X209448748Y-58485000D01*
%TO.C,J5*%
X206077300Y-94476700D02*
X204747300Y-94476700D01*
X206077300Y-93146700D02*
X206077300Y-94476700D01*
X206077300Y-91876700D02*
X206077300Y-89276700D01*
X206077300Y-91876700D02*
X203417300Y-91876700D01*
X206077300Y-89276700D02*
X203417300Y-89276700D01*
X203417300Y-91876700D02*
X203417300Y-89276700D01*
%TO.C,LED1*%
X170257800Y-93142200D02*
X170257800Y-95062200D01*
X170257800Y-95062200D02*
X173117800Y-95062200D01*
X173117800Y-93142200D02*
X170257800Y-93142200D01*
%TO.C,J11*%
X109704800Y-67757200D02*
X108374800Y-67757200D01*
X109704800Y-66427200D02*
X109704800Y-67757200D01*
X109704800Y-65157200D02*
X109704800Y-62557200D01*
X109704800Y-65157200D02*
X107044800Y-65157200D01*
X109704800Y-62557200D02*
X107044800Y-62557200D01*
X107044800Y-65157200D02*
X107044800Y-62557200D01*
%TO.C,R1*%
X201696052Y-82469200D02*
X201173548Y-82469200D01*
X201696052Y-80999200D02*
X201173548Y-80999200D01*
%TO.C,D1*%
X220747300Y-78391700D02*
X216447300Y-78391700D01*
X220747300Y-78391700D02*
X220747300Y-85801700D01*
X216447300Y-78391700D02*
X216447300Y-85801700D01*
%TO.C,R18*%
X133420800Y-85307264D02*
X133420800Y-84853136D01*
X134890800Y-85307264D02*
X134890800Y-84853136D01*
%TO.C,C1*%
X201701248Y-67015000D02*
X202223752Y-67015000D01*
X201701248Y-68485000D02*
X202223752Y-68485000D01*
%TO.C,R9*%
X226679524Y-73084200D02*
X226170076Y-73084200D01*
X226679524Y-72039200D02*
X226170076Y-72039200D01*
%TO.C,LED3*%
X115420800Y-59904200D02*
X115420800Y-57984200D01*
X115420800Y-57984200D02*
X112560800Y-57984200D01*
X112560800Y-59904200D02*
X115420800Y-59904200D01*
%TO.C,C14*%
X158064800Y-56252865D02*
X158064800Y-56484535D01*
X157344800Y-56252865D02*
X157344800Y-56484535D01*
%TO.C,R6*%
X168801576Y-59668700D02*
X169311024Y-59668700D01*
X168801576Y-60713700D02*
X169311024Y-60713700D01*
%TO.C,Q1*%
X133448800Y-88500000D02*
X133448800Y-92100000D01*
X137898800Y-90300000D02*
G75*
G03*
X133460322Y-88461522I-2600000J0D01*
G01*
X133460322Y-92138478D02*
G75*
G03*
X137898800Y-90300000I1838478J1838478D01*
G01*
%TO.C,C23*%
X137995800Y-58311448D02*
X137995800Y-58833952D01*
X136525800Y-58311448D02*
X136525800Y-58833952D01*
%TO.C,F1*%
X142242800Y-93045452D02*
X142242800Y-90272948D01*
X145662800Y-93045452D02*
X145662800Y-90272948D01*
%TO.C,C3*%
X195134800Y-68907952D02*
X195134800Y-68385448D01*
X196604800Y-68907952D02*
X196604800Y-68385448D01*
%TO.C,J4*%
X187049550Y-95912950D02*
X185719550Y-95912950D01*
X187049550Y-94582950D02*
X187049550Y-95912950D01*
X187049550Y-93312950D02*
X187049550Y-88172950D01*
X187049550Y-93312950D02*
X184389550Y-93312950D01*
X187049550Y-88172950D02*
X184389550Y-88172950D01*
X184389550Y-93312950D02*
X184389550Y-88172950D01*
%TO.C,C25*%
X194605000Y-78328752D02*
X194605000Y-77806248D01*
X196075000Y-78328752D02*
X196075000Y-77806248D01*
%TO.C,C15*%
X226112300Y-68272948D02*
X226112300Y-68795452D01*
X224642300Y-68272948D02*
X224642300Y-68795452D01*
%TO.C,J2*%
X201427300Y-94476700D02*
X200097300Y-94476700D01*
X201427300Y-93146700D02*
X201427300Y-94476700D01*
X201427300Y-91876700D02*
X201427300Y-89276700D01*
X201427300Y-91876700D02*
X198767300Y-91876700D01*
X201427300Y-89276700D02*
X198767300Y-89276700D01*
X198767300Y-91876700D02*
X198767300Y-89276700D01*
%TO.C,R16*%
X116397500Y-70747224D02*
X116397500Y-70237776D01*
X117442500Y-70747224D02*
X117442500Y-70237776D01*
%TO.C,R5*%
X164941024Y-60703700D02*
X164431576Y-60703700D01*
X164941024Y-59658700D02*
X164431576Y-59658700D01*
%TO.C,J8*%
X210577300Y-94751700D02*
X209247300Y-94751700D01*
X210577300Y-93421700D02*
X210577300Y-94751700D01*
X210577300Y-92151700D02*
X210577300Y-89551700D01*
X210577300Y-92151700D02*
X207917300Y-92151700D01*
X210577300Y-89551700D02*
X207917300Y-89551700D01*
X207917300Y-92151700D02*
X207917300Y-89551700D01*
%TO.C,C9*%
X197271052Y-82496700D02*
X196748548Y-82496700D01*
X197271052Y-81026700D02*
X196748548Y-81026700D01*
%TO.C,R17*%
X133994800Y-73741136D02*
X133994800Y-74195264D01*
X132524800Y-73741136D02*
X132524800Y-74195264D01*
%TO.C,J3*%
X188219550Y-88167950D02*
X189549550Y-88167950D01*
X188219550Y-89497950D02*
X188219550Y-88167950D01*
X188219550Y-90767950D02*
X188219550Y-95907950D01*
X188219550Y-90767950D02*
X190879550Y-90767950D01*
X188219550Y-95907950D02*
X190879550Y-95907950D01*
X190879550Y-90767950D02*
X190879550Y-95907950D01*
%TO.C,U5*%
X118770800Y-62430200D02*
X118770800Y-63155200D01*
X118045800Y-67650200D02*
X118770800Y-67650200D01*
X118045800Y-62430200D02*
X118770800Y-62430200D01*
X114275800Y-67650200D02*
X113550800Y-67650200D01*
X114275800Y-62430200D02*
X113550800Y-62430200D01*
X113550800Y-67650200D02*
X113550800Y-66925200D01*
X113550800Y-62430200D02*
X113550800Y-63155200D01*
%TO.C,R11*%
X167899864Y-94837200D02*
X167445736Y-94837200D01*
X167899864Y-93367200D02*
X167445736Y-93367200D01*
%TO.C,C4*%
X215525000Y-70378748D02*
X215525000Y-70901252D01*
X214055000Y-70378748D02*
X214055000Y-70901252D01*
%TO.C,R7*%
X166252776Y-52037500D02*
X166762224Y-52037500D01*
X166252776Y-53082500D02*
X166762224Y-53082500D01*
%TO.C,R19*%
X137430800Y-84853136D02*
X137430800Y-85307264D01*
X135960800Y-84853136D02*
X135960800Y-85307264D01*
%TO.C,C10*%
X221837300Y-80333365D02*
X221837300Y-80565035D01*
X221117300Y-80333365D02*
X221117300Y-80565035D01*
%TO.C,D2*%
X157742800Y-64412200D02*
X153442800Y-64412200D01*
X157742800Y-64412200D02*
X157742800Y-71822200D01*
X153442800Y-64412200D02*
X153442800Y-71822200D01*
%TO.C,C8*%
X213005000Y-70356248D02*
X213005000Y-70878752D01*
X211535000Y-70356248D02*
X211535000Y-70878752D01*
%TO.C,R8*%
X191465000Y-78597064D02*
X191465000Y-78142936D01*
X192935000Y-78597064D02*
X192935000Y-78142936D01*
D14*
%TO.C,L1*%
X182496600Y-67335400D02*
X179270800Y-67335400D01*
X173174800Y-67335400D02*
X169949000Y-67335400D01*
X169949000Y-67335400D02*
X169949000Y-79883000D01*
X182496600Y-79883000D02*
X182496600Y-67335400D01*
X179270800Y-79883000D02*
X182496600Y-79883000D01*
X169949000Y-79883000D02*
X173174800Y-79883000D01*
X176222800Y-66522600D02*
G75*
G03*
X176222800Y-66370200I0J76200D01*
G01*
X176222800Y-66370200D02*
G75*
G03*
X176222800Y-66522600I0J-76200D01*
G01*
D13*
%TO.C,C26*%
X208873752Y-84445000D02*
X208351248Y-84445000D01*
X208873752Y-82975000D02*
X208351248Y-82975000D01*
%TO.C,J10*%
X151634800Y-90386200D02*
X151634800Y-102606200D01*
X151634800Y-99306200D02*
X163854800Y-99306200D01*
X151634800Y-101106200D02*
X151634800Y-99306200D01*
X151634800Y-102606200D02*
X163854800Y-102606200D01*
X154244800Y-102606200D02*
X156244800Y-102606200D01*
X154494800Y-101106200D02*
X154244800Y-102606200D01*
X154944800Y-89586200D02*
X155544800Y-89586200D01*
X155244800Y-90186200D02*
X154944800Y-89586200D01*
X155544800Y-89586200D02*
X155244800Y-90186200D01*
X155994800Y-101106200D02*
X154494800Y-101106200D01*
X156244800Y-102606200D02*
X155994800Y-101106200D01*
X159244800Y-102606200D02*
X161244800Y-102606200D01*
X159494800Y-101106200D02*
X159244800Y-102606200D01*
X160994800Y-101106200D02*
X159494800Y-101106200D01*
X161244800Y-102606200D02*
X160994800Y-101106200D01*
X163854800Y-90386200D02*
X151634800Y-90386200D01*
X163854800Y-99306200D02*
X163854800Y-101106200D01*
X163854800Y-101106200D02*
X151634800Y-101106200D01*
X163854800Y-102606200D02*
X163854800Y-90386200D01*
%TO.C,J1*%
X196777300Y-94476700D02*
X195447300Y-94476700D01*
X196777300Y-93146700D02*
X196777300Y-94476700D01*
X196777300Y-91876700D02*
X196777300Y-89276700D01*
X196777300Y-91876700D02*
X194117300Y-91876700D01*
X196777300Y-89276700D02*
X194117300Y-89276700D01*
X194117300Y-91876700D02*
X194117300Y-89276700D01*
%TO.C,J9*%
X229737300Y-68751700D02*
X229737300Y-86591700D01*
X229737300Y-68751700D02*
X232397300Y-68751700D01*
X229737300Y-86591700D02*
X232397300Y-86591700D01*
X231067300Y-66151700D02*
X232397300Y-66151700D01*
X232397300Y-66151700D02*
X232397300Y-67481700D01*
X232397300Y-68751700D02*
X232397300Y-86591700D01*
%TO.C,R13*%
X124206864Y-70337200D02*
X123752736Y-70337200D01*
X124206864Y-68867200D02*
X123752736Y-68867200D01*
%TO.C,C20*%
X129321248Y-93765000D02*
X129843752Y-93765000D01*
X129321248Y-95235000D02*
X129843752Y-95235000D01*
%TO.C,D3*%
X143560800Y-54107200D02*
X139260800Y-54107200D01*
X143560800Y-54107200D02*
X143560800Y-61517200D01*
X139260800Y-54107200D02*
X139260800Y-61517200D01*
%TO.C,RESET*%
X108145800Y-91120200D02*
X114265800Y-91120200D01*
X108145800Y-94820200D02*
X108145800Y-91120200D01*
X114265800Y-91120200D02*
X114265800Y-94820200D01*
X114265800Y-94820200D02*
X108145800Y-94820200D01*
%TO.C,C19*%
X129351248Y-91475000D02*
X129873752Y-91475000D01*
X129351248Y-92945000D02*
X129873752Y-92945000D01*
%TO.C,R10*%
X226659524Y-75614200D02*
X226150076Y-75614200D01*
X226659524Y-74569200D02*
X226150076Y-74569200D01*
%TO.C,C22*%
X118121465Y-60870200D02*
X118353135Y-60870200D01*
X118121465Y-61590200D02*
X118353135Y-61590200D01*
%TO.C,C21*%
X119720800Y-62612952D02*
X119720800Y-62090448D01*
X121190800Y-62612952D02*
X121190800Y-62090448D01*
%TO.C,D_CODE*%
X122161800Y-65814200D02*
X122161800Y-59694200D01*
X125861800Y-65814200D02*
X122161800Y-65814200D01*
X122161800Y-59694200D02*
X125861800Y-59694200D01*
X125861800Y-59694200D02*
X125861800Y-65814200D01*
%TO.C,R12*%
X127689736Y-67851200D02*
X128143864Y-67851200D01*
X127689736Y-69321200D02*
X128143864Y-69321200D01*
%TO.C,LED2*%
X110478800Y-64351200D02*
X112398800Y-64351200D01*
X112398800Y-64351200D02*
X112398800Y-61491200D01*
X110478800Y-61491200D02*
X110478800Y-64351200D01*
%TO.C,U3*%
X169182800Y-67501200D02*
X164541800Y-67501200D01*
X169182800Y-67501200D02*
X169182800Y-77742200D01*
X167673800Y-67501200D02*
X167673800Y-77742200D01*
X164541800Y-67501200D02*
X164541800Y-69857200D01*
X164541800Y-69222200D02*
X161911800Y-69222200D01*
X169182800Y-70772200D02*
X167673800Y-70772200D01*
X164541800Y-71987200D02*
X164541800Y-73257200D01*
X164541800Y-72622200D02*
X161927800Y-72622200D01*
X169182800Y-74472200D02*
X167673800Y-74472200D01*
X164541800Y-75387200D02*
X164541800Y-77742200D01*
X164541800Y-76022200D02*
X161927800Y-76022200D01*
X169182800Y-77742200D02*
X164541800Y-77742200D01*
%TO.C,RESET*%
X194927300Y-83604200D02*
X201047300Y-83604200D01*
X194927300Y-87304200D02*
X194927300Y-83604200D01*
X201047300Y-83604200D02*
X201047300Y-87304200D01*
X201047300Y-87304200D02*
X194927300Y-87304200D01*
%TO.C,J6*%
X215293550Y-94794950D02*
X213963550Y-94794950D01*
X215293550Y-93464950D02*
X215293550Y-94794950D01*
X215293550Y-92194950D02*
X215293550Y-89594950D01*
X215293550Y-92194950D02*
X212633550Y-92194950D01*
X215293550Y-89594950D02*
X212633550Y-89594950D01*
X212633550Y-92194950D02*
X212633550Y-89594950D01*
%TD*%
%LPC*%
D15*
%TO.C,R15*%
X119804800Y-93700200D03*
X119804800Y-91700200D03*
%TD*%
D16*
%TO.C,C13*%
X201717500Y-59190000D03*
X203792500Y-59190000D03*
%TD*%
D17*
%TO.C,Y1*%
X208670000Y-63090000D03*
X203790000Y-63090000D03*
%TD*%
D18*
%TO.C,C5*%
X197770000Y-79145000D03*
X197770000Y-77070000D03*
%TD*%
D19*
%TO.C,R21*%
X116645800Y-58944200D03*
X118645800Y-58944200D03*
%TD*%
D16*
%TO.C,C24*%
X130555800Y-63360200D03*
X132630800Y-63360200D03*
%TD*%
D20*
%TO.C,C16*%
X227967300Y-67476700D03*
X227967300Y-69551700D03*
%TD*%
D15*
%TO.C,R14*%
X117518800Y-93827200D03*
X117518800Y-91827200D03*
%TD*%
%TO.C,R2*%
X182779550Y-92047950D03*
X182779550Y-90047950D03*
%TD*%
D21*
%TO.C,U4*%
X115092800Y-89013200D03*
X117092800Y-89013200D03*
X119092800Y-89013200D03*
X121092800Y-89013200D03*
X123092800Y-89013200D03*
X125092800Y-89013200D03*
X127092800Y-89013200D03*
X129092800Y-89013200D03*
D22*
X130592800Y-86413200D03*
X130592800Y-84413200D03*
X130592800Y-82413200D03*
X130592800Y-80413200D03*
X130592800Y-78413200D03*
X130592800Y-76413200D03*
D21*
X129092800Y-73813200D03*
X127092800Y-73813200D03*
X125092800Y-73813200D03*
X123092800Y-73813200D03*
X121092800Y-73813200D03*
X119092800Y-73813200D03*
X117092800Y-73813200D03*
X115092800Y-73813200D03*
%TD*%
D23*
%TO.C,U2*%
X160498800Y-57571200D03*
D24*
X160498800Y-55031200D03*
X163038800Y-57571200D03*
X163038800Y-55031200D03*
X165578800Y-57571200D03*
X165578800Y-55031200D03*
X168118800Y-57571200D03*
X168118800Y-55031200D03*
%TD*%
D25*
%TO.C,C17*%
X143783800Y-82484200D03*
X152183800Y-82484200D03*
%TD*%
D26*
%TO.C,J7*%
X214092800Y-78201700D03*
D27*
X214092800Y-80741700D03*
X214092800Y-83281700D03*
X214092800Y-85821700D03*
%TD*%
D28*
%TO.C,FB1*%
X198027300Y-71731700D03*
X196027300Y-71731700D03*
%TD*%
D20*
%TO.C,C11*%
X223207300Y-79891700D03*
X223207300Y-81966700D03*
%TD*%
D29*
%TO.C,C6*%
X209655000Y-81620000D03*
X207580000Y-81620000D03*
%TD*%
D16*
%TO.C,C7*%
X207715000Y-68960000D03*
X209790000Y-68960000D03*
%TD*%
D30*
%TO.C,H4*%
X111129600Y-48717200D03*
%TD*%
D31*
%TO.C,Q2*%
X135658800Y-80143200D03*
D32*
X135658800Y-78873200D03*
X135658800Y-77603200D03*
%TD*%
D33*
%TO.C,R20*%
X111438800Y-65576200D03*
X111438800Y-67576200D03*
%TD*%
D34*
%TO.C,U1*%
X207727300Y-71081700D03*
X207227300Y-71081700D03*
X206727300Y-71081700D03*
X206227300Y-71081700D03*
X205727300Y-71081700D03*
X205227300Y-71081700D03*
X204727300Y-71081700D03*
X204227300Y-71081700D03*
X203727300Y-71081700D03*
X203227300Y-71081700D03*
X202727300Y-71081700D03*
X202227300Y-71081700D03*
D35*
X200814800Y-72494200D03*
X200814800Y-72994200D03*
X200814800Y-73494200D03*
X200814800Y-73994200D03*
X200814800Y-74494200D03*
X200814800Y-74994200D03*
X200814800Y-75494200D03*
X200814800Y-75994200D03*
X200814800Y-76494200D03*
X200814800Y-76994200D03*
X200814800Y-77494200D03*
X200814800Y-77994200D03*
D34*
X202227300Y-79406700D03*
X202727300Y-79406700D03*
X203227300Y-79406700D03*
X203727300Y-79406700D03*
X204227300Y-79406700D03*
X204727300Y-79406700D03*
X205227300Y-79406700D03*
X205727300Y-79406700D03*
X206227300Y-79406700D03*
X206727300Y-79406700D03*
X207227300Y-79406700D03*
X207727300Y-79406700D03*
D35*
X209139800Y-77994200D03*
X209139800Y-77494200D03*
X209139800Y-76994200D03*
X209139800Y-76494200D03*
X209139800Y-75994200D03*
X209139800Y-75494200D03*
X209139800Y-74994200D03*
X209139800Y-74494200D03*
X209139800Y-73994200D03*
X209139800Y-73494200D03*
X209139800Y-72994200D03*
X209139800Y-72494200D03*
%TD*%
D36*
%TO.C,H2*%
X111129600Y-104902000D03*
%TD*%
D18*
%TO.C,C2*%
X198067300Y-69631700D03*
X198067300Y-67556700D03*
%TD*%
D37*
%TO.C,U7*%
X134590800Y-60760200D03*
X134590800Y-58460200D03*
D38*
X128290800Y-58460200D03*
D37*
X134590800Y-56160200D03*
%TD*%
D39*
%TO.C,C18*%
X175690000Y-85180000D03*
X170290000Y-85180000D03*
%TD*%
D29*
%TO.C,C12*%
X210747500Y-59220000D03*
X208672500Y-59220000D03*
%TD*%
D40*
%TO.C,J5*%
X204747300Y-93146700D03*
D27*
X204747300Y-90606700D03*
%TD*%
D41*
%TO.C,LED1*%
X171092800Y-94102200D03*
X173142800Y-94102200D03*
%TD*%
D40*
%TO.C,J11*%
X108374800Y-66427200D03*
D27*
X108374800Y-63887200D03*
%TD*%
D29*
%TO.C,R1*%
X202472300Y-81734200D03*
X200397300Y-81734200D03*
%TD*%
D42*
%TO.C,D1*%
X218597300Y-80401700D03*
X218597300Y-85801700D03*
%TD*%
D15*
%TO.C,R18*%
X134155800Y-86080200D03*
X134155800Y-84080200D03*
%TD*%
D16*
%TO.C,C1*%
X200925000Y-67750000D03*
X203000000Y-67750000D03*
%TD*%
D43*
%TO.C,R9*%
X227337300Y-72561700D03*
X225512300Y-72561700D03*
%TD*%
D44*
%TO.C,LED3*%
X114585800Y-58944200D03*
X112535800Y-58944200D03*
%TD*%
D45*
%TO.C,C14*%
X157704800Y-55801200D03*
X157704800Y-56936200D03*
%TD*%
D46*
%TO.C,R6*%
X168143800Y-60191200D03*
X169968800Y-60191200D03*
%TD*%
D47*
%TO.C,Q1*%
X135298800Y-89030000D03*
D32*
X135298800Y-90300000D03*
X135298800Y-91570000D03*
%TD*%
D20*
%TO.C,C23*%
X137260800Y-57535200D03*
X137260800Y-59610200D03*
%TD*%
D36*
%TO.C,H3*%
X202010800Y-104902000D03*
%TD*%
D48*
%TO.C,F1*%
X143952800Y-93884200D03*
X143952800Y-89434200D03*
%TD*%
D18*
%TO.C,C3*%
X195869800Y-69684200D03*
X195869800Y-67609200D03*
%TD*%
D40*
%TO.C,J4*%
X185719550Y-94582950D03*
D27*
X185719550Y-92042950D03*
X185719550Y-89502950D03*
%TD*%
D18*
%TO.C,C25*%
X195340000Y-79105000D03*
X195340000Y-77030000D03*
%TD*%
D20*
%TO.C,C15*%
X225377300Y-67496700D03*
X225377300Y-69571700D03*
%TD*%
D40*
%TO.C,J2*%
X200097300Y-93146700D03*
D27*
X200097300Y-90606700D03*
%TD*%
D49*
%TO.C,R16*%
X116920000Y-71405000D03*
X116920000Y-69580000D03*
%TD*%
D43*
%TO.C,R5*%
X165598800Y-60181200D03*
X163773800Y-60181200D03*
%TD*%
D40*
%TO.C,J8*%
X209247300Y-93421700D03*
D27*
X209247300Y-90881700D03*
%TD*%
D29*
%TO.C,C9*%
X198047300Y-81761700D03*
X195972300Y-81761700D03*
%TD*%
D33*
%TO.C,R17*%
X133259800Y-72968200D03*
X133259800Y-74968200D03*
%TD*%
D26*
%TO.C,J3*%
X189549550Y-89497950D03*
D27*
X189549550Y-92037950D03*
X189549550Y-94577950D03*
%TD*%
D50*
%TO.C,U5*%
X118610800Y-66540200D03*
X118610800Y-66040200D03*
X118610800Y-65540200D03*
X118610800Y-65040200D03*
X118610800Y-64540200D03*
X118610800Y-64040200D03*
X118610800Y-63540200D03*
D51*
X117660800Y-62590200D03*
X117160800Y-62590200D03*
X116660800Y-62590200D03*
X116160800Y-62590200D03*
X115660800Y-62590200D03*
X115160800Y-62590200D03*
X114660800Y-62590200D03*
D50*
X113710800Y-63540200D03*
X113710800Y-64040200D03*
X113710800Y-64540200D03*
X113710800Y-65040200D03*
X113710800Y-65540200D03*
X113710800Y-66040200D03*
X113710800Y-66540200D03*
D51*
X114660800Y-67490200D03*
X115160800Y-67490200D03*
X115660800Y-67490200D03*
X116160800Y-67490200D03*
X116660800Y-67490200D03*
X117160800Y-67490200D03*
X117660800Y-67490200D03*
D52*
X116160800Y-65040200D03*
%TD*%
D28*
%TO.C,R11*%
X168672800Y-94102200D03*
X166672800Y-94102200D03*
%TD*%
D20*
%TO.C,C4*%
X214790000Y-69602500D03*
X214790000Y-71677500D03*
%TD*%
D46*
%TO.C,R7*%
X165595000Y-52560000D03*
X167420000Y-52560000D03*
%TD*%
D33*
%TO.C,R19*%
X136695800Y-84080200D03*
X136695800Y-86080200D03*
%TD*%
D45*
%TO.C,C10*%
X221477300Y-79881700D03*
X221477300Y-81016700D03*
%TD*%
D42*
%TO.C,D2*%
X155592800Y-66422200D03*
X155592800Y-71822200D03*
%TD*%
D20*
%TO.C,C8*%
X212270000Y-69580000D03*
X212270000Y-71655000D03*
%TD*%
D15*
%TO.C,R8*%
X192200000Y-79370000D03*
X192200000Y-77370000D03*
%TD*%
D53*
%TO.C,L1*%
X176222800Y-68656200D03*
X176222800Y-78562200D03*
%TD*%
D29*
%TO.C,C26*%
X209650000Y-83710000D03*
X207575000Y-83710000D03*
%TD*%
D54*
%TO.C,J10*%
X155244800Y-92496200D03*
D55*
X160244800Y-92496200D03*
%TD*%
D40*
%TO.C,J1*%
X195447300Y-93146700D03*
D27*
X195447300Y-90606700D03*
%TD*%
D26*
%TO.C,J9*%
X231067300Y-67481700D03*
D27*
X231067300Y-70021700D03*
X231067300Y-72561700D03*
X231067300Y-75101700D03*
X231067300Y-77641700D03*
X231067300Y-80181700D03*
X231067300Y-82721700D03*
X231067300Y-85261700D03*
%TD*%
D28*
%TO.C,R13*%
X124979800Y-69602200D03*
X122979800Y-69602200D03*
%TD*%
D16*
%TO.C,C20*%
X128545000Y-94500000D03*
X130620000Y-94500000D03*
%TD*%
D42*
%TO.C,D3*%
X141410800Y-56117200D03*
X141410800Y-61517200D03*
%TD*%
D56*
%TO.C,RESET*%
X107305800Y-92970200D03*
X115105800Y-92970200D03*
%TD*%
D16*
%TO.C,C19*%
X128575000Y-92210000D03*
X130650000Y-92210000D03*
%TD*%
D43*
%TO.C,R10*%
X227317300Y-75091700D03*
X225492300Y-75091700D03*
%TD*%
D57*
%TO.C,C22*%
X117669800Y-61230200D03*
X118804800Y-61230200D03*
%TD*%
D18*
%TO.C,C21*%
X120455800Y-63389200D03*
X120455800Y-61314200D03*
%TD*%
D58*
%TO.C,D_CODE*%
X124011800Y-66654200D03*
X124011800Y-58854200D03*
%TD*%
D19*
%TO.C,R12*%
X126916800Y-68586200D03*
X128916800Y-68586200D03*
%TD*%
D59*
%TO.C,LED2*%
X111438800Y-63516200D03*
X111438800Y-61466200D03*
%TD*%
D60*
%TO.C,U3*%
X160862800Y-69222200D03*
D61*
X164562800Y-70922200D03*
X160862800Y-72622200D03*
X164562800Y-74322200D03*
X160862800Y-76022200D03*
%TD*%
D56*
%TO.C,RESET*%
X194087300Y-85454200D03*
X201887300Y-85454200D03*
%TD*%
D40*
%TO.C,J6*%
X213963550Y-93464950D03*
D27*
X213963550Y-90924950D03*
%TD*%
D30*
%TO.C,H1*%
X202010800Y-48717200D03*
%TD*%
D62*
%TO.C,J12*%
X147450000Y-55520000D03*
X152450000Y-55520000D03*
D63*
X146075000Y-52770000D03*
D64*
X146225000Y-56570000D03*
X153675000Y-56570000D03*
D63*
X153825000Y-52770000D03*
%TD*%
%LPD*%
M02*
